<?xml version="1.0" encoding="utf-8"?>
<!-- Generator: Adobe Illustrator 16.0.0, SVG Export Plug-In . SVG Version: 6.00 Build 0)  -->
<!DOCTYPE svg PUBLIC "-//W3C//DTD SVG 1.1//EN" "http://www.w3.org/Graphics/SVG/1.1/DTD/svg11.dtd">
<svg version="1.1" xmlns="http://www.w3.org/2000/svg" xmlns:xlink="http://www.w3.org/1999/xlink" x="0px" y="0px"
	 width="89.603px" height="92.106px" viewBox="0 0 89.603 92.106" enable-background="new 0 0 89.603 92.106" xml:space="preserve">
<g id="Layer_2">
</g>
<g id="Layer_1">
	<g>
		
			<rect x="34.964" y="17.957" transform="matrix(-0.7071 0.7071 -0.7071 -0.7071 92.4274 14.2299)" fill="#D1D3D4" width="16.605" height="16.6"/>
		<g>
			<path fill="#D1D3D4" d="M64.176,37.429l9.734,9.735L64.174,56.9l-9.734-9.736L64.176,37.429 M64.176,35.424l-11.74,11.74
				l11.738,11.74l11.741-11.741L64.176,35.424L64.176,35.424z"/>
		</g>
		<polygon fill="#D1D3D4" points="19.535,39.048 28.164,41.36 30.477,49.989 24.16,56.305 15.531,53.993 13.219,45.365 		"/>
		<g>
			<path fill="#D1D3D4" d="M40.867,61.537l7.048,1.889l1.888,7.048l-5.158,5.159l-7.048-1.889l-1.889-7.048L40.867,61.537
				 M40.443,59.956l-6.316,6.316l2.312,8.629l8.628,2.312l6.316-6.316l-2.312-8.629L40.443,59.956L40.443,59.956z"/>
		</g>
		<g>
			<g>
				
					<line fill="none" stroke="#A7A9AC" stroke-width="1.6582" stroke-miterlimit="10" x1="49.204" y1="32.058" x2="55.335" y2="38.189"/>
				<g>
					<polygon fill="#A7A9AC" points="53.174,38.015 55.162,38.016 55.161,36.027 56.005,36.871 56.005,38.859 54.018,38.859 					
						"/>
				</g>
			</g>
		</g>
		<g>
			<g>
				
					<line fill="none" stroke="#A7A9AC" stroke-width="1.6582" stroke-miterlimit="10" x1="58.305" y1="53.035" x2="52.174" y2="59.166"/>
				<g>
					<polygon fill="#A7A9AC" points="52.348,57.004 52.348,58.992 54.336,58.992 53.492,59.835 51.504,59.835 51.504,57.848 					
						"/>
				</g>
			</g>
		</g>
		<g>
			<g>
				
					<line fill="none" stroke="#A7A9AC" stroke-width="1.6582" stroke-miterlimit="10" x1="36.924" y1="63.475" x2="30.793" y2="57.345"/>
				<g>
					<polygon fill="#A7A9AC" points="32.955,57.519 30.967,57.519 30.967,59.507 30.123,58.663 30.123,56.675 32.111,56.675 					
						"/>
				</g>
			</g>
		</g>
	</g>
	<g>
		<path fill="#A7A9AC" d="M87.951,1.23v89.271H1.184V1.23H87.951 M89.368-0.188H-0.234v92.106h89.603V-0.188L89.368-0.188z"/>
	</g>
</g>
<g id="Layer_4">
</g>
<g id="Layer_3">
</g>
<g id="Layer_5">
</g>
<g id="Annotations">
</g>
</svg>
