<?xml version="1.0" encoding="utf-8"?>
<!-- Generator: Adobe Illustrator 16.0.0, SVG Export Plug-In . SVG Version: 6.00 Build 0)  -->
<!DOCTYPE svg PUBLIC "-//W3C//DTD SVG 1.1//EN" "http://www.w3.org/Graphics/SVG/1.1/DTD/svg11.dtd">
<svg version="1.1" xmlns="http://www.w3.org/2000/svg" xmlns:xlink="http://www.w3.org/1999/xlink" x="0px" y="0px"
	 width="89.603px" height="92.106px" viewBox="0 0 89.603 92.106" enable-background="new 0 0 89.603 92.106" xml:space="preserve">
<g id="Layer_2">
</g>
<g id="Layer_1">
	<g>
		<polyline fill="none" stroke="#A7A9AC" stroke-width="1.4173" stroke-miterlimit="10" points="2.996,22.394 2.996,91.29 
			88.901,91.29 88.901,5.386 66.838,5.386 		"/>
		<g>
			<g>
				<path fill="#939598" d="M0.889,0.372h2.16c0.293,0,0.58,0.031,0.86,0.09c0.279,0.061,0.529,0.158,0.75,0.295
					c0.22,0.137,0.397,0.316,0.534,0.535c0.137,0.221,0.205,0.494,0.205,0.82c0,0.414-0.111,0.756-0.335,1.025
					c-0.223,0.27-0.524,0.461-0.904,0.574v0.021c0.227,0.02,0.438,0.078,0.635,0.174C4.99,4.005,5.16,4.13,5.304,4.282
					c0.144,0.154,0.255,0.332,0.335,0.535s0.12,0.422,0.12,0.654c0,0.395-0.082,0.717-0.245,0.971s-0.377,0.455-0.64,0.605
					C4.61,7.198,4.313,7.302,3.983,7.362s-0.658,0.09-0.984,0.09h-2.11V0.372z M1.729,3.372h1.16c0.2,0,0.396-0.014,0.585-0.039
					c0.19-0.027,0.361-0.082,0.516-0.166c0.152-0.082,0.276-0.199,0.369-0.35c0.094-0.15,0.141-0.348,0.141-0.596
					c0-0.219-0.044-0.396-0.13-0.533C4.282,1.552,4.167,1.442,4.023,1.362S3.717,1.228,3.534,1.198
					C3.351,1.167,3.165,1.153,2.979,1.153h-1.25V3.372z M1.729,6.673h1.42c0.207,0,0.412-0.021,0.615-0.064
					c0.203-0.045,0.387-0.113,0.55-0.211c0.164-0.096,0.295-0.223,0.396-0.379c0.1-0.158,0.149-0.35,0.149-0.576
					c0-0.246-0.048-0.453-0.145-0.619c-0.097-0.168-0.224-0.301-0.38-0.4c-0.157-0.1-0.337-0.17-0.54-0.211
					C3.591,4.173,3.382,4.153,3.169,4.153h-1.44V6.673z"/>
				<path fill="#939598" d="M7.049,3.882c0-0.213-0.007-0.412-0.021-0.6c-0.013-0.186-0.02-0.355-0.02-0.51h0.74
					c0,0.127,0.003,0.254,0.01,0.381s0.01,0.256,0.01,0.389h0.021c0.053-0.113,0.128-0.223,0.225-0.33
					C8.11,3.106,8.226,3.011,8.358,2.927c0.134-0.082,0.283-0.148,0.45-0.199s0.347-0.074,0.54-0.074c0.054,0,0.106,0.002,0.16,0.01
					c0.053,0.006,0.106,0.02,0.16,0.039L9.618,3.493c-0.133-0.041-0.273-0.061-0.42-0.061c-0.479,0-0.828,0.154-1.045,0.465
					S7.828,4.632,7.828,5.173v2.279H7.049V3.882z"/>
				<path fill="#939598" d="M10.508,3.372c0.24-0.246,0.525-0.428,0.855-0.545c0.33-0.115,0.665-0.174,1.005-0.174
					c0.693,0,1.193,0.162,1.5,0.49c0.307,0.326,0.46,0.822,0.46,1.488v2.012c0,0.133,0.007,0.271,0.02,0.414
					c0.014,0.143,0.03,0.275,0.051,0.395h-0.75c-0.027-0.105-0.042-0.225-0.045-0.355c-0.004-0.129-0.006-0.244-0.006-0.344h-0.02
					c-0.153,0.24-0.358,0.436-0.615,0.59c-0.257,0.152-0.564,0.23-0.925,0.23c-0.24,0-0.465-0.031-0.675-0.09
					c-0.21-0.061-0.394-0.148-0.55-0.266c-0.157-0.117-0.282-0.262-0.375-0.436c-0.094-0.174-0.141-0.373-0.141-0.6
					c0-0.387,0.101-0.689,0.3-0.91c0.2-0.221,0.449-0.383,0.745-0.49c0.297-0.105,0.617-0.174,0.96-0.199
					c0.344-0.027,0.658-0.041,0.945-0.041h0.3V4.403c0-0.34-0.102-0.598-0.305-0.771c-0.203-0.172-0.488-0.26-0.855-0.26
					c-0.253,0-0.501,0.043-0.744,0.125c-0.244,0.084-0.459,0.213-0.646,0.385L10.508,3.372z M12.769,5.202
					c-0.5,0-0.897,0.07-1.19,0.211c-0.293,0.139-0.44,0.369-0.44,0.689c0,0.293,0.099,0.502,0.296,0.625
					c0.196,0.123,0.441,0.186,0.734,0.186c0.227,0,0.425-0.039,0.595-0.115c0.171-0.076,0.312-0.178,0.426-0.305
					c0.113-0.127,0.199-0.275,0.26-0.445c0.06-0.17,0.093-0.352,0.1-0.545V5.202H12.769z"/>
				<path fill="#939598" d="M15.648,0.942c0-0.152,0.055-0.287,0.165-0.4s0.245-0.17,0.405-0.17s0.295,0.057,0.405,0.17
					c0.109,0.113,0.164,0.248,0.164,0.4c0,0.166-0.053,0.303-0.159,0.41c-0.107,0.107-0.244,0.16-0.41,0.16
					c-0.167,0-0.304-0.053-0.41-0.16S15.648,1.108,15.648,0.942z M15.828,2.772h0.78v4.68h-0.78V2.772z"/>
				<path fill="#939598" d="M18.159,3.882c0-0.213-0.007-0.412-0.021-0.6c-0.013-0.186-0.02-0.355-0.02-0.51h0.74
					c0,0.127,0.003,0.254,0.01,0.381s0.01,0.256,0.01,0.389h0.021c0.053-0.113,0.128-0.223,0.225-0.33
					c0.097-0.105,0.212-0.201,0.345-0.285c0.134-0.082,0.283-0.148,0.45-0.199s0.347-0.074,0.54-0.074
					c0.307,0,0.571,0.047,0.795,0.139c0.224,0.094,0.408,0.225,0.555,0.391s0.255,0.369,0.325,0.605s0.105,0.494,0.105,0.775v2.889
					h-0.78V4.644c0-0.395-0.087-0.705-0.26-0.932c-0.174-0.227-0.443-0.34-0.811-0.34c-0.253,0-0.472,0.045-0.654,0.131
					c-0.184,0.086-0.334,0.209-0.45,0.369c-0.117,0.16-0.204,0.35-0.26,0.57c-0.058,0.221-0.086,0.463-0.086,0.73v2.279h-0.779
					V3.882z"/>
				<path fill="#939598" d="M31.519,7.452h-0.77l-1.33-3.6h-0.021l-1.18,3.6h-0.8l-1.521-4.68h0.86l1.07,3.6h0.02l1.21-3.6h0.82
					l1.229,3.6h0.021l1.06-3.6h0.84L31.519,7.452z"/>
				<path fill="#939598" d="M33.909,3.882c0-0.213-0.007-0.412-0.021-0.6c-0.013-0.186-0.02-0.355-0.02-0.51h0.74
					c0,0.127,0.003,0.254,0.01,0.381s0.01,0.256,0.01,0.389h0.021c0.053-0.113,0.128-0.223,0.225-0.33
					c0.097-0.105,0.212-0.201,0.345-0.285c0.134-0.082,0.283-0.148,0.45-0.199s0.347-0.074,0.54-0.074
					c0.054,0,0.106,0.002,0.16,0.01c0.053,0.006,0.106,0.02,0.16,0.039l-0.051,0.791c-0.133-0.041-0.273-0.061-0.42-0.061
					c-0.479,0-0.828,0.154-1.045,0.465s-0.325,0.734-0.325,1.275v2.279h-0.779V3.882z"/>
				<path fill="#939598" d="M37.318,0.942c0-0.152,0.055-0.287,0.165-0.4s0.245-0.17,0.405-0.17s0.295,0.057,0.405,0.17
					c0.109,0.113,0.164,0.248,0.164,0.4c0,0.166-0.053,0.303-0.159,0.41c-0.107,0.107-0.244,0.16-0.41,0.16
					c-0.167,0-0.304-0.053-0.41-0.16S37.318,1.108,37.318,0.942z M37.498,2.772h0.78v4.68h-0.78V2.772z"/>
				<path fill="#939598" d="M42.389,3.433h-1.38v2.34c0,0.154,0.003,0.295,0.01,0.426c0.007,0.129,0.033,0.242,0.08,0.34
					c0.047,0.096,0.117,0.174,0.21,0.23c0.094,0.057,0.227,0.084,0.4,0.084c0.113,0,0.229-0.014,0.35-0.039
					c0.12-0.027,0.233-0.068,0.34-0.121l0.03,0.711c-0.133,0.059-0.281,0.104-0.445,0.129c-0.163,0.027-0.318,0.041-0.465,0.041
					c-0.279,0-0.503-0.037-0.67-0.111c-0.166-0.072-0.297-0.176-0.39-0.309c-0.094-0.135-0.155-0.299-0.186-0.496
					c-0.029-0.195-0.045-0.414-0.045-0.654v-2.57h-1.02v-0.66h1.02v-1.33h0.78v1.33h1.38V3.433z"/>
				<path fill="#939598" d="M43.248,0.942c0-0.152,0.055-0.287,0.165-0.4s0.245-0.17,0.405-0.17s0.295,0.057,0.405,0.17
					c0.109,0.113,0.164,0.248,0.164,0.4c0,0.166-0.053,0.303-0.159,0.41c-0.107,0.107-0.244,0.16-0.41,0.16
					c-0.167,0-0.304-0.053-0.41-0.16S43.248,1.108,43.248,0.942z M43.428,2.772h0.78v4.68h-0.78V2.772z"/>
				<path fill="#939598" d="M45.759,3.882c0-0.213-0.007-0.412-0.021-0.6c-0.013-0.186-0.02-0.355-0.02-0.51h0.74
					c0,0.127,0.003,0.254,0.01,0.381s0.01,0.256,0.01,0.389h0.021c0.053-0.113,0.128-0.223,0.225-0.33
					c0.097-0.105,0.212-0.201,0.345-0.285c0.134-0.082,0.283-0.148,0.45-0.199s0.347-0.074,0.54-0.074
					c0.307,0,0.571,0.047,0.795,0.139c0.224,0.094,0.408,0.225,0.555,0.391s0.255,0.369,0.325,0.605s0.105,0.494,0.105,0.775v2.889
					h-0.78V4.644c0-0.395-0.087-0.705-0.26-0.932c-0.174-0.227-0.443-0.34-0.811-0.34c-0.253,0-0.472,0.045-0.654,0.131
					C47.15,3.589,47,3.712,46.884,3.872c-0.117,0.16-0.204,0.35-0.26,0.57c-0.058,0.221-0.086,0.463-0.086,0.73v2.279h-0.779V3.882z
					"/>
				<path fill="#939598" d="M55.988,7.243c0,0.854-0.219,1.502-0.655,1.945s-1.068,0.664-1.895,0.664
					c-0.46,0-0.875-0.066-1.245-0.199c-0.37-0.135-0.722-0.363-1.056-0.691l0.561-0.639c0.246,0.266,0.508,0.467,0.785,0.604
					c0.276,0.137,0.595,0.205,0.955,0.205c0.347,0,0.635-0.051,0.864-0.154c0.23-0.104,0.412-0.244,0.545-0.42
					c0.134-0.176,0.227-0.379,0.28-0.605s0.08-0.463,0.08-0.709v-0.6h-0.02c-0.188,0.299-0.431,0.52-0.73,0.658
					c-0.3,0.141-0.606,0.211-0.92,0.211c-0.366,0-0.703-0.061-1.01-0.18c-0.307-0.121-0.57-0.287-0.79-0.5s-0.391-0.467-0.51-0.76
					c-0.12-0.293-0.181-0.613-0.181-0.961c0-0.379,0.061-0.723,0.181-1.029c0.119-0.307,0.288-0.564,0.505-0.775
					c0.216-0.211,0.478-0.371,0.785-0.484c0.306-0.113,0.646-0.17,1.02-0.17c0.16,0,0.32,0.018,0.48,0.055
					c0.159,0.037,0.314,0.094,0.465,0.17c0.149,0.076,0.285,0.174,0.404,0.289c0.12,0.117,0.221,0.252,0.301,0.406h0.02V2.772h0.78
					V7.243z M51.888,5.112c0,0.24,0.044,0.463,0.131,0.666c0.086,0.203,0.204,0.379,0.354,0.529s0.325,0.268,0.525,0.355
					c0.199,0.086,0.413,0.129,0.64,0.129c0.267,0,0.503-0.047,0.71-0.139c0.207-0.094,0.382-0.219,0.525-0.375
					c0.143-0.158,0.251-0.338,0.324-0.541c0.074-0.203,0.11-0.418,0.11-0.645c0-0.254-0.04-0.484-0.12-0.695
					c-0.08-0.209-0.193-0.391-0.34-0.545c-0.146-0.152-0.323-0.271-0.53-0.355c-0.206-0.082-0.433-0.125-0.68-0.125
					s-0.472,0.045-0.675,0.135s-0.377,0.215-0.521,0.371s-0.255,0.34-0.335,0.549C51.928,4.638,51.888,4.866,51.888,5.112z"/>
				<path fill="#939598" d="M60.129,7.882l-0.63-0.25l3.01-7.68l0.63,0.24L60.129,7.882z"/>
				<path fill="#939598" d="M4.639,18.622h-0.02c-0.147,0.268-0.379,0.492-0.695,0.676s-0.685,0.275-1.105,0.275
					c-0.326,0-0.633-0.062-0.92-0.186c-0.286-0.123-0.534-0.295-0.745-0.516c-0.21-0.219-0.375-0.479-0.494-0.779
					c-0.12-0.301-0.181-0.627-0.181-0.98s0.061-0.68,0.181-0.98c0.119-0.299,0.286-0.559,0.5-0.779
					c0.213-0.221,0.471-0.391,0.774-0.516c0.304-0.123,0.639-0.184,1.005-0.184c0.34,0,0.652,0.068,0.936,0.209
					s0.531,0.338,0.745,0.59h0.02v-3.559h0.78v7.559h-0.78V18.622z M4.639,17.112c0-0.246-0.038-0.475-0.115-0.686
					c-0.076-0.209-0.188-0.393-0.335-0.549s-0.321-0.281-0.524-0.371c-0.204-0.09-0.432-0.135-0.686-0.135
					c-0.253,0-0.481,0.045-0.685,0.135s-0.379,0.215-0.525,0.371s-0.258,0.34-0.335,0.549c-0.076,0.211-0.115,0.439-0.115,0.686
					s0.039,0.475,0.115,0.686c0.077,0.209,0.188,0.393,0.335,0.549c0.146,0.158,0.322,0.281,0.525,0.371s0.432,0.135,0.685,0.135
					c0.254,0,0.481-0.045,0.686-0.135c0.203-0.09,0.378-0.213,0.524-0.371c0.146-0.156,0.259-0.34,0.335-0.549
					C4.601,17.587,4.639,17.358,4.639,17.112z"/>
				<path fill="#939598" d="M6.859,15.882c0-0.213-0.007-0.412-0.021-0.6c-0.013-0.186-0.02-0.355-0.02-0.51h0.74
					c0,0.127,0.003,0.254,0.01,0.381s0.01,0.256,0.01,0.389H7.6c0.053-0.113,0.128-0.223,0.225-0.33
					c0.097-0.105,0.212-0.201,0.345-0.285c0.134-0.082,0.283-0.148,0.45-0.199s0.347-0.074,0.54-0.074
					c0.054,0,0.106,0.002,0.16,0.01c0.053,0.006,0.106,0.02,0.16,0.039l-0.051,0.791c-0.133-0.041-0.273-0.061-0.42-0.061
					c-0.479,0-0.828,0.154-1.045,0.465s-0.325,0.734-0.325,1.275v2.279H6.859V15.882z"/>
				<path fill="#939598" d="M10.318,15.372c0.24-0.246,0.525-0.428,0.855-0.545c0.33-0.115,0.665-0.174,1.005-0.174
					c0.693,0,1.193,0.162,1.5,0.49c0.307,0.326,0.46,0.822,0.46,1.488v2.012c0,0.133,0.007,0.271,0.02,0.414
					c0.014,0.143,0.03,0.275,0.051,0.395h-0.75c-0.027-0.105-0.042-0.225-0.045-0.355c-0.004-0.129-0.006-0.244-0.006-0.344h-0.02
					c-0.153,0.24-0.358,0.436-0.615,0.59c-0.257,0.152-0.564,0.23-0.925,0.23c-0.24,0-0.465-0.031-0.675-0.09
					c-0.21-0.061-0.394-0.148-0.55-0.266c-0.157-0.117-0.282-0.262-0.375-0.436c-0.094-0.174-0.141-0.373-0.141-0.6
					c0-0.387,0.101-0.689,0.3-0.91c0.2-0.221,0.449-0.383,0.745-0.49c0.297-0.105,0.617-0.174,0.96-0.199
					c0.344-0.027,0.658-0.041,0.945-0.041h0.3v-0.139c0-0.34-0.102-0.598-0.305-0.771c-0.203-0.172-0.488-0.26-0.855-0.26
					c-0.253,0-0.501,0.043-0.744,0.125c-0.244,0.084-0.459,0.213-0.646,0.385L10.318,15.372z M12.579,17.202
					c-0.5,0-0.897,0.07-1.19,0.211c-0.293,0.139-0.44,0.369-0.44,0.689c0,0.293,0.099,0.502,0.296,0.625
					c0.196,0.123,0.441,0.186,0.734,0.186c0.227,0,0.425-0.039,0.595-0.115c0.171-0.076,0.312-0.178,0.426-0.305
					c0.113-0.127,0.199-0.275,0.26-0.445c0.06-0.17,0.093-0.352,0.1-0.545v-0.301H12.579z"/>
				<path fill="#939598" d="M20.589,19.452h-0.77l-1.33-3.6h-0.021l-1.18,3.6h-0.8l-1.521-4.68h0.86l1.07,3.6h0.02l1.21-3.6h0.82
					l1.229,3.6h0.021l1.06-3.6h0.84L20.589,19.452z"/>
				<path fill="#939598" d="M22.869,12.942c0-0.152,0.055-0.287,0.165-0.4s0.245-0.17,0.405-0.17s0.295,0.057,0.405,0.17
					c0.109,0.113,0.164,0.248,0.164,0.4c0,0.166-0.053,0.303-0.159,0.41c-0.107,0.107-0.244,0.16-0.41,0.16
					c-0.167,0-0.304-0.053-0.41-0.16S22.869,13.108,22.869,12.942z M23.049,14.772h0.78v4.68h-0.78V14.772z"/>
				<path fill="#939598" d="M25.38,15.882c0-0.213-0.007-0.412-0.021-0.6c-0.013-0.186-0.02-0.355-0.02-0.51h0.74
					c0,0.127,0.003,0.254,0.01,0.381s0.01,0.256,0.01,0.389h0.021c0.053-0.113,0.128-0.223,0.225-0.33
					c0.097-0.105,0.212-0.201,0.345-0.285c0.134-0.082,0.283-0.148,0.45-0.199s0.347-0.074,0.54-0.074
					c0.307,0,0.571,0.047,0.795,0.139c0.224,0.094,0.408,0.225,0.555,0.391s0.255,0.369,0.325,0.605s0.105,0.494,0.105,0.775v2.889
					h-0.78v-2.809c0-0.395-0.087-0.705-0.26-0.932c-0.174-0.227-0.443-0.34-0.811-0.34c-0.253,0-0.472,0.045-0.654,0.131
					c-0.184,0.086-0.334,0.209-0.45,0.369c-0.117,0.16-0.204,0.35-0.26,0.57c-0.058,0.221-0.086,0.463-0.086,0.73v2.279H25.38
					V15.882z"/>
				<path fill="#939598" d="M35.609,19.243c0,0.854-0.219,1.502-0.655,1.945s-1.068,0.664-1.895,0.664
					c-0.46,0-0.875-0.066-1.245-0.199c-0.37-0.135-0.722-0.363-1.056-0.691l0.561-0.639c0.246,0.266,0.508,0.467,0.785,0.604
					c0.276,0.137,0.595,0.205,0.955,0.205c0.347,0,0.635-0.051,0.864-0.154c0.23-0.104,0.412-0.244,0.545-0.42
					c0.134-0.176,0.227-0.379,0.28-0.605s0.08-0.463,0.08-0.709v-0.6h-0.02c-0.188,0.299-0.431,0.52-0.73,0.658
					c-0.3,0.141-0.606,0.211-0.92,0.211c-0.366,0-0.703-0.061-1.01-0.18c-0.307-0.121-0.57-0.287-0.79-0.5s-0.391-0.467-0.51-0.76
					c-0.12-0.293-0.181-0.613-0.181-0.961c0-0.379,0.061-0.723,0.181-1.029c0.119-0.307,0.288-0.564,0.505-0.775
					c0.216-0.211,0.478-0.371,0.785-0.484c0.306-0.113,0.646-0.17,1.02-0.17c0.16,0,0.32,0.018,0.48,0.055
					c0.159,0.037,0.314,0.094,0.465,0.17c0.149,0.076,0.285,0.174,0.404,0.289c0.12,0.117,0.221,0.252,0.301,0.406h0.02v-0.801h0.78
					V19.243z M31.509,17.112c0,0.24,0.044,0.463,0.131,0.666c0.086,0.203,0.204,0.379,0.354,0.529s0.325,0.268,0.525,0.355
					c0.199,0.086,0.413,0.129,0.64,0.129c0.267,0,0.503-0.047,0.71-0.139c0.207-0.094,0.382-0.219,0.525-0.375
					c0.143-0.158,0.251-0.338,0.324-0.541c0.074-0.203,0.11-0.418,0.11-0.645c0-0.254-0.04-0.484-0.12-0.695
					c-0.08-0.209-0.193-0.391-0.34-0.545c-0.146-0.152-0.323-0.271-0.53-0.355c-0.206-0.082-0.433-0.125-0.68-0.125
					s-0.472,0.045-0.675,0.135s-0.377,0.215-0.521,0.371s-0.255,0.34-0.335,0.549C31.549,16.638,31.509,16.866,31.509,17.112z"/>
			</g>
		</g>
		<g>
			<g>
				<path fill="#D3D3D3" stroke="#939598" stroke-width="1.4173" stroke-miterlimit="10" d="M21.713,47.735c0,0,0-4.258,2.396-5.324
					c2.395-1.062,3.459-4.258,5.057-5.854c1.597-1.598,1.33-2.93,4.26-2.396c2.928,0.533,5.589,3.49,7.986-0.117
					c2.394-3.609,2.717-3.609,3.887-2.545c1.17,1.066,7.558-1.234,8.355-0.617c0.799,0.617,1.865,1.416,2.662,2.213
					c0.799,0.801,0.266,2.131,3.195,2.93c2.927,0.799,5.324,1.064,5.588,1.863c0.268,0.799-1.065,1.332,0,2.928
					c1.064,1.596,1.064,3.992,1.863,4.525s2.662,1.062,3.195,2.395s-0.533,2.928,0,3.992c0.533,1.066,1.639,1.332,0.152,2.928
					c-1.482,1.598,2.68,3.338-1.664,2.998c-4.346-0.334-5.941,0.871-8.869,0c-2.928-0.867-6.921-4.594-8.783-2.73
					c-1.865,1.863-5.002,4.135-5.695,2.73c-0.694-1.4-2.557-1.133-3.887-1.934c-1.333-0.797-6.922-1.33-7.986-0.266
					c-1.064,1.066-2.663,2.539-3.726,2.199c-1.065-0.334-0.933-0.068-2.863-1.666c-1.929-1.598-4.06-3.727-5.124-3.459
					C20.649,52.794,21.713,47.735,21.713,47.735z"/>
			</g>
			<g>
				<g>
					
						<rect x="26.8" y="26.74" transform="matrix(0.9482 -0.3177 0.3177 0.9482 -14.1318 11.9047)" fill="#A7A9AC" width="5.262" height="45.074"/>
				</g>
				<path fill="#6D6E71" d="M19.784,28.771c-0.46-1.381,0.283-2.871,1.659-3.332c1.38-0.463,2.871,0.281,3.331,1.66"/>
				<polygon fill="#6D6E71" points="34.089,71.485 38.251,75.634 39.078,69.813 				"/>
			</g>
		</g>
	</g>
</g>
<g id="Layer_4">
</g>
<g id="Layer_3">
</g>
<g id="Layer_5">
</g>
<g id="Annotations">
</g>
</svg>
