<?xml version="1.0" encoding="utf-8"?>
<!-- Generator: Adobe Illustrator 16.0.0, SVG Export Plug-In . SVG Version: 6.00 Build 0)  -->
<!DOCTYPE svg PUBLIC "-//W3C//DTD SVG 1.1//EN" "http://www.w3.org/Graphics/SVG/1.1/DTD/svg11.dtd">
<svg version="1.1" xmlns="http://www.w3.org/2000/svg" xmlns:xlink="http://www.w3.org/1999/xlink" x="0px" y="0px"
	 width="89.603px" height="92.106px" viewBox="0 0 89.603 92.106" enable-background="new 0 0 89.603 92.106" xml:space="preserve">
<g id="Layer_2">
</g>
<g id="Layer_1">
	<g>
		<g>
			<path fill="#D3D3D3" stroke="#939598" stroke-width="1.4173" stroke-miterlimit="10" d="M21.162,43.321c0,0,0-4.258,2.396-5.324
				c2.395-1.062,3.459-4.258,5.057-5.854c1.597-1.598,1.33-2.93,4.26-2.396c2.928,0.533,5.589,3.49,7.986-0.117
				c2.394-3.609,2.717-3.609,3.887-2.545c1.17,1.066,7.558-1.234,8.355-0.617c0.799,0.617,1.865,1.416,2.662,2.213
				c0.799,0.801,0.266,2.131,3.195,2.93c2.927,0.799,5.324,1.064,5.588,1.863c0.268,0.799-1.065,1.332,0,2.928
				c1.064,1.596,1.064,3.992,1.863,4.525s2.662,1.062,3.195,2.395s-0.533,2.928,0,3.992c0.533,1.066,1.639,1.332,0.152,2.928
				c-1.482,1.598,2.68,3.338-1.664,2.998c-4.346-0.334-5.941,0.871-8.869,0c-2.928-0.867-6.921-4.594-8.783-2.73
				c-1.865,1.863-5.002,4.135-5.695,2.73c-0.694-1.4-2.557-1.133-3.887-1.934c-1.333-0.797-6.922-1.33-7.986-0.266
				c-1.064,1.066-2.663,2.539-3.726,2.199c-1.065-0.334-0.933-0.068-2.863-1.666c-1.929-1.598-4.06-3.727-5.124-3.459
				C20.099,48.38,21.162,43.321,21.162,43.321z"/>
		</g>
		<g>
			<g>
				
					<rect x="26.249" y="22.326" transform="matrix(0.9482 -0.3177 0.3177 0.9482 -12.7579 11.5009)" fill="#A7A9AC" width="5.262" height="45.074"/>
			</g>
			<path fill="#6D6E71" d="M19.233,24.356c-0.46-1.381,0.283-2.871,1.659-3.332c1.38-0.463,2.871,0.281,3.331,1.66"/>
			<polygon fill="#6D6E71" points="33.538,67.071 37.7,71.22 38.527,65.399 			"/>
		</g>
	</g>
	<g>
		<path fill="#A7A9AC" d="M88.186,1.417v89.271H1.417V1.417H88.186 M89.603,0H0v92.105h89.603V0L89.603,0z"/>
	</g>
</g>
<g id="Layer_4">
</g>
<g id="Layer_3">
</g>
<g id="Layer_5">
</g>
<g id="Annotations">
</g>
</svg>
