<?xml version="1.0" encoding="utf-8"?>
<!-- Generator: Adobe Illustrator 16.0.0, SVG Export Plug-In . SVG Version: 6.00 Build 0)  -->
<!DOCTYPE svg PUBLIC "-//W3C//DTD SVG 1.1//EN" "http://www.w3.org/Graphics/SVG/1.1/DTD/svg11.dtd">
<svg version="1.1" xmlns="http://www.w3.org/2000/svg" xmlns:xlink="http://www.w3.org/1999/xlink" x="0px" y="0px"
	 width="89.603px" height="92.106px" viewBox="0 0 89.603 92.106" enable-background="new 0 0 89.603 92.106" xml:space="preserve">
<g id="Layer_2">
</g>
<g id="Layer_1">
	<g>
		
			<line fill="none" stroke="#939598" stroke-width="1.4173" stroke-miterlimit="10" x1="52.612" y1="50.626" x2="66.896" y2="37.553"/>
		
			<line fill="none" stroke="#939598" stroke-width="1.4173" stroke-miterlimit="10" x1="46.989" y1="49.678" x2="46.19" y2="32.428"/>
		
			<line fill="none" stroke="#939598" stroke-width="1.4173" stroke-miterlimit="10" x1="41.489" y1="52.928" x2="22.864" y2="41.053"/>
		
			<line fill="none" stroke="#939598" stroke-width="1.4173" stroke-miterlimit="10" x1="37.521" y1="52.928" x2="14.364" y2="61.053"/>
		
			<line fill="none" stroke="#939598" stroke-width="1.4173" stroke-miterlimit="10" x1="66.896" y1="37.553" x2="65.489" y2="24.803"/>
		
			<line fill="none" stroke="#939598" stroke-width="1.4173" stroke-miterlimit="10" x1="66.896" y1="37.553" x2="79.489" y2="37.553"/>
		
			<line fill="none" stroke="#939598" stroke-width="1.4173" stroke-miterlimit="10" x1="46.19" y1="32.428" x2="59.755" y2="23.178"/>
		
			<line fill="none" stroke="#939598" stroke-width="1.4173" stroke-miterlimit="10" x1="46.19" y1="32.428" x2="36.989" y2="27.803"/>
		
			<line fill="none" stroke="#939598" stroke-width="1.4173" stroke-miterlimit="10" x1="22.864" y1="41.053" x2="36.989" y2="27.803"/>
		
			<line fill="none" stroke="#939598" stroke-width="1.4173" stroke-miterlimit="10" x1="14.364" y1="61.053" x2="10.114" y2="50.626"/>
		
			<line fill="none" stroke="#939598" stroke-width="1.4173" stroke-miterlimit="10" x1="14.364" y1="61.053" x2="18.864" y2="48.074"/>
		
			<line fill="none" stroke="#939598" stroke-width="1.4173" stroke-miterlimit="10" x1="14.364" y1="61.053" x2="10.114" y2="68.928"/>
		
			<line fill="none" stroke="#939598" stroke-width="1.4173" stroke-miterlimit="10" x1="66.896" y1="37.553" x2="74.79" y2="47.553"/>
		
			<line fill="none" stroke="#939598" stroke-width="1.4173" stroke-miterlimit="10" x1="55.739" y1="54.563" x2="72.239" y2="60.616"/>
		
			<line fill="none" stroke="#939598" stroke-width="1.4173" stroke-miterlimit="10" x1="72.239" y1="60.616" x2="74.79" y2="47.553"/>
		<circle fill="#FFFFFF" stroke="#939598" stroke-width="1.4173" stroke-miterlimit="10" cx="36.989" cy="27.803" r="2.75"/>
		<circle fill="#FFFFFF" stroke="#939598" stroke-width="1.4173" stroke-miterlimit="10" cx="46.39" cy="32.428" r="2.75"/>
		<circle fill="#FFFFFF" stroke="#939598" stroke-width="1.4173" stroke-miterlimit="10" cx="59.755" cy="23.178" r="2.75"/>
		<circle fill="#FFFFFF" stroke="#939598" stroke-width="1.4173" stroke-miterlimit="10" cx="65.489" cy="24.803" r="2.75"/>
		<circle fill="#FFFFFF" stroke="#939598" stroke-width="1.4173" stroke-miterlimit="10" cx="66.896" cy="37.553" r="2.75"/>
		<circle fill="#FFFFFF" stroke="#939598" stroke-width="1.4173" stroke-miterlimit="10" cx="79.489" cy="37.553" r="2.75"/>
		<circle fill="#FFFFFF" stroke="#939598" stroke-width="1.4173" stroke-miterlimit="10" cx="74.79" cy="46.991" r="2.75"/>
		<circle fill="#FFFFFF" stroke="#939598" stroke-width="1.4173" stroke-miterlimit="10" cx="72.04" cy="60.616" r="2.75"/>
		<circle fill="#FFFFFF" stroke="#939598" stroke-width="1.4173" stroke-miterlimit="10" cx="22.863" cy="41.053" r="2.749"/>
		<circle fill="#FFFFFF" stroke="#939598" stroke-width="1.4173" stroke-miterlimit="10" cx="13.864" cy="60.303" r="2.75"/>
		<circle fill="#FFFFFF" stroke="#939598" stroke-width="1.4173" stroke-miterlimit="10" cx="18.864" cy="48.074" r="2.75"/>
		<circle fill="#FFFFFF" stroke="#939598" stroke-width="1.4173" stroke-miterlimit="10" cx="10.114" cy="50.626" r="2.75"/>
		<circle fill="#FFFFFF" stroke="#939598" stroke-width="1.4173" stroke-miterlimit="10" cx="10.114" cy="68.928" r="2.75"/>
		<path fill="#D3D3D3" stroke="#939598" stroke-width="1.4173" stroke-miterlimit="10" d="M30.671,54.58c0,0,0-2.739,1.541-3.425
			c1.541-0.684,2.225-2.739,3.252-3.766c1.027-1.028,0.857-1.885,2.74-1.542c1.885,0.343,3.596,2.245,5.139-0.075
			c1.539-2.322,1.748-2.322,2.5-1.637s4.861-0.795,5.375-0.397s1.199,0.911,1.713,1.424c0.514,0.515,0.17,1.371,2.055,1.885
			c1.883,0.514,3.426,0.685,3.596,1.198c0.172,0.514-0.686,0.856,0,1.884c0.684,1.026,0.684,2.568,1.199,2.911
			c0.514,0.343,1.711,0.684,2.053,1.54c0.344,0.856-0.342,1.884,0,2.568c0.344,0.686,1.057,0.856,0.1,1.884
			c-0.953,1.027,1.725,2.146-1.07,1.929c-2.795-0.216-3.822,0.56-5.705,0c-1.885-0.559-4.453-2.956-5.65-1.757
			c-1.199,1.198-3.217,2.659-3.664,1.757c-0.447-0.901-1.646-0.729-2.5-1.244c-0.857-0.513-4.453-0.856-5.139-0.171
			c-0.684,0.686-1.713,1.633-2.396,1.415c-0.686-0.216-0.6-0.045-1.842-1.072c-1.24-1.028-2.611-2.397-3.295-2.226
			C29.985,57.833,30.671,54.58,30.671,54.58z"/>
	</g>
	<g>
		<path fill="#A7A9AC" d="M88.185,1.417v89.271H1.417V1.417H88.185 M89.603,0H0v92.106h89.603V0L89.603,0z"/>
	</g>
</g>
<g id="Layer_4">
</g>
<g id="Layer_3">
</g>
<g id="Layer_5">
</g>
<g id="Annotations">
</g>
</svg>
