<?xml version="1.0" encoding="utf-8"?>
<!-- Generator: Adobe Illustrator 16.0.0, SVG Export Plug-In . SVG Version: 6.00 Build 0)  -->
<!DOCTYPE svg PUBLIC "-//W3C//DTD SVG 1.1//EN" "http://www.w3.org/Graphics/SVG/1.1/DTD/svg11.dtd">
<svg version="1.1" xmlns="http://www.w3.org/2000/svg" xmlns:xlink="http://www.w3.org/1999/xlink" x="0px" y="0px"
	 width="89.603px" height="92.106px" viewBox="0 0 89.603 92.106" enable-background="new 0 0 89.603 92.106" xml:space="preserve">
<g id="Layer_2">
</g>
<g id="Layer_1">
	<g>
		<polyline fill="none" stroke="#A7A9AC" stroke-width="1.4173" stroke-miterlimit="10" points="3.004,21.998 3.004,91.396 
			88.908,91.396 88.908,5.491 73.829,5.491 		"/>
		<g>
			<g>
				<path fill="#939598" d="M0.896,0.478h2.16c0.293,0,0.58,0.03,0.86,0.09c0.279,0.061,0.529,0.158,0.75,0.295
					C4.886,0.999,5.063,1.178,5.2,1.397s0.205,0.493,0.205,0.82c0,0.413-0.111,0.755-0.335,1.024
					C4.848,3.513,4.546,3.704,4.166,3.817v0.021c0.227,0.02,0.438,0.078,0.635,0.175c0.196,0.097,0.366,0.222,0.51,0.375
					S5.565,4.72,5.646,4.923s0.12,0.422,0.12,0.654c0,0.394-0.082,0.717-0.245,0.971c-0.163,0.253-0.377,0.455-0.64,0.604
					C4.617,7.303,4.32,7.407,3.99,7.468c-0.33,0.06-0.658,0.09-0.984,0.09h-2.11V0.478z M1.735,3.478h1.16
					c0.2,0,0.396-0.014,0.585-0.04c0.19-0.026,0.361-0.081,0.516-0.165c0.152-0.083,0.276-0.2,0.369-0.35
					c0.094-0.15,0.141-0.349,0.141-0.596c0-0.22-0.044-0.397-0.13-0.534C4.289,1.656,4.174,1.548,4.03,1.468
					S3.724,1.333,3.541,1.303c-0.184-0.03-0.369-0.045-0.556-0.045h-1.25V3.478z M1.735,6.777h1.42c0.207,0,0.412-0.021,0.615-0.064
					C3.974,6.669,4.157,6.6,4.32,6.503c0.164-0.097,0.295-0.224,0.396-0.38c0.1-0.157,0.149-0.349,0.149-0.575
					c0-0.247-0.048-0.453-0.145-0.62s-0.224-0.3-0.38-0.4c-0.157-0.1-0.337-0.17-0.54-0.21s-0.412-0.06-0.625-0.06h-1.44V6.777z"/>
				<path fill="#939598" d="M11.136,6.447c0,0.214,0.006,0.414,0.02,0.601s0.021,0.356,0.021,0.51h-0.74
					c0-0.127-0.004-0.253-0.01-0.38c-0.007-0.127-0.011-0.257-0.011-0.39h-0.02c-0.054,0.113-0.129,0.223-0.225,0.329
					c-0.098,0.107-0.212,0.202-0.346,0.285c-0.133,0.084-0.283,0.15-0.45,0.2c-0.166,0.05-0.347,0.075-0.54,0.075
					c-0.307,0-0.571-0.047-0.795-0.14C7.817,7.444,7.632,7.314,7.485,7.147C7.339,6.981,7.23,6.779,7.16,6.543
					C7.091,6.306,7.056,6.048,7.056,5.768v-2.89h0.779v2.81c0,0.394,0.087,0.703,0.261,0.93c0.173,0.228,0.443,0.341,0.81,0.341
					c0.254,0,0.472-0.044,0.655-0.131c0.184-0.086,0.333-0.21,0.45-0.369c0.116-0.16,0.203-0.351,0.26-0.57s0.085-0.463,0.085-0.73
					V2.878h0.78V6.447z"/>
				<path fill="#939598" d="M12.715,6.327c0.153,0.194,0.321,0.348,0.505,0.461s0.415,0.17,0.695,0.17
					c0.12,0,0.241-0.014,0.365-0.04c0.123-0.027,0.234-0.07,0.335-0.13c0.1-0.061,0.18-0.136,0.24-0.226
					c0.06-0.09,0.09-0.198,0.09-0.325c0-0.126-0.028-0.229-0.085-0.31s-0.132-0.148-0.226-0.205c-0.093-0.057-0.2-0.102-0.319-0.135
					c-0.12-0.033-0.244-0.063-0.37-0.09c-0.221-0.047-0.431-0.101-0.63-0.16c-0.2-0.061-0.375-0.139-0.525-0.235
					s-0.271-0.222-0.36-0.375s-0.135-0.35-0.135-0.59c0-0.227,0.05-0.427,0.15-0.6c0.1-0.174,0.233-0.317,0.399-0.431
					c0.167-0.113,0.354-0.2,0.561-0.26c0.206-0.06,0.42-0.09,0.64-0.09c0.333,0,0.642,0.066,0.925,0.2
					c0.283,0.133,0.505,0.35,0.665,0.649l-0.649,0.431c-0.101-0.167-0.232-0.302-0.396-0.405s-0.361-0.155-0.595-0.155
					c-0.106,0-0.215,0.014-0.325,0.04s-0.208,0.066-0.295,0.12S13.217,3.76,13.16,3.843s-0.085,0.179-0.085,0.285
					c0,0.1,0.031,0.185,0.095,0.255c0.063,0.069,0.15,0.132,0.26,0.185c0.11,0.054,0.237,0.101,0.38,0.141
					c0.144,0.04,0.292,0.073,0.445,0.1c0.207,0.04,0.403,0.092,0.59,0.155s0.351,0.148,0.49,0.255s0.25,0.24,0.33,0.399
					c0.08,0.16,0.12,0.357,0.12,0.591c0,0.267-0.054,0.493-0.16,0.68S15.377,7.226,15.2,7.343c-0.177,0.116-0.377,0.201-0.601,0.255
					c-0.223,0.054-0.451,0.08-0.685,0.08c-0.4,0-0.745-0.062-1.035-0.186c-0.29-0.123-0.552-0.352-0.785-0.685L12.715,6.327z"/>
				<path fill="#939598" d="M16.765,1.048c0-0.153,0.055-0.287,0.165-0.4s0.245-0.17,0.405-0.17s0.295,0.057,0.405,0.17
					c0.109,0.113,0.164,0.247,0.164,0.4c0,0.166-0.053,0.303-0.159,0.41c-0.107,0.106-0.244,0.159-0.41,0.159
					c-0.167,0-0.304-0.053-0.41-0.159C16.818,1.351,16.765,1.214,16.765,1.048z M16.944,2.878h0.78v4.68h-0.78V2.878z"/>
				<path fill="#939598" d="M19.275,3.987c0-0.213-0.007-0.413-0.021-0.6c-0.013-0.187-0.02-0.356-0.02-0.51h0.74
					c0,0.126,0.003,0.253,0.01,0.38s0.01,0.257,0.01,0.39h0.021c0.053-0.113,0.128-0.223,0.225-0.33
					c0.097-0.106,0.212-0.201,0.345-0.285c0.134-0.083,0.283-0.149,0.45-0.199c0.167-0.051,0.347-0.075,0.54-0.075
					c0.307,0,0.571,0.047,0.795,0.14c0.224,0.094,0.408,0.224,0.555,0.391c0.146,0.166,0.255,0.368,0.325,0.604
					s0.105,0.495,0.105,0.775v2.89h-0.78v-2.81c0-0.394-0.087-0.704-0.26-0.931c-0.174-0.227-0.443-0.34-0.811-0.34
					c-0.253,0-0.472,0.044-0.654,0.13c-0.184,0.087-0.334,0.21-0.45,0.37c-0.117,0.16-0.204,0.35-0.26,0.57
					c-0.058,0.22-0.086,0.463-0.086,0.729v2.28h-0.779V3.987z"/>
				<path fill="#939598" d="M29.015,6.708c-0.28,0.359-0.587,0.611-0.92,0.755c-0.333,0.143-0.72,0.215-1.16,0.215
					c-0.366,0-0.696-0.065-0.99-0.195c-0.293-0.13-0.541-0.305-0.744-0.524c-0.204-0.221-0.36-0.48-0.471-0.78
					c-0.109-0.3-0.165-0.62-0.165-0.96c0-0.36,0.061-0.691,0.181-0.995c0.119-0.304,0.286-0.563,0.5-0.78
					c0.213-0.217,0.466-0.385,0.76-0.505c0.293-0.12,0.613-0.18,0.96-0.18c0.326,0,0.626,0.055,0.899,0.165
					c0.273,0.109,0.509,0.27,0.705,0.479c0.197,0.21,0.349,0.467,0.455,0.771c0.106,0.303,0.16,0.648,0.16,1.035v0.25h-3.78
					c0.014,0.199,0.062,0.392,0.146,0.574c0.083,0.184,0.191,0.344,0.325,0.48c0.133,0.137,0.29,0.245,0.47,0.325
					s0.377,0.12,0.59,0.12c0.34,0,0.627-0.061,0.86-0.181s0.443-0.296,0.63-0.529L29.015,6.708z M28.345,4.798
					c-0.014-0.4-0.144-0.721-0.39-0.96c-0.247-0.24-0.587-0.36-1.021-0.36s-0.783,0.12-1.05,0.36c-0.267,0.239-0.427,0.56-0.48,0.96
					H28.345z"/>
				<path fill="#939598" d="M30.494,6.327c0.153,0.194,0.321,0.348,0.505,0.461s0.415,0.17,0.695,0.17
					c0.12,0,0.241-0.014,0.365-0.04c0.123-0.027,0.234-0.07,0.335-0.13c0.1-0.061,0.18-0.136,0.24-0.226
					c0.06-0.09,0.09-0.198,0.09-0.325c0-0.126-0.028-0.229-0.085-0.31s-0.132-0.148-0.226-0.205c-0.093-0.057-0.2-0.102-0.319-0.135
					c-0.12-0.033-0.244-0.063-0.37-0.09c-0.221-0.047-0.431-0.101-0.63-0.16c-0.2-0.061-0.375-0.139-0.525-0.235
					s-0.271-0.222-0.36-0.375s-0.135-0.35-0.135-0.59c0-0.227,0.05-0.427,0.15-0.6c0.1-0.174,0.233-0.317,0.399-0.431
					c0.167-0.113,0.354-0.2,0.561-0.26c0.206-0.06,0.42-0.09,0.64-0.09c0.333,0,0.642,0.066,0.925,0.2
					c0.283,0.133,0.505,0.35,0.665,0.649l-0.649,0.431c-0.101-0.167-0.232-0.302-0.396-0.405s-0.361-0.155-0.595-0.155
					c-0.106,0-0.215,0.014-0.325,0.04s-0.208,0.066-0.295,0.12s-0.158,0.122-0.215,0.205s-0.085,0.179-0.085,0.285
					c0,0.1,0.031,0.185,0.095,0.255c0.063,0.069,0.15,0.132,0.26,0.185c0.11,0.054,0.237,0.101,0.38,0.141
					c0.144,0.04,0.292,0.073,0.445,0.1c0.207,0.04,0.403,0.092,0.59,0.155s0.351,0.148,0.49,0.255s0.25,0.24,0.33,0.399
					c0.08,0.16,0.12,0.357,0.12,0.591c0,0.267-0.054,0.493-0.16,0.68s-0.248,0.338-0.425,0.455
					c-0.177,0.116-0.377,0.201-0.601,0.255c-0.223,0.054-0.451,0.08-0.685,0.08c-0.4,0-0.745-0.062-1.035-0.186
					c-0.29-0.123-0.552-0.352-0.785-0.685L30.494,6.327z"/>
				<path fill="#939598" d="M34.754,6.327c0.153,0.194,0.321,0.348,0.505,0.461s0.415,0.17,0.695,0.17
					c0.12,0,0.241-0.014,0.365-0.04c0.123-0.027,0.234-0.07,0.335-0.13c0.1-0.061,0.18-0.136,0.24-0.226
					c0.06-0.09,0.09-0.198,0.09-0.325c0-0.126-0.028-0.229-0.085-0.31s-0.132-0.148-0.226-0.205c-0.093-0.057-0.2-0.102-0.319-0.135
					c-0.12-0.033-0.244-0.063-0.37-0.09c-0.221-0.047-0.431-0.101-0.63-0.16c-0.2-0.061-0.375-0.139-0.525-0.235
					s-0.271-0.222-0.36-0.375s-0.135-0.35-0.135-0.59c0-0.227,0.05-0.427,0.15-0.6c0.1-0.174,0.233-0.317,0.399-0.431
					c0.167-0.113,0.354-0.2,0.561-0.26c0.206-0.06,0.42-0.09,0.64-0.09c0.333,0,0.642,0.066,0.925,0.2
					c0.283,0.133,0.505,0.35,0.665,0.649l-0.649,0.431c-0.101-0.167-0.232-0.302-0.396-0.405s-0.361-0.155-0.595-0.155
					c-0.106,0-0.215,0.014-0.325,0.04s-0.208,0.066-0.295,0.12s-0.158,0.122-0.215,0.205s-0.085,0.179-0.085,0.285
					c0,0.1,0.031,0.185,0.095,0.255c0.063,0.069,0.15,0.132,0.26,0.185c0.11,0.054,0.237,0.101,0.38,0.141
					c0.144,0.04,0.292,0.073,0.445,0.1c0.207,0.04,0.403,0.092,0.59,0.155s0.351,0.148,0.49,0.255s0.25,0.24,0.33,0.399
					c0.08,0.16,0.12,0.357,0.12,0.591c0,0.267-0.054,0.493-0.16,0.68s-0.248,0.338-0.425,0.455
					c-0.177,0.116-0.377,0.201-0.601,0.255c-0.223,0.054-0.451,0.08-0.685,0.08c-0.4,0-0.745-0.062-1.035-0.186
					c-0.29-0.123-0.552-0.352-0.785-0.685L34.754,6.327z"/>
				<path fill="#939598" d="M41.834,0.478h1.25l2.4,5.55h0.02l2.42-5.55h1.221v7.08h-0.841v-5.94h-0.02l-2.54,5.94h-0.51l-2.54-5.94
					h-0.021v5.94h-0.84V0.478z"/>
				<path fill="#939598" d="M50.494,5.218c0-0.367,0.063-0.7,0.19-1c0.126-0.3,0.3-0.559,0.52-0.775
					c0.221-0.217,0.483-0.385,0.79-0.505s0.641-0.18,1-0.18c0.36,0,0.693,0.06,1,0.18s0.57,0.288,0.79,0.505
					c0.221,0.217,0.394,0.476,0.521,0.775c0.126,0.3,0.189,0.633,0.189,1c0,0.366-0.063,0.7-0.189,1
					c-0.127,0.3-0.3,0.559-0.521,0.774c-0.22,0.217-0.483,0.386-0.79,0.506c-0.307,0.119-0.64,0.18-1,0.18
					c-0.359,0-0.693-0.061-1-0.18c-0.307-0.12-0.569-0.289-0.79-0.506c-0.22-0.216-0.394-0.475-0.52-0.774
					C50.558,5.918,50.494,5.584,50.494,5.218z M51.334,5.218c0,0.246,0.039,0.475,0.115,0.685c0.077,0.21,0.188,0.394,0.335,0.55
					c0.146,0.157,0.322,0.28,0.525,0.37c0.203,0.091,0.432,0.136,0.685,0.136c0.254,0,0.481-0.045,0.686-0.136
					c0.203-0.09,0.378-0.213,0.524-0.37c0.146-0.156,0.259-0.34,0.335-0.55c0.077-0.21,0.115-0.438,0.115-0.685
					c0-0.247-0.038-0.476-0.115-0.686c-0.076-0.21-0.188-0.393-0.335-0.55c-0.146-0.156-0.321-0.28-0.524-0.37
					c-0.204-0.09-0.432-0.135-0.686-0.135c-0.253,0-0.481,0.045-0.685,0.135s-0.379,0.214-0.525,0.37
					c-0.146,0.157-0.258,0.34-0.335,0.55C51.373,4.742,51.334,4.971,51.334,5.218z"/>
				<path fill="#939598" d="M60.595,6.728h-0.02c-0.147,0.267-0.379,0.492-0.695,0.675c-0.316,0.184-0.685,0.275-1.105,0.275
					c-0.326,0-0.633-0.062-0.92-0.186c-0.286-0.123-0.534-0.295-0.745-0.515c-0.21-0.22-0.375-0.479-0.494-0.78
					c-0.12-0.3-0.181-0.626-0.181-0.979s0.061-0.68,0.181-0.98c0.119-0.3,0.286-0.56,0.5-0.779c0.213-0.221,0.471-0.392,0.774-0.516
					c0.304-0.123,0.639-0.185,1.005-0.185c0.34,0,0.652,0.069,0.936,0.21c0.283,0.14,0.531,0.337,0.745,0.59h0.02v-3.56h0.78v7.56
					h-0.78V6.728z M60.595,5.218c0-0.247-0.038-0.476-0.115-0.686c-0.076-0.21-0.188-0.393-0.335-0.55
					c-0.146-0.156-0.321-0.28-0.524-0.37c-0.204-0.09-0.432-0.135-0.686-0.135c-0.253,0-0.481,0.045-0.685,0.135
					s-0.379,0.214-0.525,0.37c-0.146,0.157-0.258,0.34-0.335,0.55c-0.076,0.21-0.115,0.438-0.115,0.686
					c0,0.246,0.039,0.475,0.115,0.685c0.077,0.21,0.188,0.394,0.335,0.55c0.146,0.157,0.322,0.28,0.525,0.37
					c0.203,0.091,0.432,0.136,0.685,0.136c0.254,0,0.481-0.045,0.686-0.136c0.203-0.09,0.378-0.213,0.524-0.37
					c0.146-0.156,0.259-0.34,0.335-0.55C60.557,5.692,60.595,5.464,60.595,5.218z"/>
				<path fill="#939598" d="M66.995,6.708c-0.28,0.359-0.587,0.611-0.92,0.755c-0.333,0.143-0.72,0.215-1.16,0.215
					c-0.366,0-0.696-0.065-0.99-0.195c-0.293-0.13-0.541-0.305-0.744-0.524c-0.204-0.221-0.36-0.48-0.471-0.78
					c-0.109-0.3-0.165-0.62-0.165-0.96c0-0.36,0.061-0.691,0.181-0.995c0.119-0.304,0.286-0.563,0.5-0.78
					c0.213-0.217,0.466-0.385,0.76-0.505c0.293-0.12,0.613-0.18,0.96-0.18c0.326,0,0.626,0.055,0.899,0.165
					c0.273,0.109,0.509,0.27,0.705,0.479c0.197,0.21,0.349,0.467,0.455,0.771c0.106,0.303,0.16,0.648,0.16,1.035v0.25h-3.78
					c0.014,0.199,0.062,0.392,0.146,0.574c0.083,0.184,0.191,0.344,0.325,0.48c0.133,0.137,0.29,0.245,0.47,0.325
					s0.377,0.12,0.59,0.12c0.34,0,0.627-0.061,0.86-0.181s0.443-0.296,0.63-0.529L66.995,6.708z M66.325,4.798
					c-0.014-0.4-0.144-0.721-0.39-0.96c-0.247-0.24-0.587-0.36-1.021-0.36s-0.783,0.12-1.05,0.36c-0.267,0.239-0.427,0.56-0.48,0.96
					H66.325z"/>
				<path fill="#939598" d="M68.444-0.002h0.78v7.56h-0.78V-0.002z"/>
				<path fill="#939598" d="M5.855,13.938c-0.213-0.286-0.477-0.501-0.79-0.645s-0.64-0.216-0.979-0.216
					c-0.394,0-0.755,0.08-1.085,0.24s-0.615,0.375-0.855,0.646c-0.24,0.27-0.427,0.583-0.56,0.939c-0.134,0.357-0.2,0.729-0.2,1.115
					c0,0.413,0.066,0.799,0.2,1.155c0.133,0.356,0.318,0.666,0.555,0.93s0.52,0.472,0.85,0.625s0.695,0.23,1.096,0.23
					c0.433,0,0.819-0.085,1.16-0.256c0.34-0.17,0.636-0.414,0.89-0.734l0.63,0.53c-0.32,0.427-0.705,0.739-1.155,0.939
					s-0.958,0.3-1.524,0.3c-0.507,0-0.98-0.093-1.42-0.279c-0.44-0.187-0.822-0.445-1.146-0.775s-0.576-0.722-0.76-1.175
					s-0.275-0.95-0.275-1.49c0-0.52,0.089-1.007,0.266-1.46c0.176-0.453,0.425-0.847,0.745-1.18c0.319-0.334,0.699-0.597,1.14-0.79
					c0.439-0.193,0.923-0.29,1.45-0.29c0.479,0,0.941,0.087,1.385,0.26c0.443,0.174,0.814,0.457,1.115,0.85L5.855,13.938z"/>
				<path fill="#939598" d="M7.735,15.478c0.24-0.246,0.525-0.428,0.855-0.545c0.33-0.116,0.665-0.175,1.005-0.175
					c0.693,0,1.193,0.163,1.5,0.49c0.307,0.326,0.46,0.823,0.46,1.489v2.011c0,0.133,0.007,0.271,0.02,0.415
					c0.014,0.143,0.03,0.274,0.051,0.395h-0.75c-0.027-0.106-0.042-0.225-0.045-0.355c-0.004-0.13-0.006-0.244-0.006-0.345h-0.02
					c-0.153,0.24-0.358,0.437-0.615,0.59s-0.564,0.23-0.925,0.23c-0.24,0-0.465-0.03-0.675-0.09c-0.21-0.061-0.394-0.148-0.55-0.266
					c-0.157-0.116-0.282-0.261-0.375-0.435c-0.094-0.174-0.141-0.373-0.141-0.6c0-0.387,0.101-0.69,0.3-0.91
					c0.2-0.221,0.449-0.384,0.745-0.49c0.297-0.106,0.617-0.174,0.96-0.2c0.344-0.026,0.658-0.04,0.945-0.04h0.3v-0.14
					c0-0.34-0.102-0.597-0.305-0.771c-0.203-0.173-0.488-0.26-0.855-0.26c-0.253,0-0.501,0.042-0.744,0.125
					c-0.244,0.084-0.459,0.212-0.646,0.385L7.735,15.478z M9.996,17.308c-0.5,0-0.897,0.07-1.19,0.21s-0.44,0.37-0.44,0.69
					c0,0.293,0.099,0.501,0.296,0.625c0.196,0.123,0.441,0.185,0.734,0.185c0.227,0,0.425-0.038,0.595-0.115
					c0.171-0.076,0.312-0.178,0.426-0.305c0.113-0.127,0.199-0.275,0.26-0.445c0.06-0.17,0.093-0.352,0.1-0.545v-0.3H9.996z"/>
				<path fill="#939598" d="M12.986,15.987c0-0.213-0.007-0.413-0.021-0.6c-0.013-0.187-0.02-0.356-0.02-0.51h0.74
					c0,0.126,0.003,0.253,0.01,0.38s0.01,0.257,0.01,0.39h0.021c0.053-0.113,0.128-0.223,0.225-0.33
					c0.097-0.106,0.212-0.201,0.345-0.285c0.134-0.083,0.283-0.149,0.45-0.199c0.167-0.051,0.347-0.075,0.54-0.075
					c0.307,0,0.571,0.047,0.795,0.14c0.224,0.094,0.408,0.224,0.555,0.391c0.146,0.166,0.255,0.368,0.325,0.604
					s0.105,0.495,0.105,0.775v2.89h-0.78v-2.81c0-0.394-0.087-0.704-0.26-0.931c-0.174-0.227-0.443-0.34-0.811-0.34
					c-0.253,0-0.472,0.044-0.654,0.13c-0.184,0.087-0.334,0.21-0.45,0.37c-0.117,0.16-0.204,0.35-0.26,0.57
					c-0.058,0.22-0.086,0.463-0.086,0.729v2.28h-0.779V15.987z"/>
				<path fill="#939598" d="M20.676,19.558h-0.86l-1.91-4.68h0.91l1.46,3.67h0.021l1.39-3.67h0.84L20.676,19.558z"/>
				<path fill="#939598" d="M23.306,15.478c0.24-0.246,0.525-0.428,0.855-0.545c0.33-0.116,0.665-0.175,1.005-0.175
					c0.693,0,1.193,0.163,1.5,0.49c0.307,0.326,0.46,0.823,0.46,1.489v2.011c0,0.133,0.007,0.271,0.02,0.415
					c0.014,0.143,0.03,0.274,0.051,0.395h-0.75c-0.027-0.106-0.042-0.225-0.045-0.355c-0.004-0.13-0.006-0.244-0.006-0.345h-0.02
					c-0.153,0.24-0.358,0.437-0.615,0.59s-0.564,0.23-0.925,0.23c-0.24,0-0.465-0.03-0.675-0.09c-0.21-0.061-0.394-0.148-0.55-0.266
					c-0.157-0.116-0.282-0.261-0.375-0.435c-0.094-0.174-0.141-0.373-0.141-0.6c0-0.387,0.101-0.69,0.3-0.91
					c0.2-0.221,0.449-0.384,0.745-0.49c0.297-0.106,0.617-0.174,0.96-0.2c0.344-0.026,0.658-0.04,0.945-0.04h0.3v-0.14
					c0-0.34-0.102-0.597-0.305-0.771c-0.203-0.173-0.488-0.26-0.855-0.26c-0.253,0-0.501,0.042-0.744,0.125
					c-0.244,0.084-0.459,0.212-0.646,0.385L23.306,15.478z M25.566,17.308c-0.5,0-0.897,0.07-1.19,0.21s-0.44,0.37-0.44,0.69
					c0,0.293,0.099,0.501,0.296,0.625c0.196,0.123,0.441,0.185,0.734,0.185c0.227,0,0.425-0.038,0.595-0.115
					c0.171-0.076,0.312-0.178,0.426-0.305c0.113-0.127,0.199-0.275,0.26-0.445c0.06-0.17,0.093-0.352,0.1-0.545v-0.3H25.566z"/>
				<path fill="#939598" d="M28.656,18.327c0.153,0.194,0.321,0.348,0.505,0.461s0.415,0.17,0.695,0.17
					c0.12,0,0.241-0.014,0.365-0.04c0.123-0.027,0.234-0.07,0.335-0.13c0.1-0.061,0.18-0.136,0.24-0.226
					c0.06-0.09,0.09-0.198,0.09-0.325c0-0.126-0.028-0.229-0.085-0.31s-0.132-0.148-0.226-0.205c-0.093-0.057-0.2-0.102-0.319-0.135
					c-0.12-0.033-0.244-0.063-0.37-0.09c-0.221-0.047-0.431-0.101-0.63-0.16c-0.2-0.061-0.375-0.139-0.525-0.235
					s-0.271-0.222-0.36-0.375s-0.135-0.35-0.135-0.59c0-0.227,0.05-0.427,0.15-0.6c0.1-0.174,0.233-0.317,0.399-0.431
					c0.167-0.113,0.354-0.2,0.561-0.26c0.206-0.06,0.42-0.09,0.64-0.09c0.333,0,0.642,0.066,0.925,0.2
					c0.283,0.133,0.505,0.35,0.665,0.649l-0.649,0.431c-0.101-0.167-0.232-0.302-0.396-0.405s-0.361-0.155-0.595-0.155
					c-0.106,0-0.215,0.014-0.325,0.04s-0.208,0.066-0.295,0.12s-0.158,0.122-0.215,0.205s-0.085,0.179-0.085,0.285
					c0,0.1,0.031,0.185,0.095,0.255c0.063,0.069,0.15,0.132,0.26,0.185c0.11,0.054,0.237,0.101,0.38,0.141
					c0.144,0.04,0.292,0.073,0.445,0.1c0.207,0.04,0.403,0.092,0.59,0.155s0.351,0.148,0.49,0.255s0.25,0.24,0.33,0.399
					c0.08,0.16,0.12,0.357,0.12,0.591c0,0.267-0.054,0.493-0.16,0.68s-0.248,0.338-0.425,0.455
					c-0.177,0.116-0.377,0.201-0.601,0.255c-0.223,0.054-0.451,0.08-0.685,0.08c-0.4,0-0.745-0.062-1.035-0.186
					c-0.29-0.123-0.552-0.352-0.785-0.685L28.656,18.327z"/>
			</g>
		</g>
		<g>
			<path fill="none" stroke="#939598" stroke-width="1.4173" stroke-miterlimit="10" d="M73.957,64.551
				c0,0.783-0.635,1.418-1.418,1.418H19.375c-0.783,0-1.418-0.635-1.418-1.418V32.336c0-0.783,0.635-1.418,1.418-1.418h53.164
				c0.783,0,1.418,0.635,1.418,1.418V64.551z"/>
			
				<line fill="none" stroke="#939598" stroke-width="1.4173" stroke-miterlimit="10" x1="17.957" y1="56.469" x2="73.957" y2="56.469"/>
			
				<line fill="none" stroke="#939598" stroke-width="1.4173" stroke-miterlimit="10" x1="45.957" y1="56.469" x2="45.957" y2="65.969"/>
			
				<line fill="none" stroke="#939598" stroke-width="1.4173" stroke-miterlimit="10" x1="29.157" y1="56.469" x2="29.157" y2="30.918"/>
			
				<line fill="none" stroke="#939598" stroke-width="1.4173" stroke-miterlimit="10" x1="62.757" y1="56.469" x2="62.757" y2="30.918"/>
			
				<line fill="none" stroke="#939598" stroke-width="1.4173" stroke-miterlimit="10" x1="40.357" y1="56.469" x2="40.357" y2="30.918"/>
			
				<line fill="none" stroke="#939598" stroke-width="1.4173" stroke-miterlimit="10" x1="51.557" y1="56.469" x2="51.557" y2="30.918"/>
			
				<line fill="none" stroke="#939598" stroke-width="1.4173" stroke-miterlimit="10" x1="29.157" y1="43.693" x2="40.357" y2="43.693"/>
			
				<line fill="none" stroke="#939598" stroke-width="1.4173" stroke-miterlimit="10" x1="51.557" y1="43.693" x2="62.757" y2="43.693"/>
		</g>
	</g>
</g>
<g id="Layer_4">
</g>
<g id="Layer_3">
</g>
<g id="Layer_5">
</g>
<g id="Annotations">
</g>
</svg>
