<?xml version="1.0" encoding="utf-8"?>
<!-- Generator: Adobe Illustrator 16.0.0, SVG Export Plug-In . SVG Version: 6.00 Build 0)  -->
<!DOCTYPE svg PUBLIC "-//W3C//DTD SVG 1.1//EN" "http://www.w3.org/Graphics/SVG/1.1/DTD/svg11.dtd">
<svg version="1.1" xmlns="http://www.w3.org/2000/svg" xmlns:xlink="http://www.w3.org/1999/xlink" x="0px" y="0px"
	 width="89.602px" height="92.106px" viewBox="0 0 89.602 92.106" enable-background="new 0 0 89.602 92.106" xml:space="preserve">
<g id="Layer_2">
</g>
<g id="Layer_1">
	<g>
		<path fill="#FFFFFF" stroke="#939598" stroke-width="1.4173" stroke-miterlimit="10" d="M72.801,62.161
			c0,0.783-0.635,1.418-1.418,1.418H18.219c-0.783,0-1.418-0.635-1.418-1.418V29.946c0-0.783,0.635-1.418,1.418-1.418h53.164
			c0.783,0,1.418,0.635,1.418,1.418V62.161z"/>
		
			<line fill="none" stroke="#939598" stroke-width="1.4173" stroke-miterlimit="10" x1="16.801" y1="54.079" x2="72.801" y2="54.079"/>
		
			<line fill="none" stroke="#939598" stroke-width="1.4173" stroke-miterlimit="10" x1="44.801" y1="54.079" x2="44.801" y2="63.579"/>
		
			<line fill="none" stroke="#939598" stroke-width="1.4173" stroke-miterlimit="10" x1="28.001" y1="54.079" x2="28.001" y2="28.528"/>
		
			<line fill="none" stroke="#939598" stroke-width="1.4173" stroke-miterlimit="10" x1="61.601" y1="54.079" x2="61.601" y2="28.528"/>
		
			<line fill="none" stroke="#939598" stroke-width="1.4173" stroke-miterlimit="10" x1="39.201" y1="54.079" x2="39.201" y2="28.528"/>
		<line fill="none" stroke="#939598" stroke-width="1.4173" stroke-miterlimit="10" x1="50.4" y1="54.079" x2="50.4" y2="28.528"/>
		
			<line fill="none" stroke="#939598" stroke-width="1.4173" stroke-miterlimit="10" x1="28.001" y1="41.303" x2="39.201" y2="41.303"/>
		
			<line fill="none" stroke="#939598" stroke-width="1.4173" stroke-miterlimit="10" x1="50.4" y1="41.303" x2="61.601" y2="41.303"/>
	</g>
	<g>
		<path fill="#A7A9AC" d="M88.184,1.417v89.271H1.418V1.417H88.184 M89.602,0H0v92.106h89.602V0L89.602,0z"/>
	</g>
</g>
<g id="Layer_4">
</g>
<g id="Layer_3">
</g>
<g id="Layer_5">
</g>
<g id="Annotations">
</g>
</svg>
