<?xml version="1.0" encoding="utf-8"?>
<!-- Generator: Adobe Illustrator 16.0.0, SVG Export Plug-In . SVG Version: 6.00 Build 0)  -->
<!DOCTYPE svg PUBLIC "-//W3C//DTD SVG 1.1//EN" "http://www.w3.org/Graphics/SVG/1.1/DTD/svg11.dtd">
<svg version="1.1" xmlns="http://www.w3.org/2000/svg" xmlns:xlink="http://www.w3.org/1999/xlink" x="0px" y="0px"
	 width="89.603px" height="92.106px" viewBox="0 0 89.603 92.106" enable-background="new 0 0 89.603 92.106" xml:space="preserve">
<g id="Layer_2">
</g>
<g id="Layer_1">
	<g>
		
			<rect x="12.929" y="23.382" fill="#FFFFFF" stroke="#A7A9AC" stroke-width="1.4173" stroke-miterlimit="10" width="63.746" height="45.342"/>
		<rect x="56.522" y="31.799" fill="#D3D3D3" width="8.127" height="5.837"/>
		<rect x="52.458" y="27.132" fill="#D3D3D3" width="8.127" height="5.837"/>
		<rect x="65.274" y="25.962" fill="#D3D3D3" width="8.127" height="5.837"/>
		<rect x="64.649" y="35.212" fill="#D3D3D3" width="8.129" height="5.837"/>
		<rect x="51.702" y="38.962" fill="#D3D3D3" width="8.127" height="5.837"/>
		<rect x="31.284" y="32.969" fill="#D3D3D3" width="8.129" height="5.837"/>
		<rect x="24.118" y="27.719" fill="#D3D3D3" width="8.127" height="5.837"/>
		<rect x="17.118" y="36.886" fill="#D3D3D3" width="8.127" height="5.837"/>
		<rect x="24.118" y="49.22" fill="#D3D3D3" width="8.127" height="5.837"/>
		<rect x="27.222" y="55.057" fill="#D3D3D3" width="8.127" height="5.837"/>
		<rect x="20.054" y="60.894" fill="#D3D3D3" width="8.127" height="5.837"/>
		<rect x="54.253" y="55.057" fill="#D3D3D3" width="8.129" height="5.837"/>
		<rect x="59.829" y="58.807" fill="#D3D3D3" width="8.129" height="5.837"/>
		<rect x="63.409" y="50.64" fill="#D3D3D3" width="8.127" height="5.837"/>
		<rect x="47.638" y="48.473" fill="#D3D3D3" width="8.129" height="5.837"/>
		<rect x="47.304" y="58.807" fill="#D3D3D3" width="8.129" height="5.837"/>
		<g>
			<g>
				
					<line fill="none" stroke="#A7A9AC" stroke-width="1.4173" stroke-miterlimit="10" x1="44.802" y1="68.724" x2="44.802" y2="28.405"/>
				<g>
					<polygon fill="#A7A9AC" points="46.448,29.528 44.802,23.382 43.155,29.528 					"/>
				</g>
			</g>
		</g>
		<g>
			<g>
				
					<line fill="none" stroke="#A7A9AC" stroke-width="1.4173" stroke-miterlimit="10" x1="12.929" y1="46.053" x2="71.652" y2="46.053"/>
				<g>
					<polygon fill="#A7A9AC" points="70.528,47.7 76.675,46.053 70.528,44.406 					"/>
				</g>
			</g>
		</g>
		<path fill="none" stroke="#A7A9AC" stroke-width="1.4173" stroke-miterlimit="10" stroke-dasharray="2.8347" d="M67.472,23.382"/>
		<path fill="none" stroke="#A7A9AC" stroke-width="1.4173" stroke-miterlimit="10" stroke-dasharray="2.8347" d="M22.13,68.724"/>
	</g>
	<g>
		<path fill="#A7A9AC" d="M88.186,1.417v89.271H1.417V1.417H88.186 M89.603,0H0v92.106h89.603V0L89.603,0z"/>
	</g>
</g>
<g id="Layer_4">
</g>
<g id="Layer_3">
</g>
<g id="Layer_5">
</g>
<g id="Annotations">
</g>
</svg>
