<?xml version="1.0" encoding="utf-8"?>
<!-- Generator: Adobe Illustrator 16.0.0, SVG Export Plug-In . SVG Version: 6.00 Build 0)  -->
<!DOCTYPE svg PUBLIC "-//W3C//DTD SVG 1.1//EN" "http://www.w3.org/Graphics/SVG/1.1/DTD/svg11.dtd">
<svg version="1.1" xmlns="http://www.w3.org/2000/svg" xmlns:xlink="http://www.w3.org/1999/xlink" x="0px" y="0px"
	 width="89.603px" height="92.106px" viewBox="0 0 89.603 92.106" enable-background="new 0 0 89.603 92.106" xml:space="preserve">
<g id="Layer_2">
</g>
<g id="Layer_1">
	<g>
		<rect x="57.661" y="34.188" fill="#D3D3D3" width="8.128" height="5.837"/>
		<rect x="53.597" y="29.521" fill="#D3D3D3" width="8.128" height="5.837"/>
		<rect x="66.413" y="28.352" fill="#D3D3D3" width="8.128" height="5.837"/>
		<rect x="65.789" y="37.602" fill="#D3D3D3" width="8.128" height="5.837"/>
		<rect x="52.841" y="41.352" fill="#D3D3D3" width="8.128" height="5.837"/>
		<rect x="32.424" y="35.358" fill="#D3D3D3" width="8.128" height="5.837"/>
		<rect x="25.257" y="30.108" fill="#D3D3D3" width="8.128" height="5.837"/>
		<rect x="18.257" y="39.275" fill="#D3D3D3" width="8.128" height="5.837"/>
		<rect x="25.257" y="51.609" fill="#D3D3D3" width="8.128" height="5.837"/>
		<rect x="28.36" y="57.446" fill="#D3D3D3" width="8.128" height="5.837"/>
		<rect x="21.192" y="63.283" fill="#D3D3D3" width="8.128" height="5.837"/>
		<rect x="55.393" y="57.446" fill="#D3D3D3" width="8.128" height="5.837"/>
		<rect x="60.969" y="61.196" fill="#D3D3D3" width="8.128" height="5.837"/>
		<rect x="64.548" y="53.029" fill="#D3D3D3" width="8.128" height="5.837"/>
		<rect x="48.777" y="50.862" fill="#D3D3D3" width="8.128" height="5.837"/>
		<rect x="48.443" y="61.196" fill="#D3D3D3" width="8.128" height="5.837"/>
		<polyline fill="none" stroke="#A7A9AC" stroke-width="1.4173" stroke-miterlimit="10" points="2.988,12.884 2.988,91.395 
			88.893,91.395 88.893,5.49 33.011,5.49 		"/>
		<g>
			<g>
				<path fill="#939598" d="M5.84,1.938C5.627,1.652,5.363,1.437,5.05,1.293S4.41,1.078,4.07,1.078c-0.394,0-0.755,0.08-1.085,0.24
					S2.37,1.693,2.13,1.963c-0.24,0.27-0.427,0.583-0.56,0.939c-0.134,0.357-0.2,0.729-0.2,1.115c0,0.413,0.066,0.799,0.2,1.155
					c0.133,0.356,0.318,0.666,0.555,0.93s0.52,0.472,0.85,0.625s0.695,0.23,1.096,0.23c0.433,0,0.819-0.085,1.16-0.256
					c0.34-0.17,0.636-0.414,0.89-0.734l0.63,0.53C6.43,6.925,6.045,7.238,5.595,7.438s-0.958,0.3-1.524,0.3
					c-0.507,0-0.98-0.093-1.42-0.279C2.21,7.272,1.828,7.013,1.505,6.683s-0.576-0.722-0.76-1.175S0.47,4.558,0.47,4.018
					c0-0.52,0.089-1.007,0.266-1.46C0.911,2.105,1.16,1.711,1.48,1.378C1.8,1.044,2.18,0.782,2.62,0.588
					c0.439-0.193,0.923-0.29,1.45-0.29c0.479,0,0.941,0.087,1.385,0.26C5.898,0.732,6.27,1.015,6.57,1.408L5.84,1.938z"/>
				<path fill="#939598" d="M7.48,4.798H9.93v0.72H7.48V4.798z"/>
				<path fill="#939598" d="M11.25,0.478h2.16c0.293,0,0.58,0.03,0.86,0.09c0.279,0.061,0.529,0.158,0.75,0.295
					C15.24,1,15.418,1.178,15.555,1.398s0.205,0.493,0.205,0.82c0,0.413-0.111,0.755-0.335,1.024
					c-0.223,0.271-0.524,0.462-0.904,0.575v0.021c0.227,0.02,0.438,0.078,0.635,0.175c0.196,0.097,0.366,0.222,0.51,0.375
					S15.92,4.72,16,4.923s0.12,0.422,0.12,0.654c0,0.394-0.082,0.717-0.245,0.971c-0.163,0.253-0.377,0.455-0.64,0.604
					c-0.264,0.15-0.561,0.255-0.891,0.315c-0.33,0.06-0.658,0.09-0.984,0.09h-2.11V0.478z M12.09,3.478h1.16
					c0.2,0,0.396-0.014,0.585-0.04c0.19-0.026,0.361-0.081,0.516-0.165c0.152-0.083,0.276-0.2,0.369-0.35
					c0.094-0.15,0.141-0.349,0.141-0.596c0-0.22-0.044-0.397-0.13-0.534c-0.087-0.137-0.202-0.245-0.346-0.325
					s-0.307-0.135-0.489-0.165c-0.184-0.03-0.369-0.045-0.556-0.045h-1.25V3.478z M12.09,6.778h1.42
					c0.207,0,0.412-0.021,0.615-0.064c0.203-0.044,0.387-0.113,0.55-0.21c0.164-0.097,0.295-0.224,0.396-0.38
					c0.1-0.157,0.149-0.349,0.149-0.575c0-0.247-0.048-0.453-0.145-0.62s-0.224-0.3-0.38-0.4c-0.157-0.1-0.337-0.17-0.54-0.21
					s-0.412-0.06-0.625-0.06h-1.44V6.778z"/>
				<path fill="#939598" d="M17.14,5.218c0-0.367,0.063-0.7,0.19-1c0.126-0.3,0.3-0.559,0.52-0.775
					c0.221-0.217,0.483-0.385,0.79-0.505s0.641-0.18,1-0.18c0.36,0,0.693,0.06,1,0.18s0.57,0.288,0.79,0.505
					c0.221,0.217,0.394,0.476,0.521,0.775c0.126,0.3,0.189,0.633,0.189,1c0,0.366-0.063,0.7-0.189,1
					c-0.127,0.3-0.3,0.559-0.521,0.774c-0.22,0.217-0.483,0.386-0.79,0.506c-0.307,0.119-0.64,0.18-1,0.18
					c-0.359,0-0.693-0.061-1-0.18c-0.307-0.12-0.569-0.289-0.79-0.506c-0.22-0.216-0.394-0.475-0.52-0.774
					C17.203,5.918,17.14,5.584,17.14,5.218z M17.979,5.218c0,0.246,0.039,0.475,0.115,0.685c0.077,0.21,0.188,0.394,0.335,0.55
					c0.146,0.157,0.322,0.28,0.525,0.37c0.203,0.091,0.432,0.136,0.685,0.136c0.254,0,0.481-0.045,0.686-0.136
					c0.203-0.09,0.378-0.213,0.524-0.37c0.146-0.156,0.259-0.34,0.335-0.55c0.077-0.21,0.115-0.438,0.115-0.685
					c0-0.247-0.038-0.476-0.115-0.686c-0.076-0.21-0.188-0.393-0.335-0.55c-0.146-0.156-0.321-0.28-0.524-0.37
					c-0.204-0.09-0.432-0.135-0.686-0.135c-0.253,0-0.481,0.045-0.685,0.135s-0.379,0.214-0.525,0.37
					c-0.146,0.157-0.258,0.34-0.335,0.55C18.019,4.743,17.979,4.971,17.979,5.218z"/>
				<path fill="#939598" d="M24.56,5.039l-1.681-2.16h1.021l1.24,1.68l1.17-1.68h0.95l-1.61,2.16l1.93,2.52H26.55l-1.48-2.02
					l-1.46,2.02h-0.97L24.56,5.039z"/>
			</g>
		</g>
		<g>
			<g>
				
					<line fill="none" stroke="#A7A9AC" stroke-width="1.4173" stroke-miterlimit="10" x1="45.94" y1="71.113" x2="45.94" y2="30.794"/>
				<g>
					<polygon fill="#A7A9AC" points="47.587,31.917 45.94,25.771 44.294,31.917 					"/>
				</g>
			</g>
		</g>
		<g>
			<g>
				
					<line fill="none" stroke="#A7A9AC" stroke-width="1.4173" stroke-miterlimit="10" x1="14.067" y1="48.442" x2="72.791" y2="48.442"/>
				<g>
					<polygon fill="#A7A9AC" points="71.667,50.089 77.813,48.442 71.667,46.795 					"/>
				</g>
			</g>
		</g>
		<path fill="none" stroke="#A7A9AC" stroke-width="1.4173" stroke-miterlimit="10" stroke-dasharray="2.8347" d="M68.611,25.771"/>
		<path fill="none" stroke="#A7A9AC" stroke-width="1.4173" stroke-miterlimit="10" stroke-dasharray="2.8347" d="M23.27,71.113"/>
		
			<rect x="14.067" y="25.771" fill="none" stroke="#A7A9AC" stroke-width="1.4173" stroke-miterlimit="10" width="63.746" height="45.342"/>
	</g>
</g>
<g id="Layer_4">
</g>
<g id="Layer_3">
</g>
<g id="Layer_5">
</g>
<g id="Annotations">
</g>
</svg>
