<?xml version="1.0" encoding="utf-8"?>
<!-- Generator: Adobe Illustrator 16.0.0, SVG Export Plug-In . SVG Version: 6.00 Build 0)  -->
<!DOCTYPE svg PUBLIC "-//W3C//DTD SVG 1.1//EN" "http://www.w3.org/Graphics/SVG/1.1/DTD/svg11.dtd">
<svg version="1.1" xmlns="http://www.w3.org/2000/svg" xmlns:xlink="http://www.w3.org/1999/xlink" x="0px" y="0px"
	 width="89.603px" height="92.106px" viewBox="0 0 89.603 92.106" enable-background="new 0 0 89.603 92.106" xml:space="preserve">
<g id="Layer_2">
</g>
<g id="Layer_1">
	<g>
		
			<rect x="24.318" y="20.553" fill="none" stroke="#939598" stroke-width="1.4173" stroke-miterlimit="10" width="40.967" height="51"/>
		<ellipse fill="#D3D3D3" cx="33.478" cy="35.553" rx="7.708" ry="6.957"/>
		<ellipse fill="#939598" cx="54.468" cy="28.596" rx="4.968" ry="6.957"/>
		<g>
			<g>
				<polyline fill="none" stroke="#939598" stroke-width="1.4173" stroke-miterlimit="10" points="43.703,35.637 43.703,32.802 
					46.537,32.802 				"/>
				<polyline fill="none" stroke="#939598" stroke-width="1.4173" stroke-miterlimit="10" points="51.633,32.802 54.467,32.802 
					54.467,35.637 				"/>
				<polyline fill="none" stroke="#939598" stroke-width="1.4173" stroke-miterlimit="10" points="54.467,41.052 54.467,43.886 
					51.633,43.886 				"/>
				<polyline fill="none" stroke="#939598" stroke-width="1.4173" stroke-miterlimit="10" points="46.537,43.886 43.703,43.886 
					43.703,41.052 				"/>
			</g>
		</g>
		<rect x="49.5" y="47.85" fill="#D3D3D3" width="11.684" height="14.424"/>
		<g>
			
				<ellipse fill="none" stroke="#939598" stroke-width="1.4173" stroke-miterlimit="10" stroke-dasharray="1.4233,1.4233" cx="46.115" cy="59.886" rx="5.996" ry="6.696"/>
		</g>
		
			<rect x="35.438" y="42.51" fill="#FFFFFF" stroke="#939598" stroke-width="1.4173" stroke-miterlimit="10" width="9.363" height="16.086"/>
	</g>
	<g>
		<path fill="#A7A9AC" d="M88.186,1.417v89.271H1.418V1.417H88.186 M89.603,0H0v92.106h89.603V0L89.603,0z"/>
	</g>
</g>
<g id="Layer_4">
</g>
<g id="Layer_3">
</g>
<g id="Layer_5">
</g>
<g id="Annotations">
</g>
</svg>
