<?xml version="1.0" encoding="utf-8"?>
<!-- Generator: Adobe Illustrator 16.0.0, SVG Export Plug-In . SVG Version: 6.00 Build 0)  -->
<!DOCTYPE svg PUBLIC "-//W3C//DTD SVG 1.1//EN" "http://www.w3.org/Graphics/SVG/1.1/DTD/svg11.dtd">
<svg version="1.1" xmlns="http://www.w3.org/2000/svg" xmlns:xlink="http://www.w3.org/1999/xlink" x="0px" y="0px"
	 width="89.603px" height="92.106px" viewBox="0 0 89.603 92.106" enable-background="new 0 0 89.603 92.106" xml:space="preserve">
<g id="Layer_2">
</g>
<g id="Layer_1">
	<g>
		<polyline fill="none" stroke="#A7A9AC" stroke-width="1.4173" stroke-miterlimit="10" points="2.986,10.646 2.986,91.396 
			88.891,91.396 88.891,5.491 39.469,5.491 		"/>
		<g>
			<g>
				<path fill="#939598" d="M5.838,1.938c-0.213-0.286-0.477-0.501-0.79-0.645s-0.64-0.216-0.979-0.216
					c-0.394,0-0.755,0.08-1.085,0.24S2.368,1.693,2.128,1.964c-0.24,0.27-0.427,0.583-0.56,0.939c-0.134,0.357-0.2,0.729-0.2,1.115
					c0,0.413,0.066,0.799,0.2,1.155C1.701,5.53,1.887,5.84,2.123,6.104s0.52,0.472,0.85,0.625s0.695,0.23,1.096,0.23
					c0.433,0,0.819-0.085,1.16-0.256c0.34-0.17,0.636-0.414,0.89-0.734l0.63,0.53c-0.32,0.427-0.705,0.739-1.155,0.939
					s-0.958,0.3-1.524,0.3c-0.507,0-0.98-0.093-1.42-0.279c-0.44-0.187-0.822-0.445-1.146-0.775s-0.576-0.722-0.76-1.175
					s-0.275-0.95-0.275-1.49c0-0.52,0.089-1.007,0.266-1.46c0.176-0.453,0.425-0.847,0.745-1.18c0.319-0.334,0.699-0.597,1.14-0.79
					c0.439-0.193,0.923-0.29,1.45-0.29c0.479,0,0.941,0.087,1.385,0.26c0.443,0.174,0.814,0.457,1.115,0.85L5.838,1.938z"/>
				<path fill="#939598" d="M7.508,5.219c0-0.367,0.063-0.7,0.19-1c0.126-0.3,0.3-0.559,0.52-0.775
					c0.221-0.217,0.483-0.385,0.79-0.505s0.641-0.18,1-0.18c0.36,0,0.693,0.06,1,0.18s0.57,0.288,0.79,0.505
					c0.221,0.217,0.394,0.476,0.521,0.775c0.126,0.3,0.189,0.633,0.189,1c0,0.366-0.063,0.7-0.189,1
					c-0.127,0.3-0.3,0.559-0.521,0.774c-0.22,0.217-0.483,0.386-0.79,0.506c-0.307,0.119-0.64,0.18-1,0.18
					c-0.359,0-0.693-0.061-1-0.18c-0.307-0.12-0.569-0.289-0.79-0.506c-0.22-0.216-0.394-0.475-0.52-0.774
					C7.571,5.919,7.508,5.585,7.508,5.219z M8.348,5.219c0,0.246,0.039,0.475,0.115,0.685c0.077,0.21,0.188,0.394,0.335,0.55
					c0.146,0.157,0.322,0.28,0.525,0.37c0.203,0.091,0.432,0.136,0.685,0.136c0.254,0,0.481-0.045,0.686-0.136
					c0.203-0.09,0.378-0.213,0.524-0.37c0.146-0.156,0.259-0.34,0.335-0.55c0.077-0.21,0.115-0.438,0.115-0.685
					c0-0.247-0.038-0.476-0.115-0.686c-0.076-0.21-0.188-0.393-0.335-0.55c-0.146-0.156-0.321-0.28-0.524-0.37
					c-0.204-0.09-0.432-0.135-0.686-0.135c-0.253,0-0.481,0.045-0.685,0.135s-0.379,0.214-0.525,0.37
					c-0.146,0.157-0.258,0.34-0.335,0.55C8.387,4.743,8.348,4.972,8.348,5.219z"/>
				<path fill="#939598" d="M13.788-0.001h0.78v7.56h-0.78V-0.001z"/>
				<path fill="#939598" d="M16.198-0.001h0.78v7.56h-0.78V-0.001z"/>
				<path fill="#939598" d="M18.469,3.479c0.24-0.246,0.525-0.428,0.855-0.545c0.33-0.116,0.665-0.175,1.005-0.175
					c0.693,0,1.193,0.163,1.5,0.49c0.307,0.326,0.46,0.823,0.46,1.489v2.011c0,0.133,0.007,0.271,0.02,0.415
					c0.014,0.143,0.03,0.274,0.051,0.395h-0.75c-0.027-0.106-0.042-0.225-0.045-0.355c-0.004-0.13-0.006-0.244-0.006-0.345h-0.02
					c-0.153,0.24-0.358,0.437-0.615,0.59s-0.564,0.23-0.925,0.23c-0.24,0-0.465-0.03-0.675-0.09c-0.21-0.061-0.394-0.148-0.55-0.266
					c-0.157-0.116-0.282-0.261-0.375-0.435c-0.094-0.174-0.141-0.373-0.141-0.6c0-0.387,0.101-0.69,0.3-0.91
					c0.2-0.221,0.449-0.384,0.745-0.49c0.297-0.106,0.617-0.174,0.96-0.2c0.344-0.026,0.658-0.04,0.945-0.04h0.3v-0.14
					c0-0.34-0.102-0.597-0.305-0.771c-0.203-0.173-0.488-0.26-0.855-0.26c-0.253,0-0.501,0.042-0.744,0.125
					c-0.244,0.084-0.459,0.212-0.646,0.385L18.469,3.479z M20.729,5.309c-0.5,0-0.897,0.07-1.19,0.21s-0.44,0.37-0.44,0.69
					c0,0.293,0.099,0.501,0.296,0.625c0.196,0.123,0.441,0.185,0.734,0.185c0.227,0,0.425-0.038,0.595-0.115
					c0.171-0.076,0.312-0.178,0.426-0.305c0.113-0.127,0.199-0.275,0.26-0.445c0.06-0.17,0.093-0.352,0.1-0.545v-0.3H20.729z"/>
				<path fill="#939598" d="M28.39,7.349c0,0.854-0.219,1.502-0.655,1.945s-1.068,0.665-1.895,0.665c-0.46,0-0.875-0.067-1.245-0.2
					c-0.37-0.134-0.722-0.363-1.056-0.69l0.561-0.64c0.246,0.267,0.508,0.468,0.785,0.604c0.276,0.137,0.595,0.205,0.955,0.205
					c0.347,0,0.635-0.052,0.864-0.154c0.23-0.104,0.412-0.244,0.545-0.42c0.134-0.177,0.227-0.379,0.28-0.605s0.08-0.464,0.08-0.71
					v-0.6h-0.02c-0.188,0.3-0.431,0.52-0.73,0.659c-0.3,0.141-0.606,0.21-0.92,0.21c-0.366,0-0.703-0.06-1.01-0.18
					s-0.57-0.286-0.79-0.5c-0.22-0.213-0.391-0.467-0.51-0.76c-0.12-0.293-0.181-0.613-0.181-0.96c0-0.38,0.061-0.724,0.181-1.03
					c0.119-0.307,0.288-0.564,0.505-0.774c0.216-0.211,0.478-0.372,0.785-0.485c0.306-0.113,0.646-0.17,1.02-0.17
					c0.16,0,0.32,0.019,0.48,0.055c0.159,0.037,0.314,0.094,0.465,0.17c0.149,0.077,0.285,0.174,0.404,0.29
					c0.12,0.117,0.221,0.252,0.301,0.405h0.02v-0.8h0.78V7.349z M24.289,5.219c0,0.24,0.044,0.462,0.131,0.665
					c0.086,0.203,0.204,0.38,0.354,0.53c0.15,0.149,0.325,0.268,0.525,0.354c0.199,0.087,0.413,0.13,0.64,0.13
					c0.267,0,0.503-0.047,0.71-0.14c0.207-0.094,0.382-0.219,0.525-0.375c0.143-0.157,0.251-0.337,0.324-0.54
					c0.074-0.203,0.11-0.418,0.11-0.646c0-0.253-0.04-0.484-0.12-0.694s-0.193-0.392-0.34-0.545s-0.323-0.271-0.53-0.355
					c-0.206-0.083-0.433-0.125-0.68-0.125s-0.472,0.045-0.675,0.135s-0.377,0.214-0.521,0.37c-0.144,0.157-0.255,0.34-0.335,0.55
					S24.289,4.972,24.289,5.219z"/>
				<path fill="#939598" d="M34.01,6.709c-0.28,0.359-0.587,0.611-0.92,0.755c-0.333,0.143-0.72,0.215-1.16,0.215
					c-0.366,0-0.696-0.065-0.99-0.195c-0.293-0.13-0.541-0.305-0.744-0.524c-0.204-0.221-0.36-0.48-0.471-0.78
					c-0.109-0.3-0.165-0.62-0.165-0.96c0-0.36,0.061-0.691,0.181-0.995c0.119-0.304,0.286-0.563,0.5-0.78
					c0.213-0.217,0.466-0.385,0.76-0.505c0.293-0.12,0.613-0.18,0.96-0.18c0.326,0,0.626,0.055,0.899,0.165
					c0.273,0.109,0.509,0.27,0.705,0.479c0.197,0.21,0.349,0.467,0.455,0.771c0.106,0.303,0.16,0.648,0.16,1.035v0.25h-3.78
					c0.014,0.199,0.062,0.392,0.146,0.574c0.083,0.184,0.191,0.344,0.325,0.48c0.133,0.137,0.29,0.245,0.47,0.325
					s0.377,0.12,0.59,0.12c0.34,0,0.627-0.061,0.86-0.181s0.443-0.296,0.63-0.529L34.01,6.709z M33.34,4.799
					c-0.014-0.4-0.144-0.721-0.39-0.96c-0.247-0.24-0.587-0.36-1.021-0.36s-0.783,0.12-1.05,0.36c-0.267,0.239-0.427,0.56-0.48,0.96
					H33.34z"/>
			</g>
		</g>
		
			<rect x="25.059" y="21.146" fill="none" stroke="#939598" stroke-width="1.4173" stroke-miterlimit="10" width="40.967" height="51"/>
		<ellipse fill="#D3D3D3" cx="34.218" cy="36.146" rx="7.708" ry="6.957"/>
		<ellipse fill="#939598" cx="55.208" cy="29.189" rx="4.968" ry="6.957"/>
		<g>
			<g>
				<polyline fill="none" stroke="#939598" stroke-width="1.4173" stroke-miterlimit="10" points="44.444,36.23 44.444,33.396 
					47.279,33.396 				"/>
				<polyline fill="none" stroke="#939598" stroke-width="1.4173" stroke-miterlimit="10" points="52.373,33.396 55.208,33.396 
					55.208,36.23 				"/>
				<polyline fill="none" stroke="#939598" stroke-width="1.4173" stroke-miterlimit="10" points="55.208,41.645 55.208,44.479 
					52.373,44.479 				"/>
				<polyline fill="none" stroke="#939598" stroke-width="1.4173" stroke-miterlimit="10" points="47.279,44.479 44.444,44.479 
					44.444,41.645 				"/>
			</g>
		</g>
		<rect x="50.24" y="48.443" fill="#D3D3D3" width="11.684" height="14.424"/>
		<g>
			
				<ellipse fill="none" stroke="#939598" stroke-width="1.4173" stroke-miterlimit="10" stroke-dasharray="1.4233,1.4233" cx="46.856" cy="60.479" rx="5.996" ry="6.696"/>
		</g>
		
			<rect x="36.179" y="43.104" fill="#FFFFFF" stroke="#939598" stroke-width="1.4173" stroke-miterlimit="10" width="9.363" height="16.086"/>
	</g>
</g>
<g id="Layer_4">
</g>
<g id="Layer_3">
</g>
<g id="Layer_5">
</g>
<g id="Annotations">
</g>
</svg>
