<?xml version="1.0" encoding="utf-8"?>
<!-- Generator: Adobe Illustrator 16.0.0, SVG Export Plug-In . SVG Version: 6.00 Build 0)  -->
<!DOCTYPE svg PUBLIC "-//W3C//DTD SVG 1.1//EN" "http://www.w3.org/Graphics/SVG/1.1/DTD/svg11.dtd">
<svg version="1.1" xmlns="http://www.w3.org/2000/svg" xmlns:xlink="http://www.w3.org/1999/xlink" x="0px" y="0px"
	 width="89.603px" height="92.106px" viewBox="0 0 89.603 92.106" enable-background="new 0 0 89.603 92.106" xml:space="preserve">
<g id="Layer_2">
</g>
<g id="Layer_1">
	<g>
		<path fill="#A7A9AC" d="M60.825,45.756c0-7.914-6.416-14.332-14.33-14.332c-7.916,0-14.332,6.418-14.332,14.332"/>
		<path fill="none" stroke="#A7A9AC" stroke-width="1.4173" stroke-miterlimit="10" d="M65.642,32.07c0-0.729-0.592-1.32-1.32-1.32
			h-3.348c-0.729,0-1.32,0.591-1.32,1.32v4.539c0,0.729,0.592,1.32,1.32,1.32h3.348c0.729,0,1.32-0.591,1.32-1.32V32.07z"/>
		<path fill="#FFFFFF" stroke="#A7A9AC" stroke-width="1.4173" stroke-miterlimit="10" d="M69.161,54.089
			c0,1.565-1.27,2.835-2.834,2.835H26.663c-1.564,0-2.834-1.27-2.834-2.835V37.175c0-1.565,1.27-2.835,2.834-2.835h39.664
			c1.564,0,2.834,1.27,2.834,2.835V54.089z"/>
		<circle fill="#A7A9AC" cx="46.495" cy="45.632" r="9.332"/>
		<g>
			<g>
				
					<rect x="27.593" y="22.327" transform="matrix(0.9483 -0.3175 0.3175 0.9483 -12.6805 11.918)" fill="#A7A9AC" width="5.263" height="45.073"/>
			</g>
			<path fill="#6D6E71" d="M20.577,24.356c-0.459-1.381,0.283-2.872,1.66-3.332c1.379-0.463,2.871,0.28,3.33,1.66"/>
			<polygon fill="#6D6E71" points="34.882,67.07 39.044,71.22 39.872,65.399 			"/>
		</g>
	</g>
	<g>
		<path fill="#A7A9AC" d="M88.186,1.417v89.271H1.417V1.417H88.186 M89.603,0H0v92.105h89.603V0L89.603,0z"/>
	</g>
</g>
<g id="Layer_4">
</g>
<g id="Layer_3">
</g>
<g id="Layer_5">
</g>
<g id="Annotations">
</g>
</svg>
