<?xml version="1.0" encoding="utf-8"?>
<!-- Generator: Adobe Illustrator 16.0.0, SVG Export Plug-In . SVG Version: 6.00 Build 0)  -->
<!DOCTYPE svg PUBLIC "-//W3C//DTD SVG 1.1//EN" "http://www.w3.org/Graphics/SVG/1.1/DTD/svg11.dtd">
<svg version="1.1" xmlns="http://www.w3.org/2000/svg" xmlns:xlink="http://www.w3.org/1999/xlink" x="0px" y="0px"
	 width="89.602px" height="92.106px" viewBox="0 0 89.602 92.106" enable-background="new 0 0 89.602 92.106" xml:space="preserve">
<g id="Layer_2">
</g>
<g id="Layer_1">
	<g>
		<g>
			<g>
				
					<line fill="none" stroke="#A7A9AC" stroke-width="1.4173" stroke-miterlimit="10" x1="9.454" y1="32.909" x2="75.125" y2="32.909"/>
				<g>
					<polygon fill="#A7A9AC" points="74.002,34.557 80.147,32.909 74.002,31.262 					"/>
				</g>
			</g>
		</g>
		<rect x="9.454" y="29.409" fill="#D3D3D3" width="7" height="7"/>
		<rect x="18.601" y="29.409" fill="#D3D3D3" width="7" height="7"/>
		<rect x="27.747" y="29.409" fill="#D3D3D3" width="7" height="7"/>
		<rect x="36.892" y="29.409" fill="#D3D3D3" width="7" height="7"/>
		<rect x="46.038" y="29.409" fill="#D3D3D3" width="7" height="7"/>
		<rect x="55.185" y="29.409" fill="#D3D3D3" width="7" height="7"/>
		<rect x="64.33" y="29.409" fill="#D3D3D3" width="7" height="7"/>
		<rect x="9.454" y="38.173" fill="#D3D3D3" width="7" height="7"/>
		<rect x="18.601" y="38.173" fill="#D3D3D3" width="7" height="7"/>
		<rect x="27.747" y="38.173" fill="#D3D3D3" width="7" height="7"/>
		<rect x="46.038" y="38.173" fill="#D3D3D3" width="7" height="7"/>
		<rect x="55.185" y="38.173" fill="#D3D3D3" width="7" height="7"/>
		<rect x="64.33" y="38.173" fill="#D3D3D3" width="7" height="7"/>
		<rect x="9.454" y="46.935" fill="#D3D3D3" width="7" height="7"/>
		<rect x="27.747" y="46.935" fill="#D3D3D3" width="7" height="7"/>
		<rect x="46.038" y="46.935" fill="#D3D3D3" width="7" height="7"/>
		<rect x="64.33" y="46.935" fill="#D3D3D3" width="7" height="7"/>
		<rect x="9.454" y="55.698" fill="#D3D3D3" width="7" height="7"/>
		<rect x="46.038" y="55.698" fill="#D3D3D3" width="7" height="7"/>
	</g>
	<g>
		<path fill="#A7A9AC" d="M88.184,1.417v89.271H1.418V1.417H88.184 M89.602,0H0v92.105h89.602V0L89.602,0z"/>
	</g>
</g>
<g id="Layer_4">
</g>
<g id="Layer_3">
</g>
<g id="Layer_5">
</g>
<g id="Annotations">
</g>
</svg>
