<?xml version="1.0" encoding="utf-8"?>
<!-- Generator: Adobe Illustrator 16.0.0, SVG Export Plug-In . SVG Version: 6.00 Build 0)  -->
<!DOCTYPE svg PUBLIC "-//W3C//DTD SVG 1.1//EN" "http://www.w3.org/Graphics/SVG/1.1/DTD/svg11.dtd">
<svg version="1.1" xmlns="http://www.w3.org/2000/svg" xmlns:xlink="http://www.w3.org/1999/xlink" x="0px" y="0px"
	 width="89.603px" height="92.106px" viewBox="0 0 89.603 92.106" enable-background="new 0 0 89.603 92.106" xml:space="preserve">
<g id="Layer_2">
</g>
<g id="Layer_1">
	<g>
		<polyline fill="none" stroke="#A7A9AC" stroke-width="1.4173" stroke-miterlimit="10" points="3.004,21.901 3.004,91.401 
			88.908,91.401 88.908,5.497 50.301,5.497 		"/>
		<g>
			<g>
				<path fill="#939598" d="M5.855,1.942C5.643,1.655,5.379,1.44,5.065,1.298c-0.313-0.145-0.64-0.217-0.979-0.217
					c-0.394,0-0.755,0.08-1.085,0.24S2.386,1.696,2.146,1.968c-0.24,0.27-0.427,0.582-0.56,0.939c-0.134,0.357-0.2,0.729-0.2,1.115
					c0,0.412,0.066,0.799,0.2,1.154c0.133,0.357,0.318,0.666,0.555,0.93s0.52,0.473,0.85,0.625c0.33,0.154,0.695,0.23,1.096,0.23
					c0.433,0,0.819-0.084,1.16-0.256c0.34-0.17,0.636-0.414,0.89-0.734l0.63,0.531C6.445,6.929,6.061,7.241,5.61,7.442
					C5.16,7.642,4.652,7.741,4.086,7.741c-0.507,0-0.98-0.092-1.42-0.279c-0.44-0.186-0.822-0.445-1.146-0.775
					s-0.576-0.721-0.76-1.174s-0.275-0.951-0.275-1.49c0-0.52,0.089-1.008,0.266-1.461c0.176-0.453,0.425-0.846,0.745-1.18
					c0.319-0.334,0.699-0.596,1.14-0.789c0.439-0.193,0.923-0.291,1.45-0.291c0.479,0,0.941,0.088,1.385,0.26
					c0.443,0.174,0.814,0.457,1.115,0.85L5.855,1.942z"/>
				<path fill="#939598" d="M11.876,6.452c0,0.213,0.006,0.414,0.02,0.6c0.014,0.188,0.021,0.357,0.021,0.51h-0.74
					c0-0.127-0.004-0.252-0.01-0.379c-0.007-0.127-0.011-0.258-0.011-0.391h-0.02c-0.054,0.113-0.129,0.223-0.225,0.33
					c-0.098,0.107-0.212,0.201-0.346,0.285c-0.133,0.084-0.283,0.15-0.45,0.199c-0.166,0.051-0.347,0.076-0.54,0.076
					c-0.307,0-0.571-0.047-0.795-0.141C8.558,7.448,8.372,7.319,8.226,7.151C8.079,6.985,7.971,6.784,7.9,6.548
					C7.831,6.31,7.796,6.052,7.796,5.772V2.882h0.779v2.811c0,0.393,0.087,0.703,0.261,0.93c0.173,0.227,0.443,0.34,0.81,0.34
					c0.254,0,0.472-0.043,0.655-0.131c0.184-0.086,0.333-0.209,0.45-0.369c0.116-0.16,0.203-0.35,0.26-0.57
					c0.057-0.219,0.085-0.463,0.085-0.73V2.882h0.78V6.452z"/>
				<path fill="#939598" d="M13.455,6.331c0.153,0.195,0.321,0.348,0.505,0.461s0.415,0.17,0.695,0.17
					c0.12,0,0.241-0.014,0.365-0.039c0.123-0.027,0.234-0.07,0.335-0.131c0.1-0.061,0.18-0.135,0.24-0.225
					c0.06-0.09,0.09-0.199,0.09-0.326c0-0.125-0.028-0.229-0.085-0.309s-0.132-0.148-0.226-0.205
					c-0.093-0.057-0.2-0.102-0.319-0.135c-0.12-0.033-0.244-0.064-0.37-0.09c-0.221-0.047-0.431-0.102-0.63-0.16
					c-0.2-0.061-0.375-0.139-0.525-0.236c-0.15-0.096-0.271-0.221-0.36-0.375c-0.09-0.152-0.135-0.35-0.135-0.59
					c0-0.227,0.05-0.426,0.15-0.6c0.1-0.174,0.233-0.316,0.399-0.43c0.167-0.113,0.354-0.201,0.561-0.26
					c0.206-0.061,0.42-0.09,0.64-0.09c0.333,0,0.642,0.066,0.925,0.199s0.505,0.35,0.665,0.65l-0.649,0.43
					c-0.101-0.166-0.232-0.301-0.396-0.404s-0.361-0.156-0.595-0.156c-0.106,0-0.215,0.014-0.325,0.041
					c-0.11,0.025-0.208,0.066-0.295,0.119c-0.087,0.055-0.158,0.123-0.215,0.205c-0.057,0.084-0.085,0.18-0.085,0.285
					c0,0.1,0.031,0.186,0.095,0.256c0.063,0.068,0.15,0.131,0.26,0.184c0.11,0.055,0.237,0.102,0.38,0.141
					c0.144,0.041,0.292,0.074,0.445,0.1c0.207,0.041,0.403,0.092,0.59,0.156c0.187,0.062,0.351,0.148,0.49,0.254
					c0.14,0.107,0.25,0.24,0.33,0.4s0.12,0.357,0.12,0.59c0,0.268-0.054,0.494-0.16,0.68c-0.106,0.188-0.248,0.338-0.425,0.455
					s-0.377,0.201-0.601,0.256c-0.223,0.053-0.451,0.08-0.685,0.08c-0.4,0-0.745-0.062-1.035-0.186s-0.552-0.352-0.785-0.686
					L13.455,6.331z"/>
				<path fill="#939598" d="M20.175,3.542h-1.38v2.34c0,0.154,0.003,0.295,0.01,0.426c0.007,0.129,0.033,0.242,0.08,0.34
					c0.047,0.096,0.117,0.174,0.21,0.23c0.094,0.057,0.227,0.084,0.4,0.084c0.113,0,0.229-0.014,0.35-0.039
					c0.12-0.027,0.233-0.068,0.34-0.121l0.03,0.711c-0.133,0.059-0.281,0.104-0.445,0.129c-0.163,0.027-0.318,0.041-0.465,0.041
					c-0.279,0-0.503-0.037-0.67-0.111c-0.166-0.072-0.297-0.176-0.39-0.309c-0.094-0.135-0.155-0.299-0.186-0.496
					c-0.029-0.195-0.045-0.414-0.045-0.654v-2.57h-1.02v-0.66h1.02v-1.33h0.78v1.33h1.38V3.542z"/>
				<path fill="#939598" d="M20.864,5.222c0-0.367,0.063-0.699,0.19-1c0.126-0.299,0.3-0.559,0.52-0.775
					c0.221-0.217,0.483-0.385,0.79-0.504c0.307-0.121,0.641-0.18,1-0.18c0.36,0,0.693,0.059,1,0.18
					c0.307,0.119,0.57,0.287,0.79,0.504c0.221,0.217,0.394,0.477,0.521,0.775c0.126,0.301,0.189,0.633,0.189,1s-0.063,0.701-0.189,1
					c-0.127,0.301-0.3,0.559-0.521,0.775c-0.22,0.217-0.483,0.385-0.79,0.506c-0.307,0.119-0.64,0.18-1,0.18
					c-0.359,0-0.693-0.061-1-0.18c-0.307-0.121-0.569-0.289-0.79-0.506c-0.22-0.217-0.394-0.475-0.52-0.775
					C20.928,5.923,20.864,5.589,20.864,5.222z M21.704,5.222c0,0.246,0.039,0.475,0.115,0.686c0.077,0.209,0.188,0.393,0.335,0.549
					c0.146,0.158,0.322,0.281,0.525,0.371s0.432,0.135,0.685,0.135c0.254,0,0.481-0.045,0.686-0.135
					c0.203-0.09,0.378-0.213,0.524-0.371c0.146-0.156,0.259-0.34,0.335-0.549c0.077-0.211,0.115-0.439,0.115-0.686
					s-0.038-0.475-0.115-0.686c-0.076-0.209-0.188-0.393-0.335-0.549s-0.321-0.281-0.524-0.371c-0.204-0.09-0.432-0.135-0.686-0.135
					c-0.253,0-0.481,0.045-0.685,0.135s-0.379,0.215-0.525,0.371s-0.258,0.34-0.335,0.549C21.743,4.747,21.704,4.976,21.704,5.222z"
					/>
				<path fill="#939598" d="M27.074,3.991c0-0.213-0.007-0.412-0.021-0.6c-0.013-0.186-0.02-0.355-0.02-0.51h0.74
					c0,0.127,0.003,0.254,0.01,0.381s0.01,0.256,0.01,0.389h0.021c0.053-0.113,0.128-0.223,0.225-0.33
					c0.097-0.105,0.212-0.201,0.345-0.285c0.134-0.082,0.283-0.148,0.45-0.199s0.347-0.074,0.54-0.074
					c0.253,0,0.465,0.031,0.635,0.094c0.17,0.064,0.312,0.141,0.425,0.23s0.202,0.188,0.266,0.291
					c0.063,0.102,0.115,0.193,0.154,0.273c0.174-0.279,0.374-0.498,0.601-0.654s0.52-0.234,0.88-0.234
					c0.333,0,0.613,0.045,0.84,0.135s0.41,0.219,0.55,0.389c0.141,0.17,0.24,0.377,0.301,0.621c0.06,0.244,0.09,0.516,0.09,0.814
					v2.84h-0.78V4.763c0-0.16-0.017-0.316-0.05-0.471c-0.033-0.152-0.094-0.289-0.181-0.41c-0.086-0.119-0.203-0.217-0.35-0.289
					c-0.146-0.074-0.333-0.111-0.56-0.111c-0.167,0-0.324,0.033-0.471,0.1c-0.146,0.068-0.274,0.16-0.385,0.281
					c-0.11,0.119-0.196,0.266-0.26,0.436s-0.095,0.357-0.095,0.564v2.699h-0.78v-2.65c0-0.52-0.07-0.887-0.21-1.104
					c-0.141-0.217-0.37-0.326-0.69-0.326c-0.253,0-0.472,0.045-0.654,0.131c-0.184,0.086-0.334,0.209-0.45,0.369
					c-0.117,0.16-0.204,0.35-0.26,0.57c-0.058,0.221-0.086,0.463-0.086,0.73v2.279h-0.779V3.991z"/>
				<path fill="#939598" d="M39.773,6.712c-0.28,0.359-0.587,0.611-0.92,0.756c-0.333,0.143-0.72,0.215-1.16,0.215
					c-0.366,0-0.696-0.066-0.99-0.195c-0.293-0.131-0.541-0.305-0.744-0.525c-0.204-0.221-0.36-0.48-0.471-0.779
					c-0.109-0.301-0.165-0.621-0.165-0.961c0-0.359,0.061-0.691,0.181-0.994c0.119-0.305,0.286-0.564,0.5-0.781
					c0.213-0.217,0.466-0.385,0.76-0.504c0.293-0.121,0.613-0.18,0.96-0.18c0.326,0,0.626,0.055,0.899,0.164s0.509,0.27,0.705,0.48
					c0.197,0.209,0.349,0.467,0.455,0.77s0.16,0.648,0.16,1.035v0.25h-3.78c0.014,0.199,0.062,0.393,0.146,0.574
					c0.083,0.184,0.191,0.344,0.325,0.48c0.133,0.137,0.29,0.246,0.47,0.326s0.377,0.119,0.59,0.119c0.34,0,0.627-0.061,0.86-0.18
					c0.233-0.121,0.443-0.297,0.63-0.529L39.773,6.712z M39.104,4.802c-0.014-0.4-0.144-0.721-0.39-0.959
					c-0.247-0.24-0.587-0.361-1.021-0.361s-0.783,0.121-1.05,0.361c-0.267,0.238-0.427,0.559-0.48,0.959H39.104z"/>
				<path fill="#939598" d="M41.153,3.991c0-0.213-0.007-0.412-0.021-0.6c-0.013-0.186-0.02-0.355-0.02-0.51h0.74
					c0,0.127,0.003,0.254,0.01,0.381s0.01,0.256,0.01,0.389h0.021c0.053-0.113,0.128-0.223,0.225-0.33
					c0.097-0.105,0.212-0.201,0.345-0.285c0.134-0.082,0.283-0.148,0.45-0.199s0.347-0.074,0.54-0.074
					c0.054,0,0.106,0.002,0.16,0.01c0.053,0.006,0.106,0.02,0.16,0.039l-0.051,0.791c-0.133-0.041-0.273-0.061-0.42-0.061
					c-0.479,0-0.828,0.154-1.045,0.465s-0.325,0.734-0.325,1.275v2.279h-0.779V3.991z"/>
				<path fill="#939598" d="M1.605,20.612c0,0.119-0.019,0.258-0.055,0.414c-0.037,0.156-0.105,0.305-0.205,0.441
					s-0.242,0.252-0.425,0.35c-0.184,0.096-0.419,0.145-0.705,0.145c-0.094,0-0.186-0.006-0.275-0.02s-0.178-0.041-0.265-0.08
					l0.09-0.68c0.127,0.039,0.253,0.059,0.38,0.059c0.146,0,0.265-0.025,0.355-0.08c0.09-0.053,0.158-0.125,0.205-0.215
					c0.046-0.09,0.078-0.193,0.095-0.314c0.017-0.119,0.024-0.246,0.024-0.379v-5.371h0.78V20.612z M0.646,13.052
					c0-0.152,0.055-0.287,0.165-0.4s0.245-0.17,0.405-0.17s0.295,0.057,0.405,0.17c0.109,0.113,0.164,0.248,0.164,0.4
					c0,0.166-0.053,0.303-0.159,0.41c-0.107,0.107-0.244,0.16-0.41,0.16c-0.167,0-0.304-0.053-0.41-0.16S0.646,13.218,0.646,13.052z
					"/>
				<path fill="#939598" d="M2.886,17.222c0-0.367,0.063-0.699,0.19-1c0.126-0.299,0.3-0.559,0.52-0.775
					c0.221-0.217,0.483-0.385,0.79-0.504c0.307-0.121,0.641-0.18,1-0.18c0.36,0,0.693,0.059,1,0.18
					c0.307,0.119,0.57,0.287,0.79,0.504c0.221,0.217,0.394,0.477,0.521,0.775c0.126,0.301,0.189,0.633,0.189,1s-0.063,0.701-0.189,1
					c-0.127,0.301-0.3,0.559-0.521,0.775c-0.22,0.217-0.483,0.385-0.79,0.506c-0.307,0.119-0.64,0.18-1,0.18
					c-0.359,0-0.693-0.061-1-0.18c-0.307-0.121-0.569-0.289-0.79-0.506c-0.22-0.217-0.394-0.475-0.52-0.775
					C2.949,17.923,2.886,17.589,2.886,17.222z M3.726,17.222c0,0.246,0.039,0.475,0.115,0.686c0.077,0.209,0.188,0.393,0.335,0.549
					c0.146,0.158,0.322,0.281,0.525,0.371s0.432,0.135,0.685,0.135c0.254,0,0.481-0.045,0.686-0.135
					c0.203-0.09,0.378-0.213,0.524-0.371c0.146-0.156,0.259-0.34,0.335-0.549c0.077-0.211,0.115-0.439,0.115-0.686
					s-0.038-0.475-0.115-0.686c-0.076-0.209-0.188-0.393-0.335-0.549s-0.321-0.281-0.524-0.371c-0.204-0.09-0.432-0.135-0.686-0.135
					c-0.253,0-0.481,0.045-0.685,0.135s-0.379,0.215-0.525,0.371s-0.258,0.34-0.335,0.549C3.765,16.747,3.726,16.976,3.726,17.222z"
					/>
				<path fill="#939598" d="M13.176,18.452c0,0.213,0.006,0.414,0.02,0.6c0.014,0.188,0.021,0.357,0.021,0.51h-0.74
					c0-0.127-0.004-0.252-0.01-0.379c-0.007-0.127-0.011-0.258-0.011-0.391h-0.02c-0.054,0.113-0.129,0.223-0.225,0.33
					c-0.098,0.107-0.212,0.201-0.346,0.285c-0.133,0.084-0.283,0.15-0.45,0.199c-0.166,0.051-0.347,0.076-0.54,0.076
					c-0.307,0-0.571-0.047-0.795-0.141c-0.223-0.094-0.408-0.223-0.555-0.391c-0.146-0.166-0.255-0.367-0.325-0.604
					c-0.069-0.238-0.104-0.496-0.104-0.775v-2.891h0.779v2.811c0,0.393,0.087,0.703,0.261,0.93c0.173,0.227,0.443,0.34,0.81,0.34
					c0.254,0,0.472-0.043,0.655-0.131c0.184-0.086,0.333-0.209,0.45-0.369c0.116-0.16,0.203-0.35,0.26-0.57
					c0.057-0.219,0.085-0.463,0.085-0.73v-2.279h0.78V18.452z"/>
				<path fill="#939598" d="M14.655,15.991c0-0.213-0.007-0.412-0.021-0.6c-0.013-0.186-0.02-0.355-0.02-0.51h0.74
					c0,0.127,0.003,0.254,0.01,0.381s0.01,0.256,0.01,0.389h0.021c0.053-0.113,0.128-0.223,0.225-0.33
					c0.097-0.105,0.212-0.201,0.345-0.285c0.134-0.082,0.283-0.148,0.45-0.199s0.347-0.074,0.54-0.074
					c0.054,0,0.106,0.002,0.16,0.01c0.053,0.006,0.106,0.02,0.16,0.039l-0.051,0.791c-0.133-0.041-0.273-0.061-0.42-0.061
					c-0.479,0-0.828,0.154-1.045,0.465s-0.325,0.734-0.325,1.275v2.279h-0.779V15.991z"/>
				<path fill="#939598" d="M18.175,15.991c0-0.213-0.007-0.412-0.021-0.6c-0.013-0.186-0.02-0.355-0.02-0.51h0.74
					c0,0.127,0.003,0.254,0.01,0.381s0.01,0.256,0.01,0.389h0.021c0.053-0.113,0.128-0.223,0.225-0.33
					c0.097-0.105,0.212-0.201,0.345-0.285c0.134-0.082,0.283-0.148,0.45-0.199s0.347-0.074,0.54-0.074
					c0.307,0,0.571,0.047,0.795,0.139c0.224,0.094,0.408,0.225,0.555,0.391s0.255,0.369,0.325,0.605s0.105,0.494,0.105,0.775v2.889
					h-0.78v-2.809c0-0.395-0.087-0.705-0.26-0.932c-0.174-0.227-0.443-0.34-0.811-0.34c-0.253,0-0.472,0.045-0.654,0.131
					c-0.184,0.086-0.334,0.209-0.45,0.369c-0.117,0.16-0.204,0.35-0.26,0.57c-0.058,0.221-0.086,0.463-0.086,0.73v2.279h-0.779
					V15.991z"/>
				<path fill="#939598" d="M27.914,18.712c-0.28,0.359-0.587,0.611-0.92,0.756c-0.333,0.143-0.72,0.215-1.16,0.215
					c-0.366,0-0.696-0.066-0.99-0.195c-0.293-0.131-0.541-0.305-0.744-0.525c-0.204-0.221-0.36-0.48-0.471-0.779
					c-0.109-0.301-0.165-0.621-0.165-0.961c0-0.359,0.061-0.691,0.181-0.994c0.119-0.305,0.286-0.564,0.5-0.781
					c0.213-0.217,0.466-0.385,0.76-0.504c0.293-0.121,0.613-0.18,0.96-0.18c0.326,0,0.626,0.055,0.899,0.164s0.509,0.27,0.705,0.48
					c0.197,0.209,0.349,0.467,0.455,0.77s0.16,0.648,0.16,1.035v0.25h-3.78c0.014,0.199,0.062,0.393,0.146,0.574
					c0.083,0.184,0.191,0.344,0.325,0.48c0.133,0.137,0.29,0.246,0.47,0.326s0.377,0.119,0.59,0.119c0.34,0,0.627-0.061,0.86-0.18
					c0.233-0.121,0.443-0.297,0.63-0.529L27.914,18.712z M27.244,16.802c-0.014-0.4-0.144-0.721-0.39-0.959
					c-0.247-0.24-0.587-0.361-1.021-0.361s-0.783,0.121-1.05,0.361c-0.267,0.238-0.427,0.559-0.48,0.959H27.244z"/>
				<path fill="#939598" d="M31.014,20.632c-0.08,0.199-0.162,0.381-0.245,0.545s-0.184,0.303-0.3,0.42
					c-0.117,0.117-0.257,0.207-0.42,0.27c-0.163,0.064-0.362,0.096-0.595,0.096c-0.114,0-0.232-0.006-0.355-0.02
					s-0.238-0.047-0.345-0.1l0.1-0.682c0.08,0.033,0.163,0.057,0.25,0.066s0.187,0.014,0.3,0.014c0.254,0,0.44-0.068,0.561-0.209
					s0.223-0.326,0.31-0.561l0.32-0.879l-1.94-4.711h0.91l1.45,3.67h0.021l1.39-3.67h0.85L31.014,20.632z"/>
				<path fill="#939598" d="M36.895,15.991c0-0.213-0.007-0.412-0.021-0.6c-0.013-0.186-0.02-0.355-0.02-0.51h0.74
					c0,0.127,0.003,0.254,0.01,0.381s0.01,0.256,0.01,0.389h0.021c0.053-0.113,0.128-0.223,0.225-0.33
					c0.097-0.105,0.212-0.201,0.345-0.285c0.134-0.082,0.283-0.148,0.45-0.199s0.347-0.074,0.54-0.074
					c0.253,0,0.465,0.031,0.635,0.094c0.17,0.064,0.312,0.141,0.425,0.23s0.202,0.188,0.266,0.291
					c0.063,0.102,0.115,0.193,0.154,0.273c0.174-0.279,0.374-0.498,0.601-0.654s0.52-0.234,0.88-0.234
					c0.333,0,0.613,0.045,0.84,0.135s0.41,0.219,0.55,0.389c0.141,0.17,0.24,0.377,0.301,0.621c0.06,0.244,0.09,0.516,0.09,0.814
					v2.84h-0.78v-2.799c0-0.16-0.017-0.316-0.05-0.471c-0.033-0.152-0.094-0.289-0.181-0.41c-0.086-0.119-0.203-0.217-0.35-0.289
					c-0.146-0.074-0.333-0.111-0.56-0.111c-0.167,0-0.324,0.033-0.471,0.1c-0.146,0.068-0.274,0.16-0.385,0.281
					c-0.11,0.119-0.196,0.266-0.26,0.436s-0.095,0.357-0.095,0.564v2.699h-0.78v-2.65c0-0.52-0.07-0.887-0.21-1.104
					c-0.141-0.217-0.37-0.326-0.69-0.326c-0.253,0-0.472,0.045-0.654,0.131c-0.184,0.086-0.334,0.209-0.45,0.369
					c-0.117,0.16-0.204,0.35-0.26,0.57c-0.058,0.221-0.086,0.463-0.086,0.73v2.279h-0.779V15.991z"/>
				<path fill="#939598" d="M45.354,15.481c0.24-0.246,0.525-0.428,0.855-0.545c0.33-0.115,0.665-0.174,1.005-0.174
					c0.693,0,1.193,0.162,1.5,0.49c0.307,0.326,0.46,0.822,0.46,1.488v2.012c0,0.133,0.007,0.271,0.02,0.414
					c0.014,0.143,0.03,0.275,0.051,0.395h-0.75c-0.027-0.105-0.042-0.225-0.045-0.355c-0.004-0.129-0.006-0.244-0.006-0.344h-0.02
					c-0.153,0.24-0.358,0.436-0.615,0.59c-0.257,0.152-0.564,0.23-0.925,0.23c-0.24,0-0.465-0.031-0.675-0.09
					c-0.21-0.061-0.394-0.148-0.55-0.266c-0.157-0.117-0.282-0.262-0.375-0.436c-0.094-0.174-0.141-0.373-0.141-0.6
					c0-0.387,0.101-0.689,0.3-0.91c0.2-0.221,0.449-0.383,0.745-0.49c0.297-0.105,0.617-0.174,0.96-0.199
					c0.344-0.027,0.658-0.041,0.945-0.041h0.3v-0.139c0-0.34-0.102-0.598-0.305-0.771c-0.203-0.172-0.488-0.26-0.855-0.26
					c-0.253,0-0.501,0.043-0.744,0.125c-0.244,0.084-0.459,0.213-0.646,0.385L45.354,15.481z M47.614,17.312
					c-0.5,0-0.897,0.07-1.19,0.211c-0.293,0.139-0.44,0.369-0.44,0.689c0,0.293,0.099,0.502,0.296,0.625
					c0.196,0.123,0.441,0.186,0.734,0.186c0.227,0,0.425-0.039,0.595-0.115c0.171-0.076,0.312-0.178,0.426-0.305
					c0.113-0.127,0.199-0.275,0.26-0.445c0.06-0.17,0.093-0.352,0.1-0.545v-0.301H47.614z"/>
				<path fill="#939598" d="M50.564,14.882h0.78v0.68h0.02c0.213-0.252,0.462-0.449,0.745-0.59s0.595-0.209,0.935-0.209
					c0.367,0,0.702,0.061,1.005,0.184c0.304,0.125,0.562,0.295,0.775,0.516c0.213,0.221,0.38,0.48,0.5,0.779
					c0.12,0.301,0.18,0.627,0.18,0.98s-0.06,0.68-0.18,0.98s-0.285,0.561-0.495,0.779c-0.21,0.221-0.458,0.393-0.745,0.516
					c-0.286,0.123-0.593,0.186-0.92,0.186c-0.42,0-0.788-0.092-1.104-0.275c-0.317-0.184-0.549-0.408-0.695-0.676h-0.02v3.111h-0.78
					V14.882z M51.345,17.222c0,0.246,0.038,0.475,0.114,0.686c0.077,0.209,0.188,0.393,0.335,0.549
					c0.146,0.158,0.322,0.281,0.525,0.371s0.432,0.135,0.685,0.135c0.254,0,0.481-0.045,0.686-0.135
					c0.203-0.09,0.378-0.213,0.524-0.371c0.146-0.156,0.259-0.34,0.335-0.549c0.077-0.211,0.115-0.439,0.115-0.686
					s-0.038-0.475-0.115-0.686c-0.076-0.209-0.188-0.393-0.335-0.549s-0.321-0.281-0.524-0.371c-0.204-0.09-0.432-0.135-0.686-0.135
					c-0.253,0-0.481,0.045-0.685,0.135s-0.379,0.215-0.525,0.371s-0.258,0.34-0.335,0.549
					C51.383,16.747,51.345,16.976,51.345,17.222z"/>
			</g>
		</g>
		<g>
			<g>
				<g>
					
						<line fill="none" stroke="#A7A9AC" stroke-width="1.4173" stroke-miterlimit="10" x1="13.272" y1="36.688" x2="78.942" y2="36.688"/>
					<g>
						<polygon fill="#A7A9AC" points="77.818,38.336 83.965,36.688 77.818,35.041 						"/>
					</g>
				</g>
			</g>
			<rect x="13.272" y="33.188" fill="#D3D3D3" width="7" height="7"/>
			<rect x="22.418" y="33.188" fill="#D3D3D3" width="7" height="7"/>
			<rect x="31.564" y="33.188" fill="#D3D3D3" width="7" height="7"/>
			<rect x="40.709" y="33.188" fill="#D3D3D3" width="7" height="7"/>
			<rect x="49.855" y="33.188" fill="#D3D3D3" width="7" height="7"/>
			<rect x="59.002" y="33.188" fill="#D3D3D3" width="7" height="7"/>
			<rect x="68.147" y="33.188" fill="#D3D3D3" width="7" height="7"/>
			<rect x="13.272" y="41.952" fill="#D3D3D3" width="7" height="7"/>
			<rect x="22.418" y="41.952" fill="#D3D3D3" width="7" height="7"/>
			<rect x="31.564" y="41.952" fill="#D3D3D3" width="7" height="7"/>
			<rect x="49.855" y="41.952" fill="#D3D3D3" width="7" height="7"/>
			<rect x="59.002" y="41.952" fill="#D3D3D3" width="7" height="7"/>
			<rect x="68.147" y="41.952" fill="#D3D3D3" width="7" height="7"/>
			<rect x="13.272" y="50.714" fill="#D3D3D3" width="7" height="7"/>
			<rect x="31.564" y="50.714" fill="#D3D3D3" width="7" height="7"/>
			<rect x="49.855" y="50.714" fill="#D3D3D3" width="7" height="7"/>
			<rect x="68.147" y="50.714" fill="#D3D3D3" width="7" height="7"/>
			<rect x="13.272" y="59.478" fill="#D3D3D3" width="7" height="7"/>
			<rect x="49.855" y="59.478" fill="#D3D3D3" width="7" height="7"/>
		</g>
	</g>
</g>
<g id="Layer_4">
</g>
<g id="Layer_3">
</g>
<g id="Layer_5">
</g>
<g id="Annotations">
</g>
</svg>
