<?xml version="1.0" encoding="utf-8"?>
<!-- Generator: Adobe Illustrator 16.0.0, SVG Export Plug-In . SVG Version: 6.00 Build 0)  -->
<!DOCTYPE svg PUBLIC "-//W3C//DTD SVG 1.1//EN" "http://www.w3.org/Graphics/SVG/1.1/DTD/svg11.dtd">
<svg version="1.1" xmlns="http://www.w3.org/2000/svg" xmlns:xlink="http://www.w3.org/1999/xlink" x="0px" y="0px"
	 width="89.603px" height="92.106px" viewBox="0 0 89.603 92.106" enable-background="new 0 0 89.603 92.106" xml:space="preserve">
<g id="Layer_2">
</g>
<g id="Layer_1">
	<g>
		<g>
			<g>
				<polyline fill="none" stroke="#939598" stroke-width="1.4173" stroke-miterlimit="10" points="15.313,20.612 27.108,20.612 
					27.108,24.654 				"/>
				<g>
					<polygon fill="#939598" points="25.009,23.062 27.108,23.954 29.208,23.062 27.108,28.039 					"/>
				</g>
			</g>
		</g>
		<g>
			<g>
				<polyline fill="none" stroke="#939598" stroke-width="1.4173" stroke-miterlimit="10" points="27.108,31.118 38.903,31.118 
					38.903,35.16 				"/>
				<g>
					<polygon fill="#939598" points="36.804,33.568 38.903,34.459 41.003,33.568 38.903,38.544 					"/>
				</g>
			</g>
		</g>
		<g>
			<g>
				<polyline fill="none" stroke="#939598" stroke-width="1.4173" stroke-miterlimit="10" points="38.903,40.964 50.698,40.964 
					50.698,45.007 				"/>
				<g>
					<polygon fill="#939598" points="48.599,43.415 50.698,44.306 52.798,43.415 50.698,48.391 					"/>
				</g>
			</g>
		</g>
		<g>
			<g>
				<polyline fill="none" stroke="#939598" stroke-width="1.4173" stroke-miterlimit="10" points="50.784,51.141 62.579,51.141 
					62.579,55.184 				"/>
				<g>
					<polygon fill="#939598" points="60.479,53.591 62.579,54.483 64.679,53.591 62.579,58.568 					"/>
				</g>
			</g>
		</g>
		<g>
			<g>
				<polyline fill="none" stroke="#939598" stroke-width="1.4173" stroke-miterlimit="10" points="62.579,61.317 74.374,61.317 
					74.374,65.359 				"/>
				<g>
					<polygon fill="#939598" points="72.274,63.767 74.374,64.659 76.474,63.767 74.374,68.744 					"/>
				</g>
			</g>
		</g>
		<circle fill="#FFFFFF" stroke="#939598" stroke-width="1.4173" stroke-miterlimit="10" cx="15.313" cy="20.612" r="2.75"/>
		<circle fill="#FFFFFF" stroke="#939598" stroke-width="1.4173" stroke-miterlimit="10" cx="27.108" cy="30.789" r="2.75"/>
		<circle fill="#FFFFFF" stroke="#939598" stroke-width="1.4173" stroke-miterlimit="10" cx="38.903" cy="40.964" r="2.75"/>
		<circle fill="#FFFFFF" stroke="#939598" stroke-width="1.4173" stroke-miterlimit="10" cx="50.698" cy="51.141" r="2.75"/>
		<circle fill="#D3D3D3" stroke="#939598" stroke-width="1.4173" stroke-miterlimit="10" cx="74.29" cy="71.494" r="2.75"/>
		<circle fill="#FFFFFF" stroke="#939598" stroke-width="1.4173" stroke-miterlimit="10" cx="62.495" cy="61.317" r="2.75"/>
	</g>
	<g>
		<path fill="#A7A9AC" d="M88.185,1.417v89.271H1.417V1.417H88.185 M89.603,0H0v92.106h89.603V0L89.603,0z"/>
	</g>
</g>
<g id="Layer_4">
</g>
<g id="Layer_3">
</g>
<g id="Layer_5">
</g>
<g id="Annotations">
</g>
</svg>
