<?xml version="1.0" encoding="utf-8"?>
<!-- Generator: Adobe Illustrator 16.0.0, SVG Export Plug-In . SVG Version: 6.00 Build 0)  -->
<!DOCTYPE svg PUBLIC "-//W3C//DTD SVG 1.1//EN" "http://www.w3.org/Graphics/SVG/1.1/DTD/svg11.dtd">
<svg version="1.1" xmlns="http://www.w3.org/2000/svg" xmlns:xlink="http://www.w3.org/1999/xlink" x="0px" y="0px"
	 width="89.602px" height="92.106px" viewBox="0 0 89.602 92.106" enable-background="new 0 0 89.602 92.106" xml:space="preserve">
<g id="Layer_2">
</g>
<g id="Layer_1">
	<g>
		
			<path fill="none" stroke="#FFFFFF" stroke-width="1.3526" stroke-linecap="round" stroke-linejoin="round" stroke-miterlimit="10" d="
			M44.801,46.053"/>
	</g>
	<g>
		<g>
			
				<line fill="none" stroke="#A7A9AC" stroke-width="1.4173" stroke-miterlimit="10" x1="17.713" y1="27.693" x2="17.713" y2="64.414"/>
			<g>
				<rect x="20.017" y="27.693" fill="#D3D3D3" width="3.856" height="3.855"/>
			</g>
			<g>
				<rect x="11.554" y="31.8" fill="#D3D3D3" width="3.855" height="3.857"/>
			</g>
			<g>
				<rect x="20.017" y="35.908" fill="#D3D3D3" width="3.856" height="3.857"/>
				<rect x="24.249" y="35.908" fill="#D3D3D3" width="3.855" height="3.857"/>
			</g>
			<g>
				<rect x="20.017" y="40.017" fill="#D3D3D3" width="3.856" height="3.855"/>
			</g>
			<g>
				<rect x="11.554" y="44.125" fill="#D3D3D3" width="3.855" height="3.855"/>
				<rect x="7.321" y="44.125" fill="#D3D3D3" width="3.856" height="3.855"/>
			</g>
			<g>
				<rect x="20.017" y="48.234" fill="#D3D3D3" width="3.856" height="3.855"/>
			</g>
			<g>
				<rect x="11.554" y="52.341" fill="#D3D3D3" width="3.855" height="3.855"/>
				<rect x="7.321" y="52.341" fill="#D3D3D3" width="3.856" height="3.855"/>
			</g>
			<g>
				<rect x="20.017" y="56.449" fill="#D3D3D3" width="3.856" height="3.857"/>
			</g>
			<g>
				<rect x="20.017" y="60.558" fill="#D3D3D3" width="3.856" height="3.855"/>
				<rect x="24.249" y="60.558" fill="#D3D3D3" width="3.855" height="3.855"/>
			</g>
		</g>
		<g>
			
				<line fill="none" stroke="#A7A9AC" stroke-width="1.4173" stroke-miterlimit="10" x1="44.802" y1="27.693" x2="44.802" y2="64.414"/>
			<g>
				<rect x="47.104" y="27.693" fill="#D3D3D3" width="3.856" height="3.855"/>
				<rect x="51.336" y="27.693" fill="#D3D3D3" width="3.856" height="3.855"/>
			</g>
			<g>
				<rect x="38.641" y="31.8" fill="#D3D3D3" width="3.856" height="3.857"/>
				<rect x="34.409" y="31.8" fill="#D3D3D3" width="3.855" height="3.857"/>
			</g>
			<g>
				<rect x="47.104" y="35.908" fill="#D3D3D3" width="3.856" height="3.857"/>
			</g>
			<g>
				<rect x="38.641" y="40.017" fill="#D3D3D3" width="3.856" height="3.855"/>
			</g>
			<g>
				<rect x="47.104" y="44.125" fill="#D3D3D3" width="3.856" height="3.855"/>
				<rect x="51.336" y="44.125" fill="#D3D3D3" width="3.856" height="3.855"/>
			</g>
			<g>
				<rect x="47.104" y="48.234" fill="#D3D3D3" width="3.856" height="3.855"/>
			</g>
			<g>
				<rect x="47.104" y="52.341" fill="#D3D3D3" width="3.856" height="3.855"/>
				<rect x="51.336" y="52.341" fill="#D3D3D3" width="3.856" height="3.855"/>
			</g>
			<g>
				<rect x="38.641" y="56.449" fill="#D3D3D3" width="3.856" height="3.857"/>
			</g>
			<g>
				<rect x="38.641" y="60.558" fill="#D3D3D3" width="3.856" height="3.855"/>
				<rect x="34.409" y="60.558" fill="#D3D3D3" width="3.855" height="3.855"/>
			</g>
		</g>
		<g>
			
				<line fill="none" stroke="#A7A9AC" stroke-width="1.4173" stroke-miterlimit="10" x1="71.889" y1="27.693" x2="71.889" y2="64.414"/>
			<g>
				<rect x="65.729" y="27.693" fill="#D3D3D3" width="3.856" height="3.855"/>
			</g>
			<g>
				<rect x="74.192" y="31.8" fill="#D3D3D3" width="3.855" height="3.857"/>
			</g>
			<g>
				<rect x="65.729" y="35.908" fill="#D3D3D3" width="3.856" height="3.857"/>
				<rect x="61.497" y="35.908" fill="#D3D3D3" width="3.855" height="3.857"/>
			</g>
			<g>
				<rect x="74.192" y="40.017" fill="#D3D3D3" width="3.855" height="3.855"/>
				<rect x="78.424" y="40.017" fill="#D3D3D3" width="3.856" height="3.855"/>
			</g>
			<g>
				<rect x="74.192" y="44.125" fill="#D3D3D3" width="3.855" height="3.855"/>
			</g>
			<g>
				<rect x="65.729" y="48.234" fill="#D3D3D3" width="3.856" height="3.855"/>
			</g>
			<g>
				<rect x="74.192" y="52.341" fill="#D3D3D3" width="3.855" height="3.855"/>
			</g>
			<g>
				<rect x="74.192" y="56.449" fill="#D3D3D3" width="3.855" height="3.857"/>
			</g>
			<g>
				<rect x="74.192" y="60.558" fill="#D3D3D3" width="3.855" height="3.855"/>
			</g>
		</g>
	</g>
	<g>
		<path fill="#A7A9AC" d="M88.184,1.417v89.271H1.418V1.417H88.184 M89.602,0H0v92.106h89.602V0L89.602,0z"/>
	</g>
</g>
<g id="Layer_4">
</g>
<g id="Layer_3">
</g>
<g id="Layer_5">
</g>
<g id="Annotations">
</g>
</svg>
