<?xml version="1.0" encoding="utf-8"?>
<!-- Generator: Adobe Illustrator 16.0.0, SVG Export Plug-In . SVG Version: 6.00 Build 0)  -->
<!DOCTYPE svg PUBLIC "-//W3C//DTD SVG 1.1//EN" "http://www.w3.org/Graphics/SVG/1.1/DTD/svg11.dtd">
<svg version="1.1" xmlns="http://www.w3.org/2000/svg" xmlns:xlink="http://www.w3.org/1999/xlink" x="0px" y="0px"
	 width="89.603px" height="92.106px" viewBox="0 0 89.603 92.106" enable-background="new 0 0 89.603 92.106" xml:space="preserve">
<g id="Layer_2">
</g>
<g id="Layer_1">
	<g>
		<polyline fill="none" stroke="#A7A9AC" stroke-width="1.4173" stroke-miterlimit="10" points="2.993,12.039 2.993,91.436 
			88.897,91.436 88.897,5.532 65.933,5.532 		"/>
		<g>
			<g>
				<path fill="#939598" d="M0.885,0.519h0.84v3h3.78v-3h0.84v7.08h-0.84v-3.3h-3.78v3.3h-0.84V0.519z"/>
				<path fill="#939598" d="M7.904,3.519C8.145,3.273,8.43,3.091,8.76,2.974c0.33-0.116,0.665-0.175,1.005-0.175
					c0.693,0,1.193,0.163,1.5,0.49c0.307,0.326,0.46,0.823,0.46,1.489V6.79c0,0.133,0.007,0.271,0.02,0.415
					c0.014,0.143,0.03,0.274,0.051,0.395h-0.75C11.018,7.493,11.003,7.375,11,7.244C10.996,7.114,10.994,7,10.994,6.899h-0.02
					c-0.153,0.24-0.358,0.437-0.615,0.59s-0.564,0.23-0.925,0.23c-0.24,0-0.465-0.03-0.675-0.09C8.55,7.569,8.366,7.481,8.21,7.364
					C8.053,7.248,7.928,7.103,7.835,6.929c-0.094-0.174-0.141-0.373-0.141-0.6c0-0.387,0.101-0.69,0.3-0.91
					c0.2-0.221,0.449-0.384,0.745-0.49c0.297-0.106,0.617-0.174,0.96-0.2c0.344-0.026,0.658-0.04,0.945-0.04h0.3v-0.14
					c0-0.34-0.102-0.597-0.305-0.771c-0.203-0.173-0.488-0.26-0.855-0.26c-0.253,0-0.501,0.042-0.744,0.125
					C8.796,3.728,8.581,3.856,8.395,4.029L7.904,3.519z M10.165,5.349c-0.5,0-0.897,0.07-1.19,0.21s-0.44,0.37-0.44,0.69
					c0,0.293,0.099,0.501,0.296,0.625c0.196,0.123,0.441,0.185,0.734,0.185c0.227,0,0.425-0.038,0.595-0.115
					c0.171-0.076,0.312-0.178,0.426-0.305c0.113-0.127,0.199-0.275,0.26-0.445c0.06-0.17,0.093-0.352,0.1-0.545v-0.3H10.165z"/>
				<path fill="#939598" d="M13.155,4.029c0-0.213-0.007-0.413-0.021-0.6c-0.013-0.187-0.02-0.356-0.02-0.51h0.74
					c0,0.126,0.003,0.253,0.01,0.38s0.01,0.257,0.01,0.39h0.021c0.053-0.113,0.128-0.223,0.225-0.33
					c0.097-0.106,0.212-0.201,0.345-0.285c0.134-0.083,0.283-0.149,0.45-0.199c0.167-0.051,0.347-0.075,0.54-0.075
					c0.054,0,0.106,0.003,0.16,0.01c0.053,0.007,0.106,0.021,0.16,0.04l-0.051,0.79c-0.133-0.04-0.273-0.06-0.42-0.06
					c-0.479,0-0.828,0.154-1.045,0.465c-0.217,0.31-0.325,0.734-0.325,1.274v2.28h-0.779V4.029z"/>
				<path fill="#939598" d="M16.675,4.029c0-0.213-0.007-0.413-0.021-0.6c-0.013-0.187-0.02-0.356-0.02-0.51h0.74
					c0,0.126,0.003,0.253,0.01,0.38s0.01,0.257,0.01,0.39h0.021c0.053-0.113,0.128-0.223,0.225-0.33
					c0.097-0.106,0.212-0.201,0.345-0.285c0.134-0.083,0.283-0.149,0.45-0.199c0.167-0.051,0.347-0.075,0.54-0.075
					c0.054,0,0.106,0.003,0.16,0.01c0.053,0.007,0.106,0.021,0.16,0.04l-0.051,0.79c-0.133-0.04-0.273-0.06-0.42-0.06
					c-0.479,0-0.828,0.154-1.045,0.465c-0.217,0.31-0.325,0.734-0.325,1.274v2.28h-0.779V4.029z"/>
				<path fill="#939598" d="M20.084,1.089c0-0.153,0.055-0.287,0.165-0.4s0.245-0.17,0.405-0.17s0.295,0.057,0.405,0.17
					c0.109,0.113,0.164,0.247,0.164,0.4c0,0.166-0.053,0.303-0.159,0.41c-0.107,0.106-0.244,0.159-0.41,0.159
					c-0.167,0-0.304-0.053-0.41-0.159C20.138,1.392,20.084,1.255,20.084,1.089z M20.264,2.919h0.78v4.68h-0.78V2.919z"/>
				<path fill="#939598" d="M22.694,6.369c0.153,0.194,0.321,0.348,0.505,0.461S23.614,7,23.895,7c0.12,0,0.241-0.014,0.365-0.04
					c0.123-0.027,0.234-0.07,0.335-0.13c0.1-0.061,0.18-0.136,0.24-0.226c0.06-0.09,0.09-0.198,0.09-0.325
					c0-0.126-0.028-0.229-0.085-0.31s-0.132-0.148-0.226-0.205c-0.093-0.057-0.2-0.102-0.319-0.135
					c-0.12-0.033-0.244-0.063-0.37-0.09c-0.221-0.047-0.431-0.101-0.63-0.16c-0.2-0.061-0.375-0.139-0.525-0.235
					s-0.271-0.222-0.36-0.375s-0.135-0.35-0.135-0.59c0-0.227,0.05-0.427,0.15-0.6c0.1-0.174,0.233-0.317,0.399-0.431
					c0.167-0.113,0.354-0.2,0.561-0.26c0.206-0.06,0.42-0.09,0.64-0.09c0.333,0,0.642,0.066,0.925,0.2
					c0.283,0.133,0.505,0.35,0.665,0.649L24.965,4.08c-0.101-0.167-0.232-0.302-0.396-0.405s-0.361-0.155-0.595-0.155
					c-0.106,0-0.215,0.014-0.325,0.04s-0.208,0.066-0.295,0.12s-0.158,0.122-0.215,0.205s-0.085,0.179-0.085,0.285
					c0,0.1,0.031,0.185,0.095,0.255c0.063,0.069,0.15,0.132,0.26,0.185c0.11,0.054,0.237,0.101,0.38,0.141
					c0.144,0.04,0.292,0.073,0.445,0.1c0.207,0.04,0.403,0.092,0.59,0.155s0.351,0.148,0.49,0.255s0.25,0.24,0.33,0.399
					c0.08,0.16,0.12,0.357,0.12,0.591c0,0.267-0.054,0.493-0.16,0.68s-0.248,0.338-0.425,0.455
					c-0.177,0.116-0.377,0.201-0.601,0.255c-0.223,0.054-0.451,0.08-0.685,0.08c-0.4,0-0.745-0.062-1.035-0.186
					c-0.29-0.123-0.552-0.352-0.785-0.685L22.694,6.369z"/>
				<path fill="#939598" d="M29.595,2.919h0.78v0.68h0.02c0.213-0.253,0.462-0.45,0.745-0.59c0.283-0.141,0.595-0.21,0.935-0.21
					c0.367,0,0.702,0.062,1.005,0.185c0.304,0.124,0.562,0.295,0.775,0.516c0.213,0.22,0.38,0.479,0.5,0.779
					c0.12,0.301,0.18,0.627,0.18,0.98s-0.06,0.68-0.18,0.979c-0.12,0.301-0.285,0.561-0.495,0.78s-0.458,0.392-0.745,0.515
					c-0.286,0.124-0.593,0.186-0.92,0.186c-0.42,0-0.788-0.092-1.104-0.275c-0.317-0.183-0.549-0.408-0.695-0.675h-0.02v3.11h-0.78
					V2.919z M30.375,5.259c0,0.246,0.038,0.475,0.114,0.685c0.077,0.21,0.188,0.394,0.335,0.55c0.146,0.157,0.322,0.28,0.525,0.37
					C31.553,6.955,31.781,7,32.034,7c0.254,0,0.481-0.045,0.686-0.136c0.203-0.09,0.378-0.213,0.524-0.37
					c0.146-0.156,0.259-0.34,0.335-0.55c0.077-0.21,0.115-0.438,0.115-0.685c0-0.247-0.038-0.476-0.115-0.686
					c-0.076-0.21-0.188-0.393-0.335-0.55c-0.146-0.156-0.321-0.28-0.524-0.37c-0.204-0.09-0.432-0.135-0.686-0.135
					c-0.253,0-0.481,0.045-0.685,0.135s-0.379,0.214-0.525,0.37c-0.146,0.157-0.258,0.34-0.335,0.55
					C30.413,4.784,30.375,5.012,30.375,5.259z"/>
				<path fill="#939598" d="M35.745,4.029c0-0.213-0.007-0.413-0.021-0.6c-0.013-0.187-0.02-0.356-0.02-0.51h0.74
					c0,0.126,0.003,0.253,0.01,0.38s0.01,0.257,0.01,0.39h0.021c0.053-0.113,0.128-0.223,0.225-0.33
					c0.097-0.106,0.212-0.201,0.345-0.285c0.134-0.083,0.283-0.149,0.45-0.199c0.167-0.051,0.347-0.075,0.54-0.075
					c0.054,0,0.106,0.003,0.16,0.01c0.053,0.007,0.106,0.021,0.16,0.04l-0.051,0.79c-0.133-0.04-0.273-0.06-0.42-0.06
					c-0.479,0-0.828,0.154-1.045,0.465c-0.217,0.31-0.325,0.734-0.325,1.274v2.28h-0.779V4.029z"/>
				<path fill="#939598" d="M38.814,5.259c0-0.367,0.063-0.7,0.19-1c0.126-0.3,0.3-0.559,0.52-0.775
					c0.221-0.217,0.483-0.385,0.79-0.505s0.641-0.18,1-0.18c0.36,0,0.693,0.06,1,0.18s0.57,0.288,0.79,0.505
					c0.221,0.217,0.394,0.476,0.521,0.775c0.126,0.3,0.189,0.633,0.189,1c0,0.366-0.063,0.7-0.189,1
					c-0.127,0.3-0.3,0.559-0.521,0.774c-0.22,0.217-0.483,0.386-0.79,0.506c-0.307,0.119-0.64,0.18-1,0.18
					c-0.359,0-0.693-0.061-1-0.18c-0.307-0.12-0.569-0.289-0.79-0.506c-0.22-0.216-0.394-0.475-0.52-0.774
					C38.878,5.959,38.814,5.625,38.814,5.259z M39.654,5.259c0,0.246,0.039,0.475,0.115,0.685c0.077,0.21,0.188,0.394,0.335,0.55
					c0.146,0.157,0.322,0.28,0.525,0.37C40.833,6.955,41.062,7,41.314,7C41.568,7,41.796,6.955,42,6.864
					c0.203-0.09,0.378-0.213,0.524-0.37c0.146-0.156,0.259-0.34,0.335-0.55c0.077-0.21,0.115-0.438,0.115-0.685
					c0-0.247-0.038-0.476-0.115-0.686c-0.076-0.21-0.188-0.393-0.335-0.55c-0.146-0.156-0.321-0.28-0.524-0.37
					c-0.204-0.09-0.432-0.135-0.686-0.135c-0.253,0-0.481,0.045-0.685,0.135s-0.379,0.214-0.525,0.37
					c-0.146,0.157-0.258,0.34-0.335,0.55C39.693,4.784,39.654,5.012,39.654,5.259z"/>
				<path fill="#939598" d="M45.424,3.58h-1.02v-0.66h1.02V1.869c0-0.286,0.027-0.548,0.08-0.784
					c0.054-0.237,0.146-0.442,0.275-0.615c0.13-0.174,0.302-0.309,0.515-0.405c0.214-0.097,0.477-0.145,0.79-0.145
					c0.101,0,0.207,0.01,0.32,0.029C47.518-0.031,47.61,0,47.685,0.04l-0.11,0.699c-0.187-0.066-0.363-0.1-0.53-0.1
					c-0.2,0-0.356,0.035-0.47,0.104c-0.113,0.07-0.198,0.167-0.255,0.29c-0.057,0.124-0.09,0.272-0.101,0.445
					c-0.01,0.174-0.015,0.36-0.015,0.561v0.88h1.14v0.66h-1.14v4.02h-0.78V3.58z"/>
				<path fill="#939598" d="M48.063,1.089c0-0.153,0.055-0.287,0.165-0.4s0.245-0.17,0.405-0.17s0.295,0.057,0.405,0.17
					c0.109,0.113,0.164,0.247,0.164,0.4c0,0.166-0.053,0.303-0.159,0.41c-0.107,0.106-0.244,0.159-0.41,0.159
					c-0.167,0-0.304-0.053-0.41-0.159C48.117,1.392,48.063,1.255,48.063,1.089z M48.243,2.919h0.78v4.68h-0.78V2.919z"/>
				<path fill="#939598" d="M50.643,0.04h0.78v7.56h-0.78V0.04z"/>
				<path fill="#939598" d="M57.153,6.75c-0.28,0.359-0.587,0.611-0.92,0.755c-0.333,0.143-0.72,0.215-1.16,0.215
					c-0.366,0-0.696-0.065-0.99-0.195C53.79,7.394,53.542,7.219,53.339,7c-0.204-0.221-0.36-0.48-0.471-0.78
					c-0.109-0.3-0.165-0.62-0.165-0.96c0-0.36,0.061-0.691,0.181-0.995c0.119-0.304,0.286-0.563,0.5-0.78
					c0.213-0.217,0.466-0.385,0.76-0.505c0.293-0.12,0.613-0.18,0.96-0.18c0.326,0,0.626,0.055,0.899,0.165
					c0.273,0.109,0.509,0.27,0.705,0.479c0.197,0.21,0.349,0.467,0.455,0.771c0.106,0.303,0.16,0.648,0.16,1.035V5.5h-3.78
					c0.014,0.199,0.062,0.392,0.146,0.574c0.083,0.184,0.191,0.344,0.325,0.48c0.133,0.137,0.29,0.245,0.47,0.325S54.86,7,55.073,7
					c0.34,0,0.627-0.061,0.86-0.181s0.443-0.296,0.63-0.529L57.153,6.75z M56.483,4.839c-0.014-0.4-0.144-0.721-0.39-0.96
					c-0.247-0.24-0.587-0.36-1.021-0.36s-0.783,0.12-1.05,0.36c-0.267,0.239-0.427,0.56-0.48,0.96H56.483z"/>
			</g>
		</g>
		<g>
			
				<path fill="none" stroke="#FFFFFF" stroke-width="1.3526" stroke-linecap="round" stroke-linejoin="round" stroke-miterlimit="10" d="
				M81.63,85.169"/>
		</g>
		<g>
			
				<line fill="none" stroke="#A7A9AC" stroke-width="1.4173" stroke-miterlimit="10" x1="17.448" y1="30.124" x2="17.448" y2="66.844"/>
			<g>
				<rect x="19.752" y="30.124" fill="#D3D3D3" width="3.856" height="3.855"/>
			</g>
			<g>
				<rect x="11.289" y="34.231" fill="#D3D3D3" width="3.855" height="3.857"/>
			</g>
			<g>
				<rect x="19.752" y="38.338" fill="#D3D3D3" width="3.856" height="3.857"/>
				<rect x="23.984" y="38.338" fill="#D3D3D3" width="3.855" height="3.857"/>
			</g>
			<g>
				<rect x="19.752" y="42.448" fill="#D3D3D3" width="3.856" height="3.855"/>
			</g>
			<g>
				<rect x="11.289" y="46.555" fill="#D3D3D3" width="3.855" height="3.855"/>
				<rect x="7.057" y="46.555" fill="#D3D3D3" width="3.856" height="3.855"/>
			</g>
			<g>
				<rect x="19.752" y="50.665" fill="#D3D3D3" width="3.856" height="3.855"/>
			</g>
			<g>
				<rect x="11.289" y="54.772" fill="#D3D3D3" width="3.855" height="3.855"/>
				<rect x="7.057" y="54.772" fill="#D3D3D3" width="3.856" height="3.855"/>
			</g>
			<g>
				<rect x="19.752" y="58.879" fill="#D3D3D3" width="3.856" height="3.857"/>
			</g>
			<g>
				<rect x="19.752" y="62.989" fill="#D3D3D3" width="3.856" height="3.855"/>
				<rect x="23.984" y="62.989" fill="#D3D3D3" width="3.855" height="3.855"/>
			</g>
		</g>
		<g>
			
				<line fill="none" stroke="#A7A9AC" stroke-width="1.4173" stroke-miterlimit="10" x1="44.536" y1="30.124" x2="44.536" y2="66.844"/>
			<g>
				<rect x="46.84" y="30.124" fill="#D3D3D3" width="3.856" height="3.855"/>
				<rect x="51.071" y="30.124" fill="#D3D3D3" width="3.856" height="3.855"/>
			</g>
			<g>
				<rect x="38.376" y="34.231" fill="#D3D3D3" width="3.856" height="3.857"/>
				<rect x="34.145" y="34.231" fill="#D3D3D3" width="3.855" height="3.857"/>
			</g>
			<g>
				<rect x="46.84" y="38.338" fill="#D3D3D3" width="3.856" height="3.857"/>
			</g>
			<g>
				<rect x="38.376" y="42.448" fill="#D3D3D3" width="3.856" height="3.855"/>
			</g>
			<g>
				<rect x="46.84" y="46.555" fill="#D3D3D3" width="3.856" height="3.855"/>
				<rect x="51.071" y="46.555" fill="#D3D3D3" width="3.856" height="3.855"/>
			</g>
			<g>
				<rect x="46.84" y="50.665" fill="#D3D3D3" width="3.856" height="3.855"/>
			</g>
			<g>
				<rect x="46.84" y="54.772" fill="#D3D3D3" width="3.856" height="3.855"/>
				<rect x="51.071" y="54.772" fill="#D3D3D3" width="3.856" height="3.855"/>
			</g>
			<g>
				<rect x="38.376" y="58.879" fill="#D3D3D3" width="3.856" height="3.857"/>
			</g>
			<g>
				<rect x="38.376" y="62.989" fill="#D3D3D3" width="3.856" height="3.855"/>
				<rect x="34.145" y="62.989" fill="#D3D3D3" width="3.855" height="3.855"/>
			</g>
		</g>
		<g>
			
				<line fill="none" stroke="#A7A9AC" stroke-width="1.4173" stroke-miterlimit="10" x1="71.624" y1="30.124" x2="71.624" y2="66.844"/>
			<g>
				<rect x="65.464" y="30.124" fill="#D3D3D3" width="3.856" height="3.855"/>
			</g>
			<g>
				<rect x="73.928" y="34.231" fill="#D3D3D3" width="3.855" height="3.857"/>
			</g>
			<g>
				<rect x="65.464" y="38.338" fill="#D3D3D3" width="3.856" height="3.857"/>
				<rect x="61.232" y="38.338" fill="#D3D3D3" width="3.855" height="3.857"/>
			</g>
			<g>
				<rect x="73.928" y="42.448" fill="#D3D3D3" width="3.855" height="3.855"/>
				<rect x="78.159" y="42.448" fill="#D3D3D3" width="3.856" height="3.855"/>
			</g>
			<g>
				<rect x="73.928" y="46.555" fill="#D3D3D3" width="3.855" height="3.855"/>
			</g>
			<g>
				<rect x="65.464" y="50.665" fill="#D3D3D3" width="3.856" height="3.855"/>
			</g>
			<g>
				<rect x="73.928" y="54.772" fill="#D3D3D3" width="3.855" height="3.855"/>
			</g>
			<g>
				<rect x="73.928" y="58.879" fill="#D3D3D3" width="3.855" height="3.857"/>
			</g>
			<g>
				<rect x="73.928" y="62.989" fill="#D3D3D3" width="3.855" height="3.855"/>
			</g>
		</g>
	</g>
</g>
<g id="Layer_4">
</g>
<g id="Layer_3">
</g>
<g id="Layer_5">
</g>
<g id="Annotations">
</g>
</svg>
