<?xml version="1.0" encoding="utf-8"?>
<!-- Generator: Adobe Illustrator 16.0.0, SVG Export Plug-In . SVG Version: 6.00 Build 0)  -->
<!DOCTYPE svg PUBLIC "-//W3C//DTD SVG 1.1//EN" "http://www.w3.org/Graphics/SVG/1.1/DTD/svg11.dtd">
<svg version="1.1" xmlns="http://www.w3.org/2000/svg" xmlns:xlink="http://www.w3.org/1999/xlink" x="0px" y="0px"
	 width="89.603px" height="92.106px" viewBox="0 0 89.603 92.106" enable-background="new 0 0 89.603 92.106" xml:space="preserve">
<g id="Layer_2">
</g>
<g id="Layer_1">
	<g>
		<polyline fill="none" stroke="#A7A9AC" stroke-width="1.4173" stroke-miterlimit="10" points="3.227,12.009 3.227,91.405 
			89.131,91.405 89.131,5.501 40.835,5.501 		"/>
		<g>
			<g>
				<path fill="#939598" d="M0.88,0.374h0.84v3H5.5v-3h0.84v7.08H5.5V4.153H1.72v3.301H0.88V0.374z"/>
				<path fill="#939598" d="M7.689,5.114c0-0.367,0.063-0.701,0.19-1c0.126-0.301,0.3-0.559,0.52-0.775
					c0.221-0.217,0.483-0.385,0.79-0.506c0.307-0.119,0.641-0.18,1-0.18c0.36,0,0.693,0.061,1,0.18
					c0.307,0.121,0.57,0.289,0.79,0.506C12.2,3.556,12.373,3.813,12.5,4.114c0.126,0.299,0.189,0.633,0.189,1
					c0,0.365-0.063,0.699-0.189,1c-0.127,0.299-0.3,0.559-0.521,0.773c-0.22,0.217-0.483,0.387-0.79,0.506s-0.64,0.18-1,0.18
					c-0.359,0-0.693-0.061-1-0.18S8.62,7.104,8.399,6.888C8.18,6.673,8.006,6.413,7.88,6.114C7.753,5.813,7.689,5.479,7.689,5.114z
					 M8.529,5.114c0,0.246,0.039,0.475,0.115,0.684c0.077,0.211,0.188,0.395,0.335,0.551s0.322,0.279,0.525,0.369
					c0.203,0.092,0.432,0.137,0.685,0.137c0.254,0,0.481-0.045,0.686-0.137c0.203-0.09,0.378-0.213,0.524-0.369
					s0.259-0.34,0.335-0.551c0.077-0.209,0.115-0.438,0.115-0.684c0-0.248-0.038-0.477-0.115-0.686
					c-0.076-0.211-0.188-0.393-0.335-0.551c-0.146-0.156-0.321-0.279-0.524-0.369c-0.204-0.09-0.432-0.135-0.686-0.135
					c-0.253,0-0.481,0.045-0.685,0.135S9.126,3.722,8.979,3.878c-0.146,0.158-0.258,0.34-0.335,0.551
					C8.568,4.638,8.529,4.866,8.529,5.114z"/>
				<path fill="#939598" d="M18.92,7.454h-0.77l-1.33-3.6H16.8l-1.18,3.6h-0.8L13.3,2.774h0.86l1.07,3.6h0.02l1.21-3.6h0.82
					l1.229,3.6h0.021l1.06-3.6h0.84L18.92,7.454z"/>
				<path fill="#939598" d="M26.65,3.435h-1.38v2.34c0,0.152,0.003,0.295,0.01,0.424c0.007,0.131,0.033,0.244,0.08,0.34
					c0.047,0.098,0.117,0.174,0.21,0.23c0.094,0.057,0.227,0.086,0.4,0.086c0.113,0,0.229-0.014,0.35-0.041s0.233-0.066,0.34-0.119
					l0.03,0.709c-0.133,0.061-0.281,0.104-0.445,0.131c-0.163,0.025-0.318,0.039-0.465,0.039c-0.279,0-0.503-0.037-0.67-0.109
					c-0.166-0.074-0.297-0.178-0.39-0.311c-0.094-0.133-0.155-0.299-0.186-0.494c-0.029-0.197-0.045-0.416-0.045-0.656V3.435h-1.02
					v-0.66h1.02v-1.33h0.78v1.33h1.38V3.435z"/>
				<path fill="#939598" d="M27.34,5.114c0-0.367,0.063-0.701,0.19-1c0.126-0.301,0.3-0.559,0.52-0.775
					c0.221-0.217,0.483-0.385,0.79-0.506c0.307-0.119,0.641-0.18,1-0.18c0.36,0,0.693,0.061,1,0.18
					c0.307,0.121,0.57,0.289,0.79,0.506c0.221,0.217,0.394,0.475,0.521,0.775c0.126,0.299,0.189,0.633,0.189,1
					c0,0.365-0.063,0.699-0.189,1c-0.127,0.299-0.3,0.559-0.521,0.773c-0.22,0.217-0.483,0.387-0.79,0.506s-0.64,0.18-1,0.18
					c-0.359,0-0.693-0.061-1-0.18s-0.569-0.289-0.79-0.506c-0.22-0.215-0.394-0.475-0.52-0.773
					C27.403,5.813,27.34,5.479,27.34,5.114z M28.18,5.114c0,0.246,0.039,0.475,0.115,0.684c0.077,0.211,0.188,0.395,0.335,0.551
					s0.322,0.279,0.525,0.369c0.203,0.092,0.432,0.137,0.685,0.137c0.254,0,0.481-0.045,0.686-0.137
					c0.203-0.09,0.378-0.213,0.524-0.369s0.259-0.34,0.335-0.551C31.462,5.589,31.5,5.36,31.5,5.114
					c0-0.248-0.038-0.477-0.115-0.686c-0.076-0.211-0.188-0.393-0.335-0.551c-0.146-0.156-0.321-0.279-0.524-0.369
					c-0.204-0.09-0.432-0.135-0.686-0.135c-0.253,0-0.481,0.045-0.685,0.135s-0.379,0.213-0.525,0.369
					c-0.146,0.158-0.258,0.34-0.335,0.551C28.219,4.638,28.18,4.866,28.18,5.114z"/>
				<path fill="#939598" d="M33.65,6.224c0.153,0.193,0.321,0.348,0.505,0.461s0.415,0.17,0.695,0.17
					c0.12,0,0.241-0.014,0.365-0.041c0.123-0.027,0.234-0.07,0.335-0.129c0.1-0.061,0.18-0.137,0.24-0.227
					c0.06-0.09,0.09-0.197,0.09-0.324s-0.028-0.23-0.085-0.311s-0.132-0.148-0.226-0.205c-0.093-0.057-0.2-0.102-0.319-0.135
					c-0.12-0.033-0.244-0.062-0.37-0.09c-0.221-0.047-0.431-0.1-0.63-0.16c-0.2-0.061-0.375-0.139-0.525-0.234
					c-0.15-0.098-0.271-0.223-0.36-0.375c-0.09-0.154-0.135-0.35-0.135-0.59c0-0.227,0.05-0.428,0.15-0.6
					c0.1-0.174,0.233-0.318,0.399-0.432c0.167-0.113,0.354-0.199,0.561-0.26c0.206-0.059,0.42-0.09,0.64-0.09
					c0.333,0,0.642,0.066,0.925,0.201c0.283,0.133,0.505,0.35,0.665,0.648l-0.649,0.432c-0.101-0.168-0.232-0.303-0.396-0.406
					s-0.361-0.154-0.595-0.154c-0.106,0-0.215,0.014-0.325,0.039c-0.11,0.027-0.208,0.066-0.295,0.121
					c-0.087,0.053-0.158,0.121-0.215,0.205c-0.057,0.082-0.085,0.178-0.085,0.285c0,0.1,0.031,0.184,0.095,0.254
					s0.15,0.133,0.26,0.186c0.11,0.053,0.237,0.1,0.38,0.141c0.144,0.039,0.292,0.072,0.445,0.1c0.207,0.039,0.403,0.092,0.59,0.154
					c0.187,0.064,0.351,0.148,0.49,0.256c0.14,0.105,0.25,0.24,0.33,0.398c0.08,0.16,0.12,0.357,0.12,0.592
					c0,0.266-0.054,0.492-0.16,0.68c-0.106,0.186-0.248,0.338-0.425,0.455c-0.177,0.115-0.377,0.201-0.601,0.254
					c-0.223,0.055-0.451,0.08-0.685,0.08c-0.4,0-0.745-0.061-1.035-0.186c-0.29-0.123-0.552-0.352-0.785-0.684L33.65,6.224z"/>
			</g>
		</g>
		<g>
			<rect x="16.279" y="18.509" fill="#D1D3D4" width="14.463" height="14.465"/>
		</g>
		<g>
			<rect x="37.583" y="25.741" fill="#D1D3D4" width="14.463" height="14.465"/>
		</g>
		<g>
			<rect x="28.29" y="43.032" fill="#D1D3D4" width="14.463" height="14.465"/>
		</g>
		<g>
			<rect x="45.856" y="53.431" fill="#D1D3D4" width="14.463" height="14.465"/>
		</g>
		<g>
			<rect x="60.094" y="31.562" fill="#D1D3D4" width="14.463" height="14.465"/>
		</g>
		<g>
			<rect x="63.873" y="12.267" fill="#D1D3D4" width="14.463" height="14.465"/>
		</g>
		<g>
			<rect x="20.059" y="65.784" fill="#D1D3D4" width="14.463" height="14.465"/>
		</g>
		<g>
			<rect x="63.873" y="57.538" fill="#D1D3D4" width="14.463" height="14.465"/>
		</g>
		<g>
			<g>
				<path fill="#939598" d="M22.916,27.431v-0.66c0-0.176,0.011-0.326,0.03-0.449c0.021-0.125,0.056-0.236,0.108-0.336
					c0.052-0.1,0.12-0.197,0.204-0.289s0.186-0.201,0.306-0.33l0.924-0.936c0.2-0.199,0.3-0.459,0.3-0.779
					c0-0.312-0.102-0.566-0.306-0.762c-0.204-0.197-0.462-0.295-0.774-0.295c-0.336,0-0.611,0.113-0.827,0.342
					c-0.217,0.229-0.341,0.506-0.372,0.834l-1.536-0.119c0.048-0.385,0.147-0.727,0.3-1.027c0.152-0.299,0.35-0.553,0.594-0.762
					c0.244-0.207,0.526-0.365,0.847-0.473c0.319-0.109,0.672-0.162,1.056-0.162c0.36,0,0.694,0.051,1.002,0.156
					c0.308,0.104,0.576,0.254,0.804,0.449c0.229,0.195,0.406,0.439,0.534,0.732c0.128,0.291,0.192,0.625,0.192,1.002
					c0,0.264-0.036,0.496-0.108,0.695c-0.072,0.201-0.168,0.385-0.288,0.553s-0.258,0.328-0.414,0.48
					c-0.155,0.15-0.322,0.311-0.498,0.479c-0.112,0.105-0.208,0.197-0.288,0.277s-0.146,0.162-0.197,0.246
					c-0.053,0.084-0.091,0.18-0.114,0.287c-0.024,0.107-0.036,0.238-0.036,0.391v0.455H22.916z M22.677,29.099
					c0-0.256,0.094-0.475,0.281-0.66c0.188-0.184,0.414-0.275,0.679-0.275c0.256,0,0.479,0.088,0.672,0.264
					c0.191,0.176,0.288,0.393,0.288,0.648s-0.095,0.477-0.282,0.66c-0.188,0.184-0.414,0.275-0.678,0.275
					c-0.128,0-0.25-0.023-0.366-0.072c-0.116-0.047-0.218-0.111-0.306-0.191c-0.089-0.08-0.158-0.176-0.21-0.289
					C22.702,29.347,22.677,29.228,22.677,29.099z"/>
			</g>
		</g>
		<g>
			<g>
				<path fill="#939598" d="M44.22,34.663v-0.66c0-0.176,0.011-0.326,0.03-0.449c0.021-0.125,0.056-0.236,0.108-0.336
					c0.052-0.1,0.12-0.197,0.204-0.289s0.186-0.201,0.306-0.33l0.924-0.936c0.2-0.199,0.3-0.459,0.3-0.779
					c0-0.312-0.102-0.566-0.306-0.762c-0.204-0.197-0.462-0.295-0.774-0.295c-0.336,0-0.611,0.113-0.827,0.342
					c-0.217,0.229-0.341,0.506-0.372,0.834l-1.536-0.119c0.048-0.385,0.147-0.727,0.3-1.027c0.152-0.299,0.35-0.553,0.594-0.762
					c0.244-0.207,0.526-0.365,0.847-0.473c0.319-0.109,0.672-0.162,1.056-0.162c0.36,0,0.694,0.051,1.002,0.156
					c0.308,0.104,0.576,0.254,0.804,0.449c0.229,0.195,0.406,0.439,0.534,0.732c0.128,0.291,0.192,0.625,0.192,1.002
					c0,0.264-0.036,0.496-0.108,0.695c-0.072,0.201-0.168,0.385-0.288,0.553s-0.258,0.328-0.414,0.48
					c-0.155,0.15-0.322,0.311-0.498,0.479c-0.112,0.105-0.208,0.197-0.288,0.277s-0.146,0.162-0.197,0.246
					c-0.053,0.084-0.091,0.18-0.114,0.287c-0.024,0.107-0.036,0.238-0.036,0.391v0.455H44.22z M43.98,36.331
					c0-0.256,0.094-0.475,0.281-0.66c0.188-0.184,0.414-0.275,0.679-0.275c0.256,0,0.479,0.088,0.672,0.264
					c0.191,0.176,0.288,0.393,0.288,0.648s-0.095,0.477-0.282,0.66c-0.188,0.184-0.414,0.275-0.678,0.275
					c-0.128,0-0.25-0.023-0.366-0.072c-0.116-0.047-0.218-0.111-0.306-0.191c-0.089-0.08-0.158-0.176-0.21-0.289
					C44.006,36.579,43.98,36.46,43.98,36.331z"/>
			</g>
		</g>
		<g>
			<g>
				<path fill="#939598" d="M70.51,21.188v-0.66c0-0.176,0.011-0.326,0.03-0.449c0.021-0.125,0.056-0.236,0.108-0.336
					c0.052-0.1,0.12-0.197,0.204-0.289s0.186-0.201,0.306-0.33l0.924-0.936c0.2-0.199,0.3-0.459,0.3-0.779
					c0-0.312-0.102-0.566-0.306-0.762c-0.204-0.197-0.462-0.295-0.774-0.295c-0.336,0-0.611,0.113-0.827,0.342
					c-0.217,0.229-0.341,0.506-0.372,0.834l-1.536-0.119c0.048-0.385,0.147-0.727,0.3-1.027c0.152-0.299,0.35-0.553,0.594-0.762
					c0.244-0.207,0.526-0.365,0.847-0.473c0.319-0.109,0.672-0.162,1.056-0.162c0.36,0,0.694,0.051,1.002,0.156
					c0.308,0.104,0.576,0.254,0.804,0.449c0.229,0.195,0.406,0.439,0.534,0.732c0.128,0.291,0.192,0.625,0.192,1.002
					c0,0.264-0.036,0.496-0.108,0.695c-0.072,0.201-0.168,0.385-0.288,0.553s-0.258,0.328-0.414,0.48
					c-0.155,0.15-0.322,0.311-0.498,0.479c-0.112,0.105-0.208,0.197-0.288,0.277s-0.146,0.162-0.197,0.246
					c-0.053,0.084-0.091,0.18-0.114,0.287c-0.024,0.107-0.036,0.238-0.036,0.391v0.455H70.51z M70.271,22.856
					c0-0.256,0.094-0.475,0.281-0.66c0.188-0.184,0.414-0.275,0.679-0.275c0.256,0,0.479,0.088,0.672,0.264
					c0.191,0.176,0.288,0.393,0.288,0.648s-0.095,0.477-0.282,0.66c-0.188,0.184-0.414,0.275-0.678,0.275
					c-0.128,0-0.25-0.023-0.366-0.072c-0.116-0.047-0.218-0.111-0.306-0.191c-0.089-0.08-0.158-0.176-0.21-0.289
					C70.296,23.104,70.271,22.985,70.271,22.856z"/>
			</g>
		</g>
		<g>
			<g>
				<path fill="#939598" d="M66.73,40.483v-0.66c0-0.176,0.011-0.326,0.03-0.45c0.021-0.124,0.056-0.235,0.108-0.336
					c0.052-0.1,0.12-0.196,0.204-0.288s0.186-0.202,0.306-0.33l0.924-0.936c0.2-0.2,0.3-0.46,0.3-0.78
					c0-0.312-0.102-0.565-0.306-0.762s-0.462-0.294-0.774-0.294c-0.336,0-0.611,0.113-0.827,0.342
					c-0.217,0.228-0.341,0.506-0.372,0.834l-1.536-0.12c0.048-0.384,0.147-0.726,0.3-1.026c0.152-0.3,0.35-0.554,0.594-0.762
					s0.526-0.366,0.847-0.474c0.319-0.108,0.672-0.162,1.056-0.162c0.36,0,0.694,0.052,1.002,0.156
					c0.308,0.104,0.576,0.254,0.804,0.449c0.229,0.196,0.406,0.44,0.534,0.732s0.192,0.626,0.192,1.002
					c0,0.264-0.036,0.496-0.108,0.696s-0.168,0.384-0.288,0.552s-0.258,0.328-0.414,0.48c-0.155,0.151-0.322,0.312-0.498,0.479
					c-0.112,0.104-0.208,0.196-0.288,0.276s-0.146,0.162-0.197,0.246c-0.053,0.084-0.091,0.18-0.114,0.288
					c-0.024,0.107-0.036,0.237-0.036,0.39v0.456H66.73z M66.491,42.151c0-0.256,0.094-0.476,0.281-0.66
					c0.188-0.184,0.414-0.276,0.679-0.276c0.256,0,0.479,0.089,0.672,0.265c0.191,0.176,0.288,0.392,0.288,0.647
					c0,0.257-0.095,0.477-0.282,0.66c-0.188,0.185-0.414,0.276-0.678,0.276c-0.128,0-0.25-0.024-0.366-0.072
					s-0.218-0.112-0.306-0.192c-0.089-0.079-0.158-0.176-0.21-0.288C66.517,42.399,66.491,42.279,66.491,42.151z"/>
			</g>
		</g>
		<g>
			<g>
				<path fill="#939598" d="M52.492,62.353v-0.66c0-0.176,0.011-0.326,0.03-0.45c0.021-0.124,0.056-0.235,0.108-0.336
					c0.052-0.1,0.12-0.196,0.204-0.288s0.186-0.202,0.306-0.33l0.924-0.936c0.2-0.2,0.3-0.46,0.3-0.78
					c0-0.312-0.102-0.565-0.306-0.762s-0.462-0.294-0.774-0.294c-0.336,0-0.611,0.113-0.827,0.342
					c-0.217,0.228-0.341,0.506-0.372,0.834l-1.536-0.12c0.048-0.384,0.147-0.726,0.3-1.026c0.152-0.3,0.35-0.554,0.594-0.762
					s0.526-0.366,0.847-0.474c0.319-0.108,0.672-0.162,1.056-0.162c0.36,0,0.694,0.052,1.002,0.156
					c0.308,0.104,0.576,0.254,0.804,0.449c0.229,0.196,0.406,0.44,0.534,0.732s0.192,0.626,0.192,1.002
					c0,0.264-0.036,0.496-0.108,0.696s-0.168,0.384-0.288,0.552s-0.258,0.328-0.414,0.48c-0.155,0.151-0.322,0.312-0.498,0.479
					c-0.112,0.104-0.208,0.196-0.288,0.276s-0.146,0.162-0.197,0.246c-0.053,0.084-0.091,0.18-0.114,0.288
					c-0.024,0.107-0.036,0.237-0.036,0.39v0.456H52.492z M52.253,64.021c0-0.256,0.094-0.476,0.281-0.66
					c0.188-0.184,0.414-0.276,0.679-0.276c0.256,0,0.479,0.089,0.672,0.265c0.191,0.176,0.288,0.392,0.288,0.647
					c0,0.257-0.095,0.477-0.282,0.66c-0.188,0.185-0.414,0.276-0.678,0.276c-0.128,0-0.25-0.024-0.366-0.072
					s-0.218-0.112-0.306-0.192c-0.089-0.079-0.158-0.176-0.21-0.288C52.278,64.269,52.253,64.148,52.253,64.021z"/>
			</g>
		</g>
		<g>
			<g>
				<path fill="#939598" d="M70.51,66.46V65.8c0-0.176,0.011-0.326,0.03-0.45c0.021-0.124,0.056-0.235,0.108-0.336
					c0.052-0.1,0.12-0.196,0.204-0.288s0.186-0.202,0.306-0.33l0.924-0.936c0.2-0.2,0.3-0.46,0.3-0.78
					c0-0.312-0.102-0.565-0.306-0.762s-0.462-0.294-0.774-0.294c-0.336,0-0.611,0.113-0.827,0.342
					c-0.217,0.228-0.341,0.506-0.372,0.834l-1.536-0.12c0.048-0.384,0.147-0.726,0.3-1.026c0.152-0.3,0.35-0.554,0.594-0.762
					s0.526-0.366,0.847-0.474c0.319-0.108,0.672-0.162,1.056-0.162c0.36,0,0.694,0.052,1.002,0.156
					c0.308,0.104,0.576,0.254,0.804,0.449c0.229,0.196,0.406,0.44,0.534,0.732s0.192,0.626,0.192,1.002
					c0,0.264-0.036,0.496-0.108,0.696s-0.168,0.384-0.288,0.552s-0.258,0.328-0.414,0.48c-0.155,0.151-0.322,0.312-0.498,0.479
					c-0.112,0.104-0.208,0.196-0.288,0.276s-0.146,0.162-0.197,0.246c-0.053,0.084-0.091,0.18-0.114,0.288
					c-0.024,0.107-0.036,0.237-0.036,0.39v0.456H70.51z M70.271,68.128c0-0.256,0.094-0.476,0.281-0.66
					c0.188-0.184,0.414-0.276,0.679-0.276c0.256,0,0.479,0.089,0.672,0.265c0.191,0.176,0.288,0.392,0.288,0.647
					c0,0.257-0.095,0.477-0.282,0.66c-0.188,0.185-0.414,0.276-0.678,0.276c-0.128,0-0.25-0.024-0.366-0.072
					s-0.218-0.112-0.306-0.192c-0.089-0.079-0.158-0.176-0.21-0.288C70.296,68.376,70.271,68.256,70.271,68.128z"/>
			</g>
		</g>
		<g>
			<g>
				<path fill="#939598" d="M26.695,74.706v-0.66c0-0.176,0.011-0.326,0.03-0.45c0.021-0.124,0.056-0.235,0.108-0.336
					c0.052-0.1,0.12-0.196,0.204-0.288s0.186-0.202,0.306-0.33l0.924-0.936c0.2-0.2,0.3-0.46,0.3-0.78
					c0-0.312-0.102-0.565-0.306-0.762S27.8,69.87,27.487,69.87c-0.336,0-0.611,0.113-0.827,0.342
					c-0.217,0.228-0.341,0.506-0.372,0.834l-1.536-0.12c0.048-0.384,0.147-0.726,0.3-1.026c0.152-0.3,0.35-0.554,0.594-0.762
					s0.526-0.366,0.847-0.474c0.319-0.108,0.672-0.162,1.056-0.162c0.36,0,0.694,0.052,1.002,0.156
					c0.308,0.104,0.576,0.254,0.804,0.449c0.229,0.196,0.406,0.44,0.534,0.732s0.192,0.626,0.192,1.002
					c0,0.264-0.036,0.496-0.108,0.696s-0.168,0.384-0.288,0.552s-0.258,0.328-0.414,0.48c-0.155,0.151-0.322,0.312-0.498,0.479
					c-0.112,0.104-0.208,0.196-0.288,0.276s-0.146,0.162-0.197,0.246c-0.053,0.084-0.091,0.18-0.114,0.288
					c-0.024,0.107-0.036,0.237-0.036,0.39v0.456H26.695z M26.456,76.374c0-0.256,0.094-0.476,0.281-0.66
					c0.188-0.184,0.414-0.276,0.679-0.276c0.256,0,0.479,0.089,0.672,0.265c0.191,0.176,0.288,0.392,0.288,0.647
					c0,0.257-0.095,0.477-0.282,0.66c-0.188,0.185-0.414,0.276-0.678,0.276c-0.128,0-0.25-0.024-0.366-0.072
					s-0.218-0.112-0.306-0.192c-0.089-0.079-0.158-0.176-0.21-0.288C26.481,76.622,26.456,76.502,26.456,76.374z"/>
			</g>
		</g>
		<g>
			<g>
				<path fill="#939598" d="M34.926,51.954v-0.66c0-0.176,0.011-0.326,0.03-0.45c0.021-0.124,0.056-0.235,0.108-0.336
					c0.052-0.1,0.12-0.196,0.204-0.288s0.186-0.202,0.306-0.33l0.924-0.936c0.2-0.2,0.3-0.46,0.3-0.78
					c0-0.312-0.102-0.565-0.306-0.762s-0.462-0.294-0.774-0.294c-0.336,0-0.611,0.113-0.827,0.342
					c-0.217,0.228-0.341,0.506-0.372,0.834l-1.536-0.12c0.048-0.384,0.147-0.726,0.3-1.026c0.152-0.3,0.35-0.554,0.594-0.762
					s0.526-0.366,0.847-0.474c0.319-0.108,0.672-0.162,1.056-0.162c0.36,0,0.694,0.052,1.002,0.156
					c0.308,0.104,0.576,0.254,0.804,0.449c0.229,0.196,0.406,0.44,0.534,0.732s0.192,0.626,0.192,1.002
					c0,0.264-0.036,0.496-0.108,0.696s-0.168,0.384-0.288,0.552s-0.258,0.328-0.414,0.48c-0.155,0.151-0.322,0.312-0.498,0.479
					c-0.112,0.104-0.208,0.196-0.288,0.276s-0.146,0.162-0.197,0.246c-0.053,0.084-0.091,0.18-0.114,0.288
					c-0.024,0.107-0.036,0.237-0.036,0.39v0.456H34.926z M34.687,53.622c0-0.256,0.094-0.476,0.281-0.66
					c0.188-0.184,0.414-0.276,0.679-0.276c0.256,0,0.479,0.089,0.672,0.265c0.191,0.176,0.288,0.392,0.288,0.647
					c0,0.257-0.095,0.477-0.282,0.66c-0.188,0.185-0.414,0.276-0.678,0.276c-0.128,0-0.25-0.024-0.366-0.072
					s-0.218-0.112-0.306-0.192c-0.089-0.079-0.158-0.176-0.21-0.288C34.712,53.87,34.687,53.75,34.687,53.622z"/>
			</g>
		</g>
	</g>
</g>
<g id="Layer_4">
</g>
<g id="Layer_3">
</g>
<g id="Layer_5">
</g>
<g id="Annotations">
</g>
</svg>
