<?xml version="1.0" encoding="utf-8"?>
<!-- Generator: Adobe Illustrator 16.0.0, SVG Export Plug-In . SVG Version: 6.00 Build 0)  -->
<!DOCTYPE svg PUBLIC "-//W3C//DTD SVG 1.1//EN" "http://www.w3.org/Graphics/SVG/1.1/DTD/svg11.dtd">
<svg version="1.1" xmlns="http://www.w3.org/2000/svg" xmlns:xlink="http://www.w3.org/1999/xlink" x="0px" y="0px"
	 width="89.603px" height="92.106px" viewBox="0 0 89.603 92.106" enable-background="new 0 0 89.603 92.106" xml:space="preserve">
<g id="Layer_2">
</g>
<g id="Layer_1">
	<g>
		<g>
			<rect x="13.772" y="18.304" fill="#D1D3D4" width="14.463" height="14.465"/>
		</g>
		<g>
			<rect x="35.077" y="25.536" fill="#D1D3D4" width="14.463" height="14.465"/>
		</g>
		<g>
			<rect x="25.784" y="42.827" fill="#D1D3D4" width="14.463" height="14.465"/>
		</g>
		<g>
			<rect x="43.351" y="53.226" fill="#D1D3D4" width="14.463" height="14.465"/>
		</g>
		<g>
			<rect x="57.587" y="31.356" fill="#D1D3D4" width="14.463" height="14.465"/>
		</g>
		<g>
			<rect x="61.366" y="12.062" fill="#D1D3D4" width="14.463" height="14.465"/>
		</g>
		<g>
			<rect x="17.552" y="65.579" fill="#D1D3D4" width="14.463" height="14.465"/>
		</g>
		<g>
			<rect x="61.366" y="57.333" fill="#D1D3D4" width="14.463" height="14.465"/>
		</g>
		<g>
			<g>
				<path fill="#939598" d="M20.409,27.226v-0.66c0-0.176,0.012-0.326,0.031-0.449c0.02-0.125,0.055-0.236,0.107-0.336
					s0.121-0.197,0.205-0.289s0.186-0.201,0.305-0.33l0.924-0.936c0.201-0.199,0.301-0.459,0.301-0.779
					c0-0.312-0.102-0.566-0.307-0.762c-0.203-0.197-0.461-0.295-0.773-0.295c-0.336,0-0.611,0.113-0.828,0.342
					s-0.34,0.506-0.371,0.834l-1.537-0.119c0.049-0.385,0.148-0.727,0.301-1.027c0.152-0.299,0.35-0.553,0.594-0.762
					c0.244-0.207,0.525-0.365,0.846-0.473c0.32-0.109,0.672-0.162,1.057-0.162c0.359,0,0.693,0.051,1.002,0.156
					c0.307,0.104,0.576,0.254,0.803,0.449c0.229,0.195,0.406,0.439,0.535,0.732c0.127,0.291,0.191,0.625,0.191,1.002
					c0,0.264-0.035,0.496-0.107,0.695c-0.072,0.201-0.168,0.385-0.289,0.553c-0.119,0.168-0.258,0.328-0.414,0.48
					c-0.154,0.15-0.322,0.311-0.498,0.479c-0.111,0.105-0.207,0.197-0.287,0.277s-0.146,0.162-0.197,0.246
					c-0.053,0.084-0.092,0.18-0.115,0.287s-0.035,0.238-0.035,0.391v0.455H20.409z M20.171,28.894c0-0.256,0.094-0.475,0.281-0.66
					c0.188-0.184,0.414-0.275,0.678-0.275c0.256,0,0.48,0.088,0.672,0.264s0.289,0.393,0.289,0.648s-0.096,0.477-0.283,0.66
					s-0.414,0.275-0.678,0.275c-0.127,0-0.25-0.023-0.365-0.072c-0.117-0.047-0.219-0.111-0.307-0.191s-0.158-0.176-0.209-0.289
					C20.196,29.142,20.171,29.022,20.171,28.894z"/>
			</g>
		</g>
		<g>
			<g>
				<path fill="#939598" d="M41.714,34.458v-0.66c0-0.176,0.01-0.326,0.029-0.449c0.021-0.125,0.057-0.236,0.109-0.336
					c0.051-0.1,0.119-0.197,0.203-0.289s0.186-0.201,0.307-0.33l0.924-0.936c0.199-0.199,0.299-0.459,0.299-0.779
					c0-0.312-0.102-0.566-0.305-0.762c-0.205-0.197-0.463-0.295-0.775-0.295c-0.336,0-0.611,0.113-0.826,0.342
					c-0.217,0.229-0.342,0.506-0.373,0.834l-1.535-0.119c0.047-0.385,0.146-0.727,0.299-1.027c0.152-0.299,0.35-0.553,0.594-0.762
					c0.244-0.207,0.527-0.365,0.848-0.473c0.318-0.109,0.672-0.162,1.055-0.162c0.361,0,0.695,0.051,1.002,0.156
					c0.309,0.104,0.576,0.254,0.805,0.449s0.406,0.439,0.533,0.732c0.129,0.291,0.193,0.625,0.193,1.002
					c0,0.264-0.037,0.496-0.109,0.695c-0.072,0.201-0.168,0.385-0.287,0.553c-0.121,0.168-0.258,0.328-0.414,0.48
					c-0.156,0.15-0.322,0.311-0.498,0.479c-0.113,0.105-0.209,0.197-0.289,0.277s-0.145,0.162-0.197,0.246s-0.09,0.18-0.113,0.287
					c-0.025,0.107-0.037,0.238-0.037,0.391v0.455H41.714z M41.474,36.126c0-0.256,0.094-0.475,0.281-0.66
					c0.189-0.184,0.414-0.275,0.68-0.275c0.256,0,0.479,0.088,0.672,0.264c0.191,0.176,0.287,0.393,0.287,0.648
					s-0.094,0.477-0.281,0.66c-0.189,0.184-0.414,0.275-0.678,0.275c-0.129,0-0.25-0.023-0.367-0.072
					c-0.115-0.047-0.217-0.111-0.305-0.191c-0.09-0.08-0.158-0.176-0.211-0.289C41.499,36.374,41.474,36.255,41.474,36.126z"/>
			</g>
		</g>
		<g>
			<g>
				<path fill="#939598" d="M68.003,20.983v-0.66c0-0.176,0.012-0.326,0.031-0.449c0.02-0.125,0.055-0.236,0.107-0.336
					s0.121-0.197,0.205-0.289s0.186-0.201,0.305-0.33l0.924-0.936c0.201-0.199,0.301-0.459,0.301-0.779
					c0-0.312-0.102-0.566-0.307-0.762c-0.203-0.197-0.461-0.295-0.773-0.295c-0.336,0-0.611,0.113-0.828,0.342
					s-0.34,0.506-0.371,0.834l-1.537-0.119c0.049-0.385,0.148-0.727,0.301-1.027c0.152-0.299,0.35-0.553,0.594-0.762
					c0.244-0.207,0.525-0.365,0.846-0.473c0.32-0.109,0.672-0.162,1.057-0.162c0.359,0,0.693,0.051,1.002,0.156
					c0.307,0.104,0.576,0.254,0.803,0.449c0.229,0.195,0.406,0.439,0.535,0.732c0.127,0.291,0.191,0.625,0.191,1.002
					c0,0.264-0.035,0.496-0.107,0.695c-0.072,0.201-0.168,0.385-0.289,0.553c-0.119,0.168-0.258,0.328-0.414,0.48
					c-0.154,0.15-0.322,0.311-0.498,0.479c-0.111,0.105-0.207,0.197-0.287,0.277s-0.146,0.162-0.197,0.246
					c-0.053,0.084-0.092,0.18-0.115,0.287s-0.035,0.238-0.035,0.391v0.455H68.003z M67.765,22.651c0-0.256,0.094-0.475,0.281-0.66
					c0.188-0.184,0.414-0.275,0.678-0.275c0.256,0,0.48,0.088,0.672,0.264s0.289,0.393,0.289,0.648s-0.096,0.477-0.283,0.66
					s-0.414,0.275-0.678,0.275c-0.127,0-0.25-0.023-0.365-0.072c-0.117-0.047-0.219-0.111-0.307-0.191s-0.158-0.176-0.209-0.289
					C67.79,22.899,67.765,22.78,67.765,22.651z"/>
			</g>
		</g>
		<g>
			<g>
				<path fill="#939598" d="M64.224,40.278v-0.66c0-0.176,0.012-0.326,0.031-0.449c0.02-0.125,0.055-0.236,0.107-0.336
					s0.121-0.197,0.205-0.289s0.186-0.201,0.305-0.33l0.924-0.936c0.201-0.199,0.301-0.459,0.301-0.779
					c0-0.312-0.102-0.566-0.307-0.762c-0.203-0.197-0.461-0.295-0.773-0.295c-0.336,0-0.611,0.113-0.828,0.342
					s-0.34,0.506-0.371,0.834l-1.537-0.119c0.049-0.385,0.148-0.727,0.301-1.027c0.152-0.299,0.35-0.553,0.594-0.762
					c0.244-0.207,0.525-0.365,0.846-0.473c0.32-0.109,0.672-0.162,1.057-0.162c0.359,0,0.693,0.051,1.002,0.156
					c0.307,0.104,0.576,0.254,0.803,0.449c0.229,0.195,0.406,0.439,0.535,0.732c0.127,0.291,0.191,0.625,0.191,1.002
					c0,0.264-0.035,0.496-0.107,0.695c-0.072,0.201-0.168,0.385-0.289,0.553c-0.119,0.168-0.258,0.328-0.414,0.48
					c-0.154,0.15-0.322,0.311-0.498,0.479c-0.111,0.105-0.207,0.197-0.287,0.277s-0.146,0.162-0.197,0.246
					c-0.053,0.084-0.092,0.18-0.115,0.287s-0.035,0.238-0.035,0.391v0.455H64.224z M63.985,41.946c0-0.256,0.094-0.475,0.281-0.66
					c0.188-0.184,0.414-0.275,0.678-0.275c0.256,0,0.48,0.088,0.672,0.264s0.289,0.393,0.289,0.648s-0.096,0.477-0.283,0.66
					s-0.414,0.275-0.678,0.275c-0.127,0-0.25-0.023-0.365-0.072c-0.117-0.047-0.219-0.111-0.307-0.191s-0.158-0.176-0.209-0.289
					C64.011,42.194,63.985,42.075,63.985,41.946z"/>
			</g>
		</g>
		<g>
			<g>
				<path fill="#939598" d="M49.985,62.147v-0.66c0-0.176,0.012-0.326,0.031-0.449c0.02-0.125,0.055-0.236,0.107-0.336
					s0.121-0.197,0.205-0.289s0.186-0.201,0.305-0.33l0.924-0.936c0.201-0.199,0.301-0.459,0.301-0.779
					c0-0.312-0.102-0.566-0.307-0.762c-0.203-0.197-0.461-0.295-0.773-0.295c-0.336,0-0.611,0.113-0.828,0.342
					s-0.34,0.506-0.371,0.834l-1.537-0.119c0.049-0.385,0.148-0.727,0.301-1.027c0.152-0.299,0.35-0.553,0.594-0.762
					c0.244-0.207,0.525-0.365,0.846-0.473c0.32-0.109,0.672-0.162,1.057-0.162c0.359,0,0.693,0.051,1.002,0.156
					c0.307,0.104,0.576,0.254,0.803,0.449c0.229,0.195,0.406,0.439,0.535,0.732c0.127,0.291,0.191,0.625,0.191,1.002
					c0,0.264-0.035,0.496-0.107,0.695c-0.072,0.201-0.168,0.385-0.289,0.553c-0.119,0.168-0.258,0.328-0.414,0.48
					c-0.154,0.15-0.322,0.311-0.498,0.479c-0.111,0.105-0.207,0.197-0.287,0.277s-0.146,0.162-0.197,0.246
					c-0.053,0.084-0.092,0.18-0.115,0.287s-0.035,0.238-0.035,0.391v0.455H49.985z M49.747,63.815c0-0.256,0.094-0.475,0.281-0.66
					c0.188-0.184,0.414-0.275,0.678-0.275c0.256,0,0.48,0.088,0.672,0.264s0.289,0.393,0.289,0.648s-0.096,0.477-0.283,0.66
					s-0.414,0.275-0.678,0.275c-0.127,0-0.25-0.023-0.365-0.072c-0.117-0.047-0.219-0.111-0.307-0.191s-0.158-0.176-0.209-0.289
					C49.772,64.063,49.747,63.944,49.747,63.815z"/>
			</g>
		</g>
		<g>
			<g>
				<path fill="#939598" d="M68.003,66.255v-0.66c0-0.176,0.012-0.326,0.031-0.449c0.02-0.125,0.055-0.236,0.107-0.336
					s0.121-0.197,0.205-0.289s0.186-0.201,0.305-0.33l0.924-0.936c0.201-0.199,0.301-0.459,0.301-0.779
					c0-0.312-0.102-0.566-0.307-0.762c-0.203-0.197-0.461-0.295-0.773-0.295c-0.336,0-0.611,0.113-0.828,0.342
					s-0.34,0.506-0.371,0.834l-1.537-0.119c0.049-0.385,0.148-0.727,0.301-1.027c0.152-0.299,0.35-0.553,0.594-0.762
					c0.244-0.207,0.525-0.365,0.846-0.473c0.32-0.109,0.672-0.162,1.057-0.162c0.359,0,0.693,0.051,1.002,0.156
					c0.307,0.104,0.576,0.254,0.803,0.449c0.229,0.195,0.406,0.439,0.535,0.732c0.127,0.291,0.191,0.625,0.191,1.002
					c0,0.264-0.035,0.496-0.107,0.695c-0.072,0.201-0.168,0.385-0.289,0.553c-0.119,0.168-0.258,0.328-0.414,0.48
					c-0.154,0.15-0.322,0.311-0.498,0.479c-0.111,0.105-0.207,0.197-0.287,0.277s-0.146,0.162-0.197,0.246
					c-0.053,0.084-0.092,0.18-0.115,0.287s-0.035,0.238-0.035,0.391v0.455H68.003z M67.765,67.923c0-0.256,0.094-0.475,0.281-0.66
					c0.188-0.184,0.414-0.275,0.678-0.275c0.256,0,0.48,0.088,0.672,0.264s0.289,0.393,0.289,0.648s-0.096,0.477-0.283,0.66
					s-0.414,0.275-0.678,0.275c-0.127,0-0.25-0.023-0.365-0.072c-0.117-0.047-0.219-0.111-0.307-0.191s-0.158-0.176-0.209-0.289
					C67.79,68.171,67.765,68.052,67.765,67.923z"/>
			</g>
		</g>
		<g>
			<g>
				<path fill="#939598" d="M24.188,74.501v-0.66c0-0.176,0.012-0.326,0.031-0.449c0.02-0.125,0.055-0.236,0.107-0.336
					s0.121-0.197,0.205-0.289s0.186-0.201,0.305-0.33l0.924-0.936c0.201-0.199,0.301-0.459,0.301-0.779
					c0-0.312-0.102-0.566-0.307-0.762c-0.203-0.197-0.461-0.295-0.773-0.295c-0.336,0-0.611,0.113-0.828,0.342
					s-0.34,0.506-0.371,0.834l-1.537-0.119c0.049-0.385,0.148-0.727,0.301-1.027c0.152-0.299,0.35-0.553,0.594-0.762
					c0.244-0.207,0.525-0.365,0.846-0.473c0.32-0.109,0.672-0.162,1.057-0.162c0.359,0,0.693,0.051,1.002,0.156
					c0.307,0.104,0.576,0.254,0.803,0.449c0.229,0.195,0.406,0.439,0.535,0.732c0.127,0.291,0.191,0.625,0.191,1.002
					c0,0.264-0.035,0.496-0.107,0.695c-0.072,0.201-0.168,0.385-0.289,0.553c-0.119,0.168-0.258,0.328-0.414,0.48
					c-0.154,0.15-0.322,0.311-0.498,0.479c-0.111,0.105-0.207,0.197-0.287,0.277s-0.146,0.162-0.197,0.246
					c-0.053,0.084-0.092,0.18-0.115,0.287s-0.035,0.238-0.035,0.391v0.455H24.188z M23.95,76.169c0-0.256,0.094-0.475,0.281-0.66
					c0.188-0.184,0.414-0.275,0.678-0.275c0.256,0,0.48,0.088,0.672,0.264s0.289,0.393,0.289,0.648s-0.096,0.477-0.283,0.66
					s-0.414,0.275-0.678,0.275c-0.127,0-0.25-0.023-0.365-0.072c-0.117-0.047-0.219-0.111-0.307-0.191s-0.158-0.176-0.209-0.289
					C23.976,76.417,23.95,76.298,23.95,76.169z"/>
			</g>
		</g>
		<g>
			<g>
				<path fill="#939598" d="M32.419,51.749v-0.66c0-0.176,0.012-0.326,0.031-0.449c0.02-0.125,0.055-0.236,0.107-0.336
					s0.121-0.197,0.205-0.289s0.186-0.201,0.305-0.33l0.924-0.936c0.201-0.199,0.301-0.459,0.301-0.779
					c0-0.312-0.102-0.566-0.307-0.762c-0.203-0.197-0.461-0.295-0.773-0.295c-0.336,0-0.611,0.113-0.828,0.342
					s-0.34,0.506-0.371,0.834l-1.537-0.119c0.049-0.385,0.148-0.727,0.301-1.027c0.152-0.299,0.35-0.553,0.594-0.762
					c0.244-0.207,0.525-0.365,0.846-0.473c0.32-0.109,0.672-0.162,1.057-0.162c0.359,0,0.693,0.051,1.002,0.156
					c0.307,0.104,0.576,0.254,0.803,0.449c0.229,0.195,0.406,0.439,0.535,0.732c0.127,0.291,0.191,0.625,0.191,1.002
					c0,0.264-0.035,0.496-0.107,0.695c-0.072,0.201-0.168,0.385-0.289,0.553c-0.119,0.168-0.258,0.328-0.414,0.48
					c-0.154,0.15-0.322,0.311-0.498,0.479c-0.111,0.105-0.207,0.197-0.287,0.277s-0.146,0.162-0.197,0.246
					c-0.053,0.084-0.092,0.18-0.115,0.287s-0.035,0.238-0.035,0.391v0.455H32.419z M32.181,53.417c0-0.256,0.094-0.475,0.281-0.66
					c0.188-0.184,0.414-0.275,0.678-0.275c0.256,0,0.48,0.088,0.672,0.264s0.289,0.393,0.289,0.648s-0.096,0.477-0.283,0.66
					s-0.414,0.275-0.678,0.275c-0.127,0-0.25-0.023-0.365-0.072c-0.117-0.047-0.219-0.111-0.307-0.191s-0.158-0.176-0.209-0.289
					C32.206,53.665,32.181,53.546,32.181,53.417z"/>
			</g>
		</g>
	</g>
	<g>
		<path fill="#A7A9AC" d="M88.186,1.417v89.271H1.417V1.417H88.186 M89.603,0H0v92.105h89.603V0L89.603,0z"/>
	</g>
</g>
<g id="Layer_4">
</g>
<g id="Layer_3">
</g>
<g id="Layer_5">
</g>
<g id="Annotations">
</g>
</svg>
