<?xml version="1.0" encoding="utf-8"?>
<!-- Generator: Adobe Illustrator 16.0.0, SVG Export Plug-In . SVG Version: 6.00 Build 0)  -->
<!DOCTYPE svg PUBLIC "-//W3C//DTD SVG 1.1//EN" "http://www.w3.org/Graphics/SVG/1.1/DTD/svg11.dtd">
<svg version="1.1" xmlns="http://www.w3.org/2000/svg" xmlns:xlink="http://www.w3.org/1999/xlink" x="0px" y="0px"
	 width="89.603px" height="92.106px" viewBox="0 0 89.603 92.106" enable-background="new 0 0 89.603 92.106" xml:space="preserve">
<g id="Layer_2">
</g>
<g id="Layer_1">
	<g>
		<g>
			
				<path fill="#FFFFFF" stroke="#A7A9AC" stroke-width="1.4173" stroke-linecap="round" stroke-linejoin="round" stroke-miterlimit="10" d="
				M53.21,51.769c0,6.537-6.918,11.834-15.453,11.834c-0.873,0-1.732-0.053-2.568-0.162c-0.793-0.1-7.434,4.536-7.434,4.536
				s3.584-5.422,2.863-5.71c-4.941-1.975-8.312-5.936-8.312-10.498c0-6.538,6.916-11.84,15.451-11.84S53.21,45.231,53.21,51.769z"/>
			
				<path fill="#FFFFFF" stroke="#A7A9AC" stroke-width="1.4173" stroke-linecap="round" stroke-linejoin="round" stroke-miterlimit="10" d="
				M36.39,35.963c0,6.538,6.92,11.84,15.453,11.84c0.875,0,1.734-0.053,2.566-0.163c0.797-0.104,7.439,4.537,7.439,4.537
				s-3.588-5.422-2.865-5.71c4.939-1.976,8.314-5.94,8.314-10.504c0-6.532-6.922-11.834-15.455-11.834S36.39,29.431,36.39,35.963z"
				/>
		</g>
	</g>
	<g>
		<path fill="#A7A9AC" d="M88.186,1.417v89.271H1.417V1.417H88.186 M89.603,0H0v92.106h89.603V0L89.603,0z"/>
	</g>
</g>
<g id="Layer_4">
</g>
<g id="Layer_3">
</g>
<g id="Layer_5">
</g>
<g id="Annotations">
</g>
</svg>
