<?xml version="1.0" encoding="utf-8"?>
<!-- Generator: Adobe Illustrator 16.0.0, SVG Export Plug-In . SVG Version: 6.00 Build 0)  -->
<!DOCTYPE svg PUBLIC "-//W3C//DTD SVG 1.1//EN" "http://www.w3.org/Graphics/SVG/1.1/DTD/svg11.dtd">
<svg version="1.1" xmlns="http://www.w3.org/2000/svg" xmlns:xlink="http://www.w3.org/1999/xlink" x="0px" y="0px"
	 width="89.603px" height="92.106px" viewBox="0 0 89.603 92.106" enable-background="new 0 0 89.603 92.106" xml:space="preserve">
<g id="Layer_2">
</g>
<g id="Layer_1">
	<g>
		<polyline fill="none" stroke="#A7A9AC" stroke-width="1.4173" stroke-miterlimit="10" points="2.997,12.874 2.997,91.384 
			88.901,91.384 88.901,5.48 50.02,5.48 		"/>
		<g>
			<g>
				<path fill="#939598" d="M0.889,0.466h0.84v7.08h-0.84V0.466z"/>
				<path fill="#939598" d="M3.349,3.976c0-0.213-0.007-0.413-0.021-0.6c-0.013-0.187-0.02-0.356-0.02-0.51h0.74
					c0,0.126,0.003,0.253,0.01,0.38s0.01,0.257,0.01,0.39h0.021c0.053-0.113,0.128-0.223,0.225-0.33
					C4.41,3.199,4.525,3.104,4.658,3.021c0.134-0.083,0.283-0.149,0.45-0.199c0.167-0.051,0.347-0.075,0.54-0.075
					c0.307,0,0.571,0.047,0.795,0.14c0.224,0.094,0.408,0.224,0.555,0.391c0.146,0.166,0.255,0.368,0.325,0.604
					s0.105,0.495,0.105,0.775v2.89h-0.78v-2.81c0-0.394-0.087-0.704-0.26-0.931c-0.174-0.227-0.443-0.34-0.811-0.34
					c-0.253,0-0.472,0.044-0.654,0.13c-0.184,0.087-0.334,0.21-0.45,0.37c-0.117,0.16-0.204,0.35-0.26,0.57
					c-0.058,0.22-0.086,0.463-0.086,0.729v2.28H3.349V3.976z"/>
				<path fill="#939598" d="M11.468,3.526h-1.38v2.34c0,0.153,0.003,0.295,0.01,0.425s0.033,0.243,0.08,0.34s0.117,0.174,0.21,0.23
					c0.094,0.057,0.227,0.085,0.4,0.085c0.113,0,0.229-0.014,0.35-0.04c0.12-0.027,0.233-0.067,0.34-0.12l0.03,0.71
					c-0.133,0.06-0.281,0.104-0.445,0.13c-0.163,0.026-0.318,0.04-0.465,0.04c-0.279,0-0.503-0.037-0.67-0.11
					c-0.166-0.073-0.297-0.177-0.39-0.31C9.444,7.112,9.383,6.947,9.353,6.751C9.323,6.555,9.308,6.336,9.308,6.096V3.526h-1.02
					v-0.66h1.02v-1.33h0.78v1.33h1.38V3.526z"/>
				<path fill="#939598" d="M16.607,6.696c-0.28,0.359-0.587,0.611-0.92,0.755c-0.333,0.143-0.72,0.215-1.16,0.215
					c-0.366,0-0.696-0.065-0.99-0.195c-0.293-0.13-0.541-0.305-0.744-0.524c-0.204-0.221-0.36-0.48-0.471-0.78
					c-0.109-0.3-0.165-0.62-0.165-0.96c0-0.36,0.061-0.691,0.181-0.995c0.119-0.304,0.286-0.563,0.5-0.78
					c0.213-0.217,0.466-0.385,0.76-0.505c0.293-0.12,0.613-0.18,0.96-0.18c0.326,0,0.626,0.055,0.899,0.165
					c0.273,0.109,0.509,0.27,0.705,0.479c0.197,0.21,0.349,0.467,0.455,0.771c0.106,0.303,0.16,0.648,0.16,1.035v0.25h-3.78
					c0.014,0.199,0.062,0.392,0.146,0.574c0.083,0.184,0.191,0.344,0.325,0.48c0.133,0.137,0.29,0.245,0.47,0.325
					s0.377,0.12,0.59,0.12c0.34,0,0.627-0.061,0.86-0.181s0.443-0.296,0.63-0.529L16.607,6.696z M15.938,4.786
					c-0.014-0.4-0.144-0.721-0.39-0.96c-0.247-0.24-0.587-0.36-1.021-0.36s-0.783,0.12-1.05,0.36c-0.267,0.239-0.427,0.56-0.48,0.96
					H15.938z"/>
				<path fill="#939598" d="M17.987,3.976c0-0.213-0.007-0.413-0.021-0.6c-0.013-0.187-0.02-0.356-0.02-0.51h0.74
					c0,0.126,0.003,0.253,0.01,0.38s0.01,0.257,0.01,0.39h0.021c0.053-0.113,0.128-0.223,0.225-0.33
					c0.097-0.106,0.212-0.201,0.345-0.285c0.134-0.083,0.283-0.149,0.45-0.199c0.167-0.051,0.347-0.075,0.54-0.075
					c0.054,0,0.106,0.003,0.16,0.01c0.053,0.007,0.106,0.021,0.16,0.04l-0.051,0.79c-0.133-0.04-0.273-0.06-0.42-0.06
					c-0.479,0-0.828,0.154-1.045,0.465c-0.217,0.31-0.325,0.734-0.325,1.274v2.28h-0.779V3.976z"/>
				<path fill="#939598" d="M23.637,7.546h-0.86l-1.91-4.68h0.91l1.46,3.67h0.021l1.39-3.67h0.84L23.637,7.546z"/>
				<path fill="#939598" d="M26.217,1.036c0-0.153,0.055-0.287,0.165-0.4s0.245-0.17,0.405-0.17s0.295,0.057,0.405,0.17
					c0.109,0.113,0.164,0.247,0.164,0.4c0,0.166-0.053,0.303-0.159,0.41c-0.107,0.106-0.244,0.159-0.41,0.159
					c-0.167,0-0.304-0.053-0.41-0.159C26.271,1.339,26.217,1.202,26.217,1.036z M26.396,2.866h0.78v4.68h-0.78V2.866z"/>
				<path fill="#939598" d="M32.907,6.696c-0.28,0.359-0.587,0.611-0.92,0.755c-0.333,0.143-0.72,0.215-1.16,0.215
					c-0.366,0-0.696-0.065-0.99-0.195c-0.293-0.13-0.541-0.305-0.744-0.524c-0.204-0.221-0.36-0.48-0.471-0.78
					c-0.109-0.3-0.165-0.62-0.165-0.96c0-0.36,0.061-0.691,0.181-0.995c0.119-0.304,0.286-0.563,0.5-0.78
					c0.213-0.217,0.466-0.385,0.76-0.505c0.293-0.12,0.613-0.18,0.96-0.18c0.326,0,0.626,0.055,0.899,0.165
					c0.273,0.109,0.509,0.27,0.705,0.479c0.197,0.21,0.349,0.467,0.455,0.771c0.106,0.303,0.16,0.648,0.16,1.035v0.25h-3.78
					c0.014,0.199,0.062,0.392,0.146,0.574c0.083,0.184,0.191,0.344,0.325,0.48c0.133,0.137,0.29,0.245,0.47,0.325
					s0.377,0.12,0.59,0.12c0.34,0,0.627-0.061,0.86-0.181s0.443-0.296,0.63-0.529L32.907,6.696z M32.237,4.786
					c-0.014-0.4-0.144-0.721-0.39-0.96c-0.247-0.24-0.587-0.36-1.021-0.36s-0.783,0.12-1.05,0.36c-0.267,0.239-0.427,0.56-0.48,0.96
					H32.237z"/>
				<path fill="#939598" d="M39.307,7.546h-0.77l-1.33-3.6h-0.021l-1.18,3.6h-0.8l-1.521-4.68h0.86l1.07,3.6h0.02l1.21-3.6h0.82
					l1.229,3.6h0.021l1.06-3.6h0.84L39.307,7.546z"/>
				<path fill="#939598" d="M41.797,6.315c0.153,0.194,0.321,0.348,0.505,0.461s0.415,0.17,0.695,0.17
					c0.12,0,0.241-0.014,0.365-0.04c0.123-0.027,0.234-0.07,0.335-0.13c0.1-0.061,0.18-0.136,0.24-0.226
					c0.06-0.09,0.09-0.198,0.09-0.325c0-0.126-0.028-0.229-0.085-0.31s-0.132-0.148-0.226-0.205c-0.093-0.057-0.2-0.102-0.319-0.135
					c-0.12-0.033-0.244-0.063-0.37-0.09c-0.221-0.047-0.431-0.101-0.63-0.16c-0.2-0.061-0.375-0.139-0.525-0.235
					s-0.271-0.222-0.36-0.375s-0.135-0.35-0.135-0.59c0-0.227,0.05-0.427,0.15-0.6c0.1-0.174,0.233-0.317,0.399-0.431
					c0.167-0.113,0.354-0.2,0.561-0.26c0.206-0.06,0.42-0.09,0.64-0.09c0.333,0,0.642,0.066,0.925,0.2
					c0.283,0.133,0.505,0.35,0.665,0.649l-0.649,0.431c-0.101-0.167-0.232-0.302-0.396-0.405s-0.361-0.155-0.595-0.155
					c-0.106,0-0.215,0.014-0.325,0.04s-0.208,0.066-0.295,0.12s-0.158,0.122-0.215,0.205s-0.085,0.179-0.085,0.285
					c0,0.1,0.031,0.185,0.095,0.255c0.063,0.069,0.15,0.132,0.26,0.185c0.11,0.054,0.237,0.101,0.38,0.141
					c0.144,0.04,0.292,0.073,0.445,0.1c0.207,0.04,0.403,0.092,0.59,0.155s0.351,0.148,0.49,0.255s0.25,0.24,0.33,0.399
					c0.08,0.16,0.12,0.357,0.12,0.591c0,0.267-0.054,0.493-0.16,0.68s-0.248,0.338-0.425,0.455
					c-0.177,0.116-0.377,0.201-0.601,0.255c-0.223,0.054-0.451,0.08-0.685,0.08c-0.4,0-0.745-0.062-1.035-0.186
					c-0.29-0.123-0.552-0.352-0.785-0.685L41.797,6.315z"/>
			</g>
		</g>
		<g>
			<g>
				
					<path fill="#FFFFFF" stroke="#A7A9AC" stroke-width="1.4173" stroke-linecap="round" stroke-linejoin="round" stroke-miterlimit="10" d="
					M54.357,54.147c0,6.537-6.917,11.834-15.453,11.834c-0.873,0-1.731-0.053-2.567-0.162c-0.794-0.1-7.434,4.536-7.434,4.536
					s3.583-5.422,2.863-5.71c-4.942-1.975-8.313-5.936-8.313-10.498c0-6.538,6.917-11.84,15.451-11.84
					C47.44,42.307,54.357,47.609,54.357,54.147z"/>
				
					<path fill="#FFFFFF" stroke="#A7A9AC" stroke-width="1.4173" stroke-linecap="round" stroke-linejoin="round" stroke-miterlimit="10" d="
					M37.537,38.341c0,6.538,6.92,11.84,15.453,11.84c0.875,0,1.734-0.053,2.567-0.163c0.796-0.104,7.438,4.537,7.438,4.537
					s-3.588-5.422-2.865-5.71c4.94-1.976,8.314-5.94,8.314-10.504c0-6.532-6.921-11.834-15.455-11.834
					C44.457,26.507,37.537,31.809,37.537,38.341z"/>
			</g>
		</g>
	</g>
</g>
<g id="Layer_4">
</g>
<g id="Layer_3">
</g>
<g id="Layer_5">
</g>
<g id="Annotations">
</g>
</svg>
