<?xml version="1.0" encoding="utf-8"?>
<!-- Generator: Adobe Illustrator 16.0.0, SVG Export Plug-In . SVG Version: 6.00 Build 0)  -->
<!DOCTYPE svg PUBLIC "-//W3C//DTD SVG 1.1//EN" "http://www.w3.org/Graphics/SVG/1.1/DTD/svg11.dtd">
<svg version="1.1" xmlns="http://www.w3.org/2000/svg" xmlns:xlink="http://www.w3.org/1999/xlink" x="0px" y="0px"
	 width="89.603px" height="92.106px" viewBox="0 0 89.603 92.106" enable-background="new 0 0 89.603 92.106" xml:space="preserve">
<g id="Layer_2">
</g>
<g id="Layer_1">
	<g>
		<polyline fill="none" stroke="#A7A9AC" stroke-width="1.4173" stroke-miterlimit="10" points="3.231,24.524 3.231,91.5 
			89.136,91.5 89.136,5.596 33.077,5.596 		"/>
		<g>
			<g>
				<path fill="#939598" d="M0.885,0.466h0.84v6.3h3.24v0.78h-4.08V0.466z"/>
				<path fill="#939598" d="M5.635,1.037c0-0.153,0.055-0.287,0.165-0.4s0.245-0.17,0.405-0.17S6.5,0.523,6.61,0.636
					c0.109,0.113,0.164,0.247,0.164,0.4c0,0.166-0.053,0.303-0.159,0.41c-0.107,0.106-0.244,0.159-0.41,0.159
					c-0.167,0-0.304-0.053-0.41-0.159C5.688,1.339,5.635,1.203,5.635,1.037z M5.814,2.867h0.78v4.68h-0.78V2.867z"/>
				<path fill="#939598" d="M8.245,6.316C8.398,6.51,8.566,6.664,8.75,6.777s0.415,0.17,0.695,0.17c0.12,0,0.241-0.014,0.365-0.04
					c0.123-0.027,0.234-0.07,0.335-0.13c0.1-0.061,0.18-0.136,0.24-0.226c0.06-0.09,0.09-0.198,0.09-0.325
					c0-0.126-0.028-0.229-0.085-0.31s-0.132-0.148-0.226-0.205c-0.093-0.057-0.2-0.102-0.319-0.135
					c-0.12-0.033-0.244-0.063-0.37-0.09c-0.221-0.047-0.431-0.101-0.63-0.16c-0.2-0.061-0.375-0.139-0.525-0.235
					S8.05,4.87,7.96,4.716s-0.135-0.35-0.135-0.59c0-0.227,0.05-0.427,0.15-0.6c0.1-0.174,0.233-0.317,0.399-0.431
					c0.167-0.113,0.354-0.2,0.561-0.26c0.206-0.06,0.42-0.09,0.64-0.09c0.333,0,0.642,0.066,0.925,0.2
					c0.283,0.133,0.505,0.35,0.665,0.649l-0.649,0.431c-0.101-0.167-0.232-0.302-0.396-0.405S9.759,3.466,9.525,3.466
					c-0.106,0-0.215,0.014-0.325,0.04s-0.208,0.066-0.295,0.12S8.747,3.749,8.69,3.832S8.605,4.01,8.605,4.117
					c0,0.1,0.031,0.185,0.095,0.255c0.063,0.069,0.15,0.132,0.26,0.185C9.07,4.61,9.197,4.657,9.34,4.697
					c0.144,0.04,0.292,0.073,0.445,0.1c0.207,0.04,0.403,0.092,0.59,0.155s0.351,0.148,0.49,0.255s0.25,0.24,0.33,0.399
					c0.08,0.16,0.12,0.357,0.12,0.591c0,0.267-0.054,0.493-0.16,0.68s-0.248,0.338-0.425,0.455
					c-0.177,0.116-0.377,0.201-0.601,0.255c-0.223,0.054-0.451,0.08-0.685,0.08c-0.4,0-0.745-0.062-1.035-0.186
					C8.12,7.358,7.858,7.129,7.625,6.796L8.245,6.316z"/>
				<path fill="#939598" d="M14.965,3.527h-1.38v2.34c0,0.153,0.003,0.295,0.01,0.425s0.033,0.243,0.08,0.34s0.117,0.174,0.21,0.23
					c0.094,0.057,0.227,0.085,0.4,0.085c0.113,0,0.229-0.014,0.35-0.04c0.12-0.027,0.233-0.067,0.34-0.12l0.03,0.71
					c-0.133,0.06-0.281,0.104-0.445,0.13c-0.163,0.026-0.318,0.04-0.465,0.04c-0.279,0-0.503-0.037-0.67-0.11
					c-0.166-0.073-0.297-0.177-0.39-0.31c-0.094-0.134-0.155-0.299-0.186-0.495c-0.029-0.196-0.045-0.415-0.045-0.655V3.527h-1.02
					v-0.66h1.02v-1.33h0.78v1.33h1.38V3.527z"/>
				<path fill="#939598" d="M18.435,5.207c0-0.367,0.063-0.7,0.19-1c0.126-0.3,0.3-0.559,0.52-0.775
					c0.221-0.217,0.483-0.385,0.79-0.505s0.641-0.18,1-0.18c0.36,0,0.693,0.06,1,0.18s0.57,0.288,0.79,0.505
					c0.221,0.217,0.394,0.476,0.521,0.775c0.126,0.3,0.189,0.633,0.189,1c0,0.366-0.063,0.7-0.189,1
					c-0.127,0.3-0.3,0.559-0.521,0.774c-0.22,0.217-0.483,0.386-0.79,0.506c-0.307,0.119-0.64,0.18-1,0.18
					c-0.359,0-0.693-0.061-1-0.18c-0.307-0.12-0.569-0.289-0.79-0.506c-0.22-0.216-0.394-0.475-0.52-0.774
					C18.498,5.907,18.435,5.573,18.435,5.207z M19.274,5.207c0,0.246,0.039,0.475,0.115,0.685c0.077,0.21,0.188,0.394,0.335,0.55
					c0.146,0.157,0.322,0.28,0.525,0.37c0.203,0.091,0.432,0.136,0.685,0.136c0.254,0,0.481-0.045,0.686-0.136
					c0.203-0.09,0.378-0.213,0.524-0.37c0.146-0.156,0.259-0.34,0.335-0.55c0.077-0.21,0.115-0.438,0.115-0.685
					c0-0.247-0.038-0.476-0.115-0.686c-0.076-0.21-0.188-0.393-0.335-0.55c-0.146-0.156-0.321-0.28-0.524-0.37
					c-0.204-0.09-0.432-0.135-0.686-0.135c-0.253,0-0.481,0.045-0.685,0.135s-0.379,0.214-0.525,0.37
					c-0.146,0.157-0.258,0.34-0.335,0.55C19.313,4.731,19.274,4.959,19.274,5.207z"/>
				<path fill="#939598" d="M25.045,3.527h-1.02v-0.66h1.02V1.816c0-0.286,0.027-0.548,0.08-0.784
					c0.054-0.237,0.146-0.442,0.275-0.615c0.13-0.174,0.302-0.309,0.515-0.405c0.214-0.097,0.477-0.145,0.79-0.145
					c0.101,0,0.207,0.01,0.32,0.029c0.113,0.021,0.206,0.051,0.28,0.091l-0.11,0.699c-0.187-0.066-0.363-0.1-0.53-0.1
					c-0.2,0-0.356,0.035-0.47,0.104c-0.113,0.07-0.198,0.167-0.255,0.29c-0.057,0.124-0.09,0.272-0.101,0.445
					c-0.01,0.174-0.015,0.36-0.015,0.561v0.88h1.14v0.66h-1.14v4.02h-0.78V3.527z"/>
				<path fill="#939598" d="M0.745,15.976c0-0.213-0.007-0.413-0.021-0.6c-0.013-0.187-0.02-0.356-0.02-0.51h0.74
					c0,0.126,0.003,0.253,0.01,0.38s0.01,0.257,0.01,0.39h0.021c0.053-0.113,0.128-0.223,0.225-0.33
					c0.097-0.106,0.212-0.201,0.345-0.285c0.134-0.083,0.283-0.149,0.45-0.199c0.167-0.051,0.347-0.075,0.54-0.075
					c0.054,0,0.106,0.003,0.16,0.01c0.053,0.007,0.106,0.021,0.16,0.04l-0.051,0.79c-0.133-0.04-0.273-0.06-0.42-0.06
					c-0.479,0-0.828,0.154-1.045,0.465c-0.217,0.31-0.325,0.734-0.325,1.274v2.28H0.745V15.976z"/>
				<path fill="#939598" d="M8.265,18.697c-0.28,0.359-0.587,0.611-0.92,0.755c-0.333,0.143-0.72,0.215-1.16,0.215
					c-0.366,0-0.696-0.065-0.99-0.195c-0.293-0.13-0.541-0.305-0.744-0.524c-0.204-0.221-0.36-0.48-0.471-0.78
					c-0.109-0.3-0.165-0.62-0.165-0.96c0-0.36,0.061-0.691,0.181-0.995c0.119-0.304,0.286-0.563,0.5-0.78
					c0.213-0.217,0.466-0.385,0.76-0.505c0.293-0.12,0.613-0.18,0.96-0.18c0.326,0,0.626,0.055,0.899,0.165
					c0.273,0.109,0.509,0.27,0.705,0.479c0.197,0.21,0.349,0.467,0.455,0.771c0.106,0.303,0.16,0.648,0.16,1.035v0.25h-3.78
					c0.014,0.199,0.062,0.392,0.146,0.574c0.083,0.184,0.191,0.344,0.325,0.48c0.133,0.137,0.29,0.245,0.47,0.325
					s0.377,0.12,0.59,0.12c0.34,0,0.627-0.061,0.86-0.181s0.443-0.296,0.63-0.529L8.265,18.697z M7.595,16.787
					c-0.014-0.4-0.144-0.721-0.39-0.96c-0.247-0.24-0.587-0.36-1.021-0.36s-0.783,0.12-1.05,0.36c-0.267,0.239-0.427,0.56-0.48,0.96
					H7.595z"/>
				<path fill="#939598" d="M14.314,21.827h-0.78v-2.96h-0.02c-0.214,0.253-0.462,0.449-0.745,0.59
					c-0.283,0.14-0.596,0.21-0.936,0.21c-0.366,0-0.701-0.062-1.005-0.186c-0.304-0.123-0.562-0.295-0.774-0.515
					c-0.214-0.22-0.381-0.479-0.5-0.78c-0.12-0.3-0.181-0.626-0.181-0.979c0-0.347,0.061-0.67,0.181-0.97
					c0.119-0.301,0.284-0.561,0.494-0.78c0.211-0.22,0.459-0.394,0.745-0.521c0.287-0.126,0.594-0.189,0.92-0.189
					c0.421,0,0.789,0.092,1.105,0.274c0.316,0.184,0.548,0.409,0.695,0.676h0.02v-0.83h0.78V21.827z M13.534,17.207
					c0-0.247-0.038-0.476-0.115-0.686c-0.076-0.21-0.188-0.393-0.335-0.55c-0.146-0.156-0.321-0.28-0.524-0.37
					c-0.204-0.09-0.432-0.135-0.686-0.135c-0.253,0-0.481,0.045-0.685,0.135s-0.379,0.214-0.525,0.37
					c-0.146,0.157-0.258,0.34-0.335,0.55c-0.076,0.21-0.115,0.438-0.115,0.686c0,0.246,0.039,0.475,0.115,0.685
					c0.077,0.21,0.188,0.394,0.335,0.55c0.146,0.157,0.322,0.28,0.525,0.37c0.203,0.091,0.432,0.136,0.685,0.136
					c0.254,0,0.481-0.045,0.686-0.136c0.203-0.09,0.378-0.213,0.524-0.37c0.146-0.156,0.259-0.34,0.335-0.55
					C13.496,17.681,13.534,17.453,13.534,17.207z"/>
				<path fill="#939598" d="M19.835,18.436c0,0.214,0.006,0.414,0.02,0.601s0.021,0.356,0.021,0.51h-0.74
					c0-0.127-0.004-0.253-0.01-0.38c-0.007-0.127-0.011-0.257-0.011-0.39h-0.02C19.041,18.89,18.966,19,18.87,19.106
					c-0.098,0.107-0.212,0.202-0.346,0.285c-0.133,0.084-0.283,0.15-0.45,0.2c-0.166,0.05-0.347,0.075-0.54,0.075
					c-0.307,0-0.571-0.047-0.795-0.14c-0.223-0.094-0.408-0.224-0.555-0.391c-0.146-0.166-0.255-0.368-0.325-0.604
					c-0.069-0.237-0.104-0.495-0.104-0.775v-2.89h0.779v2.81c0,0.394,0.087,0.703,0.261,0.93c0.173,0.228,0.443,0.341,0.81,0.341
					c0.254,0,0.472-0.044,0.655-0.131c0.184-0.086,0.333-0.21,0.45-0.369c0.116-0.16,0.203-0.351,0.26-0.57s0.085-0.463,0.085-0.73
					v-2.279h0.78V18.436z"/>
				<path fill="#939598" d="M21.204,13.037c0-0.153,0.055-0.287,0.165-0.4s0.245-0.17,0.405-0.17s0.295,0.057,0.405,0.17
					c0.109,0.113,0.164,0.247,0.164,0.4c0,0.166-0.053,0.303-0.159,0.41c-0.107,0.106-0.244,0.159-0.41,0.159
					c-0.167,0-0.304-0.053-0.41-0.159C21.258,13.339,21.204,13.203,21.204,13.037z M21.384,14.867h0.78v4.68h-0.78V14.867z"/>
				<path fill="#939598" d="M23.714,15.976c0-0.213-0.007-0.413-0.021-0.6c-0.013-0.187-0.02-0.356-0.02-0.51h0.74
					c0,0.126,0.003,0.253,0.01,0.38s0.01,0.257,0.01,0.39h0.021c0.053-0.113,0.128-0.223,0.225-0.33
					c0.097-0.106,0.212-0.201,0.345-0.285c0.134-0.083,0.283-0.149,0.45-0.199c0.167-0.051,0.347-0.075,0.54-0.075
					c0.054,0,0.106,0.003,0.16,0.01c0.053,0.007,0.106,0.021,0.16,0.04l-0.051,0.79c-0.133-0.04-0.273-0.06-0.42-0.06
					c-0.479,0-0.828,0.154-1.045,0.465c-0.217,0.31-0.325,0.734-0.325,1.274v2.28h-0.779V15.976z"/>
				<path fill="#939598" d="M31.233,18.697c-0.28,0.359-0.587,0.611-0.92,0.755c-0.333,0.143-0.72,0.215-1.16,0.215
					c-0.366,0-0.696-0.065-0.99-0.195c-0.293-0.13-0.541-0.305-0.744-0.524c-0.204-0.221-0.36-0.48-0.471-0.78
					c-0.109-0.3-0.165-0.62-0.165-0.96c0-0.36,0.061-0.691,0.181-0.995c0.119-0.304,0.286-0.563,0.5-0.78
					c0.213-0.217,0.466-0.385,0.76-0.505c0.293-0.12,0.613-0.18,0.96-0.18c0.326,0,0.626,0.055,0.899,0.165
					c0.273,0.109,0.509,0.27,0.705,0.479c0.197,0.21,0.349,0.467,0.455,0.771c0.106,0.303,0.16,0.648,0.16,1.035v0.25h-3.78
					c0.014,0.199,0.062,0.392,0.146,0.574c0.083,0.184,0.191,0.344,0.325,0.48c0.133,0.137,0.29,0.245,0.47,0.325
					s0.377,0.12,0.59,0.12c0.34,0,0.627-0.061,0.86-0.181s0.443-0.296,0.63-0.529L31.233,18.697z M30.563,16.787
					c-0.014-0.4-0.144-0.721-0.39-0.96c-0.247-0.24-0.587-0.36-1.021-0.36s-0.783,0.12-1.05,0.36c-0.267,0.239-0.427,0.56-0.48,0.96
					H30.563z"/>
				<path fill="#939598" d="M32.613,15.976c0-0.213-0.007-0.413-0.021-0.6c-0.013-0.187-0.02-0.356-0.02-0.51h0.74
					c0,0.126,0.003,0.253,0.01,0.38s0.01,0.257,0.01,0.39h0.021c0.053-0.113,0.128-0.223,0.225-0.33
					c0.097-0.106,0.212-0.201,0.345-0.285c0.134-0.083,0.283-0.149,0.45-0.199c0.167-0.051,0.347-0.075,0.54-0.075
					c0.253,0,0.465,0.031,0.635,0.095s0.312,0.14,0.425,0.23c0.113,0.09,0.202,0.187,0.266,0.29
					c0.063,0.103,0.115,0.194,0.154,0.274c0.174-0.28,0.374-0.498,0.601-0.655c0.227-0.156,0.52-0.234,0.88-0.234
					c0.333,0,0.613,0.045,0.84,0.135s0.41,0.22,0.55,0.39c0.141,0.17,0.24,0.377,0.301,0.62c0.06,0.244,0.09,0.516,0.09,0.815v2.84
					h-0.78v-2.8c0-0.16-0.017-0.316-0.05-0.47s-0.094-0.29-0.181-0.41c-0.086-0.12-0.203-0.217-0.35-0.29s-0.333-0.11-0.56-0.11
					c-0.167,0-0.324,0.033-0.471,0.1c-0.146,0.067-0.274,0.16-0.385,0.28s-0.196,0.266-0.26,0.436s-0.095,0.358-0.095,0.564v2.7
					h-0.78v-2.65c0-0.52-0.07-0.888-0.21-1.104c-0.141-0.217-0.37-0.325-0.69-0.325c-0.253,0-0.472,0.044-0.654,0.13
					c-0.184,0.087-0.334,0.21-0.45,0.37c-0.117,0.16-0.204,0.35-0.26,0.57c-0.058,0.22-0.086,0.463-0.086,0.729v2.28h-0.779V15.976z
					"/>
				<path fill="#939598" d="M45.312,18.697c-0.28,0.359-0.587,0.611-0.92,0.755c-0.333,0.143-0.72,0.215-1.16,0.215
					c-0.366,0-0.696-0.065-0.99-0.195c-0.293-0.13-0.541-0.305-0.744-0.524c-0.204-0.221-0.36-0.48-0.471-0.78
					c-0.109-0.3-0.165-0.62-0.165-0.96c0-0.36,0.061-0.691,0.181-0.995c0.119-0.304,0.286-0.563,0.5-0.78
					c0.213-0.217,0.466-0.385,0.76-0.505c0.293-0.12,0.613-0.18,0.96-0.18c0.326,0,0.626,0.055,0.899,0.165
					c0.273,0.109,0.509,0.27,0.705,0.479c0.197,0.21,0.349,0.467,0.455,0.771c0.106,0.303,0.16,0.648,0.16,1.035v0.25h-3.78
					c0.014,0.199,0.062,0.392,0.146,0.574c0.083,0.184,0.191,0.344,0.325,0.48c0.133,0.137,0.29,0.245,0.47,0.325
					s0.377,0.12,0.59,0.12c0.34,0,0.627-0.061,0.86-0.181s0.443-0.296,0.63-0.529L45.312,18.697z M44.643,16.787
					c-0.014-0.4-0.144-0.721-0.39-0.96c-0.247-0.24-0.587-0.36-1.021-0.36s-0.783,0.12-1.05,0.36c-0.267,0.239-0.427,0.56-0.48,0.96
					H44.643z"/>
				<path fill="#939598" d="M46.692,15.976c0-0.213-0.007-0.413-0.021-0.6c-0.013-0.187-0.02-0.356-0.02-0.51h0.74
					c0,0.126,0.003,0.253,0.01,0.38s0.01,0.257,0.01,0.39h0.021c0.053-0.113,0.128-0.223,0.225-0.33
					c0.097-0.106,0.212-0.201,0.345-0.285c0.134-0.083,0.283-0.149,0.45-0.199c0.167-0.051,0.347-0.075,0.54-0.075
					c0.307,0,0.571,0.047,0.795,0.14c0.224,0.094,0.408,0.224,0.555,0.391c0.146,0.166,0.255,0.368,0.325,0.604
					s0.105,0.495,0.105,0.775v2.89h-0.78v-2.81c0-0.394-0.087-0.704-0.26-0.931c-0.174-0.227-0.443-0.34-0.811-0.34
					c-0.253,0-0.472,0.044-0.654,0.13c-0.184,0.087-0.334,0.21-0.45,0.37c-0.117,0.16-0.204,0.35-0.26,0.57
					c-0.058,0.22-0.086,0.463-0.086,0.729v2.28h-0.779V15.976z"/>
				<path fill="#939598" d="M54.812,15.527h-1.38v2.34c0,0.153,0.003,0.295,0.01,0.425s0.033,0.243,0.08,0.34s0.117,0.174,0.21,0.23
					c0.094,0.057,0.227,0.085,0.4,0.085c0.113,0,0.229-0.014,0.35-0.04c0.12-0.027,0.233-0.067,0.34-0.12l0.03,0.71
					c-0.133,0.06-0.281,0.104-0.445,0.13c-0.163,0.026-0.318,0.04-0.465,0.04c-0.279,0-0.503-0.037-0.67-0.11
					c-0.166-0.073-0.297-0.177-0.39-0.31c-0.094-0.134-0.155-0.299-0.186-0.495c-0.029-0.196-0.045-0.415-0.045-0.655v-2.569h-1.02
					v-0.66h1.02v-1.33h0.78v1.33h1.38V15.527z"/>
				<path fill="#939598" d="M55.871,18.316c0.153,0.194,0.321,0.348,0.505,0.461s0.415,0.17,0.695,0.17
					c0.12,0,0.241-0.014,0.365-0.04c0.123-0.027,0.234-0.07,0.335-0.13c0.1-0.061,0.18-0.136,0.24-0.226
					c0.06-0.09,0.09-0.198,0.09-0.325c0-0.126-0.028-0.229-0.085-0.31s-0.132-0.148-0.226-0.205c-0.093-0.057-0.2-0.102-0.319-0.135
					c-0.12-0.033-0.244-0.063-0.37-0.09c-0.221-0.047-0.431-0.101-0.63-0.16c-0.2-0.061-0.375-0.139-0.525-0.235
					s-0.271-0.222-0.36-0.375s-0.135-0.35-0.135-0.59c0-0.227,0.05-0.427,0.15-0.6c0.1-0.174,0.233-0.317,0.399-0.431
					c0.167-0.113,0.354-0.2,0.561-0.26c0.206-0.06,0.42-0.09,0.64-0.09c0.333,0,0.642,0.066,0.925,0.2
					c0.283,0.133,0.505,0.35,0.665,0.649l-0.649,0.431c-0.101-0.167-0.232-0.302-0.396-0.405s-0.361-0.155-0.595-0.155
					c-0.106,0-0.215,0.014-0.325,0.04s-0.208,0.066-0.295,0.12s-0.158,0.122-0.215,0.205s-0.085,0.179-0.085,0.285
					c0,0.1,0.031,0.185,0.095,0.255c0.063,0.069,0.15,0.132,0.26,0.185c0.11,0.054,0.237,0.101,0.38,0.141
					c0.144,0.04,0.292,0.073,0.445,0.1c0.207,0.04,0.403,0.092,0.59,0.155s0.351,0.148,0.49,0.255s0.25,0.24,0.33,0.399
					c0.08,0.16,0.12,0.357,0.12,0.591c0,0.267-0.054,0.493-0.16,0.68s-0.248,0.338-0.425,0.455
					c-0.177,0.116-0.377,0.201-0.601,0.255c-0.223,0.054-0.451,0.08-0.685,0.08c-0.4,0-0.745-0.062-1.035-0.186
					c-0.29-0.123-0.552-0.352-0.785-0.685L55.871,18.316z"/>
			</g>
		</g>
		<g>
			
				<line fill="none" stroke="#A7A9AC" stroke-width="1.4173" stroke-miterlimit="10" x1="20.676" y1="26.182" x2="62.124" y2="26.182"/>
			
				<line fill="none" stroke="#A7A9AC" stroke-width="1.4173" stroke-miterlimit="10" x1="23.676" y1="30.456" x2="71.691" y2="30.456"/>
			
				<line fill="none" stroke="#A7A9AC" stroke-width="1.4173" stroke-miterlimit="10" x1="23.676" y1="41.002" x2="71.691" y2="41.002"/>
			
				<line fill="none" stroke="#A7A9AC" stroke-width="1.4173" stroke-miterlimit="10" x1="20.676" y1="51.549" x2="62.124" y2="51.549"/>
			
				<line fill="none" stroke="#A7A9AC" stroke-width="1.4173" stroke-miterlimit="10" x1="20.676" y1="62.094" x2="62.18" y2="62.094"/>
			
				<line fill="none" stroke="#A7A9AC" stroke-width="1.4173" stroke-miterlimit="10" x1="20.676" y1="36.729" x2="62.18" y2="36.729"/>
			
				<line fill="none" stroke="#A7A9AC" stroke-width="1.4173" stroke-miterlimit="10" x1="23.676" y1="45.276" x2="71.691" y2="45.276"/>
			
				<line fill="none" stroke="#A7A9AC" stroke-width="1.4173" stroke-miterlimit="10" x1="23.676" y1="55.821" x2="71.691" y2="55.821"/>
			
				<line fill="none" stroke="#A7A9AC" stroke-width="1.4173" stroke-miterlimit="10" x1="23.676" y1="66.368" x2="71.566" y2="66.368"/>
			
				<line fill="none" stroke="#A7A9AC" stroke-width="1.4173" stroke-miterlimit="10" x1="23.676" y1="70.641" x2="71.566" y2="70.641"/>
			
				<line fill="none" stroke="#A7A9AC" stroke-width="1.4173" stroke-miterlimit="10" x1="23.676" y1="74.915" x2="71.566" y2="74.915"/>
		</g>
	</g>
</g>
<g id="Layer_4">
</g>
<g id="Layer_3">
</g>
<g id="Layer_5">
</g>
<g id="Annotations">
</g>
</svg>
