<?xml version="1.0" encoding="utf-8"?>
<!-- Generator: Adobe Illustrator 16.0.0, SVG Export Plug-In . SVG Version: 6.00 Build 0)  -->
<!DOCTYPE svg PUBLIC "-//W3C//DTD SVG 1.1//EN" "http://www.w3.org/Graphics/SVG/1.1/DTD/svg11.dtd">
<svg version="1.1" xmlns="http://www.w3.org/2000/svg" xmlns:xlink="http://www.w3.org/1999/xlink" x="0px" y="0px"
	 width="89.603px" height="92.106px" viewBox="0 0 89.603 92.106" enable-background="new 0 0 89.603 92.106" xml:space="preserve">
<g id="Layer_2">
</g>
<g id="Layer_1">
	<g>
		<polyline fill="none" stroke="#A7A9AC" stroke-width="1.4173" stroke-miterlimit="10" points="2.997,12 2.997,91.397 
			88.901,91.397 88.901,5.493 66.937,5.493 		"/>
		<g>
			<g>
				<path fill="#939598" d="M0.889,0.479h1.25l2.4,5.55h0.02l2.42-5.55h1.221v7.08H7.358v-5.94h-0.02l-2.54,5.94h-0.51l-2.54-5.94
					H1.729v5.94h-0.84V0.479z"/>
				<path fill="#939598" d="M9.759,3.479c0.24-0.246,0.525-0.428,0.855-0.545c0.33-0.116,0.665-0.175,1.005-0.175
					c0.693,0,1.193,0.163,1.5,0.49c0.307,0.326,0.46,0.823,0.46,1.489V6.75c0,0.133,0.007,0.271,0.02,0.415
					c0.014,0.143,0.03,0.274,0.051,0.395h-0.75c-0.027-0.106-0.042-0.225-0.045-0.355c-0.004-0.13-0.006-0.244-0.006-0.345h-0.02
					c-0.153,0.24-0.358,0.437-0.615,0.59s-0.564,0.23-0.925,0.23c-0.24,0-0.465-0.03-0.675-0.09c-0.21-0.061-0.394-0.148-0.55-0.266
					C9.907,7.208,9.782,7.063,9.689,6.89c-0.094-0.174-0.141-0.373-0.141-0.6c0-0.387,0.101-0.69,0.3-0.91
					c0.2-0.221,0.449-0.384,0.745-0.49c0.297-0.106,0.617-0.174,0.96-0.2c0.344-0.026,0.658-0.04,0.945-0.04h0.3V4.51
					c0-0.34-0.102-0.597-0.305-0.771c-0.203-0.173-0.488-0.26-0.855-0.26c-0.253,0-0.501,0.042-0.744,0.125
					c-0.244,0.084-0.459,0.212-0.646,0.385L9.759,3.479z M12.02,5.31c-0.5,0-0.897,0.07-1.19,0.21s-0.44,0.37-0.44,0.69
					c0,0.293,0.099,0.501,0.296,0.625c0.196,0.123,0.441,0.185,0.734,0.185c0.227,0,0.425-0.038,0.595-0.115
					c0.171-0.076,0.312-0.178,0.426-0.305c0.113-0.127,0.199-0.275,0.26-0.445c0.06-0.17,0.093-0.352,0.1-0.545v-0.3H12.02z"/>
				<path fill="#939598" d="M15.01,3.989c0-0.213-0.007-0.413-0.021-0.6c-0.013-0.187-0.02-0.356-0.02-0.51h0.74
					c0,0.126,0.003,0.253,0.01,0.38s0.01,0.257,0.01,0.39h0.021c0.053-0.113,0.128-0.223,0.225-0.33
					c0.097-0.106,0.212-0.201,0.345-0.285c0.134-0.083,0.283-0.149,0.45-0.199c0.167-0.051,0.347-0.075,0.54-0.075
					c0.054,0,0.106,0.003,0.16,0.01c0.053,0.007,0.106,0.021,0.16,0.04L17.579,3.6c-0.133-0.04-0.273-0.06-0.42-0.06
					c-0.479,0-0.828,0.154-1.045,0.465c-0.217,0.31-0.325,0.734-0.325,1.274v2.28H15.01V3.989z"/>
				<path fill="#939598" d="M18.529,0h0.779v4.939l2.131-2.06h1.109l-2.26,2.13l2.49,2.55h-1.15l-2.32-2.46v2.46h-0.779V0z"/>
				<path fill="#939598" d="M27.709,6.71c-0.28,0.359-0.587,0.611-0.92,0.755c-0.333,0.143-0.72,0.215-1.16,0.215
					c-0.366,0-0.696-0.065-0.99-0.195c-0.293-0.13-0.541-0.305-0.744-0.524c-0.204-0.221-0.36-0.48-0.471-0.78
					c-0.109-0.3-0.165-0.62-0.165-0.96c0-0.36,0.061-0.691,0.181-0.995c0.119-0.304,0.286-0.563,0.5-0.78
					c0.213-0.217,0.466-0.385,0.76-0.505c0.293-0.12,0.613-0.18,0.96-0.18c0.326,0,0.626,0.055,0.899,0.165
					c0.273,0.109,0.509,0.27,0.705,0.479c0.197,0.21,0.349,0.467,0.455,0.771c0.106,0.303,0.16,0.648,0.16,1.035v0.25h-3.78
					c0.014,0.199,0.062,0.392,0.146,0.574c0.083,0.184,0.191,0.344,0.325,0.48c0.133,0.137,0.29,0.245,0.47,0.325
					s0.377,0.12,0.59,0.12c0.34,0,0.627-0.061,0.86-0.181s0.443-0.296,0.63-0.529L27.709,6.71z M27.039,4.8
					c-0.014-0.4-0.144-0.721-0.39-0.96c-0.247-0.24-0.587-0.36-1.021-0.36s-0.783,0.12-1.05,0.36c-0.267,0.239-0.427,0.56-0.48,0.96
					H27.039z"/>
				<path fill="#939598" d="M31.648,3.54h-1.38v2.34c0,0.153,0.003,0.295,0.01,0.425s0.033,0.243,0.08,0.34s0.117,0.174,0.21,0.23
					c0.094,0.057,0.227,0.085,0.4,0.085c0.113,0,0.229-0.014,0.35-0.04c0.12-0.027,0.233-0.067,0.34-0.12l0.03,0.71
					c-0.133,0.06-0.281,0.104-0.445,0.13c-0.163,0.026-0.318,0.04-0.465,0.04c-0.279,0-0.503-0.037-0.67-0.11
					c-0.166-0.073-0.297-0.177-0.39-0.31c-0.094-0.134-0.155-0.299-0.186-0.495c-0.029-0.196-0.045-0.415-0.045-0.655V3.54h-1.02
					V2.88h1.02V1.55h0.78v1.33h1.38V3.54z"/>
				<path fill="#939598" d="M32.508,1.05c0-0.153,0.055-0.287,0.165-0.4s0.245-0.17,0.405-0.17s0.295,0.057,0.405,0.17
					c0.109,0.113,0.164,0.247,0.164,0.4c0,0.166-0.053,0.303-0.159,0.41c-0.107,0.106-0.244,0.159-0.41,0.159
					c-0.167,0-0.304-0.053-0.41-0.159C32.562,1.353,32.508,1.216,32.508,1.05z M32.688,2.88h0.78v4.68h-0.78V2.88z"/>
				<path fill="#939598" d="M35.019,3.989c0-0.213-0.007-0.413-0.021-0.6c-0.013-0.187-0.02-0.356-0.02-0.51h0.74
					c0,0.126,0.003,0.253,0.01,0.38s0.01,0.257,0.01,0.39h0.021c0.053-0.113,0.128-0.223,0.225-0.33
					c0.097-0.106,0.212-0.201,0.345-0.285c0.134-0.083,0.283-0.149,0.45-0.199c0.167-0.051,0.347-0.075,0.54-0.075
					c0.307,0,0.571,0.047,0.795,0.14c0.224,0.094,0.408,0.224,0.555,0.391c0.146,0.166,0.255,0.368,0.325,0.604
					s0.105,0.495,0.105,0.775v2.89h-0.78V4.75c0-0.394-0.087-0.704-0.26-0.931c-0.174-0.227-0.443-0.34-0.811-0.34
					c-0.253,0-0.472,0.044-0.654,0.13c-0.184,0.087-0.334,0.21-0.45,0.37c-0.117,0.16-0.204,0.35-0.26,0.57
					c-0.058,0.22-0.086,0.463-0.086,0.729v2.28h-0.779V3.989z"/>
				<path fill="#939598" d="M45.248,7.35c0,0.854-0.219,1.502-0.655,1.945S43.524,9.96,42.698,9.96c-0.46,0-0.875-0.067-1.245-0.2
					c-0.37-0.134-0.722-0.363-1.056-0.69l0.561-0.64c0.246,0.267,0.508,0.468,0.785,0.604c0.276,0.137,0.595,0.205,0.955,0.205
					c0.347,0,0.635-0.052,0.864-0.154c0.23-0.104,0.412-0.244,0.545-0.42c0.134-0.177,0.227-0.379,0.28-0.605s0.08-0.464,0.08-0.71
					v-0.6h-0.02c-0.188,0.3-0.431,0.52-0.73,0.659c-0.3,0.141-0.606,0.21-0.92,0.21c-0.366,0-0.703-0.06-1.01-0.18
					s-0.57-0.286-0.79-0.5c-0.22-0.213-0.391-0.467-0.51-0.76c-0.12-0.293-0.181-0.613-0.181-0.96c0-0.38,0.061-0.724,0.181-1.03
					c0.119-0.307,0.288-0.564,0.505-0.774c0.216-0.211,0.478-0.372,0.785-0.485c0.306-0.113,0.646-0.17,1.02-0.17
					c0.16,0,0.32,0.019,0.48,0.055c0.159,0.037,0.314,0.094,0.465,0.17c0.149,0.077,0.285,0.174,0.404,0.29
					c0.12,0.117,0.221,0.252,0.301,0.405h0.02v-0.8h0.78V7.35z M41.147,5.22c0,0.24,0.044,0.462,0.131,0.665
					c0.086,0.203,0.204,0.38,0.354,0.53c0.15,0.149,0.325,0.268,0.525,0.354c0.199,0.087,0.413,0.13,0.64,0.13
					c0.267,0,0.503-0.047,0.71-0.14c0.207-0.094,0.382-0.219,0.525-0.375c0.143-0.157,0.251-0.337,0.324-0.54
					c0.074-0.203,0.11-0.418,0.11-0.646c0-0.253-0.04-0.484-0.12-0.694s-0.193-0.392-0.34-0.545s-0.323-0.271-0.53-0.355
					c-0.206-0.083-0.433-0.125-0.68-0.125s-0.472,0.045-0.675,0.135s-0.377,0.214-0.521,0.37c-0.144,0.157-0.255,0.34-0.335,0.55
					S41.147,4.973,41.147,5.22z"/>
				<path fill="#939598" d="M49.469,3.989c0-0.213-0.007-0.413-0.021-0.6c-0.013-0.187-0.02-0.356-0.02-0.51h0.74
					c0,0.126,0.003,0.253,0.01,0.38s0.01,0.257,0.01,0.39h0.021c0.053-0.113,0.128-0.223,0.225-0.33
					c0.097-0.106,0.212-0.201,0.345-0.285c0.134-0.083,0.283-0.149,0.45-0.199c0.167-0.051,0.347-0.075,0.54-0.075
					c0.253,0,0.465,0.031,0.635,0.095s0.312,0.14,0.425,0.23c0.113,0.09,0.202,0.187,0.266,0.29
					c0.063,0.103,0.115,0.194,0.154,0.274c0.174-0.28,0.374-0.498,0.601-0.655c0.227-0.156,0.52-0.234,0.88-0.234
					c0.333,0,0.613,0.045,0.84,0.135s0.41,0.22,0.55,0.39c0.141,0.17,0.24,0.377,0.301,0.62c0.06,0.244,0.09,0.516,0.09,0.815v2.84
					h-0.78v-2.8c0-0.16-0.017-0.316-0.05-0.47S55.585,4,55.498,3.88c-0.086-0.12-0.203-0.217-0.35-0.29s-0.333-0.11-0.56-0.11
					c-0.167,0-0.324,0.033-0.471,0.1c-0.146,0.067-0.274,0.16-0.385,0.28s-0.196,0.266-0.26,0.436s-0.095,0.358-0.095,0.564v2.7
					h-0.78v-2.65c0-0.52-0.07-0.888-0.21-1.104c-0.141-0.217-0.37-0.325-0.69-0.325c-0.253,0-0.472,0.044-0.654,0.13
					c-0.184,0.087-0.334,0.21-0.45,0.37c-0.117,0.16-0.204,0.35-0.26,0.57c-0.058,0.22-0.086,0.463-0.086,0.729v2.28h-0.779V3.989z"
					/>
				<path fill="#939598" d="M57.878,1.05c0-0.153,0.055-0.287,0.165-0.4s0.245-0.17,0.405-0.17s0.295,0.057,0.405,0.17
					c0.109,0.113,0.164,0.247,0.164,0.4c0,0.166-0.053,0.303-0.159,0.41c-0.107,0.106-0.244,0.159-0.41,0.159
					c-0.167,0-0.304-0.053-0.41-0.159C57.932,1.353,57.878,1.216,57.878,1.05z M58.058,2.88h0.78v4.68h-0.78V2.88z"/>
				<path fill="#939598" d="M61.598,5.04l-1.681-2.16h1.021l1.24,1.68l1.17-1.68h0.95l-1.61,2.16l1.93,2.52h-1.029l-1.48-2.02
					l-1.46,2.02h-0.97L61.598,5.04z"/>
			</g>
		</g>
		<circle fill="none" stroke="#A7A9AC" stroke-width="1.4173" stroke-miterlimit="10" cx="45.512" cy="48.445" r="24.303"/>
		<circle fill="none" stroke="#A7A9AC" stroke-width="1.4173" stroke-miterlimit="10" cx="45.512" cy="48.445" r="11.674"/>
		
			<line fill="none" stroke="#A7A9AC" stroke-width="1.4173" stroke-miterlimit="10" x1="45.512" y1="36.771" x2="45.512" y2="24.143"/>
		
			<line fill="none" stroke="#A7A9AC" stroke-width="1.4173" stroke-miterlimit="10" x1="57.186" y1="48.445" x2="69.814" y2="48.445"/>
		
			<line fill="none" stroke="#A7A9AC" stroke-width="1.4173" stroke-miterlimit="10" x1="45.512" y1="60.119" x2="45.512" y2="72.748"/>
		
			<line fill="none" stroke="#A7A9AC" stroke-width="1.4173" stroke-miterlimit="10" x1="33.838" y1="48.445" x2="21.209" y2="48.445"/>
		<g>
			<rect x="30.436" y="32.277" fill="none" width="15.514" height="16.168"/>
			<path fill="#939598" d="M31.315,32.757h2.101c0.326,0,0.638,0.032,0.935,0.095c0.297,0.063,0.56,0.17,0.79,0.32
				c0.229,0.15,0.413,0.35,0.55,0.6s0.205,0.559,0.205,0.926c0,0.387-0.073,0.706-0.22,0.96c-0.146,0.253-0.335,0.453-0.565,0.6
				c-0.229,0.146-0.481,0.25-0.755,0.311c-0.273,0.06-0.533,0.09-0.78,0.09h-1.42v3.18h-0.84V32.757z M32.155,35.877h1.42
				c0.42,0,0.762-0.095,1.025-0.285c0.264-0.189,0.395-0.485,0.395-0.885c0-0.4-0.131-0.695-0.395-0.885
				c-0.264-0.19-0.605-0.285-1.025-0.285h-1.42V35.877z"/>
		</g>
		<g>
			<rect x="45.949" y="32.277" fill="none" width="15.514" height="16.168"/>
			<path fill="#939598" d="M56.413,32.757h2.101c0.326,0,0.638,0.032,0.935,0.095c0.297,0.063,0.56,0.17,0.79,0.32
				c0.229,0.15,0.413,0.35,0.55,0.6s0.205,0.559,0.205,0.926c0,0.387-0.073,0.706-0.22,0.96c-0.146,0.253-0.335,0.453-0.565,0.6
				c-0.229,0.146-0.481,0.25-0.755,0.311c-0.273,0.06-0.533,0.09-0.78,0.09h-1.42v3.18h-0.84V32.757z M57.253,35.877h1.42
				c0.42,0,0.762-0.095,1.025-0.285c0.264-0.189,0.395-0.485,0.395-0.885c0-0.4-0.131-0.695-0.395-0.885
				c-0.264-0.19-0.605-0.285-1.025-0.285h-1.42V35.877z"/>
		</g>
		<g>
			<rect x="30.436" y="56.529" fill="none" width="15.514" height="8.084"/>
			<path fill="#939598" d="M31.315,57.009h2.101c0.326,0,0.638,0.032,0.935,0.095c0.297,0.063,0.56,0.17,0.79,0.32
				c0.229,0.15,0.413,0.35,0.55,0.6s0.205,0.559,0.205,0.926c0,0.387-0.073,0.706-0.22,0.96c-0.146,0.253-0.335,0.453-0.565,0.6
				c-0.229,0.146-0.481,0.25-0.755,0.311c-0.273,0.06-0.533,0.09-0.78,0.09h-1.42v3.18h-0.84V57.009z M32.155,60.129h1.42
				c0.42,0,0.762-0.095,1.025-0.285c0.264-0.189,0.395-0.485,0.395-0.885c0-0.4-0.131-0.695-0.395-0.885
				c-0.264-0.19-0.605-0.285-1.025-0.285h-1.42V60.129z"/>
		</g>
		<g>
			<rect x="45.949" y="56.529" fill="none" width="15.514" height="8.084"/>
			<path fill="#939598" d="M56.413,57.009h2.101c0.326,0,0.638,0.032,0.935,0.095c0.297,0.063,0.56,0.17,0.79,0.32
				c0.229,0.15,0.413,0.35,0.55,0.6s0.205,0.559,0.205,0.926c0,0.387-0.073,0.706-0.22,0.96c-0.146,0.253-0.335,0.453-0.565,0.6
				c-0.229,0.146-0.481,0.25-0.755,0.311c-0.273,0.06-0.533,0.09-0.78,0.09h-1.42v3.18h-0.84V57.009z M57.253,60.129h1.42
				c0.42,0,0.762-0.095,1.025-0.285c0.264-0.189,0.395-0.485,0.395-0.885c0-0.4-0.131-0.695-0.395-0.885
				c-0.264-0.19-0.605-0.285-1.025-0.285h-1.42V60.129z"/>
		</g>
	</g>
</g>
<g id="Layer_4">
</g>
<g id="Layer_3">
</g>
<g id="Layer_5">
</g>
<g id="Annotations">
</g>
</svg>
