<?xml version="1.0" encoding="utf-8"?>
<!-- Generator: Adobe Illustrator 16.0.0, SVG Export Plug-In . SVG Version: 6.00 Build 0)  -->
<!DOCTYPE svg PUBLIC "-//W3C//DTD SVG 1.1//EN" "http://www.w3.org/Graphics/SVG/1.1/DTD/svg11.dtd">
<svg version="1.1" xmlns="http://www.w3.org/2000/svg" xmlns:xlink="http://www.w3.org/1999/xlink" x="0px" y="0px"
	 width="89.602px" height="92.106px" viewBox="0 0 89.602 92.106" enable-background="new 0 0 89.602 92.106" xml:space="preserve">
<g id="Layer_2">
</g>
<g id="Layer_1">
	<g>
		
			<line fill="none" stroke="#A7A9AC" stroke-width="1.4173" stroke-miterlimit="10" x1="21.666" y1="16.007" x2="21.666" y2="76.098"/>
		
			<line fill="none" stroke="#A7A9AC" stroke-width="0.7087" stroke-miterlimit="10" x1="33.145" y1="16.007" x2="33.145" y2="76.098"/>
		
			<line fill="none" stroke="#A7A9AC" stroke-width="0.7087" stroke-miterlimit="10" x1="44.623" y1="16.007" x2="44.623" y2="76.098"/>
		
			<line fill="none" stroke="#A7A9AC" stroke-width="0.7087" stroke-miterlimit="10" x1="56.102" y1="16.007" x2="56.102" y2="76.098"/>
		
			<line fill="none" stroke="#A7A9AC" stroke-width="0.7087" stroke-miterlimit="10" x1="67.58" y1="16.007" x2="67.58" y2="76.098"/>
		
			<line fill="none" stroke="#A7A9AC" stroke-width="1.4173" stroke-miterlimit="10" x1="10.898" y1="26.007" x2="79.059" y2="26.007"/>
		
			<line fill="none" stroke="#A7A9AC" stroke-width="0.7087" stroke-miterlimit="10" x1="10.898" y1="36.026" x2="79.059" y2="36.026"/>
		
			<line fill="none" stroke="#A7A9AC" stroke-width="0.7087" stroke-miterlimit="10" x1="10.543" y1="46.043" x2="78.703" y2="46.043"/>
		
			<line fill="none" stroke="#A7A9AC" stroke-width="0.7087" stroke-miterlimit="10" x1="10.898" y1="56.062" x2="79.059" y2="56.062"/>
		
			<line fill="none" stroke="#A7A9AC" stroke-width="0.7087" stroke-miterlimit="10" x1="10.898" y1="66.08" x2="79.059" y2="66.08"/>
		<polyline fill="none" stroke="#939598" stroke-width="1.4173" stroke-miterlimit="10" points="27.404,31.017 38.725,41.035 
			38.883,51.052 50.361,61.071 50.361,71.089 		"/>
		<circle fill="#FFFFFF" stroke="#939598" stroke-width="1.4173" stroke-miterlimit="10" cx="27.404" cy="31.017" r="2.75"/>
		<circle fill="#FFFFFF" stroke="#939598" stroke-width="1.4173" stroke-miterlimit="10" cx="38.883" cy="41.035" r="2.75"/>
		<polyline fill="none" stroke="#939598" stroke-width="1.4173" stroke-miterlimit="10" points="61.826,31.017 73.143,41.035 
			61.752,51.32 50.361,61.071 61.842,71.089 		"/>
		<circle fill="#FFFFFF" stroke="#939598" stroke-width="1.4173" stroke-miterlimit="10" cx="38.883" cy="51.052" r="2.75"/>
		<circle fill="#FFFFFF" stroke="#939598" stroke-width="1.4173" stroke-miterlimit="10" cx="50.361" cy="61.071" r="2.75"/>
		<circle fill="#FFFFFF" stroke="#939598" stroke-width="1.4173" stroke-miterlimit="10" cx="50.361" cy="71.089" r="2.75"/>
		<circle fill="#FFFFFF" stroke="#939598" stroke-width="1.4173" stroke-miterlimit="10" cx="61.842" cy="31.017" r="2.75"/>
		<circle fill="#FFFFFF" stroke="#939598" stroke-width="1.4173" stroke-miterlimit="10" cx="73.143" cy="41.035" r="2.75"/>
		<circle fill="#FFFFFF" stroke="#939598" stroke-width="1.4173" stroke-miterlimit="10" cx="61.842" cy="51.052" r="2.75"/>
		<circle fill="#FFFFFF" stroke="#939598" stroke-width="1.4173" stroke-miterlimit="10" cx="61.842" cy="71.089" r="2.75"/>
	</g>
	<g>
		<path fill="#A7A9AC" d="M88.184,1.417v89.271H1.418V1.417H88.184 M89.602,0H0v92.106h89.602V0L89.602,0z"/>
	</g>
</g>
<g id="Layer_4">
</g>
<g id="Layer_3">
</g>
<g id="Layer_5">
</g>
<g id="Annotations">
</g>
</svg>
