<?xml version="1.0" encoding="utf-8"?>
<!-- Generator: Adobe Illustrator 16.0.0, SVG Export Plug-In . SVG Version: 6.00 Build 0)  -->
<!DOCTYPE svg PUBLIC "-//W3C//DTD SVG 1.1//EN" "http://www.w3.org/Graphics/SVG/1.1/DTD/svg11.dtd">
<svg version="1.1" xmlns="http://www.w3.org/2000/svg" xmlns:xlink="http://www.w3.org/1999/xlink" x="0px" y="0px"
	 width="89.603px" height="92.106px" viewBox="0 0 89.603 92.106" enable-background="new 0 0 89.603 92.106" xml:space="preserve">
<g id="Layer_2">
</g>
<g id="Layer_1">
	<g>
		<g>
			<g>
				
					<line fill="none" stroke="#A7A9AC" stroke-width="1.5687" stroke-miterlimit="10" x1="44.802" y1="68.268" x2="44.802" y2="23.839"/>
				<g>
					<polygon fill="#A7A9AC" points="46.625,67.024 44.802,73.827 42.979,67.024 					"/>
				</g>
				<g>
					<polygon fill="#A7A9AC" points="46.625,25.083 44.802,18.28 42.979,25.083 					"/>
				</g>
			</g>
		</g>
		<g>
			<g>
				
					<line fill="none" stroke="#A7A9AC" stroke-width="1.4173" stroke-miterlimit="10" x1="17.951" y1="46.053" x2="71.651" y2="46.053"/>
				<g>
					<polygon fill="#A7A9AC" points="19.074,47.7 12.929,46.053 19.074,44.406 					"/>
				</g>
				<g>
					<polygon fill="#A7A9AC" points="70.527,47.7 76.674,46.053 70.527,44.406 					"/>
				</g>
			</g>
		</g>
		<path fill="none" stroke="#A7A9AC" stroke-width="1.4173" stroke-miterlimit="10" stroke-dasharray="2.8347" d="M67.473,23.382"/>
		<circle fill="#FFFFFF" stroke="#939598" stroke-width="1.4173" stroke-miterlimit="10" cx="54.867" cy="61.084" r="2.75"/>
		<circle fill="#FFFFFF" stroke="#D3D3D3" stroke-width="1.4173" stroke-miterlimit="10" cx="38.882" cy="32.339" r="2.75"/>
		<polygon fill="#FFFFFF" stroke="#939598" stroke-width="1.4173" stroke-miterlimit="10" points="27.617,44.153 26.247,41.78 
			27.617,39.407 30.357,39.407 31.727,41.78 30.357,44.153 		"/>
		<polygon fill="#FFFFFF" stroke="#D3D3D3" stroke-width="1.4173" stroke-miterlimit="10" points="61.033,33.689 59.663,31.316 
			61.033,28.943 63.773,28.943 65.143,31.316 63.773,33.689 		"/>
		
			<rect x="54.867" y="43.307" fill="#FFFFFF" stroke="#D3D3D3" stroke-width="1.4173" stroke-miterlimit="10" width="5.5" height="5.5"/>
		
			<rect x="31.727" y="55.584" fill="#FFFFFF" stroke="#939598" stroke-width="1.4173" stroke-miterlimit="10" width="5.5" height="5.5"/>
	</g>
	<g>
		<path fill="#A7A9AC" d="M88.186,1.417v89.271H1.418V1.417H88.186 M89.603,0H0v92.106h89.603V0L89.603,0z"/>
	</g>
</g>
<g id="Layer_4">
</g>
<g id="Layer_3">
</g>
<g id="Layer_5">
</g>
<g id="Annotations">
</g>
</svg>
