<?xml version="1.0" encoding="utf-8"?>
<!-- Generator: Adobe Illustrator 16.0.0, SVG Export Plug-In . SVG Version: 6.00 Build 0)  -->
<!DOCTYPE svg PUBLIC "-//W3C//DTD SVG 1.1//EN" "http://www.w3.org/Graphics/SVG/1.1/DTD/svg11.dtd">
<svg version="1.1" xmlns="http://www.w3.org/2000/svg" xmlns:xlink="http://www.w3.org/1999/xlink" x="0px" y="0px"
	 width="89.603px" height="92.106px" viewBox="0 0 89.603 92.106" enable-background="new 0 0 89.603 92.106" xml:space="preserve">
<g id="Layer_2">
</g>
<g id="Layer_1">
	<g>
		<g>
			<g>
				
					<line fill="none" stroke="#FFFFFF" stroke-width="0.5315" stroke-linecap="round" stroke-miterlimit="10" x1="64.489" y1="84.853" x2="62.364" y2="85.603"/>
				
					<line fill="none" stroke="#FFFFFF" stroke-width="0.5315" stroke-linecap="round" stroke-miterlimit="10" x1="64.489" y1="85.603" x2="62.364" y2="86.353"/>
				
					<line fill="none" stroke="#FFFFFF" stroke-width="0.5315" stroke-linecap="round" stroke-miterlimit="10" x1="64.489" y1="86.353" x2="62.364" y2="87.103"/>
			</g>
		</g>
		<polyline fill="none" stroke="#A7A9AC" stroke-width="1.4173" stroke-miterlimit="10" points="2.988,12.926 2.988,91.437 
			88.893,91.437 88.893,5.533 44.011,5.533 		"/>
		<g>
			<g>
				<path fill="#939598" d="M0.88,0.519H2.98c0.326,0,0.638,0.032,0.935,0.095c0.297,0.063,0.56,0.17,0.79,0.32
					c0.229,0.15,0.413,0.35,0.55,0.6S5.46,2.092,5.46,2.459c0,0.387-0.073,0.706-0.22,0.96c-0.146,0.253-0.335,0.453-0.565,0.6
					C4.445,4.166,4.193,4.269,3.92,4.33c-0.273,0.06-0.533,0.09-0.78,0.09H1.72v3.18H0.88V0.519z M1.72,3.639h1.42
					c0.42,0,0.762-0.095,1.025-0.285C4.429,3.165,4.56,2.869,4.56,2.469c0-0.4-0.131-0.695-0.395-0.885
					C3.901,1.394,3.56,1.299,3.14,1.299H1.72V3.639z"/>
				<path fill="#939598" d="M10.85,6.75c-0.28,0.359-0.587,0.611-0.92,0.755C9.597,7.647,9.21,7.719,8.77,7.719
					c-0.366,0-0.696-0.065-0.99-0.195C7.486,7.394,7.238,7.219,7.035,7c-0.204-0.221-0.36-0.48-0.471-0.78
					c-0.109-0.3-0.165-0.62-0.165-0.96c0-0.36,0.061-0.691,0.181-0.995c0.119-0.304,0.286-0.563,0.5-0.78
					c0.213-0.217,0.466-0.385,0.76-0.505c0.293-0.12,0.613-0.18,0.96-0.18c0.326,0,0.626,0.055,0.899,0.165
					c0.273,0.109,0.509,0.27,0.705,0.479c0.197,0.21,0.349,0.467,0.455,0.771c0.106,0.303,0.16,0.648,0.16,1.035V5.5h-3.78
					c0.014,0.199,0.062,0.392,0.146,0.574c0.083,0.184,0.191,0.344,0.325,0.48C7.843,6.691,8,6.799,8.18,6.879S8.557,7,8.77,7
					c0.34,0,0.627-0.061,0.86-0.181s0.443-0.296,0.63-0.529L10.85,6.75z M10.18,4.839c-0.014-0.4-0.144-0.721-0.39-0.96
					c-0.247-0.24-0.587-0.36-1.021-0.36s-0.783,0.12-1.05,0.36c-0.267,0.239-0.427,0.56-0.48,0.96H10.18z"/>
				<path fill="#939598" d="M12.229,4.029c0-0.213-0.007-0.413-0.021-0.6c-0.013-0.187-0.02-0.356-0.02-0.51h0.74
					c0,0.126,0.003,0.253,0.01,0.38s0.01,0.257,0.01,0.39h0.021c0.053-0.113,0.128-0.223,0.225-0.33
					c0.097-0.106,0.212-0.201,0.345-0.285c0.134-0.083,0.283-0.149,0.45-0.199c0.167-0.051,0.347-0.075,0.54-0.075
					c0.054,0,0.106,0.003,0.16,0.01c0.053,0.007,0.106,0.021,0.16,0.04l-0.051,0.79c-0.133-0.04-0.273-0.06-0.42-0.06
					c-0.479,0-0.828,0.154-1.045,0.465c-0.217,0.31-0.325,0.734-0.325,1.274v2.28h-0.779V4.029z"/>
				<path fill="#939598" d="M15.849,6.369c0.153,0.194,0.321,0.348,0.505,0.461S16.769,7,17.049,7c0.12,0,0.241-0.014,0.365-0.04
					c0.123-0.027,0.234-0.07,0.335-0.13c0.1-0.061,0.18-0.136,0.24-0.226c0.06-0.09,0.09-0.198,0.09-0.325
					c0-0.126-0.028-0.229-0.085-0.31s-0.132-0.148-0.226-0.205c-0.093-0.057-0.2-0.102-0.319-0.135
					c-0.12-0.033-0.244-0.063-0.37-0.09c-0.221-0.047-0.431-0.101-0.63-0.16c-0.2-0.061-0.375-0.139-0.525-0.235
					s-0.271-0.222-0.36-0.375s-0.135-0.35-0.135-0.59c0-0.227,0.05-0.427,0.15-0.6c0.1-0.174,0.233-0.317,0.399-0.431
					c0.167-0.113,0.354-0.2,0.561-0.26c0.206-0.06,0.42-0.09,0.64-0.09c0.333,0,0.642,0.066,0.925,0.2
					c0.283,0.133,0.505,0.35,0.665,0.649L18.119,4.08c-0.101-0.167-0.232-0.302-0.396-0.405s-0.361-0.155-0.595-0.155
					c-0.106,0-0.215,0.014-0.325,0.04s-0.208,0.066-0.295,0.12s-0.158,0.122-0.215,0.205s-0.085,0.179-0.085,0.285
					c0,0.1,0.031,0.185,0.095,0.255c0.063,0.069,0.15,0.132,0.26,0.185c0.11,0.054,0.237,0.101,0.38,0.141
					c0.144,0.04,0.292,0.073,0.445,0.1c0.207,0.04,0.403,0.092,0.59,0.155s0.351,0.148,0.49,0.255s0.25,0.24,0.33,0.399
					c0.08,0.16,0.12,0.357,0.12,0.591c0,0.267-0.054,0.493-0.16,0.68s-0.248,0.338-0.425,0.455
					c-0.177,0.116-0.377,0.201-0.601,0.255c-0.223,0.054-0.451,0.08-0.685,0.08c-0.4,0-0.745-0.062-1.035-0.186
					c-0.29-0.123-0.552-0.352-0.785-0.685L15.849,6.369z"/>
				<path fill="#939598" d="M19.738,5.259c0-0.367,0.063-0.7,0.19-1c0.126-0.3,0.3-0.559,0.52-0.775
					c0.221-0.217,0.483-0.385,0.79-0.505s0.641-0.18,1-0.18c0.36,0,0.693,0.06,1,0.18s0.57,0.288,0.79,0.505
					c0.221,0.217,0.394,0.476,0.521,0.775c0.126,0.3,0.189,0.633,0.189,1c0,0.366-0.063,0.7-0.189,1
					c-0.127,0.3-0.3,0.559-0.521,0.774c-0.22,0.217-0.483,0.386-0.79,0.506c-0.307,0.119-0.64,0.18-1,0.18
					c-0.359,0-0.693-0.061-1-0.18c-0.307-0.12-0.569-0.289-0.79-0.506c-0.22-0.216-0.394-0.475-0.52-0.774
					C19.802,5.959,19.738,5.625,19.738,5.259z M20.578,5.259c0,0.246,0.039,0.475,0.115,0.685c0.077,0.21,0.188,0.394,0.335,0.55
					c0.146,0.157,0.322,0.28,0.525,0.37C21.757,6.955,21.985,7,22.238,7c0.254,0,0.481-0.045,0.686-0.136
					c0.203-0.09,0.378-0.213,0.524-0.37c0.146-0.156,0.259-0.34,0.335-0.55c0.077-0.21,0.115-0.438,0.115-0.685
					c0-0.247-0.038-0.476-0.115-0.686c-0.076-0.21-0.188-0.393-0.335-0.55c-0.146-0.156-0.321-0.28-0.524-0.37
					c-0.204-0.09-0.432-0.135-0.686-0.135c-0.253,0-0.481,0.045-0.685,0.135s-0.379,0.214-0.525,0.37
					c-0.146,0.157-0.258,0.34-0.335,0.55C20.617,4.784,20.578,5.012,20.578,5.259z"/>
				<path fill="#939598" d="M25.949,4.029c0-0.213-0.007-0.413-0.021-0.6c-0.013-0.187-0.02-0.356-0.02-0.51h0.74
					c0,0.126,0.003,0.253,0.01,0.38s0.01,0.257,0.01,0.39h0.021c0.053-0.113,0.128-0.223,0.225-0.33
					c0.097-0.106,0.212-0.201,0.345-0.285c0.134-0.083,0.283-0.149,0.45-0.199c0.167-0.051,0.347-0.075,0.54-0.075
					c0.307,0,0.571,0.047,0.795,0.14c0.224,0.094,0.408,0.224,0.555,0.391c0.146,0.166,0.255,0.368,0.325,0.604
					s0.105,0.495,0.105,0.775v2.89h-0.78V4.79c0-0.394-0.087-0.704-0.26-0.931c-0.174-0.227-0.443-0.34-0.811-0.34
					c-0.253,0-0.472,0.044-0.654,0.13c-0.184,0.087-0.334,0.21-0.45,0.37c-0.117,0.16-0.204,0.35-0.26,0.57
					c-0.058,0.22-0.086,0.463-0.086,0.729v2.28h-0.779V4.029z"/>
				<path fill="#939598" d="M31.448,3.519c0.24-0.246,0.525-0.428,0.855-0.545c0.33-0.116,0.665-0.175,1.005-0.175
					c0.693,0,1.193,0.163,1.5,0.49c0.307,0.326,0.46,0.823,0.46,1.489V6.79c0,0.133,0.007,0.271,0.02,0.415
					c0.014,0.143,0.03,0.274,0.051,0.395h-0.75c-0.027-0.106-0.042-0.225-0.045-0.355C34.54,7.114,34.538,7,34.538,6.899h-0.02
					c-0.153,0.24-0.358,0.437-0.615,0.59s-0.564,0.23-0.925,0.23c-0.24,0-0.465-0.03-0.675-0.09c-0.21-0.061-0.394-0.148-0.55-0.266
					c-0.157-0.116-0.282-0.261-0.375-0.435c-0.094-0.174-0.141-0.373-0.141-0.6c0-0.387,0.101-0.69,0.3-0.91
					c0.2-0.221,0.449-0.384,0.745-0.49c0.297-0.106,0.617-0.174,0.96-0.2c0.344-0.026,0.658-0.04,0.945-0.04h0.3v-0.14
					c0-0.34-0.102-0.597-0.305-0.771c-0.203-0.173-0.488-0.26-0.855-0.26c-0.253,0-0.501,0.042-0.744,0.125
					c-0.244,0.084-0.459,0.212-0.646,0.385L31.448,3.519z M33.709,5.349c-0.5,0-0.897,0.07-1.19,0.21s-0.44,0.37-0.44,0.69
					c0,0.293,0.099,0.501,0.296,0.625c0.196,0.123,0.441,0.185,0.734,0.185c0.227,0,0.425-0.038,0.595-0.115
					c0.171-0.076,0.312-0.178,0.426-0.305c0.113-0.127,0.199-0.275,0.26-0.445c0.06-0.17,0.093-0.352,0.1-0.545v-0.3H33.709z"/>
				<path fill="#939598" d="M36.799,6.369c0.153,0.194,0.321,0.348,0.505,0.461S37.719,7,37.999,7c0.12,0,0.241-0.014,0.365-0.04
					c0.123-0.027,0.234-0.07,0.335-0.13c0.1-0.061,0.18-0.136,0.24-0.226c0.06-0.09,0.09-0.198,0.09-0.325
					c0-0.126-0.028-0.229-0.085-0.31s-0.132-0.148-0.226-0.205c-0.093-0.057-0.2-0.102-0.319-0.135
					c-0.12-0.033-0.244-0.063-0.37-0.09c-0.221-0.047-0.431-0.101-0.63-0.16c-0.2-0.061-0.375-0.139-0.525-0.235
					s-0.271-0.222-0.36-0.375s-0.135-0.35-0.135-0.59c0-0.227,0.05-0.427,0.15-0.6c0.1-0.174,0.233-0.317,0.399-0.431
					c0.167-0.113,0.354-0.2,0.561-0.26c0.206-0.06,0.42-0.09,0.64-0.09c0.333,0,0.642,0.066,0.925,0.2
					c0.283,0.133,0.505,0.35,0.665,0.649L39.069,4.08c-0.101-0.167-0.232-0.302-0.396-0.405s-0.361-0.155-0.595-0.155
					c-0.106,0-0.215,0.014-0.325,0.04s-0.208,0.066-0.295,0.12s-0.158,0.122-0.215,0.205s-0.085,0.179-0.085,0.285
					c0,0.1,0.031,0.185,0.095,0.255c0.063,0.069,0.15,0.132,0.26,0.185c0.11,0.054,0.237,0.101,0.38,0.141
					c0.144,0.04,0.292,0.073,0.445,0.1c0.207,0.04,0.403,0.092,0.59,0.155s0.351,0.148,0.49,0.255s0.25,0.24,0.33,0.399
					c0.08,0.16,0.12,0.357,0.12,0.591c0,0.267-0.054,0.493-0.16,0.68s-0.248,0.338-0.425,0.455
					c-0.177,0.116-0.377,0.201-0.601,0.255c-0.223,0.054-0.451,0.08-0.685,0.08c-0.4,0-0.745-0.062-1.035-0.186
					c-0.29-0.123-0.552-0.352-0.785-0.685L36.799,6.369z"/>
			</g>
		</g>
		<g>
			<g>
				<g>
					
						<path fill="#FFFFFF" stroke="#A7A9AC" stroke-width="1.4173" stroke-linecap="round" stroke-linejoin="round" stroke-miterlimit="10" d="
						M55.161,33.307c0,5.098-4.127,9.223-9.22,9.223s-9.218-4.125-9.218-9.223c0-5.09,4.125-9.217,9.218-9.217
						S55.161,28.217,55.161,33.307"/>
				</g>
				
					<path fill="#FFFFFF" stroke="#A7A9AC" stroke-width="1.4173" stroke-linecap="round" stroke-linejoin="round" stroke-miterlimit="10" d="
					M59.273,67.94c0,2.727-2.212,4.938-4.938,4.938H37.544c-2.727,0-4.937-2.211-4.937-4.938V47.514c0-2.723,2.21-4.934,4.937-4.934
					h16.792c2.726,0,4.938,2.211,4.938,4.934V67.94z"/>
			</g>
			<path fill="#D3D3D3" stroke="#939598" stroke-miterlimit="10" d="M49.411,59.729c0,0,4.11-2.326,5.971-5.658
				c1.858-3.33,0.154-6.592-2.637-6.592s-3.334,1.902-3.334,1.902s-0.543-1.902-3.334-1.902s-4.496,3.262-2.636,6.592
				C45.302,57.403,49.411,59.729,49.411,59.729z"/>
		</g>
	</g>
</g>
<g id="Layer_4">
</g>
<g id="Layer_3">
</g>
<g id="Layer_5">
</g>
<g id="Annotations">
</g>
</svg>
