<?xml version="1.0" encoding="utf-8"?>
<!-- Generator: Adobe Illustrator 16.0.0, SVG Export Plug-In . SVG Version: 6.00 Build 0)  -->
<!DOCTYPE svg PUBLIC "-//W3C//DTD SVG 1.1//EN" "http://www.w3.org/Graphics/SVG/1.1/DTD/svg11.dtd">
<svg version="1.1" xmlns="http://www.w3.org/2000/svg" xmlns:xlink="http://www.w3.org/1999/xlink" x="0px" y="0px"
	 width="89.603px" height="92.106px" viewBox="0 0 89.603 92.106" enable-background="new 0 0 89.603 92.106" xml:space="preserve">
<g id="Layer_2">
</g>
<g id="Layer_1">
	<g>
		<g>
			<g>
				
					<path fill="#FFFFFF" stroke="#A7A9AC" stroke-width="1.4173" stroke-linecap="round" stroke-linejoin="round" stroke-miterlimit="10" d="
					M54.022,30.876c0,5.098-4.127,9.223-9.221,9.223c-5.092,0-9.217-4.125-9.217-9.223c0-5.09,4.125-9.217,9.217-9.217
					C49.896,21.66,54.022,25.787,54.022,30.876"/>
			</g>
			
				<path fill="#FFFFFF" stroke="#A7A9AC" stroke-width="1.4173" stroke-linecap="round" stroke-linejoin="round" stroke-miterlimit="10" d="
				M58.134,65.509c0,2.727-2.211,4.938-4.938,4.938H36.405c-2.727,0-4.938-2.211-4.938-4.938V45.083
				c0-2.723,2.211-4.934,4.938-4.934h16.791c2.727,0,4.938,2.211,4.938,4.934V65.509z"/>
		</g>
		<path fill="#D3D3D3" stroke="#939598" stroke-miterlimit="10" d="M48.272,57.298c0,0,4.109-2.326,5.971-5.658
			c1.857-3.33,0.154-6.592-2.637-6.592s-3.334,1.902-3.334,1.902s-0.543-1.902-3.334-1.902s-4.496,3.262-2.637,6.592
			C44.163,54.972,48.272,57.298,48.272,57.298z"/>
	</g>
	<g>
		<path fill="#A7A9AC" d="M88.186,1.417v89.271H1.417V1.417H88.186 M89.603,0H0v92.106h89.603V0L89.603,0z"/>
	</g>
</g>
<g id="Layer_4">
</g>
<g id="Layer_3">
</g>
<g id="Layer_5">
</g>
<g id="Annotations">
</g>
</svg>
