<?xml version="1.0" encoding="utf-8"?>
<!-- Generator: Adobe Illustrator 16.0.0, SVG Export Plug-In . SVG Version: 6.00 Build 0)  -->
<!DOCTYPE svg PUBLIC "-//W3C//DTD SVG 1.1//EN" "http://www.w3.org/Graphics/SVG/1.1/DTD/svg11.dtd">
<svg version="1.1" xmlns="http://www.w3.org/2000/svg" xmlns:xlink="http://www.w3.org/1999/xlink" x="0px" y="0px"
	 width="89.602px" height="92.106px" viewBox="0 0 89.602 92.106" enable-background="new 0 0 89.602 92.106" xml:space="preserve">
<g id="Layer_2">
</g>
<g id="Layer_1">
	<g>
		<g>
			<g>
				<g>
					
						<path fill="#FFFFFF" stroke="#A7A9AC" stroke-width="1.4173" stroke-linecap="round" stroke-linejoin="round" stroke-miterlimit="10" d="
						M54.021,30.877c0,5.098-4.127,9.223-9.221,9.223c-5.092,0-9.217-4.125-9.217-9.223c0-5.09,4.125-9.217,9.217-9.217
						C49.895,21.66,54.021,25.787,54.021,30.877"/>
				</g>
				
					<path fill="#FFFFFF" stroke="#A7A9AC" stroke-width="1.4173" stroke-linecap="round" stroke-linejoin="round" stroke-miterlimit="10" d="
					M58.133,65.51c0,2.727-2.211,4.938-4.938,4.938H36.404c-2.727,0-4.938-2.211-4.938-4.938V45.084
					c0-2.723,2.211-4.934,4.938-4.934h16.791c2.727,0,4.938,2.211,4.938,4.934V65.51z"/>
			</g>
		</g>
		<polygon fill="#D3D3D3" stroke="#939598" stroke-miterlimit="10" points="41.625,46.923 48.271,43.086 54.918,46.923 
			54.918,54.599 48.271,58.436 41.625,54.599 		"/>
		<g>
			<g>
				<path fill="#939598" d="M47.365,53.779c0-0.256,0.094-0.476,0.281-0.66c0.188-0.184,0.414-0.276,0.679-0.276
					c0.256,0,0.479,0.089,0.672,0.265c0.191,0.176,0.288,0.392,0.288,0.647c0,0.257-0.095,0.477-0.282,0.66
					c-0.188,0.185-0.414,0.276-0.678,0.276c-0.129,0-0.251-0.024-0.366-0.072c-0.116-0.048-0.218-0.112-0.307-0.192
					c-0.088-0.079-0.157-0.176-0.21-0.288C47.391,54.027,47.365,53.907,47.365,53.779z M49.045,51.955h-1.44v-5.832h1.44V51.955z"/>
			</g>
		</g>
	</g>
	<g>
		<path fill="#A7A9AC" d="M88.185,1.418v89.271H1.416V1.418H88.185 M89.602,0H-0.001v92.106h89.603V0L89.602,0z"/>
	</g>
</g>
<g id="Layer_4">
</g>
<g id="Layer_3">
</g>
<g id="Layer_5">
</g>
<g id="Annotations">
</g>
</svg>
