<?xml version="1.0" encoding="utf-8"?>
<!-- Generator: Adobe Illustrator 16.0.0, SVG Export Plug-In . SVG Version: 6.00 Build 0)  -->
<!DOCTYPE svg PUBLIC "-//W3C//DTD SVG 1.1//EN" "http://www.w3.org/Graphics/SVG/1.1/DTD/svg11.dtd">
<svg version="1.1" xmlns="http://www.w3.org/2000/svg" xmlns:xlink="http://www.w3.org/1999/xlink" x="0px" y="0px"
	 width="89.603px" height="92.106px" viewBox="0 0 89.603 92.106" enable-background="new 0 0 89.603 92.106" xml:space="preserve">
<g id="Layer_2">
</g>
<g id="Layer_1">
	<g>
		<g>
			<g>
				
					<line fill="none" stroke="#FFFFFF" stroke-width="0.5315" stroke-linecap="round" stroke-miterlimit="10" x1="64.489" y1="84.813" x2="62.364" y2="85.563"/>
				
					<line fill="none" stroke="#FFFFFF" stroke-width="0.5315" stroke-linecap="round" stroke-miterlimit="10" x1="64.489" y1="85.563" x2="62.364" y2="86.313"/>
				
					<line fill="none" stroke="#FFFFFF" stroke-width="0.5315" stroke-linecap="round" stroke-miterlimit="10" x1="64.489" y1="86.313" x2="62.364" y2="87.063"/>
			</g>
		</g>
		<polyline fill="none" stroke="#A7A9AC" stroke-width="1.4173" stroke-miterlimit="10" points="2.988,22.318 2.988,91.397 
			88.893,91.397 88.893,5.493 44.011,5.493 		"/>
		<g>
			<g>
				<path fill="#939598" d="M0.88,0.479H2.98c0.326,0,0.638,0.032,0.935,0.095c0.297,0.063,0.56,0.17,0.79,0.32
					c0.229,0.15,0.413,0.35,0.55,0.6S5.46,2.053,5.46,2.42c0,0.387-0.073,0.706-0.22,0.96c-0.146,0.253-0.335,0.453-0.565,0.6
					C4.445,4.126,4.193,4.229,3.92,4.29C3.646,4.35,3.387,4.38,3.14,4.38H1.72v3.18H0.88V0.479z M1.72,3.6h1.42
					c0.42,0,0.762-0.095,1.025-0.285C4.429,3.125,4.56,2.829,4.56,2.43c0-0.4-0.131-0.695-0.395-0.885
					C3.901,1.354,3.56,1.26,3.14,1.26H1.72V3.6z"/>
				<path fill="#939598" d="M6.67,3.989c0-0.213-0.007-0.413-0.021-0.6C6.637,3.203,6.63,3.033,6.63,2.88h0.74
					c0,0.126,0.003,0.253,0.01,0.38s0.01,0.257,0.01,0.39H7.41c0.053-0.113,0.128-0.223,0.225-0.33
					c0.097-0.106,0.212-0.201,0.345-0.285c0.134-0.083,0.283-0.149,0.45-0.199C8.597,2.784,8.776,2.76,8.97,2.76
					c0.054,0,0.106,0.003,0.16,0.01C9.183,2.776,9.236,2.79,9.29,2.81L9.239,3.6c-0.133-0.04-0.273-0.06-0.42-0.06
					c-0.479,0-0.828,0.154-1.045,0.465c-0.217,0.31-0.325,0.734-0.325,1.274v2.28H6.67V3.989z"/>
				<path fill="#939598" d="M9.739,5.22c0-0.367,0.063-0.7,0.19-1c0.126-0.3,0.3-0.559,0.52-0.775
					c0.221-0.217,0.483-0.385,0.79-0.505s0.641-0.18,1-0.18c0.36,0,0.693,0.06,1,0.18s0.57,0.288,0.79,0.505
					C14.25,3.661,14.423,3.92,14.55,4.22c0.126,0.3,0.189,0.633,0.189,1c0,0.366-0.063,0.7-0.189,1
					c-0.127,0.3-0.3,0.559-0.521,0.774c-0.22,0.217-0.483,0.386-0.79,0.506c-0.307,0.119-0.64,0.18-1,0.18
					c-0.359,0-0.693-0.061-1-0.18c-0.307-0.12-0.569-0.289-0.79-0.506c-0.22-0.216-0.394-0.475-0.52-0.774
					C9.803,5.92,9.739,5.586,9.739,5.22z M10.579,5.22c0,0.246,0.039,0.475,0.115,0.685c0.077,0.21,0.188,0.394,0.335,0.55
					c0.146,0.157,0.322,0.28,0.525,0.37c0.203,0.091,0.432,0.136,0.685,0.136c0.254,0,0.481-0.045,0.686-0.136
					c0.203-0.09,0.378-0.213,0.524-0.37c0.146-0.156,0.259-0.34,0.335-0.55c0.077-0.21,0.115-0.438,0.115-0.685
					c0-0.247-0.038-0.476-0.115-0.686c-0.076-0.21-0.188-0.393-0.335-0.55c-0.146-0.156-0.321-0.28-0.524-0.37
					c-0.204-0.09-0.432-0.135-0.686-0.135c-0.253,0-0.481,0.045-0.685,0.135s-0.379,0.214-0.525,0.37
					c-0.146,0.157-0.258,0.34-0.335,0.55C10.618,4.744,10.579,4.973,10.579,5.22z"/>
				<path fill="#939598" d="M15.909,0h0.78v3.56h0.02c0.213-0.253,0.462-0.45,0.745-0.59c0.283-0.141,0.595-0.21,0.935-0.21
					c0.367,0,0.702,0.062,1.005,0.185c0.304,0.124,0.562,0.295,0.775,0.516c0.213,0.22,0.38,0.479,0.5,0.779
					c0.12,0.301,0.18,0.627,0.18,0.98s-0.06,0.68-0.18,0.979c-0.12,0.301-0.285,0.561-0.495,0.78s-0.458,0.392-0.745,0.515
					c-0.286,0.124-0.593,0.186-0.92,0.186c-0.42,0-0.788-0.092-1.104-0.275c-0.317-0.183-0.549-0.408-0.695-0.675h-0.02v0.83h-0.78
					V0z M16.689,5.22c0,0.246,0.038,0.475,0.114,0.685c0.077,0.21,0.188,0.394,0.335,0.55c0.146,0.157,0.322,0.28,0.525,0.37
					c0.203,0.091,0.432,0.136,0.685,0.136c0.254,0,0.481-0.045,0.686-0.136c0.203-0.09,0.378-0.213,0.524-0.37
					c0.146-0.156,0.259-0.34,0.335-0.55c0.077-0.21,0.115-0.438,0.115-0.685c0-0.247-0.038-0.476-0.115-0.686
					c-0.076-0.21-0.188-0.393-0.335-0.55c-0.146-0.156-0.321-0.28-0.524-0.37c-0.204-0.09-0.432-0.135-0.686-0.135
					c-0.253,0-0.481,0.045-0.685,0.135s-0.379,0.214-0.525,0.37c-0.146,0.157-0.258,0.34-0.335,0.55
					C16.728,4.744,16.689,4.973,16.689,5.22z"/>
				<path fill="#939598" d="M22.129,0h0.78v7.56h-0.78V0z"/>
				<path fill="#939598" d="M28.639,6.71c-0.28,0.359-0.587,0.611-0.92,0.755c-0.333,0.143-0.72,0.215-1.16,0.215
					c-0.366,0-0.696-0.065-0.99-0.195c-0.293-0.13-0.541-0.305-0.744-0.524c-0.204-0.221-0.36-0.48-0.471-0.78
					c-0.109-0.3-0.165-0.62-0.165-0.96c0-0.36,0.061-0.691,0.181-0.995c0.119-0.304,0.286-0.563,0.5-0.78
					c0.213-0.217,0.466-0.385,0.76-0.505c0.293-0.12,0.613-0.18,0.96-0.18c0.326,0,0.626,0.055,0.899,0.165
					c0.273,0.109,0.509,0.27,0.705,0.479c0.197,0.21,0.349,0.467,0.455,0.771c0.106,0.303,0.16,0.648,0.16,1.035v0.25h-3.78
					c0.014,0.199,0.062,0.392,0.146,0.574c0.083,0.184,0.191,0.344,0.325,0.48c0.133,0.137,0.29,0.245,0.47,0.325
					s0.377,0.12,0.59,0.12c0.34,0,0.627-0.061,0.86-0.181s0.443-0.296,0.63-0.529L28.639,6.71z M27.969,4.8
					c-0.014-0.4-0.144-0.721-0.39-0.96c-0.247-0.24-0.587-0.36-1.021-0.36s-0.783,0.12-1.05,0.36c-0.267,0.239-0.427,0.56-0.48,0.96
					H27.969z"/>
				<path fill="#939598" d="M30.019,3.989c0-0.213-0.007-0.413-0.021-0.6c-0.013-0.187-0.02-0.356-0.02-0.51h0.74
					c0,0.126,0.003,0.253,0.01,0.38s0.01,0.257,0.01,0.39h0.021c0.053-0.113,0.128-0.223,0.225-0.33
					c0.097-0.106,0.212-0.201,0.345-0.285c0.134-0.083,0.283-0.149,0.45-0.199c0.167-0.051,0.347-0.075,0.54-0.075
					c0.253,0,0.465,0.031,0.635,0.095s0.312,0.14,0.425,0.23c0.113,0.09,0.202,0.187,0.266,0.29
					c0.063,0.103,0.115,0.194,0.154,0.274c0.174-0.28,0.374-0.498,0.601-0.655c0.227-0.156,0.52-0.234,0.88-0.234
					c0.333,0,0.613,0.045,0.84,0.135s0.41,0.22,0.55,0.39c0.141,0.17,0.24,0.377,0.301,0.62c0.06,0.244,0.09,0.516,0.09,0.815v2.84
					h-0.78v-2.8c0-0.16-0.017-0.316-0.05-0.47S36.135,4,36.048,3.88c-0.086-0.12-0.203-0.217-0.35-0.29s-0.333-0.11-0.56-0.11
					c-0.167,0-0.324,0.033-0.471,0.1c-0.146,0.067-0.274,0.16-0.385,0.28s-0.196,0.266-0.26,0.436s-0.095,0.358-0.095,0.564v2.7
					h-0.78v-2.65c0-0.52-0.07-0.888-0.21-1.104c-0.141-0.217-0.37-0.325-0.69-0.325c-0.253,0-0.472,0.044-0.654,0.13
					c-0.184,0.087-0.334,0.21-0.45,0.37c-0.117,0.16-0.204,0.35-0.26,0.57c-0.058,0.22-0.086,0.463-0.086,0.729v2.28h-0.779V3.989z"
					/>
				<path fill="#939598" d="M4.63,18.729H4.61c-0.147,0.267-0.379,0.492-0.695,0.675C3.599,19.588,3.23,19.68,2.81,19.68
					c-0.326,0-0.633-0.062-0.92-0.186c-0.286-0.123-0.534-0.295-0.745-0.515c-0.21-0.22-0.375-0.479-0.494-0.78
					c-0.12-0.3-0.181-0.626-0.181-0.979s0.061-0.68,0.181-0.98c0.119-0.3,0.286-0.56,0.5-0.779c0.213-0.221,0.471-0.392,0.774-0.516
					c0.304-0.123,0.639-0.185,1.005-0.185c0.34,0,0.652,0.069,0.936,0.21c0.283,0.14,0.531,0.337,0.745,0.59h0.02V12h0.78v7.56H4.63
					V18.729z M4.63,17.22c0-0.247-0.038-0.476-0.115-0.686c-0.076-0.21-0.188-0.393-0.335-0.55c-0.146-0.156-0.321-0.28-0.524-0.37
					c-0.204-0.09-0.432-0.135-0.686-0.135c-0.253,0-0.481,0.045-0.685,0.135s-0.379,0.214-0.525,0.37
					c-0.146,0.157-0.258,0.34-0.335,0.55c-0.076,0.21-0.115,0.438-0.115,0.686c0,0.246,0.039,0.475,0.115,0.685
					c0.077,0.21,0.188,0.394,0.335,0.55c0.146,0.157,0.322,0.28,0.525,0.37c0.203,0.091,0.432,0.136,0.685,0.136
					c0.254,0,0.481-0.045,0.686-0.136c0.203-0.09,0.378-0.213,0.524-0.37c0.146-0.156,0.259-0.34,0.335-0.55
					C4.592,17.694,4.63,17.466,4.63,17.22z"/>
				<path fill="#939598" d="M11.03,18.71c-0.28,0.359-0.587,0.611-0.92,0.755c-0.333,0.143-0.72,0.215-1.16,0.215
					c-0.366,0-0.696-0.065-0.99-0.195c-0.293-0.13-0.541-0.305-0.744-0.524c-0.204-0.221-0.36-0.48-0.471-0.78
					c-0.109-0.3-0.165-0.62-0.165-0.96c0-0.36,0.061-0.691,0.181-0.995c0.119-0.304,0.286-0.563,0.5-0.78
					c0.213-0.217,0.466-0.385,0.76-0.505c0.293-0.12,0.613-0.18,0.96-0.18c0.326,0,0.626,0.055,0.899,0.165
					c0.273,0.109,0.509,0.27,0.705,0.479c0.197,0.21,0.349,0.467,0.455,0.771c0.106,0.303,0.16,0.648,0.16,1.035v0.25H7.42
					c0.014,0.199,0.062,0.392,0.146,0.574c0.083,0.184,0.191,0.344,0.325,0.48c0.133,0.137,0.29,0.245,0.47,0.325
					s0.377,0.12,0.59,0.12c0.34,0,0.627-0.061,0.86-0.181s0.443-0.296,0.63-0.529L11.03,18.71z M10.36,16.8
					c-0.014-0.4-0.144-0.721-0.39-0.96c-0.247-0.24-0.587-0.36-1.021-0.36S8.167,15.6,7.9,15.84c-0.267,0.239-0.427,0.56-0.48,0.96
					H10.36z"/>
				<path fill="#939598" d="M12.81,15.54h-1.02v-0.66h1.02v-1.051c0-0.286,0.027-0.548,0.08-0.784
					c0.054-0.237,0.146-0.442,0.275-0.615c0.13-0.174,0.302-0.309,0.515-0.405c0.214-0.097,0.477-0.145,0.79-0.145
					c0.101,0,0.207,0.01,0.32,0.029c0.113,0.021,0.206,0.051,0.28,0.091l-0.11,0.699c-0.187-0.066-0.363-0.1-0.53-0.1
					c-0.2,0-0.356,0.035-0.47,0.104c-0.113,0.07-0.198,0.167-0.255,0.29c-0.057,0.124-0.09,0.272-0.101,0.445
					C13.595,13.613,13.59,13.8,13.59,14v0.88h1.14v0.66h-1.14v4.02h-0.78V15.54z"/>
				<path fill="#939598" d="M15.449,13.05c0-0.153,0.055-0.287,0.165-0.4s0.245-0.17,0.405-0.17s0.295,0.057,0.405,0.17
					c0.109,0.113,0.164,0.247,0.164,0.4c0,0.166-0.053,0.303-0.159,0.41c-0.107,0.106-0.244,0.159-0.41,0.159
					c-0.167,0-0.304-0.053-0.41-0.159C15.503,13.353,15.449,13.216,15.449,13.05z M15.629,14.88h0.78v4.68h-0.78V14.88z"/>
				<path fill="#939598" d="M17.959,15.989c0-0.213-0.007-0.413-0.021-0.6c-0.013-0.187-0.02-0.356-0.02-0.51h0.74
					c0,0.126,0.003,0.253,0.01,0.38s0.01,0.257,0.01,0.39h0.021c0.053-0.113,0.128-0.223,0.225-0.33
					c0.097-0.106,0.212-0.201,0.345-0.285c0.134-0.083,0.283-0.149,0.45-0.199c0.167-0.051,0.347-0.075,0.54-0.075
					c0.307,0,0.571,0.047,0.795,0.14c0.224,0.094,0.408,0.224,0.555,0.391c0.146,0.166,0.255,0.368,0.325,0.604
					s0.105,0.495,0.105,0.775v2.89h-0.78v-2.81c0-0.394-0.087-0.704-0.26-0.931c-0.174-0.227-0.443-0.34-0.811-0.34
					c-0.253,0-0.472,0.044-0.654,0.13c-0.184,0.087-0.334,0.21-0.45,0.37c-0.117,0.16-0.204,0.35-0.26,0.57
					c-0.058,0.22-0.086,0.463-0.086,0.729v2.28h-0.779V15.989z"/>
				<path fill="#939598" d="M23.408,13.05c0-0.153,0.055-0.287,0.165-0.4s0.245-0.17,0.405-0.17s0.295,0.057,0.405,0.17
					c0.109,0.113,0.164,0.247,0.164,0.4c0,0.166-0.053,0.303-0.159,0.41c-0.107,0.106-0.244,0.159-0.41,0.159
					c-0.167,0-0.304-0.053-0.41-0.159C23.462,13.353,23.408,13.216,23.408,13.05z M23.588,14.88h0.78v4.68h-0.78V14.88z"/>
				<path fill="#939598" d="M28.478,15.54h-1.38v2.34c0,0.153,0.003,0.295,0.01,0.425s0.033,0.243,0.08,0.34s0.117,0.174,0.21,0.23
					c0.094,0.057,0.227,0.085,0.4,0.085c0.113,0,0.229-0.014,0.35-0.04c0.12-0.027,0.233-0.067,0.34-0.12l0.03,0.71
					c-0.133,0.06-0.281,0.104-0.445,0.13c-0.163,0.026-0.318,0.04-0.465,0.04c-0.279,0-0.503-0.037-0.67-0.11
					c-0.166-0.073-0.297-0.177-0.39-0.31c-0.094-0.134-0.155-0.299-0.186-0.495c-0.029-0.196-0.045-0.415-0.045-0.655V15.54h-1.02
					v-0.66h1.02v-1.33h0.78v1.33h1.38V15.54z"/>
				<path fill="#939598" d="M29.337,13.05c0-0.153,0.055-0.287,0.165-0.4s0.245-0.17,0.405-0.17s0.295,0.057,0.405,0.17
					c0.109,0.113,0.164,0.247,0.164,0.4c0,0.166-0.053,0.303-0.159,0.41c-0.107,0.106-0.244,0.159-0.41,0.159
					c-0.167,0-0.304-0.053-0.41-0.159C29.391,13.353,29.337,13.216,29.337,13.05z M29.517,14.88h0.78v4.68h-0.78V14.88z"/>
				<path fill="#939598" d="M31.577,17.22c0-0.367,0.063-0.7,0.19-1c0.126-0.3,0.3-0.559,0.52-0.775
					c0.221-0.217,0.483-0.385,0.79-0.505s0.641-0.18,1-0.18c0.36,0,0.693,0.06,1,0.18s0.57,0.288,0.79,0.505
					c0.221,0.217,0.394,0.476,0.521,0.775c0.126,0.3,0.189,0.633,0.189,1c0,0.366-0.063,0.7-0.189,1
					c-0.127,0.3-0.3,0.559-0.521,0.774c-0.22,0.217-0.483,0.386-0.79,0.506c-0.307,0.119-0.64,0.18-1,0.18
					c-0.359,0-0.693-0.061-1-0.18c-0.307-0.12-0.569-0.289-0.79-0.506c-0.22-0.216-0.394-0.475-0.52-0.774
					C31.641,17.92,31.577,17.586,31.577,17.22z M32.417,17.22c0,0.246,0.039,0.475,0.115,0.685c0.077,0.21,0.188,0.394,0.335,0.55
					c0.146,0.157,0.322,0.28,0.525,0.37c0.203,0.091,0.432,0.136,0.685,0.136c0.254,0,0.481-0.045,0.686-0.136
					c0.203-0.09,0.378-0.213,0.524-0.37c0.146-0.156,0.259-0.34,0.335-0.55c0.077-0.21,0.115-0.438,0.115-0.685
					c0-0.247-0.038-0.476-0.115-0.686c-0.076-0.21-0.188-0.393-0.335-0.55c-0.146-0.156-0.321-0.28-0.524-0.37
					c-0.204-0.09-0.432-0.135-0.686-0.135c-0.253,0-0.481,0.045-0.685,0.135s-0.379,0.214-0.525,0.37
					c-0.146,0.157-0.258,0.34-0.335,0.55C32.456,16.744,32.417,16.973,32.417,17.22z"/>
				<path fill="#939598" d="M37.787,15.989c0-0.213-0.007-0.413-0.021-0.6c-0.013-0.187-0.02-0.356-0.02-0.51h0.74
					c0,0.126,0.003,0.253,0.01,0.38s0.01,0.257,0.01,0.39h0.021c0.053-0.113,0.128-0.223,0.225-0.33
					c0.097-0.106,0.212-0.201,0.345-0.285c0.134-0.083,0.283-0.149,0.45-0.199c0.167-0.051,0.347-0.075,0.54-0.075
					c0.307,0,0.571,0.047,0.795,0.14c0.224,0.094,0.408,0.224,0.555,0.391c0.146,0.166,0.255,0.368,0.325,0.604
					s0.105,0.495,0.105,0.775v2.89h-0.78v-2.81c0-0.394-0.087-0.704-0.26-0.931c-0.174-0.227-0.443-0.34-0.811-0.34
					c-0.253,0-0.472,0.044-0.654,0.13c-0.184,0.087-0.334,0.21-0.45,0.37c-0.117,0.16-0.204,0.35-0.26,0.57
					c-0.058,0.22-0.086,0.463-0.086,0.729v2.28h-0.779V15.989z"/>
			</g>
		</g>
		<g>
			<g>
				<g>
					
						<path fill="#FFFFFF" stroke="#A7A9AC" stroke-width="1.4173" stroke-linecap="round" stroke-linejoin="round" stroke-miterlimit="10" d="
						M55.161,33.268c0,5.098-4.127,9.223-9.22,9.223s-9.218-4.125-9.218-9.223c0-5.09,4.125-9.217,9.218-9.217
						S55.161,28.178,55.161,33.268"/>
				</g>
				
					<path fill="#FFFFFF" stroke="#A7A9AC" stroke-width="1.4173" stroke-linecap="round" stroke-linejoin="round" stroke-miterlimit="10" d="
					M59.273,67.9c0,2.727-2.212,4.938-4.938,4.938H37.544c-2.727,0-4.937-2.211-4.937-4.938V47.475c0-2.723,2.21-4.934,4.937-4.934
					h16.792c2.726,0,4.938,2.211,4.938,4.934V67.9z"/>
			</g>
		</g>
		<polygon fill="#D3D3D3" stroke="#939598" stroke-miterlimit="10" points="42.765,49.313 49.411,45.477 56.058,49.313 
			56.058,56.989 49.411,60.826 42.765,56.989 		"/>
		<g>
			<g>
				<path fill="#939598" d="M48.505,56.171c0-0.256,0.094-0.476,0.281-0.66c0.188-0.184,0.414-0.276,0.679-0.276
					c0.256,0,0.479,0.089,0.672,0.265c0.191,0.176,0.288,0.392,0.288,0.647c0,0.257-0.095,0.477-0.282,0.66
					c-0.188,0.185-0.414,0.276-0.678,0.276c-0.129,0-0.251-0.024-0.366-0.072c-0.116-0.048-0.218-0.112-0.307-0.192
					c-0.088-0.079-0.157-0.176-0.21-0.288C48.53,56.419,48.505,56.299,48.505,56.171z M50.185,54.347h-1.44v-5.832h1.44V54.347z"/>
			</g>
		</g>
	</g>
</g>
<g id="Layer_4">
</g>
<g id="Layer_3">
</g>
<g id="Layer_5">
</g>
<g id="Annotations">
</g>
</svg>
