<?xml version="1.0" encoding="utf-8"?>
<!-- Generator: Adobe Illustrator 16.0.0, SVG Export Plug-In . SVG Version: 6.00 Build 0)  -->
<!DOCTYPE svg PUBLIC "-//W3C//DTD SVG 1.1//EN" "http://www.w3.org/Graphics/SVG/1.1/DTD/svg11.dtd">
<svg version="1.1" xmlns="http://www.w3.org/2000/svg" xmlns:xlink="http://www.w3.org/1999/xlink" x="0px" y="0px"
	 width="89.603px" height="92.106px" viewBox="0 0 89.603 92.106" enable-background="new 0 0 89.603 92.106" xml:space="preserve">
<g id="Layer_2">
</g>
<g id="Layer_1">
	<g>
		<polyline fill="none" stroke="#A7A9AC" stroke-width="1.4173" stroke-miterlimit="10" points="3.242,13.521 3.242,91.405 
			89.146,91.405 89.146,5.501 57.193,5.501 		"/>
		<g>
			<g>
				<path fill="#939598" d="M0.896,0.372h2.101c0.326,0,0.638,0.033,0.935,0.096s0.56,0.17,0.79,0.32
					c0.229,0.15,0.413,0.35,0.55,0.6s0.205,0.559,0.205,0.926c0,0.387-0.073,0.705-0.22,0.959s-0.335,0.453-0.565,0.6
					c-0.229,0.146-0.481,0.25-0.755,0.311s-0.533,0.09-0.78,0.09h-1.42v3.18h-0.84V0.372z M1.735,3.493h1.42
					c0.42,0,0.762-0.096,1.025-0.285s0.395-0.486,0.395-0.885c0-0.4-0.131-0.695-0.395-0.885C3.917,1.247,3.575,1.153,3.155,1.153
					h-1.42V3.493z"/>
				<path fill="#939598" d="M6.686,3.882c0-0.213-0.007-0.412-0.021-0.6c-0.013-0.186-0.02-0.355-0.02-0.51h0.74
					c0,0.127,0.003,0.254,0.01,0.381s0.01,0.256,0.01,0.389h0.021c0.053-0.113,0.128-0.223,0.225-0.33
					c0.097-0.105,0.212-0.201,0.345-0.285c0.134-0.082,0.283-0.148,0.45-0.199s0.347-0.074,0.54-0.074
					c0.054,0,0.106,0.002,0.16,0.01c0.053,0.006,0.106,0.02,0.16,0.039L9.255,3.493c-0.133-0.041-0.273-0.061-0.42-0.061
					c-0.479,0-0.828,0.154-1.045,0.465S7.465,4.632,7.465,5.173v2.279H6.686V3.882z"/>
				<path fill="#939598" d="M9.755,5.112c0-0.367,0.063-0.699,0.19-1c0.126-0.299,0.3-0.559,0.52-0.775
					c0.221-0.217,0.483-0.385,0.79-0.504c0.307-0.121,0.641-0.18,1-0.18c0.36,0,0.693,0.059,1,0.18
					c0.307,0.119,0.57,0.287,0.79,0.504c0.221,0.217,0.394,0.477,0.521,0.775c0.126,0.301,0.189,0.633,0.189,1s-0.063,0.701-0.189,1
					c-0.127,0.301-0.3,0.559-0.521,0.775c-0.22,0.217-0.483,0.385-0.79,0.506c-0.307,0.119-0.64,0.18-1,0.18
					c-0.359,0-0.693-0.061-1-0.18c-0.307-0.121-0.569-0.289-0.79-0.506c-0.22-0.217-0.394-0.475-0.52-0.775
					C9.818,5.813,9.755,5.479,9.755,5.112z M10.595,5.112c0,0.246,0.039,0.475,0.115,0.686c0.077,0.209,0.188,0.393,0.335,0.549
					c0.146,0.158,0.322,0.281,0.525,0.371s0.432,0.135,0.685,0.135c0.254,0,0.481-0.045,0.686-0.135
					c0.203-0.09,0.378-0.213,0.524-0.371c0.146-0.156,0.259-0.34,0.335-0.549c0.077-0.211,0.115-0.439,0.115-0.686
					S13.877,4.638,13.8,4.427c-0.076-0.209-0.188-0.393-0.335-0.549s-0.321-0.281-0.524-0.371c-0.204-0.09-0.432-0.135-0.686-0.135
					c-0.253,0-0.481,0.045-0.685,0.135s-0.379,0.215-0.525,0.371s-0.258,0.34-0.335,0.549C10.634,4.638,10.595,4.866,10.595,5.112z"
					/>
				<path fill="#939598" d="M19.295,3.942c-0.167-0.199-0.347-0.346-0.54-0.436s-0.407-0.135-0.641-0.135
					c-0.26,0-0.489,0.045-0.689,0.135S17.06,3.722,16.93,3.882s-0.229,0.346-0.295,0.557c-0.066,0.209-0.101,0.434-0.101,0.674
					s0.039,0.465,0.115,0.676c0.077,0.209,0.184,0.395,0.32,0.555s0.302,0.285,0.495,0.375s0.41,0.135,0.649,0.135
					c0.514,0,0.91-0.193,1.19-0.58l0.58,0.551c-0.227,0.26-0.493,0.449-0.8,0.57c-0.307,0.119-0.63,0.18-0.971,0.18
					c-0.359,0-0.689-0.061-0.989-0.18c-0.301-0.121-0.556-0.291-0.766-0.512c-0.21-0.219-0.373-0.479-0.49-0.779
					c-0.116-0.301-0.175-0.631-0.175-0.99c0-0.354,0.059-0.68,0.175-0.98c0.117-0.299,0.282-0.559,0.495-0.779
					c0.214-0.221,0.469-0.391,0.766-0.516c0.296-0.123,0.625-0.184,0.984-0.184c0.347,0,0.676,0.059,0.985,0.18
					c0.31,0.119,0.582,0.307,0.815,0.561L19.295,3.942z"/>
				<path fill="#939598" d="M24.965,6.603c-0.28,0.359-0.587,0.611-0.92,0.756c-0.333,0.143-0.72,0.215-1.16,0.215
					c-0.366,0-0.696-0.066-0.99-0.195c-0.293-0.131-0.541-0.305-0.744-0.525c-0.204-0.221-0.36-0.48-0.471-0.779
					c-0.109-0.301-0.165-0.621-0.165-0.961c0-0.359,0.061-0.691,0.181-0.994c0.119-0.305,0.286-0.564,0.5-0.781
					c0.213-0.217,0.466-0.385,0.76-0.504c0.293-0.121,0.613-0.18,0.96-0.18c0.326,0,0.626,0.055,0.899,0.164s0.509,0.27,0.705,0.48
					c0.197,0.209,0.349,0.467,0.455,0.77s0.16,0.648,0.16,1.035v0.25h-3.78c0.014,0.199,0.062,0.393,0.146,0.574
					c0.083,0.184,0.191,0.344,0.325,0.48c0.133,0.137,0.29,0.246,0.47,0.326s0.377,0.119,0.59,0.119c0.34,0,0.627-0.061,0.86-0.18
					c0.233-0.121,0.443-0.297,0.63-0.529L24.965,6.603z M24.295,4.692c-0.014-0.4-0.144-0.721-0.39-0.959
					c-0.247-0.24-0.587-0.361-1.021-0.361s-0.783,0.121-1.05,0.361c-0.267,0.238-0.427,0.559-0.48,0.959H24.295z"/>
				<path fill="#939598" d="M26.444,6.222c0.153,0.195,0.321,0.348,0.505,0.461s0.415,0.17,0.695,0.17
					c0.12,0,0.241-0.014,0.365-0.039c0.123-0.027,0.234-0.07,0.335-0.131c0.1-0.061,0.18-0.135,0.24-0.225
					c0.06-0.09,0.09-0.199,0.09-0.326c0-0.125-0.028-0.229-0.085-0.309s-0.132-0.148-0.226-0.205
					c-0.093-0.057-0.2-0.102-0.319-0.135c-0.12-0.033-0.244-0.064-0.37-0.09c-0.221-0.047-0.431-0.102-0.63-0.16
					c-0.2-0.061-0.375-0.139-0.525-0.236c-0.15-0.096-0.271-0.221-0.36-0.375c-0.09-0.152-0.135-0.35-0.135-0.59
					c0-0.227,0.05-0.426,0.15-0.6c0.1-0.174,0.233-0.316,0.399-0.43c0.167-0.113,0.354-0.201,0.561-0.26
					c0.206-0.061,0.42-0.09,0.64-0.09c0.333,0,0.642,0.066,0.925,0.199s0.505,0.35,0.665,0.65l-0.649,0.43
					c-0.101-0.166-0.232-0.301-0.396-0.404s-0.361-0.156-0.595-0.156c-0.106,0-0.215,0.014-0.325,0.041
					c-0.11,0.025-0.208,0.066-0.295,0.119c-0.087,0.055-0.158,0.123-0.215,0.205c-0.057,0.084-0.085,0.18-0.085,0.285
					c0,0.1,0.031,0.186,0.095,0.256c0.063,0.068,0.15,0.131,0.26,0.184c0.11,0.055,0.237,0.102,0.38,0.141
					c0.144,0.041,0.292,0.074,0.445,0.1c0.207,0.041,0.403,0.092,0.59,0.156c0.187,0.062,0.351,0.148,0.49,0.254
					c0.14,0.107,0.25,0.24,0.33,0.4s0.12,0.357,0.12,0.59c0,0.268-0.054,0.494-0.16,0.68C29.248,6.97,29.106,7.12,28.93,7.237
					s-0.377,0.201-0.601,0.256c-0.223,0.053-0.451,0.08-0.685,0.08c-0.4,0-0.745-0.062-1.035-0.186s-0.552-0.352-0.785-0.686
					L26.444,6.222z"/>
				<path fill="#939598" d="M30.704,6.222c0.153,0.195,0.321,0.348,0.505,0.461s0.415,0.17,0.695,0.17
					c0.12,0,0.241-0.014,0.365-0.039c0.123-0.027,0.234-0.07,0.335-0.131c0.1-0.061,0.18-0.135,0.24-0.225
					c0.06-0.09,0.09-0.199,0.09-0.326c0-0.125-0.028-0.229-0.085-0.309s-0.132-0.148-0.226-0.205
					c-0.093-0.057-0.2-0.102-0.319-0.135c-0.12-0.033-0.244-0.064-0.37-0.09c-0.221-0.047-0.431-0.102-0.63-0.16
					c-0.2-0.061-0.375-0.139-0.525-0.236c-0.15-0.096-0.271-0.221-0.36-0.375c-0.09-0.152-0.135-0.35-0.135-0.59
					c0-0.227,0.05-0.426,0.15-0.6c0.1-0.174,0.233-0.316,0.399-0.43c0.167-0.113,0.354-0.201,0.561-0.26
					c0.206-0.061,0.42-0.09,0.64-0.09c0.333,0,0.642,0.066,0.925,0.199s0.505,0.35,0.665,0.65l-0.649,0.43
					c-0.101-0.166-0.232-0.301-0.396-0.404s-0.361-0.156-0.595-0.156c-0.106,0-0.215,0.014-0.325,0.041
					c-0.11,0.025-0.208,0.066-0.295,0.119c-0.087,0.055-0.158,0.123-0.215,0.205c-0.057,0.084-0.085,0.18-0.085,0.285
					c0,0.1,0.031,0.186,0.095,0.256c0.063,0.068,0.15,0.131,0.26,0.184c0.11,0.055,0.237,0.102,0.38,0.141
					c0.144,0.041,0.292,0.074,0.445,0.1c0.207,0.041,0.403,0.092,0.59,0.156c0.187,0.062,0.351,0.148,0.49,0.254
					c0.14,0.107,0.25,0.24,0.33,0.4s0.12,0.357,0.12,0.59c0,0.268-0.054,0.494-0.16,0.68c-0.106,0.188-0.248,0.338-0.425,0.455
					s-0.377,0.201-0.601,0.256c-0.223,0.053-0.451,0.08-0.685,0.08c-0.4,0-0.745-0.062-1.035-0.186s-0.552-0.352-0.785-0.686
					L30.704,6.222z"/>
				<path fill="#939598" d="M40.204,3.433h-1.38v2.34c0,0.154,0.003,0.295,0.01,0.426c0.007,0.129,0.033,0.242,0.08,0.34
					c0.047,0.096,0.117,0.174,0.21,0.23c0.094,0.057,0.227,0.084,0.4,0.084c0.113,0,0.229-0.014,0.35-0.039
					c0.12-0.027,0.233-0.068,0.34-0.121l0.03,0.711c-0.133,0.059-0.281,0.104-0.445,0.129c-0.163,0.027-0.318,0.041-0.465,0.041
					c-0.279,0-0.503-0.037-0.67-0.111c-0.166-0.072-0.297-0.176-0.39-0.309c-0.094-0.135-0.155-0.299-0.186-0.496
					c-0.029-0.195-0.045-0.414-0.045-0.654v-2.57h-1.02v-0.66h1.02v-1.33h0.78v1.33h1.38V3.433z"/>
				<path fill="#939598" d="M41.164,3.882c0-0.213-0.007-0.412-0.021-0.6c-0.013-0.186-0.02-0.355-0.02-0.51h0.74
					c0,0.127,0.003,0.254,0.01,0.381s0.01,0.256,0.01,0.389h0.021c0.053-0.113,0.128-0.223,0.225-0.33
					c0.097-0.105,0.212-0.201,0.345-0.285c0.134-0.082,0.283-0.148,0.45-0.199s0.347-0.074,0.54-0.074
					c0.054,0,0.106,0.002,0.16,0.01c0.053,0.006,0.106,0.02,0.16,0.039l-0.051,0.791c-0.133-0.041-0.273-0.061-0.42-0.061
					c-0.479,0-0.828,0.154-1.045,0.465s-0.325,0.734-0.325,1.275v2.279h-0.779V3.882z"/>
				<path fill="#939598" d="M48.684,6.603c-0.28,0.359-0.587,0.611-0.92,0.756c-0.333,0.143-0.72,0.215-1.16,0.215
					c-0.366,0-0.696-0.066-0.99-0.195c-0.293-0.131-0.541-0.305-0.744-0.525c-0.204-0.221-0.36-0.48-0.471-0.779
					c-0.109-0.301-0.165-0.621-0.165-0.961c0-0.359,0.061-0.691,0.181-0.994c0.119-0.305,0.286-0.564,0.5-0.781
					c0.213-0.217,0.466-0.385,0.76-0.504c0.293-0.121,0.613-0.18,0.96-0.18c0.326,0,0.626,0.055,0.899,0.164s0.509,0.27,0.705,0.48
					c0.197,0.209,0.349,0.467,0.455,0.77s0.16,0.648,0.16,1.035v0.25h-3.78c0.014,0.199,0.062,0.393,0.146,0.574
					c0.083,0.184,0.191,0.344,0.325,0.48c0.133,0.137,0.29,0.246,0.47,0.326s0.377,0.119,0.59,0.119c0.34,0,0.627-0.061,0.86-0.18
					c0.233-0.121,0.443-0.297,0.63-0.529L48.684,6.603z M48.014,4.692c-0.014-0.4-0.144-0.721-0.39-0.959
					c-0.247-0.24-0.587-0.361-1.021-0.361s-0.783,0.121-1.05,0.361c-0.267,0.238-0.427,0.559-0.48,0.959H48.014z"/>
				<path fill="#939598" d="M54.243,6.603c-0.28,0.359-0.587,0.611-0.92,0.756c-0.333,0.143-0.72,0.215-1.16,0.215
					c-0.366,0-0.696-0.066-0.99-0.195c-0.293-0.131-0.541-0.305-0.744-0.525c-0.204-0.221-0.36-0.48-0.471-0.779
					c-0.109-0.301-0.165-0.621-0.165-0.961c0-0.359,0.061-0.691,0.181-0.994c0.119-0.305,0.286-0.564,0.5-0.781
					c0.213-0.217,0.466-0.385,0.76-0.504c0.293-0.121,0.613-0.18,0.96-0.18c0.326,0,0.626,0.055,0.899,0.164s0.509,0.27,0.705,0.48
					c0.197,0.209,0.349,0.467,0.455,0.77s0.16,0.648,0.16,1.035v0.25h-3.78c0.014,0.199,0.062,0.393,0.146,0.574
					c0.083,0.184,0.191,0.344,0.325,0.48c0.133,0.137,0.29,0.246,0.47,0.326s0.377,0.119,0.59,0.119c0.34,0,0.627-0.061,0.86-0.18
					c0.233-0.121,0.443-0.297,0.63-0.529L54.243,6.603z M53.573,4.692c-0.014-0.4-0.144-0.721-0.39-0.959
					c-0.247-0.24-0.587-0.361-1.021-0.361s-0.783,0.121-1.05,0.361c-0.267,0.238-0.427,0.559-0.48,0.959H53.573z"/>
			</g>
		</g>
		<polyline fill="none" stroke="#939598" stroke-width="1.4173" stroke-miterlimit="10" points="12.406,47.472 21.783,38.093 
			33.406,38.093 		"/>
		<polyline fill="none" stroke="#939598" stroke-width="1.4173" stroke-miterlimit="10" points="33.406,38.093 42.783,28.978 
			54.406,28.978 		"/>
		<line fill="none" stroke="#939598" stroke-width="1.4173" stroke-miterlimit="10" x1="42.7" y1="47.04" x2="54.323" y2="47.04"/>
		
			<line fill="none" stroke="#939598" stroke-width="1.4173" stroke-miterlimit="10" x1="54.406" y1="28.978" x2="64.412" y2="38.433"/>
		
			<line fill="none" stroke="#939598" stroke-width="1.4173" stroke-miterlimit="10" x1="54.323" y1="47.04" x2="63.789" y2="38.196"/>
		
			<line fill="none" stroke="#939598" stroke-width="1.4173" stroke-miterlimit="10" x1="54.323" y1="47.04" x2="63.887" y2="56.255"/>
		
			<line fill="none" stroke="#939598" stroke-width="1.4173" stroke-miterlimit="10" x1="33.405" y1="38.093" x2="42.783" y2="47.04"/>
		
			<line fill="none" stroke="#939598" stroke-width="1.4173" stroke-miterlimit="10" x1="33.406" y1="56.255" x2="42.783" y2="47.04"/>
		<polyline fill="none" stroke="#939598" stroke-width="1.4173" stroke-miterlimit="10" points="12.405,46.747 21.784,56.124 
			33.406,56.124 		"/>
		<polyline fill="none" stroke="#939598" stroke-width="1.4173" stroke-miterlimit="10" points="54.406,28.978 63.789,19.886 
			75.413,19.886 		"/>
		
			<line fill="none" stroke="#939598" stroke-width="1.4173" stroke-miterlimit="10" x1="63.899" y1="56.255" x2="75.522" y2="56.255"/>
		
			<line fill="none" stroke="#939598" stroke-width="1.4173" stroke-miterlimit="10" x1="63.789" y1="38.093" x2="75.413" y2="38.093"/>
		<polyline fill="none" stroke="#939598" stroke-width="1.4173" stroke-miterlimit="10" points="33.405,55.993 42.783,65.37 
			54.406,65.37 		"/>
		
			<line fill="none" stroke="#939598" stroke-width="1.4173" stroke-miterlimit="10" x1="54.413" y1="65.37" x2="63.887" y2="56.255"/>
		<polyline fill="none" stroke="#939598" stroke-width="1.4173" stroke-miterlimit="10" points="54.406,65.37 64.412,74.646 
			76.035,74.646 		"/>
	</g>
</g>
<g id="Layer_4">
</g>
<g id="Layer_3">
</g>
<g id="Layer_5">
</g>
<g id="Annotations">
</g>
</svg>
