<?xml version="1.0" encoding="utf-8"?>
<!-- Generator: Adobe Illustrator 16.0.0, SVG Export Plug-In . SVG Version: 6.00 Build 0)  -->
<!DOCTYPE svg PUBLIC "-//W3C//DTD SVG 1.1//EN" "http://www.w3.org/Graphics/SVG/1.1/DTD/svg11.dtd">
<svg version="1.1" xmlns="http://www.w3.org/2000/svg" xmlns:xlink="http://www.w3.org/1999/xlink" x="0px" y="0px"
	 width="89.602px" height="92.106px" viewBox="0 0 89.602 92.106" enable-background="new 0 0 89.602 92.106" xml:space="preserve">
<g id="Layer_2">
</g>
<g id="Layer_1">
	<g>
		<polyline fill="none" stroke="#939598" stroke-width="1.4173" stroke-miterlimit="10" points="12.986,46.259 22.363,36.88 
			33.986,36.88 		"/>
		<polyline fill="none" stroke="#939598" stroke-width="1.4173" stroke-miterlimit="10" points="33.986,36.88 43.363,27.765 
			54.986,27.765 		"/>
		
			<line fill="none" stroke="#939598" stroke-width="1.4173" stroke-miterlimit="10" x1="43.281" y1="45.827" x2="54.904" y2="45.827"/>
		
			<line fill="none" stroke="#939598" stroke-width="1.4173" stroke-miterlimit="10" x1="54.986" y1="27.765" x2="64.992" y2="37.22"/>
		
			<line fill="none" stroke="#939598" stroke-width="1.4173" stroke-miterlimit="10" x1="54.904" y1="45.827" x2="64.369" y2="36.983"/>
		
			<line fill="none" stroke="#939598" stroke-width="1.4173" stroke-miterlimit="10" x1="54.904" y1="45.827" x2="64.467" y2="55.042"/>
		
			<line fill="none" stroke="#939598" stroke-width="1.4173" stroke-miterlimit="10" x1="33.986" y1="36.88" x2="43.363" y2="45.827"/>
		
			<line fill="none" stroke="#939598" stroke-width="1.4173" stroke-miterlimit="10" x1="33.986" y1="55.042" x2="43.363" y2="45.827"/>
		<polyline fill="none" stroke="#939598" stroke-width="1.4173" stroke-miterlimit="10" points="12.986,45.534 22.365,54.911 
			33.986,54.911 		"/>
		<polyline fill="none" stroke="#939598" stroke-width="1.4173" stroke-miterlimit="10" points="54.986,27.765 64.369,18.673 
			75.994,18.673 		"/>
		
			<line fill="none" stroke="#939598" stroke-width="1.4173" stroke-miterlimit="10" x1="64.48" y1="55.042" x2="76.102" y2="55.042"/>
		
			<line fill="none" stroke="#939598" stroke-width="1.4173" stroke-miterlimit="10" x1="64.369" y1="36.88" x2="75.994" y2="36.88"/>
		<polyline fill="none" stroke="#939598" stroke-width="1.4173" stroke-miterlimit="10" points="33.986,54.78 43.363,64.157 
			54.986,64.157 		"/>
		
			<line fill="none" stroke="#939598" stroke-width="1.4173" stroke-miterlimit="10" x1="54.994" y1="64.157" x2="64.467" y2="55.042"/>
		<polyline fill="none" stroke="#939598" stroke-width="1.4173" stroke-miterlimit="10" points="54.986,64.157 64.992,73.433 
			76.615,73.433 		"/>
	</g>
	<g>
		<path fill="#A7A9AC" d="M88.184,1.417v89.271H1.418V1.417H88.184 M89.602,0H0v92.105h89.602V0L89.602,0z"/>
	</g>
</g>
<g id="Layer_4">
</g>
<g id="Layer_3">
</g>
<g id="Layer_5">
</g>
<g id="Annotations">
</g>
</svg>
