<?xml version="1.0" encoding="utf-8"?>
<!-- Generator: Adobe Illustrator 16.0.0, SVG Export Plug-In . SVG Version: 6.00 Build 0)  -->
<!DOCTYPE svg PUBLIC "-//W3C//DTD SVG 1.1//EN" "http://www.w3.org/Graphics/SVG/1.1/DTD/svg11.dtd">
<svg version="1.1" xmlns="http://www.w3.org/2000/svg" xmlns:xlink="http://www.w3.org/1999/xlink" x="0px" y="0px"
	 width="89.603px" height="92.106px" viewBox="0 0 89.603 92.106" enable-background="new 0 0 89.603 92.106" xml:space="preserve">
<g id="Layer_2">
</g>
<g id="Layer_1">
	<g>
		<polygon fill="#FFFFFF" stroke="#A7A9AC" stroke-width="1.4173" stroke-miterlimit="10" points="68.192,58.324 44.802,71.827 
			21.411,58.324 21.411,31.315 44.802,20.28 68.192,31.315 		"/>
		<polygon fill="#D3D3D3" points="34.522,49.109 34.522,38.421 44.263,33.921 44.263,45.066 34.522,49.383 		"/>
		<polygon fill="#D3D3D3" points="67.503,32.21 67.503,58.324 45.481,70.859 45.481,56.318 55.763,50.208 55.825,37.847 		"/>
		<g>
			<polygon fill="none" stroke="#A7A9AC" stroke-width="1.4173" stroke-miterlimit="10" points="68.192,58.324 44.802,71.827 
				21.411,58.324 21.411,31.315 44.802,20.28 68.192,31.315 			"/>
			
				<line fill="none" stroke="#A7A9AC" stroke-width="1.4173" stroke-miterlimit="10" x1="21.411" y1="31.315" x2="34.522" y2="37.847"/>
			
				<line fill="none" stroke="#A7A9AC" stroke-width="1.4173" stroke-miterlimit="10" x1="55.081" y1="37.847" x2="68.192" y2="31.315"/>
			
				<line fill="none" stroke="#A7A9AC" stroke-width="1.4173" stroke-miterlimit="10" x1="44.802" y1="56.318" x2="44.802" y2="71.827"/>
			<polygon fill="none" stroke="#A7A9AC" stroke-width="1.4173" stroke-miterlimit="10" points="55.384,50.208 44.802,56.318 
				34.22,50.208 34.22,37.989 44.802,32.997 55.384,37.989 			"/>
			
				<line fill="none" stroke="#A7A9AC" stroke-width="1.4173" stroke-miterlimit="10" x1="44.802" y1="45.066" x2="44.802" y2="32.997"/>
			
				<line fill="none" stroke="#A7A9AC" stroke-width="1.4173" stroke-miterlimit="10" x1="34.22" y1="50.208" x2="44.802" y2="45.066"/>
			
				<line fill="none" stroke="#A7A9AC" stroke-width="1.4173" stroke-miterlimit="10" x1="55.384" y1="50.208" x2="44.802" y2="45.066"/>
			
				<line fill="none" stroke="#A7A9AC" stroke-width="1.4173" stroke-miterlimit="10" stroke-dasharray="1.7498" x1="34.522" y1="37.847" x2="44.802" y2="43.017"/>
			
				<line fill="none" stroke="#A7A9AC" stroke-width="1.4173" stroke-miterlimit="10" stroke-dasharray="1.7498" x1="55.081" y1="37.847" x2="44.802" y2="43.017"/>
			
				<line fill="none" stroke="#A7A9AC" stroke-width="1.4173" stroke-miterlimit="10" stroke-dasharray="1.7498" x1="44.802" y1="43.017" x2="44.802" y2="56.318"/>
		</g>
	</g>
	<g>
		<path fill="#A7A9AC" d="M88.186,1.417v89.271H1.417V1.417H88.186 M89.603,0H0v92.106h89.603V0L89.603,0z"/>
	</g>
</g>
<g id="Layer_4">
</g>
<g id="Layer_3">
</g>
<g id="Layer_5">
</g>
<g id="Annotations">
</g>
</svg>
