<?xml version="1.0" encoding="utf-8"?>
<!-- Generator: Adobe Illustrator 16.0.0, SVG Export Plug-In . SVG Version: 6.00 Build 0)  -->
<!DOCTYPE svg PUBLIC "-//W3C//DTD SVG 1.1//EN" "http://www.w3.org/Graphics/SVG/1.1/DTD/svg11.dtd">
<svg version="1.1" xmlns="http://www.w3.org/2000/svg" xmlns:xlink="http://www.w3.org/1999/xlink" x="0px" y="0px"
	 width="89.603px" height="92.106px" viewBox="0 0 89.603 92.106" enable-background="new 0 0 89.603 92.106" xml:space="preserve">
<g id="Layer_2">
</g>
<g id="Layer_1">
	<g>
		<path fill="none" stroke="#A7A9AC" stroke-width="1.4173" stroke-miterlimit="10" d="M63.887,67.418
			c0,1.565-1.27,2.835-2.835,2.835H28.551c-1.565,0-2.835-1.27-2.835-2.835V24.688c0-1.565,1.27-2.835,2.835-2.835h32.501
			c1.565,0,2.835,1.27,2.835,2.835V67.418z"/>
		
			<rect x="28.82" y="25.187" fill="none" stroke="#A7A9AC" stroke-width="1.4173" stroke-miterlimit="10" width="32.035" height="41.667"/>
		
			<line fill="none" stroke="#A7A9AC" stroke-width="1.4173" stroke-miterlimit="10" x1="31.196" y1="29.187" x2="46.4" y2="29.187"/>
		
			<line fill="none" stroke="#A7A9AC" stroke-width="1.4173" stroke-miterlimit="10" x1="31.196" y1="33.437" x2="52.968" y2="33.437"/>
		
			<line fill="none" stroke="#A7A9AC" stroke-width="1.4173" stroke-miterlimit="10" x1="31.196" y1="41.937" x2="48.903" y2="41.937"/>
		
			<line fill="none" stroke="#A7A9AC" stroke-width="1.4173" stroke-miterlimit="10" x1="31.196" y1="50.437" x2="54.002" y2="50.437"/>
		
			<line fill="none" stroke="#A7A9AC" stroke-width="1.4173" stroke-miterlimit="10" x1="31.196" y1="58.937" x2="54.002" y2="58.937"/>
		
			<line fill="none" stroke="#A7A9AC" stroke-width="1.4173" stroke-miterlimit="10" x1="31.196" y1="37.687" x2="52.968" y2="37.687"/>
		
			<line fill="none" stroke="#A7A9AC" stroke-width="1.4173" stroke-miterlimit="10" x1="31.196" y1="46.187" x2="48.903" y2="46.187"/>
		
			<line fill="none" stroke="#A7A9AC" stroke-width="1.4173" stroke-miterlimit="10" x1="31.196" y1="54.687" x2="54.002" y2="54.687"/>
		
			<line fill="none" stroke="#A7A9AC" stroke-width="1.4173" stroke-miterlimit="10" x1="31.196" y1="63.187" x2="54.002" y2="63.187"/>
		
			<rect x="56.03" y="27.853" fill="none" stroke="#A7A9AC" stroke-width="0.7087" stroke-miterlimit="10" width="2.668" height="2.668"/>
		
			<rect x="56.03" y="32.103" fill="none" stroke="#A7A9AC" stroke-width="0.7087" stroke-miterlimit="10" width="2.668" height="2.668"/>
		
			<rect x="56.03" y="36.353" fill="none" stroke="#A7A9AC" stroke-width="0.7087" stroke-miterlimit="10" width="2.668" height="2.668"/>
		
			<rect x="56.03" y="40.603" fill="none" stroke="#A7A9AC" stroke-width="0.7087" stroke-miterlimit="10" width="2.668" height="2.668"/>
		
			<rect x="56.03" y="44.853" fill="none" stroke="#A7A9AC" stroke-width="0.7087" stroke-miterlimit="10" width="2.668" height="2.668"/>
		
			<rect x="56.03" y="49.103" fill="none" stroke="#A7A9AC" stroke-width="0.7087" stroke-miterlimit="10" width="2.668" height="2.668"/>
		
			<rect x="56.03" y="53.353" fill="none" stroke="#A7A9AC" stroke-width="0.7087" stroke-miterlimit="10" width="2.668" height="2.668"/>
		
			<rect x="56.03" y="57.603" fill="none" stroke="#A7A9AC" stroke-width="0.7087" stroke-miterlimit="10" width="2.668" height="2.668"/>
		
			<rect x="56.03" y="61.853" fill="none" stroke="#A7A9AC" stroke-width="0.7087" stroke-miterlimit="10" width="2.668" height="2.668"/>
	</g>
	<g>
		<path fill="#A7A9AC" d="M88.186,1.417v89.271H1.417V1.417H88.186 M89.603,0H0v92.105h89.603V0L89.603,0z"/>
	</g>
</g>
<g id="Layer_4">
</g>
<g id="Layer_3">
</g>
<g id="Layer_5">
</g>
<g id="Annotations">
</g>
</svg>
