<?xml version="1.0" encoding="utf-8"?>
<!-- Generator: Adobe Illustrator 16.0.0, SVG Export Plug-In . SVG Version: 6.00 Build 0)  -->
<!DOCTYPE svg PUBLIC "-//W3C//DTD SVG 1.1//EN" "http://www.w3.org/Graphics/SVG/1.1/DTD/svg11.dtd">
<svg version="1.1" xmlns="http://www.w3.org/2000/svg" xmlns:xlink="http://www.w3.org/1999/xlink" x="0px" y="0px"
	 width="89.603px" height="92.106px" viewBox="0 0 89.603 92.106" enable-background="new 0 0 89.603 92.106" xml:space="preserve">
<g id="Layer_2">
</g>
<g id="Layer_1">
	<g>
		<polyline fill="none" stroke="#A7A9AC" stroke-width="1.4173" stroke-miterlimit="10" points="2.752,11.206 2.752,91.399 
			88.656,91.399 88.656,5.495 56.551,5.495 		"/>
		<g>
			<g>
				<path fill="#939598" d="M0.644,0.482h1.811c0.34,0,0.678,0.021,1.015,0.061c0.337,0.039,0.639,0.126,0.905,0.26
					c0.267,0.133,0.483,0.328,0.649,0.585c0.167,0.257,0.25,0.604,0.25,1.045c0,0.52-0.156,0.939-0.47,1.26s-0.747,0.523-1.3,0.61
					l2.01,3.26h-1.03l-1.92-3.18h-1.08v3.18h-0.84V0.482z M1.483,3.603h0.75c0.233,0,0.476-0.007,0.726-0.021
					c0.25-0.013,0.479-0.056,0.689-0.13c0.21-0.073,0.384-0.188,0.521-0.345c0.137-0.156,0.205-0.382,0.205-0.675
					c0-0.253-0.051-0.457-0.15-0.61S3.992,1.551,3.829,1.468C3.665,1.384,3.482,1.329,3.278,1.303
					c-0.203-0.026-0.408-0.04-0.614-0.04H1.483V3.603z"/>
				<path fill="#939598" d="M6.344,5.223c0-0.367,0.063-0.7,0.19-1c0.126-0.3,0.3-0.559,0.52-0.775
					c0.221-0.217,0.483-0.385,0.79-0.505s0.641-0.18,1-0.18c0.36,0,0.693,0.06,1,0.18s0.57,0.288,0.79,0.505
					c0.221,0.217,0.394,0.476,0.521,0.775c0.126,0.3,0.189,0.633,0.189,1c0,0.366-0.063,0.7-0.189,1
					c-0.127,0.3-0.3,0.559-0.521,0.774c-0.22,0.217-0.483,0.386-0.79,0.506c-0.307,0.119-0.64,0.18-1,0.18
					c-0.359,0-0.693-0.061-1-0.18c-0.307-0.12-0.569-0.289-0.79-0.506c-0.22-0.216-0.394-0.475-0.52-0.774
					C6.407,5.923,6.344,5.589,6.344,5.223z M7.184,5.223c0,0.246,0.039,0.475,0.115,0.685c0.077,0.21,0.188,0.394,0.335,0.55
					c0.146,0.157,0.322,0.28,0.525,0.37c0.203,0.091,0.432,0.136,0.685,0.136c0.254,0,0.481-0.045,0.686-0.136
					c0.203-0.09,0.378-0.213,0.524-0.37c0.146-0.156,0.259-0.34,0.335-0.55c0.077-0.21,0.115-0.438,0.115-0.685
					c0-0.247-0.038-0.476-0.115-0.686c-0.076-0.21-0.188-0.393-0.335-0.55c-0.146-0.156-0.321-0.28-0.524-0.37
					c-0.204-0.09-0.432-0.135-0.686-0.135c-0.253,0-0.481,0.045-0.685,0.135S7.78,3.831,7.634,3.987
					c-0.146,0.157-0.258,0.34-0.335,0.55C7.223,4.747,7.184,4.976,7.184,5.223z"/>
				<path fill="#939598" d="M12.624,0.003h0.78v7.56h-0.78V0.003z"/>
				<path fill="#939598" d="M19.135,6.713c-0.28,0.359-0.587,0.611-0.92,0.755c-0.333,0.143-0.72,0.215-1.16,0.215
					c-0.366,0-0.696-0.065-0.99-0.195c-0.293-0.13-0.541-0.305-0.744-0.524c-0.204-0.221-0.36-0.48-0.471-0.78
					c-0.109-0.3-0.165-0.62-0.165-0.96c0-0.36,0.061-0.691,0.181-0.995c0.119-0.304,0.286-0.563,0.5-0.78
					c0.213-0.217,0.466-0.385,0.76-0.505c0.293-0.12,0.613-0.18,0.96-0.18c0.326,0,0.626,0.055,0.899,0.165
					c0.273,0.109,0.509,0.27,0.705,0.479c0.197,0.21,0.349,0.467,0.455,0.771c0.106,0.303,0.16,0.648,0.16,1.035v0.25h-3.78
					c0.014,0.199,0.062,0.392,0.146,0.574c0.083,0.184,0.191,0.344,0.325,0.48c0.133,0.137,0.29,0.245,0.47,0.325
					s0.377,0.12,0.59,0.12c0.34,0,0.627-0.061,0.86-0.181s0.443-0.296,0.63-0.529L19.135,6.713z M18.465,4.803
					c-0.014-0.4-0.144-0.721-0.39-0.96c-0.247-0.24-0.587-0.36-1.021-0.36s-0.783,0.12-1.05,0.36c-0.267,0.239-0.427,0.56-0.48,0.96
					H18.465z"/>
				<path fill="#939598" d="M20.475,2.883h0.78v0.68h0.02c0.213-0.253,0.462-0.45,0.745-0.59c0.283-0.141,0.595-0.21,0.935-0.21
					c0.367,0,0.702,0.062,1.005,0.185c0.304,0.124,0.562,0.295,0.775,0.516c0.213,0.22,0.38,0.479,0.5,0.779
					c0.12,0.301,0.18,0.627,0.18,0.98s-0.06,0.68-0.18,0.979c-0.12,0.301-0.285,0.561-0.495,0.78s-0.458,0.392-0.745,0.515
					c-0.286,0.124-0.593,0.186-0.92,0.186c-0.42,0-0.788-0.092-1.104-0.275c-0.317-0.183-0.549-0.408-0.695-0.675h-0.02v3.11h-0.78
					V2.883z M21.255,5.223c0,0.246,0.038,0.475,0.114,0.685c0.077,0.21,0.188,0.394,0.335,0.55c0.146,0.157,0.322,0.28,0.525,0.37
					c0.203,0.091,0.432,0.136,0.685,0.136c0.254,0,0.481-0.045,0.686-0.136c0.203-0.09,0.378-0.213,0.524-0.37
					c0.146-0.156,0.259-0.34,0.335-0.55c0.077-0.21,0.115-0.438,0.115-0.685c0-0.247-0.038-0.476-0.115-0.686
					c-0.076-0.21-0.188-0.393-0.335-0.55c-0.146-0.156-0.321-0.28-0.524-0.37c-0.204-0.09-0.432-0.135-0.686-0.135
					c-0.253,0-0.481,0.045-0.685,0.135s-0.379,0.214-0.525,0.37c-0.146,0.157-0.258,0.34-0.335,0.55
					C21.293,4.747,21.255,4.976,21.255,5.223z"/>
				<path fill="#939598" d="M26.694,0.003h0.78v7.56h-0.78V0.003z"/>
				<path fill="#939598" d="M28.965,3.482c0.24-0.246,0.525-0.428,0.855-0.545c0.33-0.116,0.665-0.175,1.005-0.175
					c0.693,0,1.193,0.163,1.5,0.49c0.307,0.326,0.46,0.823,0.46,1.489v2.011c0,0.133,0.007,0.271,0.02,0.415
					c0.014,0.143,0.03,0.274,0.051,0.395h-0.75c-0.027-0.106-0.042-0.225-0.045-0.355c-0.004-0.13-0.006-0.244-0.006-0.345h-0.02
					c-0.153,0.24-0.358,0.437-0.615,0.59s-0.564,0.23-0.925,0.23c-0.24,0-0.465-0.03-0.675-0.09c-0.21-0.061-0.394-0.148-0.55-0.266
					c-0.157-0.116-0.282-0.261-0.375-0.435c-0.094-0.174-0.141-0.373-0.141-0.6c0-0.387,0.101-0.69,0.3-0.91
					c0.2-0.221,0.449-0.384,0.745-0.49c0.297-0.106,0.617-0.174,0.96-0.2c0.344-0.026,0.658-0.04,0.945-0.04h0.3v-0.14
					c0-0.34-0.102-0.597-0.305-0.771c-0.203-0.173-0.488-0.26-0.855-0.26c-0.253,0-0.501,0.042-0.744,0.125
					c-0.244,0.084-0.459,0.212-0.646,0.385L28.965,3.482z M31.226,5.312c-0.5,0-0.897,0.07-1.19,0.21s-0.44,0.37-0.44,0.69
					c0,0.293,0.099,0.501,0.296,0.625c0.196,0.123,0.441,0.185,0.734,0.185c0.227,0,0.425-0.038,0.595-0.115
					c0.171-0.076,0.312-0.178,0.426-0.305c0.113-0.127,0.199-0.275,0.26-0.445c0.06-0.17,0.093-0.352,0.1-0.545v-0.3H31.226z"/>
				<path fill="#939598" d="M35.936,8.633c-0.08,0.199-0.162,0.381-0.245,0.545c-0.083,0.163-0.184,0.303-0.3,0.42
					c-0.117,0.116-0.257,0.206-0.42,0.27s-0.362,0.096-0.595,0.096c-0.114,0-0.232-0.007-0.355-0.021s-0.238-0.047-0.345-0.1
					l0.1-0.681c0.08,0.033,0.163,0.056,0.25,0.065s0.187,0.015,0.3,0.015c0.254,0,0.44-0.069,0.561-0.21
					c0.12-0.14,0.223-0.326,0.31-0.56l0.32-0.88l-1.94-4.71h0.91l1.45,3.67h0.021l1.39-3.67h0.85L35.936,8.633z"/>
				<path fill="#939598" d="M38.926,1.053c0-0.153,0.055-0.287,0.165-0.4s0.245-0.17,0.405-0.17s0.295,0.057,0.405,0.17
					c0.109,0.113,0.164,0.247,0.164,0.4c0,0.166-0.053,0.303-0.159,0.41c-0.107,0.106-0.244,0.159-0.41,0.159
					c-0.167,0-0.304-0.053-0.41-0.159C38.979,1.355,38.926,1.219,38.926,1.053z M39.105,2.883h0.78v4.68h-0.78V2.883z"/>
				<path fill="#939598" d="M41.436,3.992c0-0.213-0.007-0.413-0.021-0.6c-0.013-0.187-0.02-0.356-0.02-0.51h0.74
					c0,0.126,0.003,0.253,0.01,0.38s0.01,0.257,0.01,0.39h0.021c0.053-0.113,0.128-0.223,0.225-0.33
					c0.097-0.106,0.212-0.201,0.345-0.285c0.134-0.083,0.283-0.149,0.45-0.199c0.167-0.051,0.347-0.075,0.54-0.075
					c0.307,0,0.571,0.047,0.795,0.14c0.224,0.094,0.408,0.224,0.555,0.391c0.146,0.166,0.255,0.368,0.325,0.604
					s0.105,0.495,0.105,0.775v2.89h-0.78v-2.81c0-0.394-0.087-0.704-0.26-0.931c-0.174-0.227-0.443-0.34-0.811-0.34
					c-0.253,0-0.472,0.044-0.654,0.13c-0.184,0.087-0.334,0.21-0.45,0.37c-0.117,0.16-0.204,0.35-0.26,0.57
					c-0.058,0.22-0.086,0.463-0.086,0.729v2.28h-0.779V3.992z"/>
				<path fill="#939598" d="M51.665,7.353c0,0.854-0.219,1.502-0.655,1.945s-1.068,0.665-1.895,0.665c-0.46,0-0.875-0.067-1.245-0.2
					c-0.37-0.134-0.722-0.363-1.056-0.69l0.561-0.64c0.246,0.267,0.508,0.468,0.785,0.604c0.276,0.137,0.595,0.205,0.955,0.205
					c0.347,0,0.635-0.052,0.864-0.154c0.23-0.104,0.412-0.244,0.545-0.42c0.134-0.177,0.227-0.379,0.28-0.605s0.08-0.464,0.08-0.71
					v-0.6h-0.02c-0.188,0.3-0.431,0.52-0.73,0.659c-0.3,0.141-0.606,0.21-0.92,0.21c-0.366,0-0.703-0.06-1.01-0.18
					s-0.57-0.286-0.79-0.5c-0.22-0.213-0.391-0.467-0.51-0.76c-0.12-0.293-0.181-0.613-0.181-0.96c0-0.38,0.061-0.724,0.181-1.03
					c0.119-0.307,0.288-0.564,0.505-0.774c0.216-0.211,0.478-0.372,0.785-0.485c0.306-0.113,0.646-0.17,1.02-0.17
					c0.16,0,0.32,0.019,0.48,0.055c0.159,0.037,0.314,0.094,0.465,0.17c0.149,0.077,0.285,0.174,0.404,0.29
					c0.12,0.117,0.221,0.252,0.301,0.405h0.02v-0.8h0.78V7.353z M47.564,5.223c0,0.24,0.044,0.462,0.131,0.665
					c0.086,0.203,0.204,0.38,0.354,0.53c0.15,0.149,0.325,0.268,0.525,0.354c0.199,0.087,0.413,0.13,0.64,0.13
					c0.267,0,0.503-0.047,0.71-0.14c0.207-0.094,0.382-0.219,0.525-0.375c0.143-0.157,0.251-0.337,0.324-0.54
					c0.074-0.203,0.11-0.418,0.11-0.646c0-0.253-0.04-0.484-0.12-0.694s-0.193-0.392-0.34-0.545s-0.323-0.271-0.53-0.355
					c-0.206-0.083-0.433-0.125-0.68-0.125s-0.472,0.045-0.675,0.135s-0.377,0.214-0.521,0.37c-0.144,0.157-0.255,0.34-0.335,0.55
					S47.564,4.976,47.564,5.223z"/>
			</g>
		</g>
		<g>
			<rect x="22.627" y="26.808" fill="#A7A9AC" width="24.874" height="24.873"/>
			<g>
				<g>
					<path fill="#FFFFFF" d="M27.725,46.229c-0.718-0.588-1.559-1.785-1.869-2.659l-4.791-13.48
						c-0.311-0.874,0.195-1.596,1.123-1.604l8.906-0.072c0.928-0.008,2.372-0.343,3.209-0.744l8.029-3.857
						c0.837-0.401,1.608,0.023,1.715,0.945l1.637,14.211c0.105,0.922-0.119,2.368-0.501,3.214l-3.917,8.688
						c-0.381,0.846-1.434,1.71-2.337,1.92l-0.853,0.197c-0.904,0.21-2.23-0.1-2.948-0.688L27.725,46.229z"/>
					<path fill="none" stroke="#A7A9AC" stroke-width="1.1904" stroke-miterlimit="10" d="M27.725,46.229
						c-0.718-0.588-1.559-1.785-1.869-2.659l-4.791-13.48c-0.311-0.874,0.195-1.596,1.123-1.604l8.906-0.072
						c0.928-0.008,2.372-0.343,3.209-0.744l8.029-3.857c0.837-0.401,1.608,0.023,1.715,0.945l1.637,14.211
						c0.105,0.922-0.119,2.368-0.501,3.214l-3.917,8.688c-0.381,0.846-1.434,1.71-2.337,1.92l-0.853,0.197
						c-0.904,0.21-2.23-0.1-2.948-0.688L27.725,46.229z"/>
				</g>
				<g>
					
						<ellipse transform="matrix(0.9741 -0.226 0.226 0.9741 -7.2295 7.4958)" fill="#A7A9AC" cx="29.131" cy="35.33" rx="4.249" ry="1.489"/>
					
						<ellipse transform="matrix(0.9741 -0.226 0.226 0.9741 -6.4479 9.6914)" fill="#A7A9AC" cx="39.113" cy="33.014" rx="4.249" ry="1.489"/>
				</g>
				<path fill="none" stroke="#A7A9AC" stroke-width="1.4173" stroke-linecap="round" stroke-miterlimit="10" d="M33.113,48.54
					c1.078-1.73,1.476-2.023,3.751-2.551c2.275-0.529,3.265-0.129,4.493,0.637"/>
				
					<line fill="none" stroke="#A7A9AC" stroke-width="1.4173" stroke-linecap="round" stroke-miterlimit="10" x1="25.306" y1="33.944" x2="31.748" y2="30.739"/>
				
					<line fill="none" stroke="#A7A9AC" stroke-width="1.4173" stroke-linecap="round" stroke-miterlimit="10" x1="42.086" y1="30.052" x2="34.891" y2="30.011"/>
			</g>
		</g>
		<g>
			
				<rect x="44.729" y="44.396" transform="matrix(0.7071 0.7071 -0.7071 0.7071 56.9305 -23.7765)" fill="#939598" width="24.873" height="24.873"/>
			<g>
				<path fill="#FFFFFF" d="M45.955,57.964c-0.207-0.904-0.137-2.365,0.153-3.247l4.479-13.586c0.29-0.882,1.132-1.142,1.87-0.579
					l7.082,5.402c0.738,0.562,2.084,1.184,2.991,1.378l8.709,1.875c0.907,0.194,1.255,1.004,0.774,1.797l-7.418,12.232
					c-0.48,0.793-1.546,1.798-2.365,2.232l-8.42,4.463c-0.82,0.435-2.181,0.473-3.023,0.084l-0.796-0.367
					c-0.843-0.389-1.7-1.446-1.907-2.351L45.955,57.964z"/>
				<path fill="none" stroke="#A7A9AC" stroke-width="1.1904" stroke-miterlimit="10" d="M45.955,57.964
					c-0.207-0.904-0.137-2.365,0.153-3.247l4.479-13.586c0.29-0.882,1.132-1.142,1.87-0.579l7.082,5.402
					c0.738,0.562,2.084,1.184,2.991,1.378l8.709,1.875c0.907,0.194,1.255,1.004,0.774,1.797l-7.418,12.232
					c-0.48,0.793-1.546,1.798-2.365,2.232l-8.42,4.463c-0.82,0.435-2.181,0.473-3.023,0.084l-0.796-0.367
					c-0.843-0.389-1.7-1.446-1.907-2.351L45.955,57.964z"/>
			</g>
			<g>
				
					<ellipse transform="matrix(0.9082 0.4185 -0.4185 0.9082 25.9505 -17.8855)" fill="#A7A9AC" cx="53.748" cy="50.215" rx="4.249" ry="1.489"/>
				
					<ellipse transform="matrix(0.9082 0.4185 -0.4185 0.9082 28.6001 -21.3873)" fill="#A7A9AC" cx="63.055" cy="54.504" rx="4.249" ry="1.489"/>
			</g>
			<path fill="none" stroke="#A7A9AC" stroke-width="1.4173" stroke-linecap="round" stroke-miterlimit="10" d="M57.166,65.149
				c-1.912,0.705-2.406,0.693-4.527-0.285c-2.121-0.977-2.658-1.9-3.158-3.258"/>
		</g>
	</g>
</g>
<g id="Layer_4">
</g>
<g id="Layer_3">
</g>
<g id="Layer_5">
</g>
<g id="Annotations">
</g>
</svg>
