<?xml version="1.0" encoding="utf-8"?>
<!-- Generator: Adobe Illustrator 16.0.0, SVG Export Plug-In . SVG Version: 6.00 Build 0)  -->
<!DOCTYPE svg PUBLIC "-//W3C//DTD SVG 1.1//EN" "http://www.w3.org/Graphics/SVG/1.1/DTD/svg11.dtd">
<svg version="1.1" xmlns="http://www.w3.org/2000/svg" xmlns:xlink="http://www.w3.org/1999/xlink" x="0px" y="0px"
	 width="89.603px" height="92.106px" viewBox="0 0 89.603 92.106" enable-background="new 0 0 89.603 92.106" xml:space="preserve">
<g id="Layer_2">
</g>
<g id="Layer_1">
	<g>
		<g>
			<rect x="19.566" y="24.11" fill="#A7A9AC" width="24.875" height="24.873"/>
			<g>
				<g>
					<path fill="#FFFFFF" d="M24.664,43.531c-0.718-0.588-1.559-1.785-1.869-2.659l-4.791-13.48
						c-0.311-0.874,0.195-1.596,1.123-1.604l8.906-0.072c0.928-0.008,2.372-0.343,3.209-0.744l8.029-3.857
						c0.837-0.401,1.607,0.023,1.715,0.945l1.637,14.211c0.107,0.922-0.119,2.368-0.5,3.214l-3.918,8.688
						c-0.381,0.846-1.434,1.71-2.337,1.92l-0.852,0.197c-0.903,0.21-2.23-0.1-2.948-0.688L24.664,43.531z"/>
					<path fill="none" stroke="#A7A9AC" stroke-width="1.1904" stroke-miterlimit="10" d="M24.664,43.531
						c-0.718-0.588-1.559-1.785-1.869-2.659l-4.791-13.48c-0.311-0.874,0.195-1.596,1.123-1.604l8.906-0.072
						c0.928-0.008,2.372-0.343,3.209-0.744l8.029-3.857c0.837-0.401,1.607,0.023,1.715,0.945l1.637,14.211
						c0.107,0.922-0.119,2.368-0.5,3.214l-3.918,8.688c-0.381,0.846-1.434,1.71-2.337,1.92l-0.852,0.197
						c-0.903,0.21-2.23-0.1-2.948-0.688L24.664,43.531z"/>
				</g>
				<g>
					
						<ellipse transform="matrix(0.9741 -0.226 0.226 0.9741 -6.6992 6.7345)" fill="#A7A9AC" cx="26.07" cy="32.633" rx="4.249" ry="1.489"/>
					
						<ellipse transform="matrix(0.9741 -0.226 0.226 0.9741 -5.9176 8.9302)" fill="#A7A9AC" cx="36.053" cy="30.316" rx="4.249" ry="1.489"/>
				</g>
				<path fill="none" stroke="#A7A9AC" stroke-width="1.4173" stroke-linecap="round" stroke-miterlimit="10" d="M30.053,45.843
					c1.078-1.73,1.477-2.023,3.752-2.551c2.275-0.529,3.264-0.129,4.492,0.637"/>
				
					<line fill="none" stroke="#A7A9AC" stroke-width="1.4173" stroke-linecap="round" stroke-miterlimit="10" x1="22.246" y1="31.247" x2="28.688" y2="28.042"/>
				
					<line fill="none" stroke="#A7A9AC" stroke-width="1.4173" stroke-linecap="round" stroke-miterlimit="10" x1="39.025" y1="27.354" x2="31.83" y2="27.313"/>
			</g>
		</g>
		<g>
			
				<rect x="41.669" y="41.699" transform="matrix(0.7071 0.7071 -0.7071 0.7071 54.1269 -22.4024)" fill="#939598" width="24.873" height="24.873"/>
			<g>
				<path fill="#FFFFFF" d="M42.895,55.267c-0.207-0.904-0.137-2.365,0.153-3.247l4.479-13.586c0.29-0.882,1.132-1.142,1.87-0.579
					l7.082,5.402c0.738,0.562,2.084,1.184,2.991,1.378l8.709,1.875c0.907,0.194,1.255,1.004,0.774,1.797l-7.418,12.232
					c-0.48,0.793-1.546,1.798-2.365,2.232l-8.42,4.463c-0.819,0.435-2.18,0.473-3.022,0.084l-0.797-0.367
					c-0.843-0.389-1.7-1.446-1.907-2.351L42.895,55.267z"/>
				<path fill="none" stroke="#A7A9AC" stroke-width="1.1904" stroke-miterlimit="10" d="M42.895,55.267
					c-0.207-0.904-0.137-2.365,0.153-3.247l4.479-13.586c0.29-0.882,1.132-1.142,1.87-0.579l7.082,5.402
					c0.738,0.562,2.084,1.184,2.991,1.378l8.709,1.875c0.907,0.194,1.255,1.004,0.774,1.797l-7.418,12.232
					c-0.48,0.793-1.546,1.798-2.365,2.232l-8.42,4.463c-0.819,0.435-2.18,0.473-3.022,0.084l-0.797-0.367
					c-0.843-0.389-1.7-1.446-1.907-2.351L42.895,55.267z"/>
			</g>
			<g>
				
					<ellipse transform="matrix(0.9082 0.4185 -0.4185 0.9082 24.5376 -16.8511)" fill="#A7A9AC" cx="50.688" cy="47.518" rx="4.249" ry="1.489"/>
				
					<ellipse transform="matrix(0.9082 0.4185 -0.4185 0.9082 27.1867 -20.3522)" fill="#A7A9AC" cx="59.994" cy="51.807" rx="4.249" ry="1.489"/>
			</g>
			<path fill="none" stroke="#A7A9AC" stroke-width="1.4173" stroke-linecap="round" stroke-miterlimit="10" d="M54.105,62.452
				c-1.912,0.705-2.406,0.693-4.527-0.285c-2.121-0.977-2.658-1.9-3.158-3.258"/>
		</g>
	</g>
	<g>
		<path fill="#A7A9AC" d="M87.951,1.417v89.271H1.184V1.417H87.951 M89.368,0H-0.234v92.105h89.603V0L89.368,0z"/>
	</g>
</g>
<g id="Layer_4">
</g>
<g id="Layer_3">
</g>
<g id="Layer_5">
</g>
<g id="Annotations">
</g>
</svg>
