<?xml version="1.0" encoding="utf-8"?>
<!-- Generator: Adobe Illustrator 16.0.0, SVG Export Plug-In . SVG Version: 6.00 Build 0)  -->
<!DOCTYPE svg PUBLIC "-//W3C//DTD SVG 1.1//EN" "http://www.w3.org/Graphics/SVG/1.1/DTD/svg11.dtd">
<svg version="1.1" xmlns="http://www.w3.org/2000/svg" xmlns:xlink="http://www.w3.org/1999/xlink" x="0px" y="0px"
	 width="89.603px" height="92.106px" viewBox="0 0 89.603 92.106" enable-background="new 0 0 89.603 92.106" xml:space="preserve">
<g id="Layer_2">
</g>
<g id="Layer_1">
	<g>
		
			<line fill="none" stroke="#A7A9AC" stroke-width="1.4173" stroke-miterlimit="10" x1="45.519" y1="24.143" x2="45.519" y2="72.748"/>
		
			<line fill="none" stroke="#A7A9AC" stroke-width="1.4173" stroke-miterlimit="10" x1="69.821" y1="48.445" x2="21.215" y2="48.445"/>
		<polyline fill="none" stroke="#A7A9AC" stroke-width="1.4173" stroke-miterlimit="10" points="3.004,12 3.004,91.397 
			88.908,91.397 88.908,5.493 61.943,5.493 		"/>
		<g>
			<g>
				<path fill="#939598" d="M4.256,1.729C4.115,1.503,3.929,1.338,3.695,1.234S3.219,1.079,2.966,1.079
					c-0.187,0-0.37,0.023-0.55,0.07c-0.181,0.047-0.342,0.117-0.485,0.21c-0.144,0.094-0.259,0.217-0.345,0.37
					c-0.087,0.153-0.13,0.334-0.13,0.54c0,0.16,0.024,0.302,0.074,0.425C1.581,2.818,1.662,2.93,1.775,3.029
					c0.113,0.101,0.267,0.193,0.46,0.28s0.431,0.174,0.71,0.26C3.219,3.656,3.484,3.75,3.74,3.85c0.257,0.1,0.483,0.227,0.681,0.38
					c0.196,0.153,0.353,0.345,0.47,0.575C5.007,5.034,5.065,5.323,5.065,5.67c0,0.354-0.069,0.659-0.21,0.92
					C4.716,6.85,4.53,7.064,4.301,7.234c-0.23,0.17-0.495,0.297-0.795,0.38c-0.3,0.084-0.61,0.125-0.931,0.125
					c-0.206,0-0.413-0.019-0.619-0.055C1.749,7.647,1.551,7.591,1.36,7.515c-0.189-0.076-0.368-0.177-0.535-0.3
					c-0.166-0.124-0.31-0.275-0.43-0.455l0.72-0.59c0.153,0.26,0.367,0.456,0.641,0.59c0.273,0.133,0.563,0.2,0.87,0.2
					c0.18,0,0.361-0.027,0.545-0.08c0.183-0.054,0.348-0.132,0.495-0.235C3.812,6.541,3.933,6.413,4.025,6.26
					c0.094-0.153,0.141-0.33,0.141-0.53c0-0.22-0.037-0.398-0.11-0.535S3.869,4.939,3.716,4.84c-0.153-0.101-0.347-0.19-0.58-0.271
					S2.629,4.396,2.315,4.29c-0.253-0.08-0.486-0.172-0.7-0.275c-0.213-0.104-0.398-0.23-0.555-0.38
					c-0.156-0.15-0.28-0.33-0.37-0.54S0.556,2.633,0.556,2.34c0-0.34,0.066-0.637,0.2-0.891c0.133-0.253,0.313-0.465,0.54-0.635
					s0.483-0.298,0.77-0.385c0.287-0.087,0.587-0.13,0.9-0.13c0.399,0,0.765,0.062,1.095,0.185c0.33,0.124,0.625,0.339,0.885,0.646
					L4.256,1.729z"/>
				<path fill="#939598" d="M10.495,6.71c-0.28,0.359-0.587,0.611-0.92,0.755C9.242,7.607,8.855,7.68,8.415,7.68
					c-0.366,0-0.696-0.065-0.99-0.195C7.132,7.354,6.884,7.18,6.681,6.96C6.477,6.739,6.32,6.479,6.21,6.18
					c-0.109-0.3-0.165-0.62-0.165-0.96c0-0.36,0.061-0.691,0.181-0.995c0.119-0.304,0.286-0.563,0.5-0.78
					c0.213-0.217,0.466-0.385,0.76-0.505c0.293-0.12,0.613-0.18,0.96-0.18c0.326,0,0.626,0.055,0.899,0.165
					c0.273,0.109,0.509,0.27,0.705,0.479c0.197,0.21,0.349,0.467,0.455,0.771c0.106,0.303,0.16,0.648,0.16,1.035v0.25h-3.78
					C6.898,5.659,6.946,5.852,7.03,6.034c0.083,0.184,0.191,0.344,0.325,0.48c0.133,0.137,0.29,0.245,0.47,0.325
					s0.377,0.12,0.59,0.12c0.34,0,0.627-0.061,0.86-0.181s0.443-0.296,0.63-0.529L10.495,6.71z M9.825,4.8
					c-0.014-0.4-0.144-0.721-0.39-0.96c-0.247-0.24-0.587-0.36-1.021-0.36S7.632,3.6,7.365,3.84c-0.267,0.239-0.427,0.56-0.48,0.96
					H9.825z"/>
				<path fill="#939598" d="M11.814,3.479c0.24-0.246,0.525-0.428,0.855-0.545C13,2.818,13.335,2.76,13.675,2.76
					c0.693,0,1.193,0.163,1.5,0.49c0.307,0.326,0.46,0.823,0.46,1.489V6.75c0,0.133,0.007,0.271,0.02,0.415
					c0.014,0.143,0.03,0.274,0.051,0.395h-0.75c-0.027-0.106-0.042-0.225-0.045-0.355c-0.004-0.13-0.006-0.244-0.006-0.345h-0.02
					c-0.153,0.24-0.358,0.437-0.615,0.59s-0.564,0.23-0.925,0.23c-0.24,0-0.465-0.03-0.675-0.09c-0.21-0.061-0.394-0.148-0.55-0.266
					c-0.157-0.116-0.282-0.261-0.375-0.435c-0.094-0.174-0.141-0.373-0.141-0.6c0-0.387,0.101-0.69,0.3-0.91
					c0.2-0.221,0.449-0.384,0.745-0.49c0.297-0.106,0.617-0.174,0.96-0.2c0.344-0.026,0.658-0.04,0.945-0.04h0.3V4.51
					c0-0.34-0.102-0.597-0.305-0.771c-0.203-0.173-0.488-0.26-0.855-0.26c-0.253,0-0.501,0.042-0.744,0.125
					c-0.244,0.084-0.459,0.212-0.646,0.385L11.814,3.479z M14.075,5.31c-0.5,0-0.897,0.07-1.19,0.21s-0.44,0.37-0.44,0.69
					c0,0.293,0.099,0.501,0.296,0.625c0.196,0.123,0.441,0.185,0.734,0.185c0.227,0,0.425-0.038,0.595-0.115
					c0.171-0.076,0.312-0.178,0.426-0.305c0.113-0.127,0.199-0.275,0.26-0.445c0.06-0.17,0.093-0.352,0.1-0.545v-0.3H14.075z"/>
				<path fill="#939598" d="M17.065,3.989c0-0.213-0.007-0.413-0.021-0.6c-0.013-0.187-0.02-0.356-0.02-0.51h0.74
					c0,0.126,0.003,0.253,0.01,0.38s0.01,0.257,0.01,0.39h0.021c0.053-0.113,0.128-0.223,0.225-0.33
					c0.097-0.106,0.212-0.201,0.345-0.285c0.134-0.083,0.283-0.149,0.45-0.199c0.167-0.051,0.347-0.075,0.54-0.075
					c0.054,0,0.106,0.003,0.16,0.01c0.053,0.007,0.106,0.021,0.16,0.04L19.635,3.6c-0.133-0.04-0.273-0.06-0.42-0.06
					c-0.479,0-0.828,0.154-1.045,0.465c-0.217,0.31-0.325,0.734-0.325,1.274v2.28h-0.779V3.989z"/>
				<path fill="#939598" d="M23.735,4.05c-0.167-0.2-0.347-0.346-0.54-0.436s-0.407-0.135-0.641-0.135
					c-0.26,0-0.489,0.045-0.689,0.135S21.5,3.829,21.37,3.989s-0.229,0.346-0.295,0.556s-0.101,0.435-0.101,0.675
					s0.039,0.465,0.115,0.675c0.077,0.21,0.184,0.396,0.32,0.555c0.137,0.16,0.302,0.285,0.495,0.375
					c0.193,0.091,0.41,0.136,0.649,0.136c0.514,0,0.91-0.193,1.19-0.58l0.58,0.55c-0.227,0.26-0.493,0.45-0.8,0.57
					c-0.307,0.119-0.63,0.18-0.971,0.18c-0.359,0-0.689-0.061-0.989-0.18C21.265,7.38,21.01,7.21,20.8,6.989
					c-0.21-0.22-0.373-0.479-0.49-0.779c-0.116-0.301-0.175-0.631-0.175-0.99c0-0.354,0.059-0.68,0.175-0.98
					c0.117-0.3,0.282-0.56,0.495-0.779c0.214-0.221,0.469-0.392,0.766-0.516c0.296-0.123,0.625-0.185,0.984-0.185
					c0.347,0,0.676,0.06,0.985,0.18s0.582,0.307,0.815,0.561L23.735,4.05z"/>
				<path fill="#939598" d="M25.226,0h0.779v3.529h0.021c0.054-0.093,0.127-0.185,0.22-0.274c0.094-0.09,0.205-0.172,0.335-0.245
					s0.275-0.134,0.436-0.181c0.16-0.046,0.33-0.069,0.51-0.069c0.307,0,0.571,0.047,0.795,0.14
					c0.224,0.094,0.408,0.224,0.555,0.391c0.146,0.166,0.255,0.368,0.325,0.604s0.105,0.495,0.105,0.775v2.89h-0.78V4.75
					c0-0.394-0.087-0.704-0.26-0.931c-0.174-0.227-0.443-0.34-0.811-0.34c-0.253,0-0.472,0.044-0.654,0.13
					c-0.184,0.087-0.334,0.21-0.45,0.37c-0.117,0.16-0.204,0.35-0.26,0.57c-0.058,0.22-0.086,0.463-0.086,0.729v2.28h-0.779V0z"/>
				<path fill="#939598" d="M33.505,3.479c0.24-0.246,0.525-0.428,0.855-0.545c0.33-0.116,0.665-0.175,1.005-0.175
					c0.693,0,1.193,0.163,1.5,0.49c0.307,0.326,0.46,0.823,0.46,1.489V6.75c0,0.133,0.007,0.271,0.02,0.415
					c0.014,0.143,0.03,0.274,0.051,0.395h-0.75c-0.027-0.106-0.042-0.225-0.045-0.355c-0.004-0.13-0.006-0.244-0.006-0.345h-0.02
					c-0.153,0.24-0.358,0.437-0.615,0.59s-0.564,0.23-0.925,0.23c-0.24,0-0.465-0.03-0.675-0.09c-0.21-0.061-0.394-0.148-0.55-0.266
					c-0.157-0.116-0.282-0.261-0.375-0.435c-0.094-0.174-0.141-0.373-0.141-0.6c0-0.387,0.101-0.69,0.3-0.91
					c0.2-0.221,0.449-0.384,0.745-0.49c0.297-0.106,0.617-0.174,0.96-0.2c0.344-0.026,0.658-0.04,0.945-0.04h0.3V4.51
					c0-0.34-0.102-0.597-0.305-0.771c-0.203-0.173-0.488-0.26-0.855-0.26c-0.253,0-0.501,0.042-0.744,0.125
					c-0.244,0.084-0.459,0.212-0.646,0.385L33.505,3.479z M35.766,5.31c-0.5,0-0.897,0.07-1.19,0.21s-0.44,0.37-0.44,0.69
					c0,0.293,0.099,0.501,0.296,0.625c0.196,0.123,0.441,0.185,0.734,0.185c0.227,0,0.425-0.038,0.595-0.115
					c0.171-0.076,0.312-0.178,0.426-0.305c0.113-0.127,0.199-0.275,0.26-0.445c0.06-0.17,0.093-0.352,0.1-0.545v-0.3H35.766z"/>
				<path fill="#939598" d="M38.756,3.989c0-0.213-0.007-0.413-0.021-0.6c-0.013-0.187-0.02-0.356-0.02-0.51h0.74
					c0,0.126,0.003,0.253,0.01,0.38s0.01,0.257,0.01,0.39h0.021c0.053-0.113,0.128-0.223,0.225-0.33
					c0.097-0.106,0.212-0.201,0.345-0.285c0.134-0.083,0.283-0.149,0.45-0.199c0.167-0.051,0.347-0.075,0.54-0.075
					c0.054,0,0.106,0.003,0.16,0.01c0.053,0.007,0.106,0.021,0.16,0.04L41.325,3.6c-0.133-0.04-0.273-0.06-0.42-0.06
					c-0.479,0-0.828,0.154-1.045,0.465c-0.217,0.31-0.325,0.734-0.325,1.274v2.28h-0.779V3.989z"/>
				<path fill="#939598" d="M46.275,6.71c-0.28,0.359-0.587,0.611-0.92,0.755c-0.333,0.143-0.72,0.215-1.16,0.215
					c-0.366,0-0.696-0.065-0.99-0.195c-0.293-0.13-0.541-0.305-0.744-0.524c-0.204-0.221-0.36-0.48-0.471-0.78
					c-0.109-0.3-0.165-0.62-0.165-0.96c0-0.36,0.061-0.691,0.181-0.995c0.119-0.304,0.286-0.563,0.5-0.78
					c0.213-0.217,0.466-0.385,0.76-0.505c0.293-0.12,0.613-0.18,0.96-0.18c0.326,0,0.626,0.055,0.899,0.165
					c0.273,0.109,0.509,0.27,0.705,0.479c0.197,0.21,0.349,0.467,0.455,0.771c0.106,0.303,0.16,0.648,0.16,1.035v0.25h-3.78
					c0.014,0.199,0.062,0.392,0.146,0.574c0.083,0.184,0.191,0.344,0.325,0.48c0.133,0.137,0.29,0.245,0.47,0.325
					s0.377,0.12,0.59,0.12c0.34,0,0.627-0.061,0.86-0.181s0.443-0.296,0.63-0.529L46.275,6.71z M45.605,4.8
					c-0.014-0.4-0.144-0.721-0.39-0.96c-0.247-0.24-0.587-0.36-1.021-0.36s-0.783,0.12-1.05,0.36c-0.267,0.239-0.427,0.56-0.48,0.96
					H45.605z"/>
				<path fill="#939598" d="M47.595,3.479c0.24-0.246,0.525-0.428,0.855-0.545c0.33-0.116,0.665-0.175,1.005-0.175
					c0.693,0,1.193,0.163,1.5,0.49c0.307,0.326,0.46,0.823,0.46,1.489V6.75c0,0.133,0.007,0.271,0.02,0.415
					c0.014,0.143,0.03,0.274,0.051,0.395h-0.75c-0.027-0.106-0.042-0.225-0.045-0.355c-0.004-0.13-0.006-0.244-0.006-0.345h-0.02
					c-0.153,0.24-0.358,0.437-0.615,0.59s-0.564,0.23-0.925,0.23c-0.24,0-0.465-0.03-0.675-0.09c-0.21-0.061-0.394-0.148-0.55-0.266
					c-0.157-0.116-0.282-0.261-0.375-0.435c-0.094-0.174-0.141-0.373-0.141-0.6c0-0.387,0.101-0.69,0.3-0.91
					c0.2-0.221,0.449-0.384,0.745-0.49c0.297-0.106,0.617-0.174,0.96-0.2c0.344-0.026,0.658-0.04,0.945-0.04h0.3V4.51
					c0-0.34-0.102-0.597-0.305-0.771c-0.203-0.173-0.488-0.26-0.855-0.26c-0.253,0-0.501,0.042-0.744,0.125
					c-0.244,0.084-0.459,0.212-0.646,0.385L47.595,3.479z M49.855,5.31c-0.5,0-0.897,0.07-1.19,0.21s-0.44,0.37-0.44,0.69
					c0,0.293,0.099,0.501,0.296,0.625c0.196,0.123,0.441,0.185,0.734,0.185c0.227,0,0.425-0.038,0.595-0.115
					c0.171-0.076,0.312-0.178,0.426-0.305c0.113-0.127,0.199-0.275,0.26-0.445c0.06-0.17,0.093-0.352,0.1-0.545v-0.3H49.855z"/>
				<path fill="#939598" d="M52.945,6.329c0.153,0.194,0.321,0.348,0.505,0.461s0.415,0.17,0.695,0.17
					c0.12,0,0.241-0.014,0.365-0.04c0.123-0.027,0.234-0.07,0.335-0.13c0.1-0.061,0.18-0.136,0.24-0.226
					c0.06-0.09,0.09-0.198,0.09-0.325c0-0.126-0.028-0.229-0.085-0.31s-0.132-0.148-0.226-0.205c-0.093-0.057-0.2-0.102-0.319-0.135
					c-0.12-0.033-0.244-0.063-0.37-0.09c-0.221-0.047-0.431-0.101-0.63-0.16c-0.2-0.061-0.375-0.139-0.525-0.235
					s-0.271-0.222-0.36-0.375s-0.135-0.35-0.135-0.59c0-0.227,0.05-0.427,0.15-0.6c0.1-0.174,0.233-0.317,0.399-0.431
					c0.167-0.113,0.354-0.2,0.561-0.26c0.206-0.06,0.42-0.09,0.64-0.09c0.333,0,0.642,0.066,0.925,0.2
					c0.283,0.133,0.505,0.35,0.665,0.649L55.216,4.04c-0.101-0.167-0.232-0.302-0.396-0.405s-0.361-0.155-0.595-0.155
					c-0.106,0-0.215,0.014-0.325,0.04s-0.208,0.066-0.295,0.12s-0.158,0.122-0.215,0.205s-0.085,0.179-0.085,0.285
					c0,0.1,0.031,0.185,0.095,0.255c0.063,0.069,0.15,0.132,0.26,0.185c0.11,0.054,0.237,0.101,0.38,0.141
					c0.144,0.04,0.292,0.073,0.445,0.1c0.207,0.04,0.403,0.092,0.59,0.155s0.351,0.148,0.49,0.255s0.25,0.24,0.33,0.399
					c0.08,0.16,0.12,0.357,0.12,0.591c0,0.267-0.054,0.493-0.16,0.68s-0.248,0.338-0.425,0.455C55.254,7.461,55.054,7.546,54.83,7.6
					c-0.223,0.054-0.451,0.08-0.685,0.08c-0.4,0-0.745-0.062-1.035-0.186c-0.29-0.123-0.552-0.352-0.785-0.685L52.945,6.329z"/>
			</g>
		</g>
		<circle fill="#D3D3D3" cx="25.857" cy="29.061" r="1.375"/>
		<circle fill="#D3D3D3" cx="25.857" cy="38.436" r="1.375"/>
		<circle fill="#D3D3D3" cx="40.993" cy="29.061" r="1.375"/>
		<circle fill="#D3D3D3" cx="40.993" cy="44.061" r="1.375"/>
		<circle fill="#D3D3D3" cx="50.274" cy="29.061" r="1.375"/>
		<circle fill="#D3D3D3" cx="65.41" cy="36.561" r="1.375"/>
		<circle fill="#D3D3D3" cx="32.908" cy="36.02" r="1.375"/>
		<circle fill="#D3D3D3" cx="25.857" cy="53.561" r="1.375"/>
		<circle fill="#D3D3D3" cx="33.424" cy="61.061" r="1.375"/>
		<circle fill="#D3D3D3" cx="32.908" cy="44.061" r="1.375"/>
		<circle fill="#D3D3D3" cx="57.843" cy="68.561" r="1.375"/>
		<rect x="21.215" y="24.143" fill="none" stroke="#939598" stroke-miterlimit="10" width="48.606" height="48.605"/>
	</g>
</g>
<g id="Layer_4">
</g>
<g id="Layer_3">
</g>
<g id="Layer_5">
</g>
<g id="Annotations">
</g>
</svg>
