<?xml version="1.0" encoding="utf-8"?>
<!-- Generator: Adobe Illustrator 16.0.0, SVG Export Plug-In . SVG Version: 6.00 Build 0)  -->
<!DOCTYPE svg PUBLIC "-//W3C//DTD SVG 1.1//EN" "http://www.w3.org/Graphics/SVG/1.1/DTD/svg11.dtd">
<svg version="1.1" xmlns="http://www.w3.org/2000/svg" xmlns:xlink="http://www.w3.org/1999/xlink" x="0px" y="0px"
	 width="89.602px" height="92.106px" viewBox="0 0 89.602 92.106" enable-background="new 0 0 89.602 92.106" xml:space="preserve">
<g id="Layer_2">
</g>
<g id="Layer_1">
	<g>
		
			<line fill="none" stroke="#A7A9AC" stroke-width="1.4173" stroke-miterlimit="10" x1="44.801" y1="21.75" x2="44.801" y2="70.356"/>
		
			<line fill="none" stroke="#A7A9AC" stroke-width="1.4173" stroke-miterlimit="10" x1="69.104" y1="46.053" x2="20.498" y2="46.053"/>
		<circle fill="#D3D3D3" cx="25.141" cy="26.668" r="1.375"/>
		<circle fill="#D3D3D3" cx="25.141" cy="36.043" r="1.375"/>
		<circle fill="#D3D3D3" cx="40.275" cy="26.668" r="1.375"/>
		<circle fill="#D3D3D3" cx="40.275" cy="41.668" r="1.375"/>
		<circle fill="#D3D3D3" cx="49.557" cy="26.668" r="1.375"/>
		<circle fill="#D3D3D3" cx="64.693" cy="34.168" r="1.375"/>
		<circle fill="#D3D3D3" cx="32.191" cy="33.627" r="1.375"/>
		<circle fill="#D3D3D3" cx="25.141" cy="51.168" r="1.375"/>
		<circle fill="#D3D3D3" cx="32.707" cy="58.668" r="1.375"/>
		<circle fill="#D3D3D3" cx="32.191" cy="41.668" r="1.375"/>
		<circle fill="#D3D3D3" cx="57.125" cy="66.168" r="1.375"/>
		<rect x="20.498" y="21.75" fill="none" stroke="#939598" stroke-miterlimit="10" width="48.605" height="48.605"/>
	</g>
	<g>
		<path fill="#A7A9AC" d="M88.184,1.417v89.271H1.418V1.417H88.184 M89.602,0H0v92.106h89.602V0L89.602,0z"/>
	</g>
</g>
<g id="Layer_4">
</g>
<g id="Layer_3">
</g>
<g id="Layer_5">
</g>
<g id="Annotations">
</g>
</svg>
