<?xml version="1.0" encoding="utf-8"?>
<!-- Generator: Adobe Illustrator 16.0.0, SVG Export Plug-In . SVG Version: 6.00 Build 0)  -->
<!DOCTYPE svg PUBLIC "-//W3C//DTD SVG 1.1//EN" "http://www.w3.org/Graphics/SVG/1.1/DTD/svg11.dtd">
<svg version="1.1" xmlns="http://www.w3.org/2000/svg" xmlns:xlink="http://www.w3.org/1999/xlink" x="0px" y="0px"
	 width="89.603px" height="92.106px" viewBox="0 0 89.603 92.106" enable-background="new 0 0 89.603 92.106" xml:space="preserve">
<g id="Layer_2">
</g>
<g id="Layer_1">
	<g>
		<path fill="#FFFFFF" stroke="#939598" stroke-width="1.4173" stroke-miterlimit="10" d="M72.763,62.161
			c0,0.783-0.635,1.418-1.418,1.418H18.181c-0.783,0-1.418-0.635-1.418-1.418V29.946c0-0.783,0.635-1.418,1.418-1.418h53.164
			c0.783,0,1.418,0.635,1.418,1.418V62.161z"/>
		<rect x="27.437" y="29.237" fill="#D3D3D3" width="11.25" height="8.054"/>
		<rect x="44.763" y="37.291" fill="#D3D3D3" width="10.592" height="8.763"/>
		<rect x="65.468" y="28.528" fill="#D3D3D3" width="7.373" height="8.763"/>
		<rect x="27.767" y="54.816" fill="#D3D3D3" width="16.996" height="8.763"/>
		<rect x="38.687" y="46.053" fill="#D3D3D3" width="22.5" height="8.763"/>
		
			<line fill="none" stroke="#939598" stroke-width="1.4173" stroke-miterlimit="10" x1="16.763" y1="54.816" x2="72.763" y2="54.816"/>
		
			<line fill="none" stroke="#939598" stroke-width="1.4173" stroke-miterlimit="10" x1="16.763" y1="37.291" x2="72.763" y2="37.291"/>
		
			<line fill="none" stroke="#939598" stroke-width="1.4173" stroke-miterlimit="10" x1="16.763" y1="46.053" x2="72.763" y2="46.053"/>
		
			<line fill="none" stroke="#939598" stroke-width="1.4173" stroke-miterlimit="10" x1="27.437" y1="28.528" x2="27.437" y2="37.291"/>
		
			<line fill="none" stroke="#939598" stroke-width="1.4173" stroke-miterlimit="10" x1="65.468" y1="28.528" x2="65.468" y2="37.291"/>
		
			<line fill="none" stroke="#939598" stroke-width="1.4173" stroke-miterlimit="10" x1="44.763" y1="37.291" x2="44.763" y2="46.053"/>
		
			<line fill="none" stroke="#939598" stroke-width="1.4173" stroke-miterlimit="10" x1="44.763" y1="54.816" x2="44.763" y2="63.579"/>
		
			<line fill="none" stroke="#939598" stroke-width="1.4173" stroke-miterlimit="10" x1="55.354" y1="54.816" x2="55.354" y2="63.579"/>
		
			<line fill="none" stroke="#939598" stroke-width="1.4173" stroke-miterlimit="10" x1="65.468" y1="54.816" x2="65.468" y2="63.579"/>
		
			<line fill="none" stroke="#939598" stroke-width="1.4173" stroke-miterlimit="10" x1="55.354" y1="37.291" x2="55.354" y2="46.053"/>
		
			<line fill="none" stroke="#939598" stroke-width="1.4173" stroke-miterlimit="10" x1="61.187" y1="46.053" x2="61.187" y2="54.816"/>
		
			<line fill="none" stroke="#939598" stroke-width="1.4173" stroke-miterlimit="10" x1="38.687" y1="46.053" x2="38.687" y2="54.816"/>
		
			<line fill="none" stroke="#939598" stroke-width="1.4173" stroke-miterlimit="10" x1="27.437" y1="46.053" x2="27.437" y2="54.816"/>
		
			<line fill="none" stroke="#939598" stroke-width="1.4173" stroke-miterlimit="10" x1="27.437" y1="54.816" x2="27.437" y2="63.579"/>
		
			<line fill="none" stroke="#939598" stroke-width="1.4173" stroke-miterlimit="10" x1="34.187" y1="37.291" x2="34.187" y2="46.053"/>
		
			<line fill="none" stroke="#939598" stroke-width="1.4173" stroke-miterlimit="10" x1="38.687" y1="28.528" x2="38.687" y2="37.291"/>
		<path fill="none" stroke="#939598" stroke-width="1.4173" stroke-miterlimit="10" d="M72.763,62.161
			c0,0.783-0.635,1.418-1.418,1.418H18.181c-0.783,0-1.418-0.635-1.418-1.418V29.946c0-0.783,0.635-1.418,1.418-1.418h53.164
			c0.783,0,1.418,0.635,1.418,1.418V62.161z"/>
	</g>
	<g>
		<path fill="#A7A9AC" d="M88.186,1.417v89.271H1.417V1.417H88.186 M89.603,0H0v92.106h89.603V0L89.603,0z"/>
	</g>
</g>
<g id="Layer_4">
</g>
<g id="Layer_3">
</g>
<g id="Layer_5">
</g>
<g id="Annotations">
</g>
</svg>
