<?xml version="1.0" encoding="utf-8"?>
<!-- Generator: Adobe Illustrator 16.0.0, SVG Export Plug-In . SVG Version: 6.00 Build 0)  -->
<!DOCTYPE svg PUBLIC "-//W3C//DTD SVG 1.1//EN" "http://www.w3.org/Graphics/SVG/1.1/DTD/svg11.dtd">
<svg version="1.1" xmlns="http://www.w3.org/2000/svg" xmlns:xlink="http://www.w3.org/1999/xlink" x="0px" y="0px"
	 width="89.603px" height="92.106px" viewBox="0 0 89.603 92.106" enable-background="new 0 0 89.603 92.106" xml:space="preserve">
<g id="Layer_2">
</g>
<g id="Layer_1">
	<g>
		<rect x="21.199" y="24.143" fill="none" stroke="#939598" stroke-miterlimit="10" width="48.605" height="48.605"/>
		
			<line fill="none" stroke="#A7A9AC" stroke-width="1.4173" stroke-miterlimit="10" x1="45.502" y1="24.143" x2="45.502" y2="72.748"/>
		
			<line fill="none" stroke="#A7A9AC" stroke-width="1.4173" stroke-miterlimit="10" x1="69.805" y1="48.445" x2="21.199" y2="48.445"/>
		<polyline fill="none" stroke="#A7A9AC" stroke-width="1.4173" stroke-miterlimit="10" points="2.987,12 2.987,91.397 
			88.892,91.397 88.892,5.493 69.927,5.493 		"/>
		<g>
			<g>
				<path fill="#939598" d="M4.239,1.729C4.099,1.503,3.912,1.338,3.679,1.234S3.202,1.079,2.949,1.079
					c-0.187,0-0.37,0.023-0.55,0.07c-0.181,0.047-0.342,0.117-0.485,0.21c-0.144,0.094-0.259,0.217-0.345,0.37
					c-0.087,0.153-0.13,0.334-0.13,0.54c0,0.16,0.024,0.302,0.074,0.425C1.564,2.818,1.646,2.93,1.759,3.029
					c0.113,0.101,0.267,0.193,0.46,0.28s0.431,0.174,0.71,0.26C3.202,3.656,3.468,3.75,3.724,3.85c0.257,0.1,0.483,0.227,0.681,0.38
					c0.196,0.153,0.353,0.345,0.47,0.575C4.99,5.034,5.049,5.323,5.049,5.67c0,0.354-0.069,0.659-0.21,0.92
					c-0.14,0.26-0.325,0.475-0.555,0.645c-0.23,0.17-0.495,0.297-0.795,0.38c-0.3,0.084-0.61,0.125-0.931,0.125
					c-0.206,0-0.413-0.019-0.619-0.055c-0.207-0.037-0.405-0.094-0.596-0.17c-0.189-0.076-0.368-0.177-0.535-0.3
					c-0.166-0.124-0.31-0.275-0.43-0.455l0.72-0.59c0.153,0.26,0.367,0.456,0.641,0.59c0.273,0.133,0.563,0.2,0.87,0.2
					c0.18,0,0.361-0.027,0.545-0.08c0.183-0.054,0.348-0.132,0.495-0.235C3.796,6.541,3.916,6.413,4.009,6.26
					c0.094-0.153,0.141-0.33,0.141-0.53c0-0.22-0.037-0.398-0.11-0.535S3.853,4.939,3.699,4.84c-0.153-0.101-0.347-0.19-0.58-0.271
					S2.612,4.396,2.299,4.29c-0.253-0.08-0.486-0.172-0.7-0.275C1.386,3.911,1.2,3.784,1.044,3.635c-0.156-0.15-0.28-0.33-0.37-0.54
					S0.539,2.633,0.539,2.34c0-0.34,0.066-0.637,0.2-0.891c0.133-0.253,0.313-0.465,0.54-0.635s0.483-0.298,0.77-0.385
					c0.287-0.087,0.587-0.13,0.9-0.13c0.399,0,0.765,0.062,1.095,0.185c0.33,0.124,0.625,0.339,0.885,0.646L4.239,1.729z"/>
				<path fill="#939598" d="M5.618,0.479h0.931l1.609,5.88h0.021l1.74-5.88h0.939l1.73,5.88h0.02l1.641-5.88h0.88l-2.08,7.08h-0.91
					l-1.75-6h-0.021l-1.76,6h-0.92L5.618,0.479z"/>
				<path fill="#939598" d="M19.358,7.739c-0.54,0-1.035-0.093-1.485-0.279c-0.449-0.187-0.84-0.445-1.17-0.775
					s-0.586-0.724-0.77-1.18c-0.184-0.457-0.275-0.952-0.275-1.485s0.092-1.028,0.275-1.485c0.184-0.456,0.439-0.85,0.77-1.18
					s0.721-0.588,1.17-0.775c0.45-0.187,0.945-0.279,1.485-0.279s1.035,0.093,1.485,0.279c0.45,0.188,0.84,0.445,1.17,0.775
					s0.586,0.724,0.77,1.18c0.184,0.457,0.275,0.952,0.275,1.485s-0.092,1.028-0.275,1.485c-0.184,0.456-0.439,0.85-0.77,1.18
					s-0.72,0.589-1.17,0.775S19.898,7.739,19.358,7.739z M19.358,6.96c0.413,0,0.792-0.077,1.135-0.23
					c0.344-0.153,0.639-0.363,0.886-0.63c0.246-0.267,0.438-0.578,0.574-0.935c0.137-0.357,0.205-0.738,0.205-1.146
					c0-0.406-0.068-0.788-0.205-1.145c-0.137-0.357-0.328-0.669-0.574-0.936c-0.247-0.267-0.542-0.477-0.886-0.63
					c-0.343-0.153-0.722-0.23-1.135-0.23s-0.792,0.077-1.135,0.23c-0.344,0.153-0.639,0.363-0.885,0.63
					c-0.247,0.267-0.438,0.578-0.575,0.936c-0.137,0.356-0.205,0.738-0.205,1.145c0,0.407,0.068,0.788,0.205,1.146
					C16.9,5.521,17.092,5.833,17.339,6.1c0.246,0.267,0.541,0.477,0.885,0.63C18.566,6.883,18.945,6.96,19.358,6.96z"/>
				<path fill="#939598" d="M29.158,1.26h-2.34v6.3h-0.84v-6.3h-2.34v-0.78h5.52V1.26z"/>
				<path fill="#939598" d="M32.729,3.479c0.24-0.246,0.525-0.428,0.855-0.545c0.33-0.116,0.665-0.175,1.005-0.175
					c0.693,0,1.193,0.163,1.5,0.49c0.307,0.326,0.46,0.823,0.46,1.489V6.75c0,0.133,0.007,0.271,0.02,0.415
					c0.014,0.143,0.03,0.274,0.051,0.395h-0.75c-0.027-0.106-0.042-0.225-0.045-0.355c-0.004-0.13-0.006-0.244-0.006-0.345h-0.02
					c-0.153,0.24-0.358,0.437-0.615,0.59s-0.564,0.23-0.925,0.23c-0.24,0-0.465-0.03-0.675-0.09c-0.21-0.061-0.394-0.148-0.55-0.266
					c-0.157-0.116-0.282-0.261-0.375-0.435c-0.094-0.174-0.141-0.373-0.141-0.6c0-0.387,0.101-0.69,0.3-0.91
					c0.2-0.221,0.449-0.384,0.745-0.49c0.297-0.106,0.617-0.174,0.96-0.2c0.344-0.026,0.658-0.04,0.945-0.04h0.3V4.51
					c0-0.34-0.102-0.597-0.305-0.771c-0.203-0.173-0.488-0.26-0.855-0.26c-0.253,0-0.501,0.042-0.744,0.125
					c-0.244,0.084-0.459,0.212-0.646,0.385L32.729,3.479z M34.989,5.31c-0.5,0-0.897,0.07-1.19,0.21s-0.44,0.37-0.44,0.69
					c0,0.293,0.099,0.501,0.296,0.625c0.196,0.123,0.441,0.185,0.734,0.185c0.227,0,0.425-0.038,0.595-0.115
					c0.171-0.076,0.312-0.178,0.426-0.305c0.113-0.127,0.199-0.275,0.26-0.445c0.06-0.17,0.093-0.352,0.1-0.545v-0.3H34.989z"/>
				<path fill="#939598" d="M37.979,3.989c0-0.213-0.007-0.413-0.021-0.6c-0.013-0.187-0.02-0.356-0.02-0.51h0.74
					c0,0.126,0.003,0.253,0.01,0.38s0.01,0.257,0.01,0.39h0.021c0.053-0.113,0.128-0.223,0.225-0.33
					c0.097-0.106,0.212-0.201,0.345-0.285c0.134-0.083,0.283-0.149,0.45-0.199c0.167-0.051,0.347-0.075,0.54-0.075
					c0.307,0,0.571,0.047,0.795,0.14c0.224,0.094,0.408,0.224,0.555,0.391c0.146,0.166,0.255,0.368,0.325,0.604
					S42.06,4.39,42.06,4.67v2.89h-0.78V4.75c0-0.394-0.087-0.704-0.26-0.931c-0.174-0.227-0.443-0.34-0.811-0.34
					c-0.253,0-0.472,0.044-0.654,0.13c-0.184,0.087-0.334,0.21-0.45,0.37c-0.117,0.16-0.204,0.35-0.26,0.57
					c-0.058,0.22-0.086,0.463-0.086,0.729v2.28h-0.779V3.989z"/>
				<path fill="#939598" d="M43.479,3.479c0.24-0.246,0.525-0.428,0.855-0.545c0.33-0.116,0.665-0.175,1.005-0.175
					c0.693,0,1.193,0.163,1.5,0.49c0.307,0.326,0.46,0.823,0.46,1.489V6.75c0,0.133,0.007,0.271,0.02,0.415
					c0.014,0.143,0.03,0.274,0.051,0.395h-0.75c-0.027-0.106-0.042-0.225-0.045-0.355c-0.004-0.13-0.006-0.244-0.006-0.345h-0.02
					c-0.153,0.24-0.358,0.437-0.615,0.59s-0.564,0.23-0.925,0.23c-0.24,0-0.465-0.03-0.675-0.09c-0.21-0.061-0.394-0.148-0.55-0.266
					c-0.157-0.116-0.282-0.261-0.375-0.435c-0.094-0.174-0.141-0.373-0.141-0.6c0-0.387,0.101-0.69,0.3-0.91
					c0.2-0.221,0.449-0.384,0.745-0.49c0.297-0.106,0.617-0.174,0.96-0.2c0.344-0.026,0.658-0.04,0.945-0.04h0.3V4.51
					c0-0.34-0.102-0.597-0.305-0.771c-0.203-0.173-0.488-0.26-0.855-0.26c-0.253,0-0.501,0.042-0.744,0.125
					c-0.244,0.084-0.459,0.212-0.646,0.385L43.479,3.479z M45.739,5.31c-0.5,0-0.897,0.07-1.19,0.21s-0.44,0.37-0.44,0.69
					c0,0.293,0.099,0.501,0.296,0.625c0.196,0.123,0.441,0.185,0.734,0.185c0.227,0,0.425-0.038,0.595-0.115
					c0.171-0.076,0.312-0.178,0.426-0.305c0.113-0.127,0.199-0.275,0.26-0.445c0.06-0.17,0.093-0.352,0.1-0.545v-0.3H45.739z"/>
				<path fill="#939598" d="M48.799,0h0.78v7.56h-0.78V0z"/>
				<path fill="#939598" d="M52.85,8.63c-0.08,0.199-0.162,0.381-0.245,0.545c-0.083,0.163-0.184,0.303-0.3,0.42
					c-0.117,0.116-0.257,0.206-0.42,0.27S51.522,9.96,51.29,9.96c-0.114,0-0.232-0.007-0.355-0.021s-0.238-0.047-0.345-0.1
					l0.1-0.681c0.08,0.033,0.163,0.056,0.25,0.065s0.187,0.015,0.3,0.015c0.254,0,0.44-0.069,0.561-0.21
					c0.12-0.14,0.223-0.326,0.31-0.56l0.32-0.88l-1.94-4.71h0.91l1.45,3.67h0.021l1.39-3.67h0.85L52.85,8.63z"/>
				<path fill="#939598" d="M56.05,6.329c0.153,0.194,0.321,0.348,0.505,0.461s0.415,0.17,0.695,0.17c0.12,0,0.241-0.014,0.365-0.04
					c0.123-0.027,0.234-0.07,0.335-0.13c0.1-0.061,0.18-0.136,0.24-0.226c0.06-0.09,0.09-0.198,0.09-0.325
					c0-0.126-0.028-0.229-0.085-0.31s-0.132-0.148-0.226-0.205c-0.093-0.057-0.2-0.102-0.319-0.135
					c-0.12-0.033-0.244-0.063-0.37-0.09c-0.221-0.047-0.431-0.101-0.63-0.16c-0.2-0.061-0.375-0.139-0.525-0.235
					s-0.271-0.222-0.36-0.375S55.63,4.38,55.63,4.14c0-0.227,0.05-0.427,0.15-0.6c0.1-0.174,0.233-0.317,0.399-0.431
					c0.167-0.113,0.354-0.2,0.561-0.26c0.206-0.06,0.42-0.09,0.64-0.09c0.333,0,0.642,0.066,0.925,0.2
					c0.283,0.133,0.505,0.35,0.665,0.649L58.32,4.04c-0.101-0.167-0.232-0.302-0.396-0.405s-0.361-0.155-0.595-0.155
					c-0.106,0-0.215,0.014-0.325,0.04s-0.208,0.066-0.295,0.12s-0.158,0.122-0.215,0.205S56.41,4.023,56.41,4.13
					c0,0.1,0.031,0.185,0.095,0.255c0.063,0.069,0.15,0.132,0.26,0.185c0.11,0.054,0.237,0.101,0.38,0.141
					c0.144,0.04,0.292,0.073,0.445,0.1c0.207,0.04,0.403,0.092,0.59,0.155s0.351,0.148,0.49,0.255S58.92,5.46,59,5.619
					c0.08,0.16,0.12,0.357,0.12,0.591c0,0.267-0.054,0.493-0.16,0.68s-0.248,0.338-0.425,0.455
					c-0.177,0.116-0.377,0.201-0.601,0.255c-0.223,0.054-0.451,0.08-0.685,0.08c-0.4,0-0.745-0.062-1.035-0.186
					c-0.29-0.123-0.552-0.352-0.785-0.685L56.05,6.329z"/>
				<path fill="#939598" d="M60.1,1.05c0-0.153,0.055-0.287,0.165-0.4s0.245-0.17,0.405-0.17s0.295,0.057,0.405,0.17
					c0.109,0.113,0.164,0.247,0.164,0.4c0,0.166-0.053,0.303-0.159,0.41c-0.107,0.106-0.244,0.159-0.41,0.159
					c-0.167,0-0.304-0.053-0.41-0.159C60.153,1.353,60.1,1.216,60.1,1.05z M60.279,2.88h0.78v4.68h-0.78V2.88z"/>
				<path fill="#939598" d="M62.71,6.329c0.153,0.194,0.321,0.348,0.505,0.461s0.415,0.17,0.695,0.17c0.12,0,0.241-0.014,0.365-0.04
					c0.123-0.027,0.234-0.07,0.335-0.13c0.1-0.061,0.18-0.136,0.24-0.226c0.06-0.09,0.09-0.198,0.09-0.325
					c0-0.126-0.028-0.229-0.085-0.31s-0.132-0.148-0.226-0.205c-0.093-0.057-0.2-0.102-0.319-0.135
					c-0.12-0.033-0.244-0.063-0.37-0.09c-0.221-0.047-0.431-0.101-0.63-0.16c-0.2-0.061-0.375-0.139-0.525-0.235
					s-0.271-0.222-0.36-0.375S62.29,4.38,62.29,4.14c0-0.227,0.05-0.427,0.15-0.6c0.1-0.174,0.233-0.317,0.399-0.431
					c0.167-0.113,0.354-0.2,0.561-0.26c0.206-0.06,0.42-0.09,0.64-0.09c0.333,0,0.642,0.066,0.925,0.2
					c0.283,0.133,0.505,0.35,0.665,0.649L64.98,4.04c-0.101-0.167-0.232-0.302-0.396-0.405s-0.361-0.155-0.595-0.155
					c-0.106,0-0.215,0.014-0.325,0.04s-0.208,0.066-0.295,0.12s-0.158,0.122-0.215,0.205S63.07,4.023,63.07,4.13
					c0,0.1,0.031,0.185,0.095,0.255c0.063,0.069,0.15,0.132,0.26,0.185c0.11,0.054,0.237,0.101,0.38,0.141
					c0.144,0.04,0.292,0.073,0.445,0.1c0.207,0.04,0.403,0.092,0.59,0.155s0.351,0.148,0.49,0.255s0.25,0.24,0.33,0.399
					c0.08,0.16,0.12,0.357,0.12,0.591c0,0.267-0.054,0.493-0.16,0.68s-0.248,0.338-0.425,0.455
					c-0.177,0.116-0.377,0.201-0.601,0.255c-0.223,0.054-0.451,0.08-0.685,0.08c-0.4,0-0.745-0.062-1.035-0.186
					c-0.29-0.123-0.552-0.352-0.785-0.685L62.71,6.329z"/>
			</g>
		</g>
	</g>
</g>
<g id="Layer_4">
</g>
<g id="Layer_3">
</g>
<g id="Layer_5">
</g>
<g id="Annotations">
</g>
</svg>
