<?xml version="1.0" encoding="utf-8"?>
<!-- Generator: Adobe Illustrator 16.0.0, SVG Export Plug-In . SVG Version: 6.00 Build 0)  -->
<!DOCTYPE svg PUBLIC "-//W3C//DTD SVG 1.1//EN" "http://www.w3.org/Graphics/SVG/1.1/DTD/svg11.dtd">
<svg version="1.1" xmlns="http://www.w3.org/2000/svg" xmlns:xlink="http://www.w3.org/1999/xlink" x="0px" y="0px"
	 width="89.603px" height="92.106px" viewBox="0 0 89.603 92.106" enable-background="new 0 0 89.603 92.106" xml:space="preserve">
<g id="Layer_2">
</g>
<g id="Layer_1">
	<g>
		<rect x="40.071" y="21.75" fill="#D3D3D3" width="9.461" height="3.264"/>
		<rect x="19.487" y="42.36" fill="#D3D3D3" width="50.629" height="3.264"/>
		<rect x="17.112" y="38.238" fill="#D3D3D3" width="55.379" height="3.264"/>
		<rect x="26.153" y="34.116" fill="#D3D3D3" width="37.295" height="3.264"/>
		<rect x="21.778" y="29.995" fill="#D3D3D3" width="46.045" height="3.264"/>
		<rect x="33.696" y="25.873" fill="#D3D3D3" width="23.084" height="3.264"/>
		<rect x="23.903" y="46.482" fill="#D3D3D3" width="41.795" height="3.264"/>
		<rect x="28.071" y="67.092" fill="#D3D3D3" width="33.461" height="3.264"/>
		<rect x="31.571" y="62.97" fill="#D3D3D3" width="26.461" height="3.264"/>
		<rect x="39.737" y="58.848" fill="#D3D3D3" width="10.127" height="3.264"/>
		<rect x="31.571" y="54.726" fill="#D3D3D3" width="26.461" height="3.264"/>
		<rect x="28.841" y="50.604" fill="#D3D3D3" width="31.92" height="3.264"/>
		
			<line fill="none" stroke="#A7A9AC" stroke-width="1.4173" stroke-miterlimit="10" x1="44.802" y1="21.75" x2="44.802" y2="70.356"/>
	</g>
	<g>
		<path fill="#A7A9AC" d="M88.185,1.417v89.271H1.417V1.417H88.185 M89.603,0H0v92.106h89.603V0L89.603,0z"/>
	</g>
</g>
<g id="Layer_4">
</g>
<g id="Layer_3">
</g>
<g id="Layer_5">
</g>
<g id="Annotations">
</g>
</svg>
