<?xml version="1.0" encoding="utf-8"?>
<!-- Generator: Adobe Illustrator 16.0.0, SVG Export Plug-In . SVG Version: 6.00 Build 0)  -->
<!DOCTYPE svg PUBLIC "-//W3C//DTD SVG 1.1//EN" "http://www.w3.org/Graphics/SVG/1.1/DTD/svg11.dtd">
<svg version="1.1" xmlns="http://www.w3.org/2000/svg" xmlns:xlink="http://www.w3.org/1999/xlink" x="0px" y="0px"
	 width="89.603px" height="92.106px" viewBox="0 0 89.603 92.106" enable-background="new 0 0 89.603 92.106" xml:space="preserve">
<g id="Layer_2">
</g>
<g id="Layer_1">
	<g>
		<g>
			<g>
				<g>
					<path fill="none" stroke="#FFFFFF" stroke-width="0.5315" stroke-linecap="round" stroke-miterlimit="10" d="M61.344,85.886
						c0.616,0.356,1.331,0.56,2.094,0.56c1.349,0,2.548-0.637,3.313-1.627"/>
					<g>
						<polygon fill="#FFFFFF" points="67.08,85.445 67.539,83.103 65.971,84.901 						"/>
					</g>
				</g>
			</g>
		</g>
		<polyline fill="none" stroke="#A7A9AC" stroke-width="1.4173" stroke-miterlimit="10" points="3.004,12.926 3.004,91.437 
			88.908,91.437 88.908,5.533 58.411,5.533 		"/>
		<g>
			<g>
				<path fill="#939598" d="M6.206,4.899c0,0.387-0.049,0.754-0.146,1.101s-0.25,0.651-0.46,0.915
					c-0.21,0.263-0.485,0.473-0.825,0.63c-0.34,0.156-0.753,0.234-1.24,0.234c-0.486,0-0.899-0.078-1.239-0.234
					c-0.34-0.157-0.615-0.367-0.825-0.63C1.261,6.651,1.107,6.346,1.011,6S0.865,5.286,0.865,4.899v-4.38h0.841v4.26
					c0,0.287,0.029,0.563,0.09,0.83c0.06,0.267,0.16,0.504,0.3,0.71c0.14,0.207,0.326,0.372,0.56,0.495C2.889,6.938,3.183,7,3.535,7
					c0.354,0,0.647-0.062,0.881-0.186c0.232-0.123,0.42-0.288,0.56-0.495c0.14-0.206,0.24-0.443,0.3-0.71
					c0.061-0.267,0.09-0.543,0.09-0.83v-4.26h0.841V4.899z"/>
				<path fill="#939598" d="M7.896,6.369C8.049,6.563,8.217,6.716,8.4,6.83S8.815,7,9.096,7c0.12,0,0.241-0.014,0.365-0.04
					c0.123-0.027,0.234-0.07,0.335-0.13c0.1-0.061,0.18-0.136,0.24-0.226c0.06-0.09,0.09-0.198,0.09-0.325
					c0-0.126-0.028-0.229-0.085-0.31S9.909,5.821,9.815,5.764c-0.093-0.057-0.2-0.102-0.319-0.135
					c-0.12-0.033-0.244-0.063-0.37-0.09c-0.221-0.047-0.431-0.101-0.63-0.16c-0.2-0.061-0.375-0.139-0.525-0.235
					S7.7,4.922,7.61,4.769s-0.135-0.35-0.135-0.59c0-0.227,0.05-0.427,0.15-0.6c0.1-0.174,0.233-0.317,0.399-0.431
					c0.167-0.113,0.354-0.2,0.561-0.26c0.206-0.06,0.42-0.09,0.64-0.09c0.333,0,0.642,0.066,0.925,0.2
					c0.283,0.133,0.505,0.35,0.665,0.649L10.166,4.08c-0.101-0.167-0.232-0.302-0.396-0.405S9.409,3.519,9.176,3.519
					c-0.106,0-0.215,0.014-0.325,0.04s-0.208,0.066-0.295,0.12S8.397,3.801,8.341,3.884S8.256,4.063,8.256,4.169
					c0,0.1,0.031,0.185,0.095,0.255c0.063,0.069,0.15,0.132,0.26,0.185c0.11,0.054,0.237,0.101,0.38,0.141
					c0.144,0.04,0.292,0.073,0.445,0.1c0.207,0.04,0.403,0.092,0.59,0.155s0.351,0.148,0.49,0.255s0.25,0.24,0.33,0.399
					c0.08,0.16,0.12,0.357,0.12,0.591c0,0.267-0.054,0.493-0.16,0.68s-0.248,0.338-0.425,0.455C10.204,7.5,10.004,7.585,9.78,7.639
					c-0.223,0.054-0.451,0.08-0.685,0.08c-0.4,0-0.745-0.062-1.035-0.186c-0.29-0.123-0.552-0.352-0.785-0.685L7.896,6.369z"/>
				<path fill="#939598" d="M16.235,6.75c-0.28,0.359-0.587,0.611-0.92,0.755c-0.333,0.143-0.72,0.215-1.16,0.215
					c-0.366,0-0.696-0.065-0.99-0.195C12.872,7.394,12.624,7.219,12.421,7c-0.204-0.221-0.36-0.48-0.471-0.78
					c-0.109-0.3-0.165-0.62-0.165-0.96c0-0.36,0.061-0.691,0.181-0.995c0.119-0.304,0.286-0.563,0.5-0.78
					c0.213-0.217,0.466-0.385,0.76-0.505c0.293-0.12,0.613-0.18,0.96-0.18c0.326,0,0.626,0.055,0.899,0.165
					c0.273,0.109,0.509,0.27,0.705,0.479c0.197,0.21,0.349,0.467,0.455,0.771c0.106,0.303,0.16,0.648,0.16,1.035V5.5h-3.78
					c0.014,0.199,0.062,0.392,0.146,0.574c0.083,0.184,0.191,0.344,0.325,0.48c0.133,0.137,0.29,0.245,0.47,0.325S13.942,7,14.155,7
					c0.34,0,0.627-0.061,0.86-0.181s0.443-0.296,0.63-0.529L16.235,6.75z M15.565,4.839c-0.014-0.4-0.144-0.721-0.39-0.96
					c-0.247-0.24-0.587-0.36-1.021-0.36s-0.783,0.12-1.05,0.36c-0.267,0.239-0.427,0.56-0.48,0.96H15.565z"/>
				<path fill="#939598" d="M17.615,4.029c0-0.213-0.007-0.413-0.021-0.6c-0.013-0.187-0.02-0.356-0.02-0.51h0.74
					c0,0.126,0.003,0.253,0.01,0.38s0.01,0.257,0.01,0.39h0.021c0.053-0.113,0.128-0.223,0.225-0.33
					c0.097-0.106,0.212-0.201,0.345-0.285c0.134-0.083,0.283-0.149,0.45-0.199c0.167-0.051,0.347-0.075,0.54-0.075
					c0.054,0,0.106,0.003,0.16,0.01c0.053,0.007,0.106,0.021,0.16,0.04l-0.051,0.79c-0.133-0.04-0.273-0.06-0.42-0.06
					c-0.479,0-0.828,0.154-1.045,0.465c-0.217,0.31-0.325,0.734-0.325,1.274v2.28h-0.779V4.029z"/>
				<path fill="#939598" d="M26.475,3.58h-1.38v2.34c0,0.153,0.003,0.295,0.01,0.425s0.033,0.243,0.08,0.34s0.117,0.174,0.21,0.23
					C25.488,6.971,25.621,7,25.795,7c0.113,0,0.229-0.014,0.35-0.04c0.12-0.027,0.233-0.067,0.34-0.12l0.03,0.71
					c-0.133,0.06-0.281,0.104-0.445,0.13c-0.163,0.026-0.318,0.04-0.465,0.04c-0.279,0-0.503-0.037-0.67-0.11
					c-0.166-0.073-0.297-0.177-0.39-0.31C24.451,7.166,24.39,7,24.359,6.804c-0.029-0.196-0.045-0.415-0.045-0.655V3.58h-1.02v-0.66
					h1.02v-1.33h0.78v1.33h1.38V3.58z"/>
				<path fill="#939598" d="M31.614,6.75c-0.28,0.359-0.587,0.611-0.92,0.755c-0.333,0.143-0.72,0.215-1.16,0.215
					c-0.366,0-0.696-0.065-0.99-0.195C28.251,7.394,28.003,7.219,27.8,7c-0.204-0.221-0.36-0.48-0.471-0.78
					c-0.109-0.3-0.165-0.62-0.165-0.96c0-0.36,0.061-0.691,0.181-0.995c0.119-0.304,0.286-0.563,0.5-0.78
					c0.213-0.217,0.466-0.385,0.76-0.505c0.293-0.12,0.613-0.18,0.96-0.18c0.326,0,0.626,0.055,0.899,0.165
					c0.273,0.109,0.509,0.27,0.705,0.479c0.197,0.21,0.349,0.467,0.455,0.771c0.106,0.303,0.16,0.648,0.16,1.035V5.5h-3.78
					c0.014,0.199,0.062,0.392,0.146,0.574c0.083,0.184,0.191,0.344,0.325,0.48c0.133,0.137,0.29,0.245,0.47,0.325S29.321,7,29.534,7
					c0.34,0,0.627-0.061,0.86-0.181s0.443-0.296,0.63-0.529L31.614,6.75z M30.944,4.839c-0.014-0.4-0.144-0.721-0.39-0.96
					c-0.247-0.24-0.587-0.36-1.021-0.36s-0.783,0.12-1.05,0.36c-0.267,0.239-0.427,0.56-0.48,0.96H30.944z"/>
				<path fill="#939598" d="M33.094,6.369c0.153,0.194,0.321,0.348,0.505,0.461S34.014,7,34.294,7c0.12,0,0.241-0.014,0.365-0.04
					c0.123-0.027,0.234-0.07,0.335-0.13c0.1-0.061,0.18-0.136,0.24-0.226c0.06-0.09,0.09-0.198,0.09-0.325
					c0-0.126-0.028-0.229-0.085-0.31s-0.132-0.148-0.226-0.205c-0.093-0.057-0.2-0.102-0.319-0.135
					c-0.12-0.033-0.244-0.063-0.37-0.09c-0.221-0.047-0.431-0.101-0.63-0.16c-0.2-0.061-0.375-0.139-0.525-0.235
					s-0.271-0.222-0.36-0.375s-0.135-0.35-0.135-0.59c0-0.227,0.05-0.427,0.15-0.6c0.1-0.174,0.233-0.317,0.399-0.431
					c0.167-0.113,0.354-0.2,0.561-0.26c0.206-0.06,0.42-0.09,0.64-0.09c0.333,0,0.642,0.066,0.925,0.2
					c0.283,0.133,0.505,0.35,0.665,0.649L35.364,4.08c-0.101-0.167-0.232-0.302-0.396-0.405s-0.361-0.155-0.595-0.155
					c-0.106,0-0.215,0.014-0.325,0.04s-0.208,0.066-0.295,0.12s-0.158,0.122-0.215,0.205s-0.085,0.179-0.085,0.285
					c0,0.1,0.031,0.185,0.095,0.255c0.063,0.069,0.15,0.132,0.26,0.185c0.11,0.054,0.237,0.101,0.38,0.141
					c0.144,0.04,0.292,0.073,0.445,0.1c0.207,0.04,0.403,0.092,0.59,0.155s0.351,0.148,0.49,0.255s0.25,0.24,0.33,0.399
					c0.08,0.16,0.12,0.357,0.12,0.591c0,0.267-0.054,0.493-0.16,0.68s-0.248,0.338-0.425,0.455
					c-0.177,0.116-0.377,0.201-0.601,0.255c-0.223,0.054-0.451,0.08-0.685,0.08c-0.4,0-0.745-0.062-1.035-0.186
					c-0.29-0.123-0.552-0.352-0.785-0.685L33.094,6.369z"/>
				<path fill="#939598" d="M39.813,3.58h-1.38v2.34c0,0.153,0.003,0.295,0.01,0.425s0.033,0.243,0.08,0.34s0.117,0.174,0.21,0.23
					C38.827,6.971,38.96,7,39.134,7c0.113,0,0.229-0.014,0.35-0.04c0.12-0.027,0.233-0.067,0.34-0.12l0.03,0.71
					c-0.133,0.06-0.281,0.104-0.445,0.13c-0.163,0.026-0.318,0.04-0.465,0.04c-0.279,0-0.503-0.037-0.67-0.11
					c-0.166-0.073-0.297-0.177-0.39-0.31C37.79,7.166,37.729,7,37.698,6.804c-0.029-0.196-0.045-0.415-0.045-0.655V3.58h-1.02v-0.66
					h1.02v-1.33h0.78v1.33h1.38V3.58z"/>
				<path fill="#939598" d="M40.673,1.089c0-0.153,0.055-0.287,0.165-0.4s0.245-0.17,0.405-0.17s0.295,0.057,0.405,0.17
					c0.109,0.113,0.164,0.247,0.164,0.4c0,0.166-0.053,0.303-0.159,0.41c-0.107,0.106-0.244,0.159-0.41,0.159
					c-0.167,0-0.304-0.053-0.41-0.159C40.727,1.392,40.673,1.255,40.673,1.089z M40.853,2.919h0.78v4.68h-0.78V2.919z"/>
				<path fill="#939598" d="M43.184,4.029c0-0.213-0.007-0.413-0.021-0.6c-0.013-0.187-0.02-0.356-0.02-0.51h0.74
					c0,0.126,0.003,0.253,0.01,0.38s0.01,0.257,0.01,0.39h0.021c0.053-0.113,0.128-0.223,0.225-0.33
					c0.097-0.106,0.212-0.201,0.345-0.285c0.134-0.083,0.283-0.149,0.45-0.199c0.167-0.051,0.347-0.075,0.54-0.075
					c0.307,0,0.571,0.047,0.795,0.14c0.224,0.094,0.408,0.224,0.555,0.391c0.146,0.166,0.255,0.368,0.325,0.604
					s0.105,0.495,0.105,0.775v2.89h-0.78V4.79c0-0.394-0.087-0.704-0.26-0.931c-0.174-0.227-0.443-0.34-0.811-0.34
					c-0.253,0-0.472,0.044-0.654,0.13c-0.184,0.087-0.334,0.21-0.45,0.37c-0.117,0.16-0.204,0.35-0.26,0.57
					c-0.058,0.22-0.086,0.463-0.086,0.729v2.28h-0.779V4.029z"/>
				<path fill="#939598" d="M53.413,7.389c0,0.854-0.219,1.502-0.655,1.945S51.689,10,50.863,10c-0.46,0-0.875-0.067-1.245-0.2
					c-0.37-0.134-0.722-0.363-1.056-0.69l0.561-0.64c0.246,0.267,0.508,0.468,0.785,0.604c0.276,0.137,0.595,0.205,0.955,0.205
					c0.347,0,0.635-0.052,0.864-0.154c0.23-0.104,0.412-0.244,0.545-0.42c0.134-0.177,0.227-0.379,0.28-0.605s0.08-0.464,0.08-0.71
					v-0.6h-0.02c-0.188,0.3-0.431,0.52-0.73,0.659c-0.3,0.141-0.606,0.21-0.92,0.21c-0.366,0-0.703-0.06-1.01-0.18
					s-0.57-0.286-0.79-0.5c-0.22-0.213-0.391-0.467-0.51-0.76c-0.12-0.293-0.181-0.613-0.181-0.96c0-0.38,0.061-0.724,0.181-1.03
					c0.119-0.307,0.288-0.564,0.505-0.774c0.216-0.211,0.478-0.372,0.785-0.485c0.306-0.113,0.646-0.17,1.02-0.17
					c0.16,0,0.32,0.019,0.48,0.055c0.159,0.037,0.314,0.094,0.465,0.17c0.149,0.077,0.285,0.174,0.404,0.29
					c0.12,0.117,0.221,0.252,0.301,0.405h0.02v-0.8h0.78V7.389z M49.312,5.259c0,0.24,0.044,0.462,0.131,0.665
					c0.086,0.203,0.204,0.38,0.354,0.53c0.15,0.149,0.325,0.268,0.525,0.354c0.199,0.087,0.413,0.13,0.64,0.13
					c0.267,0,0.503-0.047,0.71-0.14c0.207-0.094,0.382-0.219,0.525-0.375c0.143-0.157,0.251-0.337,0.324-0.54
					c0.074-0.203,0.11-0.418,0.11-0.646c0-0.253-0.04-0.484-0.12-0.694S52.319,4.153,52.173,4s-0.323-0.271-0.53-0.355
					c-0.206-0.083-0.433-0.125-0.68-0.125s-0.472,0.045-0.675,0.135s-0.377,0.214-0.521,0.37c-0.144,0.157-0.255,0.34-0.335,0.55
					S49.312,5.012,49.312,5.259z"/>
			</g>
		</g>
		<g>
			
				<polyline fill="none" stroke="#FFFFFF" stroke-width="1.3526" stroke-linecap="round" stroke-linejoin="round" stroke-miterlimit="10" points="
				82.68,80.389 79.793,84.874 76.859,80.319 			"/>
		</g>
		<g>
			<g>
				<g>
					
						<path fill="#FFFFFF" stroke="#A7A9AC" stroke-width="1.4173" stroke-linecap="round" stroke-linejoin="round" stroke-miterlimit="10" d="
						M55.177,33.307c0,5.098-4.128,9.223-9.22,9.223c-5.093,0-9.218-4.125-9.218-9.223c0-5.09,4.125-9.217,9.218-9.217
						C51.049,24.09,55.177,28.217,55.177,33.307"/>
				</g>
				
					<path fill="#FFFFFF" stroke="#A7A9AC" stroke-width="1.4173" stroke-linecap="round" stroke-linejoin="round" stroke-miterlimit="10" d="
					M59.289,67.94c0,2.727-2.212,4.938-4.938,4.938H37.56c-2.728,0-4.937-2.211-4.937-4.938V47.514c0-2.723,2.209-4.934,4.937-4.934
					h16.792c2.726,0,4.938,2.211,4.938,4.934V67.94z"/>
			</g>
		</g>
		<g>
			<circle fill="#D3D3D3" cx="25.871" cy="41.168" r="0.839"/>
			<circle fill="#D3D3D3" cx="27.161" cy="36.977" r="1.151"/>
			<polygon fill="#D3D3D3" points="20.081,50.404 33.223,50.404 37.78,57.244 38.29,58.782 37.309,60.019 16.777,60.019 
				15.133,58.747 15.843,56.948 			"/>
			
				<path fill="none" stroke="#A7A9AC" stroke-width="1.4173" stroke-linecap="round" stroke-linejoin="round" stroke-miterlimit="10" d="
				M28.188,60.019c0,0,3.499,0,7.737,0s1.499-3.279,1.499-3.279s-5.802-8.991-7.053-10.985c-1.276-2.034-1.528-1.729-1.528-3.571
				s0-5.897,0-7.003s1.489-1.33,1.489-1.33s1.434,0.041,1.434-1.434s-1.395-1.659-1.395-1.659h-2.184h-5.135
				c0,0-1.394,0.185-1.394,1.659s1.434,1.434,1.434,1.434s1.488,0.225,1.488,1.33s0,5.16,0,7.003s-0.253,1.537-1.528,3.571
				C21.803,47.749,16,56.74,16,56.74s-2.739,3.279,1.499,3.279C21.738,60.019,28.188,60.019,28.188,60.019z"/>
			<circle fill="#D3D3D3" cx="26.712" cy="46.145" r="1.473"/>
			<circle fill="#D3D3D3" cx="24.663" cy="50.404" r="1.474"/>
			<circle fill="#D3D3D3" cx="27.721" cy="32.79" r="1.008"/>
			<circle fill="#D3D3D3" cx="27.852" cy="26.566" r="1.613"/>
			<circle fill="#D3D3D3" cx="25.999" cy="22.419" r="0.967"/>
		</g>
	</g>
</g>
<g id="Layer_4">
</g>
<g id="Layer_3">
</g>
<g id="Layer_5">
</g>
<g id="Annotations">
</g>
</svg>
