<?xml version="1.0" encoding="utf-8"?>
<!-- Generator: Adobe Illustrator 16.0.0, SVG Export Plug-In . SVG Version: 6.00 Build 0)  -->
<!DOCTYPE svg PUBLIC "-//W3C//DTD SVG 1.1//EN" "http://www.w3.org/Graphics/SVG/1.1/DTD/svg11.dtd">
<svg version="1.1" xmlns="http://www.w3.org/2000/svg" xmlns:xlink="http://www.w3.org/1999/xlink" x="0px" y="0px"
	 width="89.602px" height="92.106px" viewBox="0 0 89.602 92.106" enable-background="new 0 0 89.602 92.106" xml:space="preserve">
<g id="Layer_2">
</g>
<g id="Layer_1">
	<g>
		<g>
			<g>
				<g>
					
						<path fill="#FFFFFF" stroke="#A7A9AC" stroke-width="1.4173" stroke-linecap="round" stroke-linejoin="round" stroke-miterlimit="10" d="
						M55.177,30.876c0,5.098-4.128,9.223-9.22,9.223c-5.093,0-9.218-4.125-9.218-9.223c0-5.09,4.125-9.217,9.218-9.217
						C51.049,21.66,55.177,25.787,55.177,30.876"/>
				</g>
				
					<path fill="#FFFFFF" stroke="#A7A9AC" stroke-width="1.4173" stroke-linecap="round" stroke-linejoin="round" stroke-miterlimit="10" d="
					M59.289,65.509c0,2.727-2.212,4.938-4.938,4.938H37.56c-2.728,0-4.937-2.211-4.937-4.938V45.083
					c0-2.723,2.209-4.934,4.937-4.934h16.792c2.726,0,4.938,2.211,4.938,4.934V65.509z"/>
			</g>
		</g>
		<g>
			
				<path fill="#FFFFFF" stroke="#A7A9AC" stroke-width="1.4173" stroke-linecap="round" stroke-linejoin="round" stroke-miterlimit="10" d="
				M28.186,60.227c0,0,3.498,0,7.737,0c4.238,0,1.499-3.279,1.499-3.279s-5.803-8.991-7.053-10.985
				c-1.276-2.034-1.528-1.729-1.528-3.571s0-5.897,0-7.003s1.489-1.33,1.489-1.33s1.434,0.041,1.434-1.434s-1.395-1.659-1.395-1.659
				h-2.184h-5.135c0,0-1.394,0.185-1.394,1.659s1.434,1.434,1.434,1.434s1.488,0.225,1.488,1.33s0,5.16,0,7.003
				s-0.253,1.537-1.528,3.571c-1.25,1.994-7.053,10.985-7.053,10.985s-2.739,3.279,1.499,3.279
				C21.736,60.227,28.186,60.227,28.186,60.227z"/>
			<circle fill="#D3D3D3" cx="25.871" cy="41.376" r="0.839"/>
			<circle fill="#D3D3D3" cx="27.161" cy="37.185" r="1.151"/>
			<polygon fill="#D3D3D3" points="20.081,50.612 33.223,50.612 37.78,57.452 38.29,58.99 37.309,60.227 16.777,60.227 
				15.133,58.955 15.843,57.156 			"/>
			
				<path fill="none" stroke="#A7A9AC" stroke-width="1.4173" stroke-linecap="round" stroke-linejoin="round" stroke-miterlimit="10" d="
				M28.188,60.227c0,0,3.498,0,7.737,0c4.238,0,1.499-3.279,1.499-3.279s-5.803-8.991-7.053-10.985
				c-1.276-2.034-1.528-1.729-1.528-3.571s0-5.897,0-7.003s1.489-1.33,1.489-1.33s1.434,0.041,1.434-1.434s-1.395-1.659-1.395-1.659
				h-2.184h-5.135c0,0-1.394,0.185-1.394,1.659s1.434,1.434,1.434,1.434s1.488,0.225,1.488,1.33s0,5.16,0,7.003
				s-0.253,1.537-1.528,3.571C21.803,47.957,16,56.948,16,56.948s-2.739,3.279,1.499,3.279
				C21.738,60.227,28.188,60.227,28.188,60.227z"/>
			<circle fill="#D3D3D3" cx="26.712" cy="46.353" r="1.473"/>
			<circle fill="#D3D3D3" cx="24.663" cy="50.612" r="1.474"/>
			<circle fill="#D3D3D3" cx="27.721" cy="32.998" r="1.008"/>
			<circle fill="#D3D3D3" cx="27.852" cy="26.774" r="1.613"/>
			<circle fill="#D3D3D3" cx="25.999" cy="22.627" r="0.967"/>
		</g>
	</g>
	<g>
		<path fill="#A7A9AC" d="M88.184,1.417v89.271H1.418V1.417H88.184 M89.602,0H0v92.106h89.602V0L89.602,0z"/>
	</g>
</g>
<g id="Layer_4">
</g>
<g id="Layer_3">
</g>
<g id="Layer_5">
</g>
<g id="Annotations">
</g>
</svg>
