<?xml version="1.0" encoding="utf-8"?>
<!-- Generator: Adobe Illustrator 16.0.0, SVG Export Plug-In . SVG Version: 6.00 Build 0)  -->
<!DOCTYPE svg PUBLIC "-//W3C//DTD SVG 1.1//EN" "http://www.w3.org/Graphics/SVG/1.1/DTD/svg11.dtd">
<svg version="1.1" xmlns="http://www.w3.org/2000/svg" xmlns:xlink="http://www.w3.org/1999/xlink" x="0px" y="0px"
	 width="89.603px" height="92.106px" viewBox="0 0 89.603 92.106" enable-background="new 0 0 89.603 92.106" xml:space="preserve">
<g id="Layer_2">
</g>
<g id="Layer_1">
	<g>
		<g>
			<g>
				<g>
					
						<path fill="#FFFFFF" stroke="#A7A9AC" stroke-width="1.4173" stroke-linecap="round" stroke-linejoin="round" stroke-miterlimit="10" d="
						M64.712,30.876c0,5.098-4.127,9.223-9.221,9.223c-5.092,0-9.217-4.125-9.217-9.223c0-5.09,4.125-9.217,9.217-9.217
						C60.585,21.659,64.712,25.786,64.712,30.876"/>
				</g>
				
					<path fill="#FFFFFF" stroke="#A7A9AC" stroke-width="1.4173" stroke-linecap="round" stroke-linejoin="round" stroke-miterlimit="10" d="
					M68.823,65.509c0,2.727-2.211,4.938-4.938,4.938H47.095c-2.727,0-4.938-2.211-4.938-4.938V45.083
					c0-2.723,2.211-4.934,4.938-4.934h16.791c2.727,0,4.938,2.211,4.938,4.934V65.509z"/>
			</g>
		</g>
		<g>
			<g>
				<path fill="#FFFFFF" d="M22.39,53.304c-0.443,0-0.805-0.361-0.805-0.805v-7.156c0-0.812,0.188-2.156,0.412-2.935l3.357-11.697
					c0.145-0.504,0.755-0.964,1.279-0.964h4.088c0.443,0,0.805,0.361,0.805,0.805v12.031c0,0.491-0.266,0.805-0.404,0.805
					c-1.11,0-2.014,1.083-2.014,2.414v6.697c0,0.443-0.361,0.805-0.805,0.805H22.39z"/>
				<path fill="#939598" d="M30.722,30.552L30.722,30.552v12.031c0,0.012,0,0.022-0.001,0.032c-1.364,0.224-2.417,1.567-2.417,3.187
					v6.697H22.39v-7.156c0-0.738,0.178-2.005,0.381-2.712l3.357-11.697c0.047-0.161,0.34-0.382,0.506-0.382H30.722 M30.722,28.942
					h-4.088c-0.885,0-1.809,0.696-2.053,1.547l-3.357,11.697c-0.244,0.851-0.443,2.271-0.443,3.156v7.156
					c0,0.885,0.725,1.609,1.609,1.609h5.914c0.885,0,1.609-0.725,1.609-1.609v-6.697c0-0.885,0.544-1.609,1.209-1.609
					s1.209-0.725,1.209-1.609V30.552C32.331,29.667,31.606,28.942,30.722,28.942L30.722,28.942z"/>
			</g>
			<g>
				<path fill="#FFFFFF" d="M40.603,53.304c-0.443,0-0.805-0.361-0.805-0.805v-6.697c0-1.331-0.903-2.414-2.014-2.414
					c-0.139,0-0.404-0.313-0.404-0.805V30.552c0-0.443,0.361-0.805,0.805-0.805h4.088c0.524,0,1.135,0.46,1.279,0.964l3.357,11.697
					c0.224,0.778,0.412,2.122,0.412,2.935v7.156c0,0.443-0.361,0.805-0.805,0.805H40.603z"/>
				<path fill="#939598" d="M42.272,30.552c0.166,0,0.459,0.221,0.506,0.382l3.357,11.697c0.203,0.707,0.381,1.974,0.381,2.712
					v7.156h-5.914v-6.697c0-1.619-1.053-2.963-2.417-3.187c-0.001-0.01-0.001-0.021-0.001-0.032V30.552H42.272 M42.272,28.942
					h-4.088c-0.885,0-1.609,0.725-1.609,1.609v12.031c0,0.885,0.544,1.609,1.209,1.609s1.209,0.725,1.209,1.609v6.697
					c0,0.885,0.725,1.609,1.609,1.609h5.914c0.885,0,1.609-0.725,1.609-1.609v-7.156c0-0.885-0.199-2.306-0.443-3.156l-3.357-11.697
					C44.081,29.639,43.157,28.942,42.272,28.942L42.272,28.942z"/>
			</g>
			<g>
				<path fill="#939598" d="M31.446,26.948c0-0.417-0.342-0.758-0.758-0.758h-4.018c-0.416,0-0.758,0.341-0.758,0.758v0.861
					c0,0.417,0.342,0.758,0.758,0.758h4.018c0.416,0,0.758-0.341,0.758-0.758V26.948z"/>
			</g>
			<g>
				<path fill="#939598" d="M42.862,26.948c0-0.417-0.342-0.758-0.758-0.758h-4.018c-0.416,0-0.758,0.341-0.758,0.758v0.861
					c0,0.417,0.342,0.758,0.758,0.758h4.018c0.416,0,0.758-0.341,0.758-0.758V26.948z"/>
			</g>
			<g>
				<path fill="#939598" d="M35.884,36.206c0,0.442-0.362,0.805-0.805,0.805h-1.252c-0.442,0-0.805-0.362-0.805-0.805v-5.297
					c0-0.442,0.362-0.805,0.805-0.805h1.252c0.442,0,0.805,0.362,0.805,0.805V36.206z"/>
			</g>
		</g>
	</g>
	<g>
		<path fill="#A7A9AC" d="M88.185,1.417v89.271H1.417V1.417H88.185 M89.603,0H0v92.105h89.603V0L89.603,0z"/>
	</g>
</g>
<g id="Layer_4">
</g>
<g id="Layer_3">
</g>
<g id="Layer_5">
</g>
<g id="Annotations">
</g>
</svg>
