<?xml version="1.0" encoding="utf-8"?>
<!-- Generator: Adobe Illustrator 16.0.0, SVG Export Plug-In . SVG Version: 6.00 Build 0)  -->
<!DOCTYPE svg PUBLIC "-//W3C//DTD SVG 1.1//EN" "http://www.w3.org/Graphics/SVG/1.1/DTD/svg11.dtd">
<svg version="1.1" xmlns="http://www.w3.org/2000/svg" xmlns:xlink="http://www.w3.org/1999/xlink" x="0px" y="0px"
	 width="89.602px" height="92.106px" viewBox="0 0 89.602 92.106" enable-background="new 0 0 89.602 92.106" xml:space="preserve">
<g id="Layer_2">
</g>
<g id="Layer_1">
	<g>
		<path fill="none" stroke="#939598" stroke-width="1.4173" stroke-miterlimit="10" d="M39.287,58.803
			c0,1.27-1.028,2.298-2.298,2.298h-25.5c-1.27,0-2.299-1.028-2.299-2.298v-25.5c0-1.27,1.029-2.298,2.299-2.298h25.5
			c1.27,0,2.298,1.028,2.298,2.298V58.803z"/>
		<circle fill="none" stroke="#939598" stroke-width="1.4173" stroke-miterlimit="10" cx="65.363" cy="46.053" r="15.048"/>
		<g>
			<g>
				
					<line fill="none" stroke="#939598" stroke-width="1.4173" stroke-miterlimit="10" x1="50.315" y1="46.053" x2="46.584" y2="46.053"/>
				<g>
					<polygon fill="#939598" points="47.995,44.852 46.793,46.053 47.995,47.254 46.975,47.254 45.773,46.053 46.975,44.852 					
						"/>
				</g>
			</g>
		</g>
		<g>
			<g>
				
					<line fill="none" stroke="#939598" stroke-width="1.4173" stroke-miterlimit="10" x1="39.425" y1="46.053" x2="43.742" y2="46.053"/>
				<g>
					<polygon fill="#939598" points="42.33,47.254 43.532,46.053 42.33,44.852 43.351,44.852 44.552,46.053 43.351,47.254 					"/>
				</g>
			</g>
		</g>
		
			<line fill="none" stroke="#939598" stroke-width="1.4173" stroke-miterlimit="10" x1="39.287" y1="46.053" x2="24.239" y2="46.053"/>
		
			<line fill="none" stroke="#939598" stroke-width="1.4173" stroke-miterlimit="10" x1="24.239" y1="46.053" x2="9.923" y2="60.477"/>
		
			<line fill="none" stroke="#939598" stroke-width="1.4173" stroke-miterlimit="10" x1="9.923" y1="31.629" x2="24.239" y2="46.053"/>
		
			<line fill="none" stroke="#939598" stroke-width="1.4173" stroke-miterlimit="10" x1="50.315" y1="46.053" x2="65.363" y2="46.053"/>
		
			<line fill="none" stroke="#939598" stroke-width="1.4173" stroke-miterlimit="10" x1="65.363" y1="46.053" x2="75.964" y2="35.374"/>
		
			<line fill="none" stroke="#939598" stroke-width="1.4173" stroke-miterlimit="10" x1="75.964" y1="56.733" x2="65.363" y2="46.053"/>
	</g>
	<g>
		<path fill="#A7A9AC" d="M88.184,1.417v89.271H1.418V1.417H88.184 M89.602,0H0v92.106h89.602V0L89.602,0z"/>
	</g>
</g>
<g id="Layer_4">
</g>
<g id="Layer_3">
</g>
<g id="Layer_5">
</g>
<g id="Annotations">
</g>
</svg>
