<?xml version="1.0" encoding="utf-8"?>
<!-- Generator: Adobe Illustrator 16.0.0, SVG Export Plug-In . SVG Version: 6.00 Build 0)  -->
<!DOCTYPE svg PUBLIC "-//W3C//DTD SVG 1.1//EN" "http://www.w3.org/Graphics/SVG/1.1/DTD/svg11.dtd">
<svg version="1.1" xmlns="http://www.w3.org/2000/svg" xmlns:xlink="http://www.w3.org/1999/xlink" x="0px" y="0px"
	 width="89.603px" height="92.106px" viewBox="0 0 89.603 92.106" enable-background="new 0 0 89.603 92.106" xml:space="preserve">
<g id="Layer_2">
</g>
<g id="Layer_1">
	<g>
		
			<line fill="none" stroke="#A7A9AC" stroke-width="0.7087" stroke-miterlimit="10" x1="10.897" y1="24.269" x2="79.06" y2="24.269"/>
		
			<line fill="none" stroke="#A7A9AC" stroke-width="0.7087" stroke-miterlimit="10" x1="10.542" y1="38.792" x2="78.704" y2="38.792"/>
		
			<line fill="none" stroke="#A7A9AC" stroke-width="0.7087" stroke-miterlimit="10" x1="10.897" y1="53.315" x2="79.06" y2="53.315"/>
		<polyline fill="none" stroke="#D3D3D3" stroke-width="1.4173" stroke-miterlimit="10" points="15.993,53.315 27.622,38.792 
			39.253,31.05 50.884,48.739 62.513,41.542 74.144,53.315 		"/>
		
			<line fill="none" stroke="#A7A9AC" stroke-width="0.7087" stroke-miterlimit="10" x1="10.897" y1="67.839" x2="79.06" y2="67.839"/>
		<polyline fill="none" stroke="#939598" stroke-width="1.4173" stroke-miterlimit="10" points="15.993,32.776 27.622,61.228 
			39.253,52.812 50.884,38.792 62.513,32.776 74.144,29.739 		"/>
		<circle fill="#FFFFFF" stroke="#939598" stroke-width="1.4173" stroke-miterlimit="10" cx="15.993" cy="32.776" r="2.75"/>
		<circle fill="#FFFFFF" stroke="#939598" stroke-width="1.4173" stroke-miterlimit="10" cx="27.622" cy="61.228" r="2.75"/>
		<circle fill="#FFFFFF" stroke="#939598" stroke-width="1.4173" stroke-miterlimit="10" cx="39.253" cy="52.812" r="2.75"/>
		<circle fill="#FFFFFF" stroke="#939598" stroke-width="1.4173" stroke-miterlimit="10" cx="50.884" cy="38.792" r="2.75"/>
		<circle fill="#FFFFFF" stroke="#939598" stroke-width="1.4173" stroke-miterlimit="10" cx="74.144" cy="29.739" r="2.75"/>
		<circle fill="#FFFFFF" stroke="#939598" stroke-width="1.4173" stroke-miterlimit="10" cx="62.513" cy="32.776" r="2.75"/>
		<circle fill="#FFFFFF" stroke="#D3D3D3" stroke-width="1.4173" stroke-miterlimit="10" cx="50.884" cy="48.739" r="2.75"/>
		<circle fill="#FFFFFF" stroke="#D3D3D3" stroke-width="1.4173" stroke-miterlimit="10" cx="62.513" cy="41.542" r="2.75"/>
		<circle fill="#FFFFFF" stroke="#D3D3D3" stroke-width="1.4173" stroke-miterlimit="10" cx="74.144" cy="53.315" r="2.75"/>
		<circle fill="#FFFFFF" stroke="#D3D3D3" stroke-width="1.4173" stroke-miterlimit="10" cx="27.622" cy="38.792" r="2.75"/>
		<circle fill="#FFFFFF" stroke="#D3D3D3" stroke-width="1.4173" stroke-miterlimit="10" cx="15.993" cy="53.315" r="2.75"/>
		<circle fill="#FFFFFF" stroke="#D3D3D3" stroke-width="1.4173" stroke-miterlimit="10" cx="39.253" cy="31.05" r="2.75"/>
	</g>
	<g>
		<path fill="#A7A9AC" d="M88.185,1.417v89.271H1.417V1.417H88.185 M89.603,0H0v92.105h89.603V0L89.603,0z"/>
	</g>
</g>
<g id="Layer_4">
</g>
<g id="Layer_3">
</g>
<g id="Layer_5">
</g>
<g id="Annotations">
</g>
</svg>
