<?xml version="1.0" encoding="utf-8"?>
<!-- Generator: Adobe Illustrator 16.0.0, SVG Export Plug-In . SVG Version: 6.00 Build 0)  -->
<!DOCTYPE svg PUBLIC "-//W3C//DTD SVG 1.1//EN" "http://www.w3.org/Graphics/SVG/1.1/DTD/svg11.dtd">
<svg version="1.1" xmlns="http://www.w3.org/2000/svg" xmlns:xlink="http://www.w3.org/1999/xlink" x="0px" y="0px"
	 width="89.602px" height="92.106px" viewBox="0 0 89.602 92.106" enable-background="new 0 0 89.602 92.106" xml:space="preserve">
<g id="Layer_2">
</g>
<g id="Layer_1">
	<g>
		
			<rect x="28.783" y="22.372" fill="none" stroke="#A7A9AC" stroke-width="1.4173" stroke-miterlimit="10" width="32.035" height="41.666"/>
		
			<line fill="none" stroke="#A7A9AC" stroke-width="1.4173" stroke-miterlimit="10" x1="31.159" y1="26.372" x2="53.456" y2="26.372"/>
		
			<line fill="none" stroke="#A7A9AC" stroke-width="1.4173" stroke-miterlimit="10" x1="31.159" y1="30.622" x2="58.831" y2="30.622"/>
		
			<line fill="none" stroke="#A7A9AC" stroke-width="1.4173" stroke-miterlimit="10" x1="31.159" y1="39.122" x2="50.581" y2="39.122"/>
		
			<line fill="none" stroke="#A7A9AC" stroke-width="1.4173" stroke-miterlimit="10" x1="31.159" y1="47.622" x2="58.081" y2="47.622"/>
		
			<line fill="none" stroke="#A7A9AC" stroke-width="1.4173" stroke-miterlimit="10" x1="31.159" y1="56.122" x2="58.081" y2="56.122"/>
		
			<line fill="none" stroke="#A7A9AC" stroke-width="1.4173" stroke-miterlimit="10" x1="31.159" y1="34.872" x2="58.081" y2="34.872"/>
		
			<line fill="none" stroke="#A7A9AC" stroke-width="1.4173" stroke-miterlimit="10" x1="31.159" y1="43.372" x2="55.081" y2="43.372"/>
		
			<line fill="none" stroke="#A7A9AC" stroke-width="1.4173" stroke-miterlimit="10" x1="31.159" y1="51.872" x2="56.581" y2="51.872"/>
		
			<line fill="none" stroke="#A7A9AC" stroke-width="1.4173" stroke-miterlimit="10" x1="31.159" y1="60.372" x2="53.965" y2="60.372"/>
		<rect x="24.783" y="22.372" fill="#A7A9AC" stroke="#A7A9AC" stroke-miterlimit="10" width="2" height="5.113"/>
		<rect x="62.818" y="22.372" fill="#A7A9AC" stroke="#A7A9AC" stroke-miterlimit="10" width="2" height="5.113"/>
		
			<rect x="64.818" y="23.929" fill="#A7A9AC" stroke="#A7A9AC" stroke-width="0.8596" stroke-miterlimit="10" width="3.779" height="2"/>
		
			<rect x="21.004" y="23.929" fill="#A7A9AC" stroke="#A7A9AC" stroke-width="0.8596" stroke-miterlimit="10" width="3.779" height="2"/>
		<rect x="23.783" y="64.622" fill="#A7A9AC" stroke="#A7A9AC" stroke-miterlimit="10" width="2" height="5.113"/>
		<rect x="63.818" y="64.622" fill="#A7A9AC" stroke="#A7A9AC" stroke-miterlimit="10" width="2" height="5.113"/>
		
			<rect x="65.818" y="66.179" fill="#A7A9AC" stroke="#A7A9AC" stroke-width="0.8596" stroke-miterlimit="10" width="3.779" height="2"/>
		
			<rect x="20.004" y="66.179" fill="#A7A9AC" stroke="#A7A9AC" stroke-width="0.8596" stroke-miterlimit="10" width="3.779" height="2"/>
		
			<rect x="27.958" y="64.622" fill="none" stroke="#A7A9AC" stroke-width="1.3703" stroke-miterlimit="10" width="33.686" height="5.113"/>
	</g>
	<g>
		<path fill="#A7A9AC" d="M88.184,1.417v89.271H1.418V1.417H88.184 M89.602,0H0v92.105h89.602V0L89.602,0z"/>
	</g>
</g>
<g id="Layer_4">
</g>
<g id="Layer_3">
</g>
<g id="Layer_5">
</g>
<g id="Annotations">
</g>
</svg>
