<?xml version="1.0" encoding="utf-8"?>
<!-- Generator: Adobe Illustrator 16.0.0, SVG Export Plug-In . SVG Version: 6.00 Build 0)  -->
<!DOCTYPE svg PUBLIC "-//W3C//DTD SVG 1.1//EN" "http://www.w3.org/Graphics/SVG/1.1/DTD/svg11.dtd">
<svg version="1.1" xmlns="http://www.w3.org/2000/svg" xmlns:xlink="http://www.w3.org/1999/xlink" x="0px" y="0px"
	 width="89.603px" height="92.106px" viewBox="0 0 89.603 92.106" enable-background="new 0 0 89.603 92.106" xml:space="preserve">
<g id="Layer_2">
</g>
<g id="Layer_1">
	<g>
		<polyline fill="none" stroke="#A7A9AC" stroke-width="1.4173" stroke-miterlimit="10" points="2.752,13.417 2.752,91.383 
			88.656,91.383 88.656,5.479 57.566,5.479 		"/>
		<g>
			<g>
				<path fill="#939598" d="M-0.177,0.467h0.931l1.609,5.88h0.021l1.74-5.88h0.939l1.73,5.88h0.02l1.641-5.88h0.88l-2.08,7.08h-0.91
					l-1.75-6H4.573l-1.76,6h-0.92L-0.177,0.467z"/>
				<path fill="#939598" d="M9.453,0.467h0.931l1.609,5.88h0.021l1.74-5.88h0.939l1.73,5.88h0.02l1.641-5.88h0.88l-2.08,7.08h-0.91
					l-1.75-6h-0.021l-1.76,6h-0.92L9.453,0.467z"/>
				<path fill="#939598" d="M19.083,0.467h0.931l1.609,5.88h0.021l1.74-5.88h0.939l1.73,5.88h0.02l1.641-5.88h0.88l-2.08,7.08h-0.91
					l-1.75-6h-0.021l-1.76,6h-0.92L19.083,0.467z"/>
				<path fill="#939598" d="M28.713,0.467h0.931l1.609,5.88h0.021l1.74-5.88h0.939l1.73,5.88h0.02l1.641-5.88h0.88l-2.08,7.08h-0.91
					l-1.75-6h-0.021l-1.76,6h-0.92L28.713,0.467z"/>
				<path fill="#939598" d="M38.343,0.467h0.931l1.609,5.88h0.021l1.74-5.88h0.939l1.73,5.88h0.02l1.641-5.88h0.88l-2.08,7.08h-0.91
					l-1.75-6h-0.021l-1.76,6h-0.92L38.343,0.467z"/>
				<path fill="#939598" d="M48.793,0.467h0.84v3h3.78v-3h0.84v7.08h-0.84v-3.3h-3.78v3.3h-0.84V0.467z"/>
			</g>
		</g>
		
			<line fill="none" stroke="#939598" stroke-width="1.4173" stroke-miterlimit="10" x1="45.247" y1="48.686" x2="57.109" y2="28.677"/>
		
			<line fill="none" stroke="#939598" stroke-width="1.4173" stroke-miterlimit="10" x1="45.247" y1="48.686" x2="68.513" y2="48.686"/>
		
			<line fill="none" stroke="#939598" stroke-width="1.4173" stroke-miterlimit="10" x1="45.247" y1="48.686" x2="57.109" y2="68.184"/>
		
			<line fill="none" stroke="#939598" stroke-width="1.4173" stroke-miterlimit="10" x1="45.247" y1="48.686" x2="34.299" y2="68.184"/>
		
			<line fill="none" stroke="#939598" stroke-width="1.4173" stroke-miterlimit="10" x1="45.247" y1="48.686" x2="22.896" y2="48.686"/>
		
			<line fill="none" stroke="#939598" stroke-width="1.4173" stroke-miterlimit="10" x1="45.247" y1="48.686" x2="34.299" y2="28.677"/>
		<g>
			<rect x="54.05" y="16.077" fill="none" width="10.18" height="8.084"/>
			<path fill="#939598" d="M54.384,16.556h0.931l1.609,5.88h0.021l1.74-5.88h0.939l1.73,5.88h0.02l1.641-5.88h0.88l-2.08,7.08h-0.91
				l-1.75-6h-0.021l-1.76,6h-0.92L54.384,16.556z"/>
		</g>
		<g>
			<rect x="24.243" y="73.392" fill="none" width="15.514" height="8.084"/>
			<path fill="#939598" d="M27.244,73.872h0.931l1.609,5.88h0.021l1.74-5.88h0.939l1.73,5.88h0.02l1.641-5.88h0.88l-2.08,7.08h-0.91
				l-1.75-6h-0.021l-1.76,6h-0.92L27.244,73.872z"/>
		</g>
		<g>
			<rect x="70.886" y="44.389" fill="none" width="15.514" height="8.084"/>
			<path fill="#939598" d="M73.887,44.869h0.931l1.609,5.88h0.021l1.74-5.88h0.939l1.73,5.88h0.02l1.641-5.88h0.88l-2.08,7.08h-0.91
				l-1.75-6h-0.021l-1.76,6h-0.92L73.887,44.869z"/>
		</g>
		<g>
			<rect x="51.383" y="73.392" fill="none" width="15.514" height="8.084"/>
			<path fill="#939598" d="M54.384,73.872h0.931l1.609,5.88h0.021l1.74-5.88h0.939l1.73,5.88h0.02l1.641-5.88h0.88l-2.08,7.08h-0.91
				l-1.75-6h-0.021l-1.76,6h-0.92L54.384,73.872z"/>
		</g>
		<g>
			<rect x="4.909" y="44.389" fill="none" width="15.514" height="8.084"/>
			<path fill="#939598" d="M7.91,44.869h0.931l1.609,5.88h0.021l1.74-5.88h0.939l1.73,5.88h0.02l1.641-5.88h0.88l-2.08,7.08h-0.91
				l-1.75-6H12.66l-1.76,6H9.98L7.91,44.869z"/>
		</g>
		<g>
			<rect x="28.077" y="16.077" fill="none" width="7.846" height="8.084"/>
			<path fill="#939598" d="M29.27,16.556h0.84v3h3.78v-3h0.84v7.08h-0.84v-3.3h-3.78v3.3h-0.84V16.556z"/>
		</g>
		<circle fill="#FFFFFF" stroke="#939598" stroke-width="1.4173" stroke-miterlimit="10" cx="57.109" cy="28.677" r="2.334"/>
		<circle fill="#FFFFFF" stroke="#939598" stroke-width="1.4173" stroke-miterlimit="10" cx="34.299" cy="28.677" r="2.334"/>
		<circle fill="#FFFFFF" stroke="#939598" stroke-width="1.4173" stroke-miterlimit="10" cx="22.895" cy="48.686" r="2.334"/>
		<circle fill="#FFFFFF" stroke="#939598" stroke-width="1.4173" stroke-miterlimit="10" cx="34.299" cy="68.184" r="2.334"/>
		<circle fill="#FFFFFF" stroke="#939598" stroke-width="1.4173" stroke-miterlimit="10" cx="57.109" cy="68.184" r="2.334"/>
		<circle fill="#FFFFFF" stroke="#939598" stroke-width="1.4173" stroke-miterlimit="10" cx="68.513" cy="48.686" r="2.334"/>
	</g>
</g>
<g id="Layer_4">
</g>
<g id="Layer_3">
</g>
<g id="Layer_5">
</g>
<g id="Annotations">
</g>
</svg>
