<?xml version="1.0" encoding="utf-8"?>
<!-- Generator: Adobe Illustrator 16.0.0, SVG Export Plug-In . SVG Version: 6.00 Build 0)  -->
<!DOCTYPE svg PUBLIC "-//W3C//DTD SVG 1.1//EN" "http://www.w3.org/Graphics/SVG/1.1/DTD/svg11.dtd">
<svg version="1.1" xmlns="http://www.w3.org/2000/svg" xmlns:xlink="http://www.w3.org/1999/xlink" x="0px" y="0px"
	 width="89.603px" height="92.106px" viewBox="0 0 89.603 92.106" enable-background="new 0 0 89.603 92.106" xml:space="preserve">
<g id="Layer_2">
</g>
<g id="Layer_1">
	<g>
		
			<line fill="none" stroke="#939598" stroke-width="1.4173" stroke-miterlimit="10" x1="44.16" y1="45.962" x2="56.022" y2="25.954"/>
		
			<line fill="none" stroke="#939598" stroke-width="1.4173" stroke-miterlimit="10" x1="44.16" y1="45.962" x2="67.425" y2="45.962"/>
		
			<line fill="none" stroke="#939598" stroke-width="1.4173" stroke-miterlimit="10" x1="44.16" y1="45.962" x2="56.022" y2="65.46"/>
		
			<line fill="none" stroke="#939598" stroke-width="1.4173" stroke-miterlimit="10" x1="44.16" y1="45.962" x2="33.212" y2="65.46"/>
		
			<line fill="none" stroke="#939598" stroke-width="1.4173" stroke-miterlimit="10" x1="44.16" y1="45.962" x2="21.81" y2="45.962"/>
		
			<line fill="none" stroke="#939598" stroke-width="1.4173" stroke-miterlimit="10" x1="44.16" y1="45.962" x2="33.212" y2="25.954"/>
		<g>
			<rect x="52.963" y="13.353" fill="none" width="10.179" height="8.084"/>
			<path fill="#939598" d="M53.297,13.833h0.931l1.609,5.88h0.021l1.74-5.88h0.939l1.73,5.88h0.02l1.641-5.88h0.88l-2.08,7.08h-0.91
				l-1.75-6h-0.021l-1.76,6h-0.92L53.297,13.833z"/>
		</g>
		<g>
			<rect x="23.156" y="70.668" fill="none" width="15.514" height="8.084"/>
			<path fill="#939598" d="M26.157,71.148h0.931l1.609,5.88h0.021l1.74-5.88h0.939l1.73,5.88h0.02l1.641-5.88h0.88l-2.08,7.08h-0.91
				l-1.75-6h-0.021l-1.76,6h-0.92L26.157,71.148z"/>
		</g>
		<g>
			<rect x="69.799" y="41.666" fill="none" width="15.514" height="8.084"/>
			<path fill="#939598" d="M72.8,42.145h0.931l1.609,5.88h0.021l1.74-5.88h0.939l1.73,5.88h0.02l1.641-5.88h0.88l-2.08,7.08h-0.91
				l-1.75-6H77.55l-1.76,6h-0.92L72.8,42.145z"/>
		</g>
		<g>
			<rect x="50.296" y="70.668" fill="none" width="15.514" height="8.084"/>
			<path fill="#939598" d="M53.297,71.148h0.931l1.609,5.88h0.021l1.74-5.88h0.939l1.73,5.88h0.02l1.641-5.88h0.88l-2.08,7.08h-0.91
				l-1.75-6h-0.021l-1.76,6h-0.92L53.297,71.148z"/>
		</g>
		<g>
			<rect x="3.821" y="41.666" fill="none" width="15.515" height="8.084"/>
			<path fill="#939598" d="M6.823,42.145h0.931l1.609,5.88h0.021l1.74-5.88h0.939l1.73,5.88h0.02l1.641-5.88h0.88l-2.08,7.08h-0.91
				l-1.75-6h-0.021l-1.76,6h-0.92L6.823,42.145z"/>
		</g>
		<g>
			<rect x="26.989" y="13.353" fill="none" width="7.847" height="8.084"/>
			<path fill="#939598" d="M28.183,13.833h0.84v3h3.78v-3h0.84v7.08h-0.84v-3.3h-3.78v3.3h-0.84V13.833z"/>
		</g>
		<circle fill="#FFFFFF" stroke="#939598" stroke-width="1.4173" stroke-miterlimit="10" cx="56.022" cy="25.954" r="2.334"/>
		<circle fill="#FFFFFF" stroke="#939598" stroke-width="1.4173" stroke-miterlimit="10" cx="33.212" cy="25.954" r="2.334"/>
		<path fill="#FFFFFF" stroke="#939598" stroke-width="1.4173" stroke-miterlimit="10" d="M24.142,45.962
			c0-1.29-1.046-2.334-2.332-2.334c-1.292,0-2.336,1.044-2.336,2.334c0,1.289,1.044,2.335,2.336,2.335
			C23.096,48.297,24.142,47.251,24.142,45.962z"/>
		<circle fill="#FFFFFF" stroke="#939598" stroke-width="1.4173" stroke-miterlimit="10" cx="33.212" cy="65.46" r="2.334"/>
		<circle fill="#FFFFFF" stroke="#939598" stroke-width="1.4173" stroke-miterlimit="10" cx="56.022" cy="65.46" r="2.334"/>
		<circle fill="#FFFFFF" stroke="#939598" stroke-width="1.4173" stroke-miterlimit="10" cx="67.426" cy="45.962" r="2.335"/>
	</g>
	<g>
		<path fill="#A7A9AC" d="M87.951,1.417v89.271H1.184V1.417H87.951 M89.368,0H-0.234v92.106h89.603V0L89.368,0z"/>
	</g>
</g>
<g id="Layer_4">
</g>
<g id="Layer_3">
</g>
<g id="Layer_5">
</g>
<g id="Annotations">
</g>
</svg>
