<?xml version="1.0" encoding="utf-8"?>
<!-- Generator: Adobe Illustrator 16.0.0, SVG Export Plug-In . SVG Version: 6.00 Build 0)  -->
<!DOCTYPE svg PUBLIC "-//W3C//DTD SVG 1.1//EN" "http://www.w3.org/Graphics/SVG/1.1/DTD/svg11.dtd">
<svg version="1.1" xmlns="http://www.w3.org/2000/svg" xmlns:xlink="http://www.w3.org/1999/xlink" x="0px" y="0px"
	 width="37.799px" height="35.824px" viewBox="0 0 37.799 35.824" enable-background="new 0 0 37.799 35.824" xml:space="preserve">
<g id="Layer_2">
</g>
<g id="Layer_1">
	<g>
		<g>
			<g>
				<g>
					<path opacity="0.3" fill="#E6E7E8" d="M11.525,35.751c-1.787,0-3.509-0.408-5.118-1.213c-2.736-1.369-4.777-3.722-5.744-6.626
						c-0.968-2.904-0.746-6.011,0.623-8.748c1.955-3.908,5.885-6.336,10.257-6.336c1.786,0,3.508,0.408,5.118,1.213
						c2.736,1.369,4.777,3.722,5.744,6.626c0.968,2.904,0.746,6.011-0.623,8.749C19.827,33.324,15.896,35.751,11.525,35.751z"/>
					<path fill="#E6E7E8" d="M11.543,12.755v0.146c1.774,0,3.485,0.406,5.085,1.206c2.72,1.36,4.747,3.698,5.708,6.584
						c0.961,2.885,0.742,5.973-0.619,8.692c-1.942,3.883-5.848,6.294-10.191,6.294c-1.775,0-3.486-0.405-5.085-1.206
						c-2.72-1.36-4.747-3.698-5.708-6.583c-0.961-2.886-0.742-5.973,0.619-8.692c1.941-3.883,5.848-6.295,10.191-6.296V12.755
						 M11.543,12.755c-4.229,0-8.301,2.336-10.322,6.376c-2.85,5.695-0.541,12.623,5.154,15.472c1.656,0.829,3.416,1.221,5.15,1.221
						c4.229,0,8.301-2.336,10.322-6.375c2.85-5.696,0.541-12.624-5.154-15.473C15.037,13.147,13.276,12.755,11.543,12.755
						L11.543,12.755z"/>
				</g>
			</g>
		</g>
		<g>
			<g>
				<path opacity="0.3" fill="#09A1B2" d="M26.256,35.751c-1.787,0-3.509-0.408-5.118-1.213c-2.736-1.369-4.777-3.722-5.744-6.626
					c-0.968-2.904-0.746-6.011,0.623-8.748c1.955-3.908,5.885-6.336,10.257-6.336c1.786,0,3.508,0.408,5.118,1.213
					c2.736,1.369,4.777,3.722,5.744,6.626c0.968,2.904,0.746,6.011-0.623,8.749C34.558,33.324,30.627,35.751,26.256,35.751z"/>
				<path fill="#09A1B2" d="M26.273,12.755v0.146c1.775,0,3.486,0.406,5.085,1.206c2.72,1.36,4.747,3.698,5.708,6.584
					c0.961,2.885,0.742,5.973-0.619,8.692c-1.942,3.883-5.848,6.294-10.191,6.294c-1.775,0-3.486-0.405-5.085-1.206
					c-2.72-1.36-4.747-3.698-5.708-6.583c-0.961-2.886-0.742-5.973,0.619-8.692c1.941-3.883,5.848-6.295,10.191-6.296V12.755
					 M26.273,12.755c-4.229,0-8.301,2.336-10.322,6.376c-2.85,5.695-0.541,12.623,5.154,15.472c1.656,0.829,3.416,1.221,5.15,1.221
					c4.229,0,8.301-2.336,10.322-6.375c2.85-5.696,0.541-12.624-5.154-15.473C29.768,13.147,28.008,12.755,26.273,12.755
					L26.273,12.755z"/>
			</g>
		</g>
		<g>
			<path opacity="0.3" fill="#ED2088" d="M18.888,22.991c-6.047,0-11.066-4.732-11.426-10.774C7.084,5.91,11.907,0.472,18.213,0.094
				c0.233-0.014,0.465-0.021,0.694-0.021c6.048,0,11.068,4.733,11.43,10.775c0.184,3.055-0.835,5.999-2.865,8.288
				c-2.031,2.29-4.833,3.651-7.888,3.834C19.351,22.984,19.118,22.991,18.888,22.991z"/>
			<path fill="#ED2088" d="M18.908,0.146L18.908,0.146c6.008,0,10.996,4.703,11.355,10.707c0.183,3.036-0.828,5.96-2.848,8.235
				c-2.018,2.275-4.801,3.628-7.837,3.809c-0.231,0.014-0.463,0.021-0.691,0.021c-6.009,0-10.995-4.703-11.353-10.706
				C7.159,5.946,11.951,0.542,18.218,0.167C18.449,0.153,18.68,0.146,18.908,0.146 M18.908,0c-0.232,0-0.465,0.007-0.699,0.021
				c-6.357,0.381-11.201,5.843-10.82,12.2c0.365,6.124,5.445,10.843,11.499,10.843c0.231,0,0.466-0.007,0.7-0.021
				c6.357-0.38,11.203-5.842,10.822-12.199C30.043,4.721,24.963,0,18.908,0L18.908,0z"/>
		</g>
	</g>
</g>
<g id="Layer_4">
</g>
<g id="Layer_3">
</g>
<g id="Layer_5">
</g>
<g id="Annotations">
</g>
</svg>
