<?xml version="1.0" encoding="utf-8"?>
<!-- Generator: Adobe Illustrator 16.0.0, SVG Export Plug-In . SVG Version: 6.00 Build 0)  -->
<!DOCTYPE svg PUBLIC "-//W3C//DTD SVG 1.1//EN" "http://www.w3.org/Graphics/SVG/1.1/DTD/svg11.dtd">
<svg version="1.1" xmlns="http://www.w3.org/2000/svg" xmlns:xlink="http://www.w3.org/1999/xlink" x="0px" y="0px"
	 width="37.799px" height="35.824px" viewBox="0 0 37.799 35.824" enable-background="new 0 0 37.799 35.824" xml:space="preserve">
<g id="Layer_2">
</g>
<g id="Layer_1">
	<g>
		<g>
			<g>
				<g>
					<path opacity="0.3" fill="#E6E7E8" d="M26.256,35.751c-1.786,0-3.508-0.408-5.118-1.213c-2.736-1.369-4.777-3.722-5.744-6.626
						c-0.968-2.904-0.746-6.011,0.623-8.748c1.955-3.908,5.886-6.336,10.259-6.336c1.786,0,3.508,0.408,5.117,1.213
						c5.649,2.828,7.946,9.726,5.12,15.375C34.559,33.324,30.628,35.751,26.256,35.751z"/>
					<path fill="#E6E7E8" d="M26.276,12.901L26.276,12.901c1.774,0,3.484,0.405,5.083,1.205c5.613,2.81,7.896,9.664,5.088,15.277
						c-1.941,3.883-5.847,6.294-10.191,6.294c-1.775,0-3.486-0.405-5.085-1.206c-2.72-1.36-4.747-3.698-5.708-6.583
						c-0.961-2.886-0.742-5.973,0.619-8.692C18.024,15.313,21.931,12.901,26.276,12.901 M26.275,12.755
						c-4.229,0-8.303,2.336-10.324,6.376c-2.85,5.695-0.541,12.623,5.154,15.472c1.656,0.829,3.416,1.221,5.15,1.221
						c4.229,0,8.302-2.336,10.322-6.375c2.85-5.696,0.541-12.623-5.153-15.474C29.77,13.147,28.01,12.755,26.275,12.755
						L26.275,12.755z"/>
				</g>
			</g>
		</g>
		<g>
			<path opacity="0.3" fill="#ED2088" d="M18.888,22.991c-6.045,0-11.064-4.732-11.426-10.774C7.085,5.91,11.909,0.472,18.215,0.094
				c0.233-0.014,0.465-0.021,0.694-0.021c6.047,0,11.067,4.732,11.429,10.774c0.184,3.055-0.835,5.999-2.866,8.289
				c-2.031,2.29-4.833,3.652-7.888,3.834C19.351,22.984,19.118,22.991,18.888,22.991z"/>
			<path fill="#ED2088" d="M18.91,0v0.146c6.008,0,10.996,4.703,11.355,10.706c0.182,3.036-0.83,5.96-2.849,8.236
				s-4.802,3.628-7.838,3.81c-0.231,0.014-0.463,0.021-0.691,0.021c-6.007,0-10.993-4.703-11.353-10.706
				C7.16,5.946,11.953,0.542,18.22,0.167c0.231-0.014,0.462-0.021,0.69-0.021V0 M18.91,0c-0.232,0-0.465,0.007-0.699,0.021
				c-6.359,0.381-11.202,5.843-10.822,12.2c0.367,6.124,5.445,10.843,11.499,10.843c0.231,0,0.466-0.007,0.7-0.021
				c6.357-0.38,11.204-5.843,10.823-12.2C30.045,4.72,24.965,0,18.91,0L18.91,0z"/>
		</g>
		<g>
			<g>
				<g>
					<path opacity="0.3" fill="#FFE30C" d="M11.526,35.751c-1.787,0-3.509-0.408-5.118-1.213c-2.737-1.369-4.777-3.722-5.745-6.626
						s-0.746-6.011,0.623-8.748c1.955-3.908,5.886-6.336,10.259-6.336c1.785,0,3.507,0.408,5.116,1.213
						c5.65,2.827,7.948,9.725,5.122,15.375C19.828,33.324,15.897,35.751,11.526,35.751z"/>
					<path fill="#FFE30C" d="M11.545,12.901L11.545,12.901c1.774,0,3.484,0.405,5.083,1.205c5.614,2.809,7.897,9.663,5.09,15.277
						c-1.942,3.883-5.848,6.294-10.192,6.294c-1.774,0-3.484-0.405-5.084-1.206c-2.721-1.36-4.748-3.698-5.709-6.583
						c-0.961-2.886-0.742-5.972,0.619-8.692C3.294,15.313,7.2,12.901,11.545,12.901 M11.545,12.755
						c-4.23,0-8.303,2.336-10.324,6.376c-2.85,5.695-0.541,12.623,5.155,15.472c1.656,0.829,3.416,1.221,5.149,1.221
						c4.229,0,8.303-2.336,10.323-6.375c2.849-5.696,0.542-12.623-5.155-15.474C15.037,13.147,13.278,12.755,11.545,12.755
						L11.545,12.755z"/>
				</g>
			</g>
		</g>
	</g>
</g>
<g id="Layer_4">
</g>
<g id="Layer_3">
</g>
<g id="Layer_5">
</g>
<g id="Annotations">
</g>
</svg>
