<?xml version="1.0" encoding="utf-8"?>
<!-- Generator: Adobe Illustrator 16.0.0, SVG Export Plug-In . SVG Version: 6.00 Build 0)  -->
<!DOCTYPE svg PUBLIC "-//W3C//DTD SVG 1.1//EN" "http://www.w3.org/Graphics/SVG/1.1/DTD/svg11.dtd">
<svg version="1.1" xmlns="http://www.w3.org/2000/svg" xmlns:xlink="http://www.w3.org/1999/xlink" x="0px" y="0px"
	 width="37.799px" height="35.824px" viewBox="0 0 37.799 35.824" enable-background="new 0 0 37.799 35.824" xml:space="preserve">
<g id="Layer_2">
</g>
<g id="Layer_1">
	<g>
		<g>
			<path opacity="0.3" fill="#ED2088" d="M18.889,22.991c-6.046,0-11.065-4.732-11.427-10.774c-0.184-3.055,0.834-5.999,2.865-8.289
				c2.03-2.29,4.832-3.651,7.887-3.834c0.233-0.014,0.465-0.021,0.695-0.021c6.049,0,11.068,4.732,11.427,10.774
				c0.184,3.055-0.834,5.999-2.865,8.289c-2.03,2.29-4.831,3.652-7.887,3.834C19.352,22.984,19.119,22.991,18.889,22.991z"/>
			<path fill="#ED2088" d="M18.909,0v0.146c6.01,0,10.997,4.703,11.354,10.706c0.182,3.036-0.83,5.961-2.848,8.236
				c-2.018,2.275-4.801,3.628-7.836,3.81c-0.231,0.014-0.463,0.021-0.691,0.021c-6.008,0-10.994-4.703-11.354-10.706
				c-0.182-3.036,0.829-5.96,2.847-8.235c2.018-2.275,4.801-3.628,7.838-3.81c0.23-0.014,0.461-0.021,0.69-0.021V0 M18.908,0
				c-0.23,0-0.464,0.007-0.698,0.021c-6.358,0.381-11.202,5.843-10.821,12.2c0.367,6.124,5.445,10.843,11.5,10.843
				c0.23,0,0.466-0.007,0.7-0.021c6.356-0.38,11.201-5.843,10.82-12.2C30.045,4.72,24.964,0,18.908,0L18.908,0z"/>
		</g>
		<g>
			<g>
				<path opacity="0.3" fill="#09A1B2" d="M26.256,35.751c-1.787,0-3.509-0.408-5.118-1.213c-2.737-1.369-4.777-3.722-5.745-6.626
					c-0.967-2.904-0.745-6.01,0.624-8.748c1.955-3.908,5.886-6.336,10.259-6.336c1.786,0,3.507,0.408,5.116,1.213
					c5.649,2.828,7.946,9.725,5.12,15.375C34.558,33.324,30.628,35.751,26.256,35.751z"/>
				<path fill="#09A1B2" d="M26.276,12.901L26.276,12.901c1.773,0,3.483,0.405,5.082,1.205c5.614,2.81,7.896,9.663,5.088,15.277
					c-1.941,3.883-5.846,6.294-10.19,6.294c-1.775,0-3.486-0.405-5.085-1.206c-2.72-1.36-4.747-3.698-5.709-6.583
					c-0.962-2.886-0.741-5.972,0.62-8.692C18.024,15.313,21.931,12.901,26.276,12.901 M26.275,12.755
					c-4.229,0-8.303,2.336-10.324,6.376c-2.85,5.695-0.542,12.623,5.154,15.472c1.656,0.829,3.416,1.221,5.15,1.221
					c4.229,0,8.302-2.336,10.321-6.375c2.85-5.696,0.542-12.623-5.153-15.474C29.768,13.147,28.009,12.755,26.275,12.755
					L26.275,12.755z"/>
			</g>
		</g>
		<g>
			<g>
				<g>
					<path opacity="0.3" fill="#FFE30C" d="M11.525,35.751c-1.786,0-3.508-0.408-5.118-1.213c-2.736-1.369-4.777-3.722-5.744-6.626
						c-0.968-2.904-0.747-6.011,0.624-8.748c1.954-3.908,5.885-6.336,10.257-6.336c1.786,0,3.507,0.408,5.116,1.213
						c5.651,2.828,7.949,9.725,5.122,15.375C19.827,33.324,15.897,35.751,11.525,35.751z"/>
					<path fill="#FFE30C" d="M11.545,12.901L11.545,12.901c1.773,0,3.483,0.405,5.082,1.205c5.615,2.81,7.898,9.663,5.09,15.277
						c-1.942,3.883-5.848,6.294-10.191,6.294c-1.775,0-3.486-0.405-5.085-1.206c-2.72-1.36-4.747-3.698-5.708-6.583
						c-0.961-2.886-0.741-5.973,0.62-8.692C3.294,15.313,7.199,12.901,11.545,12.901 M11.544,12.755
						c-4.229,0-8.302,2.336-10.322,6.376c-2.851,5.695-0.542,12.623,5.153,15.472c1.656,0.829,3.416,1.221,5.15,1.221
						c4.229,0,8.301-2.336,10.322-6.375c2.85-5.696,0.542-12.623-5.155-15.474C15.037,13.147,13.277,12.755,11.544,12.755
						L11.544,12.755z"/>
				</g>
			</g>
		</g>
	</g>
</g>
<g id="Layer_4">
</g>
<g id="Layer_3">
</g>
<g id="Layer_5">
</g>
<g id="Annotations">
</g>
</svg>
