<?xml version="1.0" encoding="utf-8"?>
<!-- Generator: Adobe Illustrator 16.0.0, SVG Export Plug-In . SVG Version: 6.00 Build 0)  -->
<!DOCTYPE svg PUBLIC "-//W3C//DTD SVG 1.1//EN" "http://www.w3.org/Graphics/SVG/1.1/DTD/svg11.dtd">
<svg version="1.1" xmlns="http://www.w3.org/2000/svg" xmlns:xlink="http://www.w3.org/1999/xlink" x="0px" y="0px"
	 width="37.799px" height="35.824px" viewBox="0 0 37.799 35.824" enable-background="new 0 0 37.799 35.824" xml:space="preserve">
<g id="Layer_2">
</g>
<g id="Layer_1">
	<g>
		<g>
			<path opacity="0.3" fill="#E6E7E8" d="M18.89,22.991c-6.047,0-11.066-4.733-11.428-10.775C7.085,5.91,11.909,0.472,18.215,0.094
				c0.233-0.014,0.466-0.021,0.696-0.021c6.046,0,11.065,4.732,11.427,10.774c0.184,3.055-0.835,5.999-2.866,8.289
				c-2.031,2.29-4.833,3.652-7.888,3.834C19.351,22.984,19.119,22.991,18.89,22.991z"/>
			<g>
				<path fill="#E6E7E8" d="M18.912,0v0.146c6.007,0,10.994,4.703,11.354,10.706c0.182,3.036-0.83,5.96-2.849,8.236
					s-4.802,3.628-7.838,3.81c-0.231,0.014-0.462,0.021-0.69,0.021c-6.007,0-10.994-4.703-11.354-10.707
					C7.16,5.945,11.953,0.542,18.22,0.167c0.231-0.014,0.463-0.021,0.691-0.021L18.912,0 M18.911,0c-0.231,0-0.466,0.007-0.7,0.021
					C11.852,0.402,7.009,5.863,7.389,12.22c0.367,6.125,5.447,10.844,11.5,10.844c0.232,0,0.465-0.007,0.699-0.021
					c6.357-0.38,11.204-5.843,10.823-12.2C30.045,4.72,24.965,0,18.911,0L18.911,0z"/>
			</g>
		</g>
		<g>
			<g>
				<g>
					<path opacity="0.3" fill="#E6E7E8" d="M11.525,35.75c-1.786,0-3.508-0.408-5.117-1.213c-2.737-1.37-4.777-3.723-5.745-6.626
						s-0.746-6.011,0.623-8.748c1.955-3.908,5.886-6.336,10.258-6.336c1.786,0,3.508,0.408,5.117,1.213
						c5.65,2.826,7.948,9.723,5.122,15.375C19.828,33.323,15.897,35.75,11.525,35.75z"/>
					<path fill="#E6E7E8" d="M11.545,12.754V12.9c1.773,0,3.484,0.405,5.083,1.206c5.614,2.808,7.897,9.661,5.09,15.276
						c-1.942,3.883-5.849,6.295-10.192,6.295c-1.775,0-3.485-0.406-5.084-1.206c-2.721-1.36-4.748-3.699-5.709-6.584
						c-0.961-2.885-0.742-5.973,0.619-8.692C3.294,15.313,7.199,12.9,11.543,12.9L11.545,12.754 M11.543,12.754
						c-4.229,0-8.301,2.336-10.322,6.376c-2.85,5.696-0.541,12.623,5.155,15.473c1.655,0.829,3.415,1.221,5.149,1.221
						c4.229,0,8.303-2.336,10.323-6.376c2.849-5.696,0.542-12.623-5.155-15.473C15.037,13.146,13.277,12.754,11.543,12.754
						L11.543,12.754z"/>
				</g>
			</g>
		</g>
		<g>
			<g>
				<path opacity="0.3" fill="#09A1B2" d="M26.255,35.75c-1.786,0-3.508-0.408-5.117-1.213c-5.65-2.827-7.948-9.724-5.121-15.375
					c1.955-3.908,5.886-6.336,10.258-6.336c1.787,0,3.509,0.408,5.118,1.213c5.649,2.827,7.946,9.725,5.12,15.375
					C34.559,33.323,30.628,35.75,26.255,35.75z"/>
				<path fill="#09A1B2" d="M26.275,12.754V12.9c1.774,0,3.484,0.405,5.084,1.206c5.614,2.809,7.896,9.662,5.088,15.276
					c-1.941,3.883-5.848,6.295-10.191,6.295c-1.775,0-3.486-0.406-5.085-1.206c-5.614-2.809-7.897-9.662-5.089-15.276
					c1.942-3.883,5.848-6.295,10.193-6.295V12.754 M26.275,12.754c-4.23,0-8.303,2.336-10.324,6.376
					c-2.85,5.696-0.541,12.623,5.154,15.473c1.656,0.829,3.416,1.221,5.15,1.221c4.229,0,8.302-2.336,10.322-6.376
					c2.85-5.696,0.541-12.623-5.153-15.473C29.769,13.146,28.009,12.754,26.275,12.754L26.275,12.754z"/>
			</g>
		</g>
	</g>
</g>
<g id="Layer_4">
</g>
<g id="Layer_3">
</g>
<g id="Layer_5">
</g>
<g id="Annotations">
</g>
</svg>
