<?xml version="1.0" encoding="utf-8"?>
<!-- Generator: Adobe Illustrator 16.0.0, SVG Export Plug-In . SVG Version: 6.00 Build 0)  -->
<!DOCTYPE svg PUBLIC "-//W3C//DTD SVG 1.1//EN" "http://www.w3.org/Graphics/SVG/1.1/DTD/svg11.dtd">
<svg version="1.1" xmlns="http://www.w3.org/2000/svg" xmlns:xlink="http://www.w3.org/1999/xlink" x="0px" y="0px" width="105px"
	 height="110.117px" viewBox="0 0 105 110.117" enable-background="new 0 0 105 110.117" xml:space="preserve">
<g id="Layer_2">
</g>
<g id="Layer_1">
	<g>
		<g>
			<rect x="36.669" y="39.468" fill="#D3D3D3" width="11.25" height="8.763"/>
			<rect x="53.994" y="48.231" fill="#D3D3D3" width="10.592" height="8.763"/>
			<rect x="74.699" y="39.468" fill="#D3D3D3" width="7.373" height="8.763"/>
			<rect x="36.998" y="65.756" fill="#D3D3D3" width="16.996" height="8.763"/>
			<rect x="47.919" y="56.994" fill="#D3D3D3" width="22.499" height="8.763"/>
			<path fill="none" stroke="#939598" stroke-width="1.4173" stroke-miterlimit="10" d="M81.994,73.101
				c0,0.783-0.635,1.418-1.418,1.418H27.412c-0.783,0-1.418-0.635-1.418-1.418V40.886c0-0.783,0.635-1.418,1.418-1.418h53.164
				c0.783,0,1.418,0.635,1.418,1.418V73.101z"/>
			
				<line fill="none" stroke="#939598" stroke-width="1.4173" stroke-miterlimit="10" x1="25.994" y1="65.756" x2="81.994" y2="65.756"/>
			
				<line fill="none" stroke="#939598" stroke-width="1.4173" stroke-miterlimit="10" x1="25.994" y1="48.231" x2="81.994" y2="48.231"/>
			
				<line fill="none" stroke="#939598" stroke-width="1.4173" stroke-miterlimit="10" x1="25.994" y1="56.994" x2="81.994" y2="56.994"/>
			
				<line fill="none" stroke="#939598" stroke-width="1.4173" stroke-miterlimit="10" x1="36.669" y1="39.468" x2="36.669" y2="48.231"/>
			
				<line fill="none" stroke="#939598" stroke-width="1.4173" stroke-miterlimit="10" x1="74.699" y1="39.468" x2="74.699" y2="48.231"/>
			
				<line fill="none" stroke="#939598" stroke-width="1.4173" stroke-miterlimit="10" x1="47.919" y1="39.468" x2="47.919" y2="48.231"/>
			
				<line fill="none" stroke="#939598" stroke-width="1.4173" stroke-miterlimit="10" x1="53.994" y1="48.231" x2="53.994" y2="56.994"/>
			
				<line fill="none" stroke="#939598" stroke-width="1.4173" stroke-miterlimit="10" x1="53.994" y1="65.756" x2="53.994" y2="74.519"/>
			
				<line fill="none" stroke="#939598" stroke-width="1.4173" stroke-miterlimit="10" x1="64.586" y1="65.756" x2="64.586" y2="74.519"/>
			
				<line fill="none" stroke="#939598" stroke-width="1.4173" stroke-miterlimit="10" x1="74.699" y1="65.756" x2="74.699" y2="74.519"/>
			
				<line fill="none" stroke="#939598" stroke-width="1.4173" stroke-miterlimit="10" x1="64.586" y1="48.231" x2="64.586" y2="56.994"/>
			
				<line fill="none" stroke="#939598" stroke-width="1.4173" stroke-miterlimit="10" x1="70.419" y1="56.994" x2="70.419" y2="65.756"/>
			
				<line fill="none" stroke="#939598" stroke-width="1.4173" stroke-miterlimit="10" x1="47.919" y1="56.994" x2="47.919" y2="65.756"/>
			
				<line fill="none" stroke="#939598" stroke-width="1.4173" stroke-miterlimit="10" x1="36.669" y1="56.994" x2="36.669" y2="65.756"/>
			
				<line fill="none" stroke="#939598" stroke-width="1.4173" stroke-miterlimit="10" x1="36.669" y1="65.756" x2="36.669" y2="74.519"/>
			
				<line fill="none" stroke="#939598" stroke-width="1.4173" stroke-miterlimit="10" x1="43.419" y1="48.231" x2="43.419" y2="56.994"/>
		</g>
		<g>
			<circle fill="#A7A9AC" cx="71.575" cy="90.768" r="6.617"/>
			<g>
				
					<line fill="none" stroke="#FFFFFF" stroke-width="0.5315" stroke-linecap="round" stroke-miterlimit="10" x1="72.543" y1="93.362" x2="70.418" y2="94.112"/>
				
					<line fill="none" stroke="#FFFFFF" stroke-width="0.5315" stroke-linecap="round" stroke-miterlimit="10" x1="72.543" y1="94.112" x2="70.418" y2="94.862"/>
				
					<line fill="none" stroke="#FFFFFF" stroke-width="0.5315" stroke-linecap="round" stroke-miterlimit="10" x1="72.543" y1="94.862" x2="70.418" y2="95.612"/>
				<path fill="none" stroke="#FFFFFF" stroke-width="0.5315" stroke-linecap="round" stroke-miterlimit="10" d="M70.387,92.549
					c0-0.625-0.907-1.182-0.907-1.182c-0.632-0.572-1.03-1.398-1.03-2.318c0-1.727,1.399-3.125,3.126-3.125
					c1.726,0,3.124,1.398,3.124,3.125c0,0.92-0.396,1.746-1.029,2.318c0,0-0.908,0.557-0.908,1.182"/>
			</g>
		</g>
		<polyline fill="none" stroke="#A7A9AC" stroke-width="1.4173" stroke-miterlimit="10" points="11.042,21.435 11.042,99.946 
			96.946,99.946 96.946,14.042 62.064,14.042 		"/>
		<g>
			<g>
				<path fill="#939598" d="M12.294,10.277c-0.141-0.227-0.327-0.392-0.561-0.495s-0.477-0.155-0.729-0.155
					c-0.187,0-0.37,0.023-0.55,0.07c-0.181,0.047-0.342,0.117-0.485,0.21c-0.144,0.094-0.259,0.217-0.345,0.37
					c-0.087,0.153-0.13,0.334-0.13,0.54c0,0.16,0.024,0.302,0.074,0.425c0.051,0.124,0.132,0.235,0.245,0.335
					c0.113,0.101,0.267,0.193,0.46,0.28s0.431,0.174,0.71,0.26c0.273,0.087,0.539,0.181,0.795,0.28
					c0.257,0.1,0.483,0.227,0.681,0.38c0.196,0.153,0.353,0.345,0.47,0.575c0.116,0.229,0.175,0.519,0.175,0.865
					c0,0.354-0.069,0.659-0.21,0.92c-0.14,0.26-0.325,0.475-0.555,0.645c-0.23,0.17-0.495,0.297-0.795,0.38
					c-0.3,0.084-0.61,0.125-0.931,0.125c-0.206,0-0.413-0.019-0.619-0.055c-0.207-0.037-0.405-0.094-0.596-0.17
					c-0.189-0.076-0.368-0.177-0.535-0.3c-0.166-0.124-0.31-0.275-0.43-0.455l0.72-0.59c0.153,0.26,0.367,0.456,0.641,0.59
					c0.273,0.133,0.563,0.2,0.87,0.2c0.18,0,0.361-0.027,0.545-0.08c0.183-0.054,0.348-0.132,0.495-0.235
					c0.146-0.104,0.267-0.231,0.359-0.385c0.094-0.153,0.141-0.33,0.141-0.53c0-0.22-0.037-0.398-0.11-0.535
					s-0.187-0.255-0.34-0.354c-0.153-0.101-0.347-0.19-0.58-0.271s-0.507-0.173-0.82-0.279c-0.253-0.08-0.486-0.172-0.7-0.275
					c-0.213-0.104-0.398-0.23-0.555-0.38c-0.156-0.15-0.28-0.33-0.37-0.54s-0.135-0.462-0.135-0.755c0-0.34,0.066-0.637,0.2-0.891
					c0.133-0.253,0.313-0.465,0.54-0.635s0.483-0.298,0.77-0.385c0.287-0.087,0.587-0.13,0.9-0.13c0.399,0,0.765,0.062,1.095,0.185
					c0.33,0.124,0.625,0.339,0.885,0.646L12.294,10.277z"/>
				<path fill="#939598" d="M16.913,12.088h-1.38v2.34c0,0.153,0.003,0.295,0.01,0.425s0.033,0.243,0.08,0.34s0.117,0.174,0.21,0.23
					c0.094,0.057,0.227,0.085,0.4,0.085c0.113,0,0.229-0.014,0.35-0.04c0.12-0.027,0.233-0.067,0.34-0.12l0.03,0.71
					c-0.133,0.06-0.281,0.104-0.445,0.13c-0.163,0.026-0.318,0.04-0.465,0.04c-0.279,0-0.503-0.037-0.67-0.11
					c-0.166-0.073-0.297-0.177-0.39-0.31c-0.094-0.134-0.155-0.299-0.186-0.495c-0.029-0.196-0.045-0.415-0.045-0.655v-2.569h-1.02
					v-0.66h1.02v-1.33h0.78v1.33h1.38V12.088z"/>
				<path fill="#939598" d="M17.603,13.768c0-0.367,0.063-0.7,0.19-1c0.126-0.3,0.3-0.559,0.52-0.775
					c0.221-0.217,0.483-0.385,0.79-0.505s0.641-0.18,1-0.18c0.36,0,0.693,0.06,1,0.18s0.57,0.288,0.79,0.505
					c0.221,0.217,0.394,0.476,0.521,0.775c0.126,0.3,0.189,0.633,0.189,1c0,0.366-0.063,0.7-0.189,1
					c-0.127,0.3-0.3,0.559-0.521,0.774c-0.22,0.217-0.483,0.386-0.79,0.506c-0.307,0.119-0.64,0.18-1,0.18
					c-0.359,0-0.693-0.061-1-0.18c-0.307-0.12-0.569-0.289-0.79-0.506c-0.22-0.216-0.394-0.475-0.52-0.774
					C17.666,14.468,17.603,14.134,17.603,13.768z M18.442,13.768c0,0.246,0.039,0.475,0.115,0.685
					c0.077,0.21,0.188,0.394,0.335,0.55c0.146,0.157,0.322,0.28,0.525,0.37c0.203,0.091,0.432,0.136,0.685,0.136
					c0.254,0,0.481-0.045,0.686-0.136c0.203-0.09,0.378-0.213,0.524-0.37c0.146-0.156,0.259-0.34,0.335-0.55
					c0.077-0.21,0.115-0.438,0.115-0.685c0-0.247-0.038-0.476-0.115-0.686c-0.076-0.21-0.188-0.393-0.335-0.55
					c-0.146-0.156-0.321-0.28-0.524-0.37c-0.204-0.09-0.432-0.135-0.686-0.135c-0.253,0-0.481,0.045-0.685,0.135
					s-0.379,0.214-0.525,0.37c-0.146,0.157-0.258,0.34-0.335,0.55C18.481,13.292,18.442,13.521,18.442,13.768z"/>
				<path fill="#939598" d="M23.813,12.537c0-0.213-0.007-0.413-0.021-0.6c-0.013-0.187-0.02-0.356-0.02-0.51h0.74
					c0,0.126,0.003,0.253,0.01,0.38s0.01,0.257,0.01,0.39h0.021c0.053-0.113,0.128-0.223,0.225-0.33
					c0.097-0.106,0.212-0.201,0.345-0.285c0.134-0.083,0.283-0.149,0.45-0.199c0.167-0.051,0.347-0.075,0.54-0.075
					c0.054,0,0.106,0.003,0.16,0.01c0.053,0.007,0.106,0.021,0.16,0.04l-0.051,0.79c-0.133-0.04-0.273-0.06-0.42-0.06
					c-0.479,0-0.828,0.154-1.045,0.465c-0.217,0.31-0.325,0.734-0.325,1.274v2.28h-0.779V12.537z"/>
				<path fill="#939598" d="M29.053,17.178c-0.08,0.199-0.162,0.381-0.245,0.545c-0.083,0.163-0.184,0.303-0.3,0.42
					c-0.117,0.116-0.257,0.206-0.42,0.27s-0.362,0.096-0.595,0.096c-0.114,0-0.232-0.007-0.355-0.021s-0.238-0.047-0.345-0.1
					l0.1-0.681c0.08,0.033,0.163,0.056,0.25,0.065s0.187,0.015,0.3,0.015c0.254,0,0.44-0.069,0.561-0.21
					c0.12-0.14,0.223-0.326,0.31-0.56l0.32-0.88l-1.94-4.71h0.91l1.45,3.67h0.021l1.39-3.67h0.85L29.053,17.178z"/>
				<path fill="#939598" d="M32.113,8.548h0.78v3.56h0.02c0.213-0.253,0.462-0.45,0.745-0.59c0.283-0.141,0.595-0.21,0.935-0.21
					c0.367,0,0.702,0.062,1.005,0.185c0.304,0.124,0.562,0.295,0.775,0.516c0.213,0.22,0.38,0.479,0.5,0.779
					c0.12,0.301,0.18,0.627,0.18,0.98s-0.06,0.68-0.18,0.979c-0.12,0.301-0.285,0.561-0.495,0.78s-0.458,0.392-0.745,0.515
					c-0.286,0.124-0.593,0.186-0.92,0.186c-0.42,0-0.788-0.092-1.104-0.275c-0.317-0.183-0.549-0.408-0.695-0.675h-0.02v0.83h-0.78
					V8.548z M32.894,13.768c0,0.246,0.038,0.475,0.114,0.685c0.077,0.21,0.188,0.394,0.335,0.55c0.146,0.157,0.322,0.28,0.525,0.37
					c0.203,0.091,0.432,0.136,0.685,0.136c0.254,0,0.481-0.045,0.686-0.136c0.203-0.09,0.378-0.213,0.524-0.37
					c0.146-0.156,0.259-0.34,0.335-0.55c0.077-0.21,0.115-0.438,0.115-0.685c0-0.247-0.038-0.476-0.115-0.686
					c-0.076-0.21-0.188-0.393-0.335-0.55c-0.146-0.156-0.321-0.28-0.524-0.37c-0.204-0.09-0.432-0.135-0.686-0.135
					c-0.253,0-0.481,0.045-0.685,0.135s-0.379,0.214-0.525,0.37c-0.146,0.157-0.258,0.34-0.335,0.55
					C32.932,13.292,32.894,13.521,32.894,13.768z"/>
				<path fill="#939598" d="M37.993,13.768c0-0.367,0.063-0.7,0.19-1c0.126-0.3,0.3-0.559,0.52-0.775
					c0.221-0.217,0.483-0.385,0.79-0.505s0.641-0.18,1-0.18c0.36,0,0.693,0.06,1,0.18s0.57,0.288,0.79,0.505
					c0.221,0.217,0.394,0.476,0.521,0.775c0.126,0.3,0.189,0.633,0.189,1c0,0.366-0.063,0.7-0.189,1
					c-0.127,0.3-0.3,0.559-0.521,0.774c-0.22,0.217-0.483,0.386-0.79,0.506c-0.307,0.119-0.64,0.18-1,0.18
					c-0.359,0-0.693-0.061-1-0.18c-0.307-0.12-0.569-0.289-0.79-0.506c-0.22-0.216-0.394-0.475-0.52-0.774
					C38.057,14.468,37.993,14.134,37.993,13.768z M38.833,13.768c0,0.246,0.039,0.475,0.115,0.685
					c0.077,0.21,0.188,0.394,0.335,0.55c0.146,0.157,0.322,0.28,0.525,0.37c0.203,0.091,0.432,0.136,0.685,0.136
					c0.254,0,0.481-0.045,0.686-0.136c0.203-0.09,0.378-0.213,0.524-0.37c0.146-0.156,0.259-0.34,0.335-0.55
					c0.077-0.21,0.115-0.438,0.115-0.685c0-0.247-0.038-0.476-0.115-0.686c-0.076-0.21-0.188-0.393-0.335-0.55
					c-0.146-0.156-0.321-0.28-0.524-0.37c-0.204-0.09-0.432-0.135-0.686-0.135c-0.253,0-0.481,0.045-0.685,0.135
					s-0.379,0.214-0.525,0.37c-0.146,0.157-0.258,0.34-0.335,0.55C38.872,13.292,38.833,13.521,38.833,13.768z"/>
				<path fill="#939598" d="M44.144,12.027c0.24-0.246,0.525-0.428,0.855-0.545c0.33-0.116,0.665-0.175,1.005-0.175
					c0.693,0,1.193,0.163,1.5,0.49c0.307,0.326,0.46,0.823,0.46,1.489v2.011c0,0.133,0.007,0.271,0.02,0.415
					c0.014,0.143,0.03,0.274,0.051,0.395h-0.75c-0.027-0.106-0.042-0.225-0.045-0.355c-0.004-0.13-0.006-0.244-0.006-0.345h-0.02
					c-0.153,0.24-0.358,0.437-0.615,0.59s-0.564,0.23-0.925,0.23c-0.24,0-0.465-0.03-0.675-0.09c-0.21-0.061-0.394-0.148-0.55-0.266
					c-0.157-0.116-0.282-0.261-0.375-0.435c-0.094-0.174-0.141-0.373-0.141-0.6c0-0.387,0.101-0.69,0.3-0.91
					c0.2-0.221,0.449-0.384,0.745-0.49c0.297-0.106,0.617-0.174,0.96-0.2c0.344-0.026,0.658-0.04,0.945-0.04h0.3v-0.14
					c0-0.34-0.102-0.597-0.305-0.771c-0.203-0.173-0.488-0.26-0.855-0.26c-0.253,0-0.501,0.042-0.744,0.125
					c-0.244,0.084-0.459,0.212-0.646,0.385L44.144,12.027z M46.404,13.857c-0.5,0-0.897,0.07-1.19,0.21s-0.44,0.37-0.44,0.69
					c0,0.293,0.099,0.501,0.296,0.625c0.196,0.123,0.441,0.185,0.734,0.185c0.227,0,0.425-0.038,0.595-0.115
					c0.171-0.076,0.312-0.178,0.426-0.305c0.113-0.127,0.199-0.275,0.26-0.445c0.06-0.17,0.093-0.352,0.1-0.545v-0.3H46.404z"/>
				<path fill="#939598" d="M49.395,12.537c0-0.213-0.007-0.413-0.021-0.6c-0.013-0.187-0.02-0.356-0.02-0.51h0.74
					c0,0.126,0.003,0.253,0.01,0.38s0.01,0.257,0.01,0.39h0.021c0.053-0.113,0.128-0.223,0.225-0.33
					c0.097-0.106,0.212-0.201,0.345-0.285c0.134-0.083,0.283-0.149,0.45-0.199c0.167-0.051,0.347-0.075,0.54-0.075
					c0.054,0,0.106,0.003,0.16,0.01c0.053,0.007,0.106,0.021,0.16,0.04l-0.051,0.79c-0.133-0.04-0.273-0.06-0.42-0.06
					c-0.479,0-0.828,0.154-1.045,0.465c-0.217,0.31-0.325,0.734-0.325,1.274v2.28h-0.779V12.537z"/>
				<path fill="#939598" d="M56.624,15.277h-0.02c-0.147,0.267-0.379,0.492-0.695,0.675c-0.316,0.184-0.685,0.275-1.105,0.275
					c-0.326,0-0.633-0.062-0.92-0.186c-0.286-0.123-0.534-0.295-0.745-0.515c-0.21-0.22-0.375-0.479-0.494-0.78
					c-0.12-0.3-0.181-0.626-0.181-0.979s0.061-0.68,0.181-0.98c0.119-0.3,0.286-0.56,0.5-0.779c0.213-0.221,0.471-0.392,0.774-0.516
					c0.304-0.123,0.639-0.185,1.005-0.185c0.34,0,0.652,0.069,0.936,0.21c0.283,0.14,0.531,0.337,0.745,0.59h0.02v-3.56h0.78v7.56
					h-0.78V15.277z M56.624,13.768c0-0.247-0.038-0.476-0.115-0.686c-0.076-0.21-0.188-0.393-0.335-0.55
					c-0.146-0.156-0.321-0.28-0.524-0.37c-0.204-0.09-0.432-0.135-0.686-0.135c-0.253,0-0.481,0.045-0.685,0.135
					s-0.379,0.214-0.525,0.37c-0.146,0.157-0.258,0.34-0.335,0.55c-0.076,0.21-0.115,0.438-0.115,0.686
					c0,0.246,0.039,0.475,0.115,0.685c0.077,0.21,0.188,0.394,0.335,0.55c0.146,0.157,0.322,0.28,0.525,0.37
					c0.203,0.091,0.432,0.136,0.685,0.136c0.254,0,0.481-0.045,0.686-0.136c0.203-0.09,0.378-0.213,0.524-0.37
					c0.146-0.156,0.259-0.34,0.335-0.55C56.586,14.242,56.624,14.014,56.624,13.768z"/>
			</g>
		</g>
		<g>
			<circle fill="#A7A9AC" cx="87.808" cy="90.768" r="6.616"/>
			
				<polyline fill="none" stroke="#FFFFFF" stroke-width="1.3526" stroke-linecap="round" stroke-linejoin="round" stroke-miterlimit="10" points="
				85.938,87.858 90.422,90.746 85.867,93.679 			"/>
		</g>
	</g>
</g>
<g id="Layer_4">
</g>
<g id="Layer_3">
</g>
<g id="Layer_5">
</g>
<g id="Annotations">
</g>
</svg>
