<?xml version="1.0" encoding="utf-8"?>
<!-- Generator: Adobe Illustrator 16.0.0, SVG Export Plug-In . SVG Version: 6.00 Build 0)  -->
<!DOCTYPE svg PUBLIC "-//W3C//DTD SVG 1.1//EN" "http://www.w3.org/Graphics/SVG/1.1/DTD/svg11.dtd">
<svg version="1.1" xmlns="http://www.w3.org/2000/svg" xmlns:xlink="http://www.w3.org/1999/xlink" x="0px" y="0px" width="105px"
	 height="110.117px" viewBox="0 0 105 110.117" enable-background="new 0 0 105 110.117" xml:space="preserve">
<g id="Layer_2">
</g>
<g id="Layer_1">
	<g>
		<polyline fill="none" stroke="#A7A9AC" stroke-width="1.4173" stroke-miterlimit="10" points="11.042,21.066 11.042,99.577 
			96.946,99.577 96.946,13.673 80.729,13.673 		"/>
		<g>
			<g>
				<path fill="#939598" d="M8.934,8.66h2.101c0.326,0,0.638,0.033,0.935,0.096s0.56,0.17,0.79,0.32c0.229,0.15,0.413,0.35,0.55,0.6
					s0.205,0.559,0.205,0.926c0,0.387-0.073,0.705-0.22,0.959s-0.335,0.453-0.565,0.6c-0.229,0.146-0.481,0.25-0.755,0.311
					s-0.533,0.09-0.78,0.09h-1.42v3.18h-0.84V8.66z M9.773,11.781h1.42c0.42,0,0.762-0.096,1.025-0.285s0.395-0.486,0.395-0.885
					c0-0.4-0.131-0.695-0.395-0.885c-0.264-0.191-0.605-0.285-1.025-0.285h-1.42V11.781z"/>
				<path fill="#939598" d="M18.903,14.891c-0.28,0.359-0.587,0.611-0.92,0.756c-0.333,0.143-0.72,0.215-1.16,0.215
					c-0.366,0-0.696-0.066-0.99-0.195c-0.293-0.131-0.541-0.305-0.744-0.525c-0.204-0.221-0.36-0.48-0.471-0.779
					c-0.109-0.301-0.165-0.621-0.165-0.961c0-0.359,0.061-0.691,0.181-0.994c0.119-0.305,0.286-0.564,0.5-0.781
					c0.213-0.217,0.466-0.385,0.76-0.504c0.293-0.121,0.613-0.18,0.96-0.18c0.326,0,0.626,0.055,0.899,0.164s0.509,0.27,0.705,0.48
					c0.197,0.209,0.349,0.467,0.455,0.77s0.16,0.648,0.16,1.035v0.25h-3.78c0.014,0.199,0.062,0.393,0.146,0.574
					c0.083,0.184,0.191,0.344,0.325,0.48c0.133,0.137,0.29,0.246,0.47,0.326s0.377,0.119,0.59,0.119c0.34,0,0.627-0.061,0.86-0.18
					c0.233-0.121,0.443-0.297,0.63-0.529L18.903,14.891z M18.233,12.98c-0.014-0.4-0.144-0.721-0.39-0.959
					c-0.247-0.24-0.587-0.361-1.021-0.361s-0.783,0.121-1.05,0.361c-0.267,0.238-0.427,0.559-0.48,0.959H18.233z"/>
				<path fill="#939598" d="M20.283,12.17c0-0.213-0.007-0.412-0.021-0.6c-0.013-0.186-0.02-0.355-0.02-0.51h0.74
					c0,0.127,0.003,0.254,0.01,0.381s0.01,0.256,0.01,0.389h0.021c0.053-0.113,0.128-0.223,0.225-0.33
					c0.097-0.105,0.212-0.201,0.345-0.285c0.134-0.082,0.283-0.148,0.45-0.199s0.347-0.074,0.54-0.074
					c0.054,0,0.106,0.002,0.16,0.01c0.053,0.006,0.106,0.02,0.16,0.039l-0.051,0.791c-0.133-0.041-0.273-0.061-0.42-0.061
					c-0.479,0-0.828,0.154-1.045,0.465s-0.325,0.734-0.325,1.275v2.279h-0.779V12.17z"/>
				<path fill="#939598" d="M26.953,12.23c-0.167-0.199-0.347-0.346-0.54-0.436s-0.407-0.135-0.641-0.135
					c-0.26,0-0.489,0.045-0.689,0.135s-0.365,0.215-0.495,0.375s-0.229,0.346-0.295,0.557c-0.066,0.209-0.101,0.434-0.101,0.674
					s0.039,0.465,0.115,0.676c0.077,0.209,0.184,0.395,0.32,0.555s0.302,0.285,0.495,0.375s0.41,0.135,0.649,0.135
					c0.514,0,0.91-0.193,1.19-0.58l0.58,0.551c-0.227,0.26-0.493,0.449-0.8,0.57c-0.307,0.119-0.63,0.18-0.971,0.18
					c-0.359,0-0.689-0.061-0.989-0.18c-0.301-0.121-0.556-0.291-0.766-0.512c-0.21-0.219-0.373-0.479-0.49-0.779
					c-0.116-0.301-0.175-0.631-0.175-0.99c0-0.354,0.059-0.68,0.175-0.98c0.117-0.299,0.282-0.559,0.495-0.779
					c0.214-0.221,0.469-0.391,0.766-0.516c0.296-0.123,0.625-0.184,0.984-0.184c0.347,0,0.676,0.059,0.985,0.18
					c0.31,0.119,0.582,0.307,0.815,0.561L26.953,12.23z"/>
				<path fill="#939598" d="M32.623,14.891c-0.28,0.359-0.587,0.611-0.92,0.756c-0.333,0.143-0.72,0.215-1.16,0.215
					c-0.366,0-0.696-0.066-0.99-0.195c-0.293-0.131-0.541-0.305-0.744-0.525c-0.204-0.221-0.36-0.48-0.471-0.779
					c-0.109-0.301-0.165-0.621-0.165-0.961c0-0.359,0.061-0.691,0.181-0.994c0.119-0.305,0.286-0.564,0.5-0.781
					c0.213-0.217,0.466-0.385,0.76-0.504c0.293-0.121,0.613-0.18,0.96-0.18c0.326,0,0.626,0.055,0.899,0.164s0.509,0.27,0.705,0.48
					c0.197,0.209,0.349,0.467,0.455,0.77s0.16,0.648,0.16,1.035v0.25h-3.78c0.014,0.199,0.062,0.393,0.146,0.574
					c0.083,0.184,0.191,0.344,0.325,0.48c0.133,0.137,0.29,0.246,0.47,0.326s0.377,0.119,0.59,0.119c0.34,0,0.627-0.061,0.86-0.18
					c0.233-0.121,0.443-0.297,0.63-0.529L32.623,14.891z M31.953,12.98c-0.014-0.4-0.144-0.721-0.39-0.959
					c-0.247-0.24-0.587-0.361-1.021-0.361s-0.783,0.121-1.05,0.361c-0.267,0.238-0.427,0.559-0.48,0.959H31.953z"/>
				<path fill="#939598" d="M33.963,11.061h0.78v0.68h0.02c0.213-0.252,0.462-0.449,0.745-0.59s0.595-0.209,0.935-0.209
					c0.367,0,0.702,0.061,1.005,0.184c0.304,0.125,0.562,0.295,0.775,0.516c0.213,0.221,0.38,0.48,0.5,0.779
					c0.12,0.301,0.18,0.627,0.18,0.98s-0.06,0.68-0.18,0.98s-0.285,0.561-0.495,0.779c-0.21,0.221-0.458,0.393-0.745,0.516
					c-0.286,0.123-0.593,0.186-0.92,0.186c-0.42,0-0.788-0.092-1.104-0.275c-0.317-0.184-0.549-0.408-0.695-0.676h-0.02v3.111h-0.78
					V11.061z M34.743,13.4c0,0.246,0.038,0.475,0.114,0.686c0.077,0.209,0.188,0.393,0.335,0.549
					c0.146,0.158,0.322,0.281,0.525,0.371s0.432,0.135,0.685,0.135c0.254,0,0.481-0.045,0.686-0.135
					c0.203-0.09,0.378-0.213,0.524-0.371c0.146-0.156,0.259-0.34,0.335-0.549c0.077-0.211,0.115-0.439,0.115-0.686
					s-0.038-0.475-0.115-0.686c-0.076-0.209-0.188-0.393-0.335-0.549s-0.321-0.281-0.524-0.371c-0.204-0.09-0.432-0.135-0.686-0.135
					c-0.253,0-0.481,0.045-0.685,0.135s-0.379,0.215-0.525,0.371s-0.258,0.34-0.335,0.549C34.781,12.926,34.743,13.154,34.743,13.4z
					"/>
				<path fill="#939598" d="M42.673,11.721h-1.38v2.34c0,0.154,0.003,0.295,0.01,0.426c0.007,0.129,0.033,0.242,0.08,0.34
					c0.047,0.096,0.117,0.174,0.21,0.23c0.094,0.057,0.227,0.084,0.4,0.084c0.113,0,0.229-0.014,0.35-0.039
					c0.12-0.027,0.233-0.068,0.34-0.121l0.03,0.711c-0.133,0.059-0.281,0.104-0.445,0.129c-0.163,0.027-0.318,0.041-0.465,0.041
					c-0.279,0-0.503-0.037-0.67-0.111c-0.166-0.072-0.297-0.176-0.39-0.309c-0.094-0.135-0.155-0.299-0.186-0.496
					c-0.029-0.195-0.045-0.414-0.045-0.654v-2.57h-1.02v-0.66h1.02V9.73h0.78v1.33h1.38V11.721z"/>
				<path fill="#939598" d="M47.713,14.631c0,0.213,0.006,0.414,0.02,0.6c0.014,0.188,0.021,0.357,0.021,0.51h-0.74
					c0-0.127-0.004-0.252-0.01-0.379c-0.007-0.127-0.011-0.258-0.011-0.391h-0.02c-0.054,0.113-0.129,0.223-0.225,0.33
					c-0.098,0.107-0.212,0.201-0.346,0.285c-0.133,0.084-0.283,0.15-0.45,0.199c-0.166,0.051-0.347,0.076-0.54,0.076
					c-0.307,0-0.571-0.047-0.795-0.141c-0.223-0.094-0.408-0.223-0.555-0.391c-0.146-0.166-0.255-0.367-0.325-0.604
					c-0.069-0.238-0.104-0.496-0.104-0.775v-2.891h0.779v2.811c0,0.393,0.087,0.703,0.261,0.93c0.173,0.227,0.443,0.34,0.81,0.34
					c0.254,0,0.472-0.043,0.655-0.131c0.184-0.086,0.333-0.209,0.45-0.369c0.116-0.16,0.203-0.35,0.26-0.57
					c0.057-0.219,0.085-0.463,0.085-0.73v-2.279h0.78V14.631z"/>
				<path fill="#939598" d="M49.132,11.66c0.24-0.246,0.525-0.428,0.855-0.545c0.33-0.115,0.665-0.174,1.005-0.174
					c0.693,0,1.193,0.162,1.5,0.49c0.307,0.326,0.46,0.822,0.46,1.488v2.012c0,0.133,0.007,0.271,0.02,0.414
					c0.014,0.143,0.03,0.275,0.051,0.395h-0.75c-0.027-0.105-0.042-0.225-0.045-0.355c-0.004-0.129-0.006-0.244-0.006-0.344h-0.02
					c-0.153,0.24-0.358,0.436-0.615,0.59c-0.257,0.152-0.564,0.23-0.925,0.23c-0.24,0-0.465-0.031-0.675-0.09
					c-0.21-0.061-0.394-0.148-0.55-0.266c-0.157-0.117-0.282-0.262-0.375-0.436c-0.094-0.174-0.141-0.373-0.141-0.6
					c0-0.387,0.101-0.689,0.3-0.91c0.2-0.221,0.449-0.383,0.745-0.49c0.297-0.105,0.617-0.174,0.96-0.199
					c0.344-0.027,0.658-0.041,0.945-0.041h0.3v-0.139c0-0.34-0.102-0.598-0.305-0.771c-0.203-0.172-0.488-0.26-0.855-0.26
					c-0.253,0-0.501,0.043-0.744,0.125c-0.244,0.084-0.459,0.213-0.646,0.385L49.132,11.66z M51.393,13.49
					c-0.5,0-0.897,0.07-1.19,0.211c-0.293,0.139-0.44,0.369-0.44,0.689c0,0.293,0.099,0.502,0.296,0.625
					c0.196,0.123,0.441,0.186,0.734,0.186c0.227,0,0.425-0.039,0.595-0.115c0.171-0.076,0.312-0.178,0.426-0.305
					c0.113-0.127,0.199-0.275,0.26-0.445c0.06-0.17,0.093-0.352,0.1-0.545V13.49H51.393z"/>
				<path fill="#939598" d="M54.452,8.182h0.78v7.559h-0.78V8.182z"/>
				<path fill="#939598" d="M59.562,12.17c0-0.213-0.007-0.412-0.021-0.6c-0.013-0.186-0.02-0.355-0.02-0.51h0.74
					c0,0.127,0.003,0.254,0.01,0.381s0.01,0.256,0.01,0.389h0.021c0.053-0.113,0.128-0.223,0.225-0.33
					c0.097-0.105,0.212-0.201,0.345-0.285c0.134-0.082,0.283-0.148,0.45-0.199s0.347-0.074,0.54-0.074
					c0.253,0,0.465,0.031,0.635,0.094c0.17,0.064,0.312,0.141,0.425,0.23s0.202,0.188,0.266,0.291
					c0.063,0.102,0.115,0.193,0.154,0.273c0.174-0.279,0.374-0.498,0.601-0.654s0.52-0.234,0.88-0.234
					c0.333,0,0.613,0.045,0.84,0.135s0.41,0.219,0.55,0.389c0.141,0.17,0.24,0.377,0.301,0.621c0.06,0.244,0.09,0.516,0.09,0.814
					v2.84h-0.78v-2.799c0-0.16-0.017-0.316-0.05-0.471c-0.033-0.152-0.094-0.289-0.181-0.41c-0.086-0.119-0.203-0.217-0.35-0.289
					c-0.146-0.074-0.333-0.111-0.56-0.111c-0.167,0-0.324,0.033-0.471,0.1c-0.146,0.068-0.274,0.16-0.385,0.281
					c-0.11,0.119-0.196,0.266-0.26,0.436s-0.095,0.357-0.095,0.564v2.699h-0.78v-2.65c0-0.52-0.07-0.887-0.21-1.104
					c-0.141-0.217-0.37-0.326-0.69-0.326c-0.253,0-0.472,0.045-0.654,0.131c-0.184,0.086-0.334,0.209-0.45,0.369
					c-0.117,0.16-0.204,0.35-0.26,0.57c-0.058,0.221-0.086,0.463-0.086,0.73v2.279h-0.779V12.17z"/>
				<path fill="#939598" d="M68.021,11.66c0.24-0.246,0.525-0.428,0.855-0.545c0.33-0.115,0.665-0.174,1.005-0.174
					c0.693,0,1.193,0.162,1.5,0.49c0.307,0.326,0.46,0.822,0.46,1.488v2.012c0,0.133,0.007,0.271,0.02,0.414
					c0.014,0.143,0.03,0.275,0.051,0.395h-0.75c-0.027-0.105-0.042-0.225-0.045-0.355c-0.004-0.129-0.006-0.244-0.006-0.344h-0.02
					c-0.153,0.24-0.358,0.436-0.615,0.59c-0.257,0.152-0.564,0.23-0.925,0.23c-0.24,0-0.465-0.031-0.675-0.09
					c-0.21-0.061-0.394-0.148-0.55-0.266c-0.157-0.117-0.282-0.262-0.375-0.436c-0.094-0.174-0.141-0.373-0.141-0.6
					c0-0.387,0.101-0.689,0.3-0.91c0.2-0.221,0.449-0.383,0.745-0.49c0.297-0.105,0.617-0.174,0.96-0.199
					c0.344-0.027,0.658-0.041,0.945-0.041h0.3v-0.139c0-0.34-0.102-0.598-0.305-0.771c-0.203-0.172-0.488-0.26-0.855-0.26
					c-0.253,0-0.501,0.043-0.744,0.125c-0.244,0.084-0.459,0.213-0.646,0.385L68.021,11.66z M70.282,13.49
					c-0.5,0-0.897,0.07-1.19,0.211c-0.293,0.139-0.44,0.369-0.44,0.689c0,0.293,0.099,0.502,0.296,0.625
					c0.196,0.123,0.441,0.186,0.734,0.186c0.227,0,0.425-0.039,0.595-0.115c0.171-0.076,0.312-0.178,0.426-0.305
					c0.113-0.127,0.199-0.275,0.26-0.445c0.06-0.17,0.093-0.352,0.1-0.545V13.49H70.282z"/>
				<path fill="#939598" d="M73.232,11.061h0.78v0.68h0.02c0.213-0.252,0.462-0.449,0.745-0.59s0.595-0.209,0.935-0.209
					c0.367,0,0.702,0.061,1.005,0.184c0.304,0.125,0.562,0.295,0.775,0.516c0.213,0.221,0.38,0.48,0.5,0.779
					c0.12,0.301,0.18,0.627,0.18,0.98s-0.06,0.68-0.18,0.98s-0.285,0.561-0.495,0.779c-0.21,0.221-0.458,0.393-0.745,0.516
					c-0.286,0.123-0.593,0.186-0.92,0.186c-0.42,0-0.788-0.092-1.104-0.275c-0.317-0.184-0.549-0.408-0.695-0.676h-0.02v3.111h-0.78
					V11.061z M74.013,13.4c0,0.246,0.038,0.475,0.114,0.686c0.077,0.209,0.188,0.393,0.335,0.549
					c0.146,0.158,0.322,0.281,0.525,0.371s0.432,0.135,0.685,0.135c0.254,0,0.481-0.045,0.686-0.135
					c0.203-0.09,0.378-0.213,0.524-0.371c0.146-0.156,0.259-0.34,0.335-0.549c0.077-0.211,0.115-0.439,0.115-0.686
					s-0.038-0.475-0.115-0.686c-0.076-0.209-0.188-0.393-0.335-0.549s-0.321-0.281-0.524-0.371c-0.204-0.09-0.432-0.135-0.686-0.135
					c-0.253,0-0.481,0.045-0.685,0.135s-0.379,0.215-0.525,0.371s-0.258,0.34-0.335,0.549C74.051,12.926,74.013,13.154,74.013,13.4z
					"/>
			</g>
		</g>
		<g>
			<circle fill="#A7A9AC" cx="87.808" cy="90.398" r="6.616"/>
			
				<polyline fill="none" stroke="#FFFFFF" stroke-width="1.3526" stroke-linecap="round" stroke-linejoin="round" stroke-miterlimit="10" points="
				89.678,93.309 85.193,90.42 89.748,87.486 			"/>
		</g>
		<g>
			<g>
				
					<line fill="none" stroke="#A7A9AC" stroke-width="1.5687" stroke-miterlimit="10" x1="53.994" y1="78.839" x2="53.994" y2="34.411"/>
				<g>
					<polygon fill="#A7A9AC" points="55.817,77.596 53.994,84.398 52.171,77.596 					"/>
				</g>
				<g>
					<polygon fill="#A7A9AC" points="55.817,35.654 53.994,28.852 52.171,35.654 					"/>
				</g>
			</g>
		</g>
		<g>
			<g>
				
					<line fill="none" stroke="#A7A9AC" stroke-width="1.4173" stroke-miterlimit="10" x1="27.144" y1="56.625" x2="80.845" y2="56.625"/>
				<g>
					<polygon fill="#A7A9AC" points="28.267,58.272 22.121,56.625 28.267,54.978 					"/>
				</g>
				<g>
					<polygon fill="#A7A9AC" points="79.722,58.272 85.867,56.625 79.722,54.978 					"/>
				</g>
			</g>
		</g>
		<path fill="none" stroke="#A7A9AC" stroke-width="1.4173" stroke-miterlimit="10" stroke-dasharray="2.8347" d="M76.665,33.954"/>
		<circle fill="#FFFFFF" stroke="#939598" stroke-width="1.4173" stroke-miterlimit="10" cx="64.06" cy="71.656" r="2.75"/>
		<circle fill="#FFFFFF" stroke="#D3D3D3" stroke-width="1.4173" stroke-miterlimit="10" cx="48.074" cy="42.911" r="2.75"/>
		<polygon fill="#FFFFFF" stroke="#939598" stroke-width="1.4173" stroke-miterlimit="10" points="36.81,54.725 35.439,52.352 
			36.81,49.979 39.55,49.979 40.92,52.352 39.55,54.725 		"/>
		<polygon fill="#FFFFFF" stroke="#D3D3D3" stroke-width="1.4173" stroke-miterlimit="10" points="70.226,44.261 68.855,41.888 
			70.226,39.515 72.966,39.515 74.336,41.888 72.966,44.261 		"/>
		
			<rect x="64.06" y="53.879" fill="#FFFFFF" stroke="#D3D3D3" stroke-width="1.4173" stroke-miterlimit="10" width="5.5" height="5.5"/>
		
			<rect x="40.92" y="66.156" fill="#FFFFFF" stroke="#939598" stroke-width="1.4173" stroke-miterlimit="10" width="5.5" height="5.5"/>
	</g>
</g>
<g id="Layer_4">
</g>
<g id="Layer_3">
</g>
<g id="Layer_5">
</g>
<g id="Annotations">
</g>
</svg>
