<?xml version="1.0" encoding="utf-8"?>
<!-- Generator: Adobe Illustrator 16.0.0, SVG Export Plug-In . SVG Version: 6.00 Build 0)  -->
<!DOCTYPE svg PUBLIC "-//W3C//DTD SVG 1.1//EN" "http://www.w3.org/Graphics/SVG/1.1/DTD/svg11.dtd">
<svg version="1.1" xmlns="http://www.w3.org/2000/svg" xmlns:xlink="http://www.w3.org/1999/xlink" x="0px" y="0px" width="105px"
	 height="110.117px" viewBox="0 0 105 110.117" enable-background="new 0 0 105 110.117" xml:space="preserve">
<g id="Layer_2">
</g>
<g id="Layer_1">
	<g>
		<g>
			
				<rect x="46.171" y="31.019" transform="matrix(-0.7071 0.7071 -0.7071 -0.7071 120.7944 28.604)" fill="#D1D3D4" width="16.605" height="16.601"/>
			<g>
				<path fill="#D1D3D4" d="M75.382,50.49l9.734,9.735l-9.736,9.736l-9.734-9.735L75.382,50.49 M75.382,48.486l-11.74,11.74
					l11.738,11.74l11.741-11.741L75.382,48.486L75.382,48.486z"/>
			</g>
			<polygon fill="#D1D3D4" points="30.741,52.11 39.37,54.422 41.683,63.051 35.366,69.367 26.737,67.055 24.425,58.427 			"/>
			<g>
				<path fill="#D1D3D4" d="M52.073,74.599l7.048,1.889l1.888,7.048l-5.159,5.159l-7.047-1.889l-1.889-7.048L52.073,74.599
					 M51.649,73.018l-6.316,6.316l2.312,8.629l8.628,2.312l6.316-6.316l-2.312-8.629L51.649,73.018L51.649,73.018z"/>
			</g>
			<g>
				<g>
					
						<line fill="none" stroke="#A7A9AC" stroke-width="1.6582" stroke-miterlimit="10" x1="60.41" y1="45.12" x2="66.541" y2="51.251"/>
					<g>
						<polygon fill="#A7A9AC" points="64.379,51.077 66.368,51.077 66.367,49.089 67.211,49.934 67.211,51.921 65.224,51.921 						
							"/>
					</g>
				</g>
			</g>
			<g>
				<g>
					
						<line fill="none" stroke="#A7A9AC" stroke-width="1.6582" stroke-miterlimit="10" x1="69.511" y1="66.097" x2="63.38" y2="72.228"/>
					<g>
						<polygon fill="#A7A9AC" points="63.554,70.065 63.554,72.054 65.542,72.054 64.698,72.897 62.71,72.897 62.71,70.91 						"/>
					</g>
				</g>
			</g>
			<g>
				<g>
					
						<line fill="none" stroke="#A7A9AC" stroke-width="1.6582" stroke-miterlimit="10" x1="48.13" y1="76.537" x2="41.999" y2="70.407"/>
					<g>
						<polygon fill="#A7A9AC" points="44.161,70.581 42.173,70.58 42.173,72.569 41.329,71.725 41.329,69.737 43.317,69.737 						
							"/>
					</g>
				</g>
			</g>
		</g>
		<polyline fill="none" stroke="#A7A9AC" stroke-width="1.4173" stroke-miterlimit="10" points="11.042,42.496 11.042,100.068 
			96.946,100.068 96.946,14.164 58.359,14.164 		"/>
		<g>
			<g>
				<path fill="#939598" d="M10.995,9.032h0.79l3.011,7.08h-0.98l-0.72-1.74h-3.54l-0.73,1.74h-0.95L10.995,9.032z M11.375,10.112
					h-0.02l-1.47,3.48h2.89L11.375,10.112z"/>
				<path fill="#939598" d="M15.596,12.542c0-0.213-0.007-0.413-0.021-0.6c-0.013-0.187-0.02-0.356-0.02-0.51h0.74
					c0,0.126,0.003,0.253,0.01,0.38s0.01,0.257,0.01,0.39h0.021c0.053-0.113,0.128-0.223,0.225-0.33
					c0.097-0.106,0.212-0.201,0.345-0.285c0.134-0.083,0.283-0.149,0.45-0.199c0.167-0.051,0.347-0.075,0.54-0.075
					c0.307,0,0.571,0.047,0.795,0.14c0.224,0.094,0.408,0.224,0.555,0.391c0.146,0.166,0.255,0.368,0.325,0.604
					s0.105,0.495,0.105,0.775v2.89h-0.78v-2.81c0-0.394-0.087-0.704-0.26-0.931c-0.174-0.227-0.443-0.34-0.811-0.34
					c-0.253,0-0.472,0.044-0.654,0.13c-0.184,0.087-0.334,0.21-0.45,0.37c-0.117,0.16-0.204,0.35-0.26,0.57
					c-0.058,0.22-0.086,0.463-0.086,0.729v2.28h-0.779V12.542z"/>
				<path fill="#939598" d="M21.095,12.032c0.24-0.246,0.525-0.428,0.855-0.545c0.33-0.116,0.665-0.175,1.005-0.175
					c0.693,0,1.193,0.163,1.5,0.49c0.307,0.326,0.46,0.823,0.46,1.489v2.011c0,0.133,0.007,0.271,0.02,0.415
					c0.014,0.143,0.03,0.274,0.051,0.395h-0.75c-0.027-0.106-0.042-0.225-0.045-0.355c-0.004-0.13-0.006-0.244-0.006-0.345h-0.02
					c-0.153,0.24-0.358,0.437-0.615,0.59s-0.564,0.23-0.925,0.23c-0.24,0-0.465-0.03-0.675-0.09c-0.21-0.061-0.394-0.148-0.55-0.266
					c-0.157-0.116-0.282-0.261-0.375-0.435c-0.094-0.174-0.141-0.373-0.141-0.6c0-0.387,0.101-0.69,0.3-0.91
					c0.2-0.221,0.449-0.384,0.745-0.49c0.297-0.106,0.617-0.174,0.96-0.2c0.344-0.026,0.658-0.04,0.945-0.04h0.3v-0.14
					c0-0.34-0.102-0.597-0.305-0.771c-0.203-0.173-0.488-0.26-0.855-0.26c-0.253,0-0.501,0.042-0.744,0.125
					c-0.244,0.084-0.459,0.212-0.646,0.385L21.095,12.032z M23.355,13.862c-0.5,0-0.897,0.07-1.19,0.21s-0.44,0.37-0.44,0.69
					c0,0.293,0.099,0.501,0.296,0.625c0.196,0.123,0.441,0.185,0.734,0.185c0.227,0,0.425-0.038,0.595-0.115
					c0.171-0.076,0.312-0.178,0.426-0.305c0.113-0.127,0.199-0.275,0.26-0.445c0.06-0.17,0.093-0.352,0.1-0.545v-0.3H23.355z"/>
				<path fill="#939598" d="M26.415,8.553h0.78v7.56h-0.78V8.553z"/>
				<path fill="#939598" d="M28.475,13.772c0-0.367,0.063-0.7,0.19-1c0.126-0.3,0.3-0.559,0.52-0.775
					c0.221-0.217,0.483-0.385,0.79-0.505s0.641-0.18,1-0.18c0.36,0,0.693,0.06,1,0.18s0.57,0.288,0.79,0.505
					c0.221,0.217,0.394,0.476,0.521,0.775c0.126,0.3,0.189,0.633,0.189,1c0,0.366-0.063,0.7-0.189,1
					c-0.127,0.3-0.3,0.559-0.521,0.774c-0.22,0.217-0.483,0.386-0.79,0.506c-0.307,0.119-0.64,0.18-1,0.18
					c-0.359,0-0.693-0.061-1-0.18c-0.307-0.12-0.569-0.289-0.79-0.506c-0.22-0.216-0.394-0.475-0.52-0.774
					C28.538,14.473,28.475,14.139,28.475,13.772z M29.314,13.772c0,0.246,0.039,0.475,0.115,0.685
					c0.077,0.21,0.188,0.394,0.335,0.55c0.146,0.157,0.322,0.28,0.525,0.37c0.203,0.091,0.432,0.136,0.685,0.136
					c0.254,0,0.481-0.045,0.686-0.136c0.203-0.09,0.378-0.213,0.524-0.37c0.146-0.156,0.259-0.34,0.335-0.55
					c0.077-0.21,0.115-0.438,0.115-0.685c0-0.247-0.038-0.476-0.115-0.686c-0.076-0.21-0.188-0.393-0.335-0.55
					c-0.146-0.156-0.321-0.28-0.524-0.37c-0.204-0.09-0.432-0.135-0.686-0.135c-0.253,0-0.481,0.045-0.685,0.135
					s-0.379,0.214-0.525,0.37c-0.146,0.157-0.258,0.34-0.335,0.55C29.354,13.297,29.314,13.525,29.314,13.772z"/>
				<path fill="#939598" d="M39.354,15.902c0,0.854-0.219,1.502-0.655,1.945s-1.068,0.665-1.895,0.665
					c-0.46,0-0.875-0.067-1.245-0.2c-0.37-0.134-0.722-0.363-1.056-0.69l0.561-0.64c0.246,0.267,0.508,0.468,0.785,0.604
					c0.276,0.137,0.595,0.205,0.955,0.205c0.347,0,0.635-0.052,0.864-0.154c0.23-0.104,0.412-0.244,0.545-0.42
					c0.134-0.177,0.227-0.379,0.28-0.605s0.08-0.464,0.08-0.71v-0.6h-0.02c-0.188,0.3-0.431,0.52-0.73,0.659
					c-0.3,0.141-0.606,0.21-0.92,0.21c-0.366,0-0.703-0.06-1.01-0.18s-0.57-0.286-0.79-0.5c-0.22-0.213-0.391-0.467-0.51-0.76
					c-0.12-0.293-0.181-0.613-0.181-0.96c0-0.38,0.061-0.724,0.181-1.03c0.119-0.307,0.288-0.564,0.505-0.774
					c0.216-0.211,0.478-0.372,0.785-0.485c0.306-0.113,0.646-0.17,1.02-0.17c0.16,0,0.32,0.019,0.48,0.055
					c0.159,0.037,0.314,0.094,0.465,0.17c0.149,0.077,0.285,0.174,0.404,0.29c0.12,0.117,0.221,0.252,0.301,0.405h0.02v-0.8h0.78
					V15.902z M35.254,13.772c0,0.24,0.044,0.462,0.131,0.665c0.086,0.203,0.204,0.38,0.354,0.53c0.15,0.149,0.325,0.268,0.525,0.354
					c0.199,0.087,0.413,0.13,0.64,0.13c0.267,0,0.503-0.047,0.71-0.14c0.207-0.094,0.382-0.219,0.525-0.375
					c0.143-0.157,0.251-0.337,0.324-0.54c0.074-0.203,0.11-0.418,0.11-0.646c0-0.253-0.04-0.484-0.12-0.694s-0.193-0.392-0.34-0.545
					s-0.323-0.271-0.53-0.355c-0.206-0.083-0.433-0.125-0.68-0.125s-0.472,0.045-0.675,0.135s-0.377,0.214-0.521,0.37
					c-0.144,0.157-0.255,0.34-0.335,0.55S35.254,13.525,35.254,13.772z"/>
				<path fill="#939598" d="M40.685,9.603c0-0.153,0.055-0.287,0.165-0.4s0.245-0.17,0.405-0.17s0.295,0.057,0.405,0.17
					c0.109,0.113,0.164,0.247,0.164,0.4c0,0.166-0.053,0.303-0.159,0.41c-0.107,0.106-0.244,0.159-0.41,0.159
					c-0.167,0-0.304-0.053-0.41-0.159C40.738,9.905,40.685,9.769,40.685,9.603z M40.864,11.433h0.78v4.68h-0.78V11.433z"/>
				<path fill="#939598" d="M47.374,15.263c-0.28,0.359-0.587,0.611-0.92,0.755c-0.333,0.143-0.72,0.215-1.16,0.215
					c-0.366,0-0.696-0.065-0.99-0.195c-0.293-0.13-0.541-0.305-0.744-0.524c-0.204-0.221-0.36-0.48-0.471-0.78
					c-0.109-0.3-0.165-0.62-0.165-0.96c0-0.36,0.061-0.691,0.181-0.995c0.119-0.304,0.286-0.563,0.5-0.78
					c0.213-0.217,0.466-0.385,0.76-0.505c0.293-0.12,0.613-0.18,0.96-0.18c0.326,0,0.626,0.055,0.899,0.165
					c0.273,0.109,0.509,0.27,0.705,0.479c0.197,0.21,0.349,0.467,0.455,0.771c0.106,0.303,0.16,0.648,0.16,1.035v0.25h-3.78
					c0.014,0.199,0.062,0.392,0.146,0.574c0.083,0.184,0.191,0.344,0.325,0.48c0.133,0.137,0.29,0.245,0.47,0.325
					s0.377,0.12,0.59,0.12c0.34,0,0.627-0.061,0.86-0.181s0.443-0.296,0.63-0.529L47.374,15.263z M46.704,13.353
					c-0.014-0.4-0.144-0.721-0.39-0.96c-0.247-0.24-0.587-0.36-1.021-0.36s-0.783,0.12-1.05,0.36c-0.267,0.239-0.427,0.56-0.48,0.96
					H46.704z"/>
				<path fill="#939598" d="M48.854,14.882c0.153,0.194,0.321,0.348,0.505,0.461s0.415,0.17,0.695,0.17
					c0.12,0,0.241-0.014,0.365-0.04c0.123-0.027,0.234-0.07,0.335-0.13c0.1-0.061,0.18-0.136,0.24-0.226
					c0.06-0.09,0.09-0.198,0.09-0.325c0-0.126-0.028-0.229-0.085-0.31s-0.132-0.148-0.226-0.205c-0.093-0.057-0.2-0.102-0.319-0.135
					c-0.12-0.033-0.244-0.063-0.37-0.09c-0.221-0.047-0.431-0.101-0.63-0.16c-0.2-0.061-0.375-0.139-0.525-0.235
					s-0.271-0.222-0.36-0.375s-0.135-0.35-0.135-0.59c0-0.227,0.05-0.427,0.15-0.6c0.1-0.174,0.233-0.317,0.399-0.431
					c0.167-0.113,0.354-0.2,0.561-0.26c0.206-0.06,0.42-0.09,0.64-0.09c0.333,0,0.642,0.066,0.925,0.2
					c0.283,0.133,0.505,0.35,0.665,0.649l-0.649,0.431c-0.101-0.167-0.232-0.302-0.396-0.405s-0.361-0.155-0.595-0.155
					c-0.106,0-0.215,0.014-0.325,0.04s-0.208,0.066-0.295,0.12s-0.158,0.122-0.215,0.205s-0.085,0.179-0.085,0.285
					c0,0.1,0.031,0.185,0.095,0.255c0.063,0.069,0.15,0.132,0.26,0.185c0.11,0.054,0.237,0.101,0.38,0.141
					c0.144,0.04,0.292,0.073,0.445,0.1c0.207,0.04,0.403,0.092,0.59,0.155s0.351,0.148,0.49,0.255s0.25,0.24,0.33,0.399
					c0.08,0.16,0.12,0.357,0.12,0.591c0,0.267-0.054,0.493-0.16,0.68s-0.248,0.338-0.425,0.455
					c-0.177,0.116-0.377,0.201-0.601,0.255c-0.223,0.054-0.451,0.08-0.685,0.08c-0.4,0-0.745-0.062-1.035-0.186
					c-0.29-0.123-0.552-0.352-0.785-0.685L48.854,14.882z"/>
				<path fill="#939598" d="M8.695,21.032h1.25l2.4,5.55h0.02l2.42-5.55h1.221v7.08h-0.841v-5.94h-0.02l-2.54,5.94h-0.51l-2.54-5.94
					H9.535v5.94h-0.84V21.032z"/>
				<path fill="#939598" d="M21.806,27.263c-0.28,0.359-0.587,0.611-0.92,0.755c-0.333,0.143-0.72,0.215-1.16,0.215
					c-0.366,0-0.696-0.065-0.99-0.195c-0.293-0.13-0.541-0.305-0.744-0.524c-0.204-0.221-0.36-0.48-0.471-0.78
					c-0.109-0.3-0.165-0.62-0.165-0.96c0-0.36,0.061-0.691,0.181-0.995c0.119-0.304,0.286-0.563,0.5-0.78
					c0.213-0.217,0.466-0.385,0.76-0.505c0.293-0.12,0.613-0.18,0.96-0.18c0.326,0,0.626,0.055,0.899,0.165
					c0.273,0.109,0.509,0.27,0.705,0.479c0.197,0.21,0.349,0.467,0.455,0.771c0.106,0.303,0.16,0.648,0.16,1.035v0.25h-3.78
					c0.014,0.199,0.062,0.392,0.146,0.574c0.083,0.184,0.191,0.344,0.325,0.48c0.133,0.137,0.29,0.245,0.47,0.325
					s0.377,0.12,0.59,0.12c0.34,0,0.627-0.061,0.86-0.181s0.443-0.296,0.63-0.529L21.806,27.263z M21.136,25.353
					c-0.014-0.4-0.144-0.721-0.39-0.96c-0.247-0.24-0.587-0.36-1.021-0.36s-0.783,0.12-1.05,0.36c-0.267,0.239-0.427,0.56-0.48,0.96
					H21.136z"/>
				<path fill="#939598" d="M25.745,24.093h-1.38v2.34c0,0.153,0.003,0.295,0.01,0.425s0.033,0.243,0.08,0.34s0.117,0.174,0.21,0.23
					c0.094,0.057,0.227,0.085,0.4,0.085c0.113,0,0.229-0.014,0.35-0.04c0.12-0.027,0.233-0.067,0.34-0.12l0.03,0.71
					c-0.133,0.06-0.281,0.104-0.445,0.13c-0.163,0.026-0.318,0.04-0.465,0.04c-0.279,0-0.503-0.037-0.67-0.11
					c-0.166-0.073-0.297-0.177-0.39-0.31c-0.094-0.134-0.155-0.299-0.186-0.495c-0.029-0.196-0.045-0.415-0.045-0.655v-2.569h-1.02
					v-0.66h1.02v-1.33h0.78v1.33h1.38V24.093z"/>
				<path fill="#939598" d="M26.715,20.553h0.779v3.529h0.021c0.054-0.093,0.127-0.185,0.22-0.274
					c0.094-0.09,0.205-0.172,0.335-0.245s0.275-0.134,0.436-0.181c0.16-0.046,0.33-0.069,0.51-0.069c0.307,0,0.571,0.047,0.795,0.14
					c0.224,0.094,0.408,0.224,0.555,0.391c0.146,0.166,0.255,0.368,0.325,0.604s0.105,0.495,0.105,0.775v2.89h-0.78v-2.81
					c0-0.394-0.087-0.704-0.26-0.931c-0.174-0.227-0.443-0.34-0.811-0.34c-0.253,0-0.472,0.044-0.654,0.13
					c-0.184,0.087-0.334,0.21-0.45,0.37c-0.117,0.16-0.204,0.35-0.26,0.57c-0.058,0.22-0.086,0.463-0.086,0.729v2.28h-0.779V20.553z
					"/>
				<path fill="#939598" d="M32.214,24.032c0.24-0.246,0.525-0.428,0.855-0.545c0.33-0.116,0.665-0.175,1.005-0.175
					c0.693,0,1.193,0.163,1.5,0.49c0.307,0.326,0.46,0.823,0.46,1.489v2.011c0,0.133,0.007,0.271,0.02,0.415
					c0.014,0.143,0.03,0.274,0.051,0.395h-0.75c-0.027-0.106-0.042-0.225-0.045-0.355c-0.004-0.13-0.006-0.244-0.006-0.345h-0.02
					c-0.153,0.24-0.358,0.437-0.615,0.59s-0.564,0.23-0.925,0.23c-0.24,0-0.465-0.03-0.675-0.09c-0.21-0.061-0.394-0.148-0.55-0.266
					c-0.157-0.116-0.282-0.261-0.375-0.435c-0.094-0.174-0.141-0.373-0.141-0.6c0-0.387,0.101-0.69,0.3-0.91
					c0.2-0.221,0.449-0.384,0.745-0.49c0.297-0.106,0.617-0.174,0.96-0.2c0.344-0.026,0.658-0.04,0.945-0.04h0.3v-0.14
					c0-0.34-0.102-0.597-0.305-0.771c-0.203-0.173-0.488-0.26-0.855-0.26c-0.253,0-0.501,0.042-0.744,0.125
					c-0.244,0.084-0.459,0.212-0.646,0.385L32.214,24.032z M34.475,25.862c-0.5,0-0.897,0.07-1.19,0.21s-0.44,0.37-0.44,0.69
					c0,0.293,0.099,0.501,0.296,0.625c0.196,0.123,0.441,0.185,0.734,0.185c0.227,0,0.425-0.038,0.595-0.115
					c0.171-0.076,0.312-0.178,0.426-0.305c0.113-0.127,0.199-0.275,0.26-0.445c0.06-0.17,0.093-0.352,0.1-0.545v-0.3H34.475z"/>
				<path fill="#939598" d="M37.425,23.433h0.78v0.68h0.02c0.213-0.253,0.462-0.45,0.745-0.59c0.283-0.141,0.595-0.21,0.935-0.21
					c0.367,0,0.702,0.062,1.005,0.185c0.304,0.124,0.562,0.295,0.775,0.516c0.213,0.22,0.38,0.479,0.5,0.779
					c0.12,0.301,0.18,0.627,0.18,0.98s-0.06,0.68-0.18,0.979c-0.12,0.301-0.285,0.561-0.495,0.78s-0.458,0.392-0.745,0.515
					c-0.286,0.124-0.593,0.186-0.92,0.186c-0.42,0-0.788-0.092-1.104-0.275c-0.317-0.183-0.549-0.408-0.695-0.675h-0.02v3.11h-0.78
					V23.433z M38.205,25.772c0,0.246,0.038,0.475,0.114,0.685c0.077,0.21,0.188,0.394,0.335,0.55c0.146,0.157,0.322,0.28,0.525,0.37
					c0.203,0.091,0.432,0.136,0.685,0.136c0.254,0,0.481-0.045,0.686-0.136c0.203-0.09,0.378-0.213,0.524-0.37
					c0.146-0.156,0.259-0.34,0.335-0.55c0.077-0.21,0.115-0.438,0.115-0.685c0-0.247-0.038-0.476-0.115-0.686
					c-0.076-0.21-0.188-0.393-0.335-0.55c-0.146-0.156-0.321-0.28-0.524-0.37c-0.204-0.09-0.432-0.135-0.686-0.135
					c-0.253,0-0.481,0.045-0.685,0.135s-0.379,0.214-0.525,0.37c-0.146,0.157-0.258,0.34-0.335,0.55
					C38.243,25.297,38.205,25.525,38.205,25.772z"/>
				<path fill="#939598" d="M43.575,20.553h0.779v3.529h0.021c0.054-0.093,0.127-0.185,0.22-0.274
					c0.094-0.09,0.205-0.172,0.335-0.245s0.275-0.134,0.436-0.181c0.16-0.046,0.33-0.069,0.51-0.069c0.307,0,0.571,0.047,0.795,0.14
					c0.224,0.094,0.408,0.224,0.555,0.391c0.146,0.166,0.255,0.368,0.325,0.604s0.105,0.495,0.105,0.775v2.89h-0.78v-2.81
					c0-0.394-0.087-0.704-0.26-0.931c-0.174-0.227-0.443-0.34-0.811-0.34c-0.253,0-0.472,0.044-0.654,0.13
					c-0.184,0.087-0.334,0.21-0.45,0.37c-0.117,0.16-0.204,0.35-0.26,0.57c-0.058,0.22-0.086,0.463-0.086,0.729v2.28h-0.779V20.553z
					"/>
				<path fill="#939598" d="M48.864,25.772c0-0.367,0.063-0.7,0.19-1c0.126-0.3,0.3-0.559,0.52-0.775
					c0.221-0.217,0.483-0.385,0.79-0.505s0.641-0.18,1-0.18c0.36,0,0.693,0.06,1,0.18s0.57,0.288,0.79,0.505
					c0.221,0.217,0.394,0.476,0.521,0.775c0.126,0.3,0.189,0.633,0.189,1c0,0.366-0.063,0.7-0.189,1
					c-0.127,0.3-0.3,0.559-0.521,0.774c-0.22,0.217-0.483,0.386-0.79,0.506c-0.307,0.119-0.64,0.18-1,0.18
					c-0.359,0-0.693-0.061-1-0.18c-0.307-0.12-0.569-0.289-0.79-0.506c-0.22-0.216-0.394-0.475-0.52-0.774
					C48.928,26.473,48.864,26.139,48.864,25.772z M49.704,25.772c0,0.246,0.039,0.475,0.115,0.685
					c0.077,0.21,0.188,0.394,0.335,0.55c0.146,0.157,0.322,0.28,0.525,0.37c0.203,0.091,0.432,0.136,0.685,0.136
					c0.254,0,0.481-0.045,0.686-0.136c0.203-0.09,0.378-0.213,0.524-0.37c0.146-0.156,0.259-0.34,0.335-0.55
					c0.077-0.21,0.115-0.438,0.115-0.685c0-0.247-0.038-0.476-0.115-0.686c-0.076-0.21-0.188-0.393-0.335-0.55
					c-0.146-0.156-0.321-0.28-0.524-0.37c-0.204-0.09-0.432-0.135-0.686-0.135c-0.253,0-0.481,0.045-0.685,0.135
					s-0.379,0.214-0.525,0.37c-0.146,0.157-0.258,0.34-0.335,0.55C49.743,25.297,49.704,25.525,49.704,25.772z"/>
				<path fill="#939598" d="M55.075,24.542c0-0.213-0.007-0.413-0.021-0.6c-0.013-0.187-0.02-0.356-0.02-0.51h0.74
					c0,0.126,0.003,0.253,0.01,0.38s0.01,0.257,0.01,0.39h0.021c0.053-0.113,0.128-0.223,0.225-0.33
					c0.097-0.106,0.212-0.201,0.345-0.285c0.134-0.083,0.283-0.149,0.45-0.199c0.167-0.051,0.347-0.075,0.54-0.075
					c0.054,0,0.106,0.003,0.16,0.01c0.053,0.007,0.106,0.021,0.16,0.04l-0.051,0.79c-0.133-0.04-0.273-0.06-0.42-0.06
					c-0.479,0-0.828,0.154-1.045,0.465c-0.217,0.31-0.325,0.734-0.325,1.274v2.28h-0.779V24.542z"/>
				<path fill="#939598" d="M58.694,26.882c0.153,0.194,0.321,0.348,0.505,0.461s0.415,0.17,0.695,0.17
					c0.12,0,0.241-0.014,0.365-0.04c0.123-0.027,0.234-0.07,0.335-0.13c0.1-0.061,0.18-0.136,0.24-0.226
					c0.06-0.09,0.09-0.198,0.09-0.325c0-0.126-0.028-0.229-0.085-0.31s-0.132-0.148-0.226-0.205c-0.093-0.057-0.2-0.102-0.319-0.135
					c-0.12-0.033-0.244-0.063-0.37-0.09c-0.221-0.047-0.431-0.101-0.63-0.16c-0.2-0.061-0.375-0.139-0.525-0.235
					s-0.271-0.222-0.36-0.375s-0.135-0.35-0.135-0.59c0-0.227,0.05-0.427,0.15-0.6c0.1-0.174,0.233-0.317,0.399-0.431
					c0.167-0.113,0.354-0.2,0.561-0.26c0.206-0.06,0.42-0.09,0.64-0.09c0.333,0,0.642,0.066,0.925,0.2
					c0.283,0.133,0.505,0.35,0.665,0.649l-0.649,0.431c-0.101-0.167-0.232-0.302-0.396-0.405s-0.361-0.155-0.595-0.155
					c-0.106,0-0.215,0.014-0.325,0.04s-0.208,0.066-0.295,0.12s-0.158,0.122-0.215,0.205s-0.085,0.179-0.085,0.285
					c0,0.1,0.031,0.185,0.095,0.255c0.063,0.069,0.15,0.132,0.26,0.185c0.11,0.054,0.237,0.101,0.38,0.141
					c0.144,0.04,0.292,0.073,0.445,0.1c0.207,0.04,0.403,0.092,0.59,0.155s0.351,0.148,0.49,0.255s0.25,0.24,0.33,0.399
					c0.08,0.16,0.12,0.357,0.12,0.591c0,0.267-0.054,0.493-0.16,0.68s-0.248,0.338-0.425,0.455
					c-0.177,0.116-0.377,0.201-0.601,0.255c-0.223,0.054-0.451,0.08-0.685,0.08c-0.4,0-0.745-0.062-1.035-0.186
					c-0.29-0.123-0.552-0.352-0.785-0.685L58.694,26.882z"/>
				<path fill="#939598" d="M12.056,34.282c-0.141-0.227-0.327-0.392-0.561-0.495s-0.477-0.155-0.729-0.155
					c-0.187,0-0.37,0.023-0.55,0.07c-0.181,0.047-0.342,0.117-0.485,0.21c-0.144,0.094-0.259,0.217-0.345,0.37
					c-0.087,0.153-0.13,0.334-0.13,0.54c0,0.16,0.024,0.302,0.074,0.425c0.051,0.124,0.132,0.235,0.245,0.335
					c0.113,0.101,0.267,0.193,0.46,0.28s0.431,0.174,0.71,0.26c0.273,0.087,0.539,0.181,0.795,0.28
					c0.257,0.1,0.483,0.227,0.681,0.38c0.196,0.153,0.353,0.345,0.47,0.575c0.116,0.229,0.175,0.519,0.175,0.865
					c0,0.354-0.069,0.659-0.21,0.92c-0.14,0.26-0.325,0.475-0.555,0.645c-0.23,0.17-0.495,0.297-0.795,0.38
					c-0.3,0.084-0.61,0.125-0.931,0.125c-0.206,0-0.413-0.019-0.619-0.055c-0.207-0.037-0.405-0.094-0.596-0.17
					c-0.189-0.076-0.368-0.177-0.535-0.3c-0.166-0.124-0.31-0.275-0.43-0.455l0.72-0.59c0.153,0.26,0.367,0.456,0.641,0.59
					c0.273,0.133,0.563,0.2,0.87,0.2c0.18,0,0.361-0.027,0.545-0.08c0.183-0.054,0.348-0.132,0.495-0.235
					c0.146-0.104,0.267-0.231,0.359-0.385c0.094-0.153,0.141-0.33,0.141-0.53c0-0.22-0.037-0.398-0.11-0.535
					s-0.187-0.255-0.34-0.354c-0.153-0.101-0.347-0.19-0.58-0.271s-0.507-0.173-0.82-0.279c-0.253-0.08-0.486-0.172-0.7-0.275
					c-0.213-0.104-0.398-0.23-0.555-0.38c-0.156-0.15-0.28-0.33-0.37-0.54s-0.135-0.462-0.135-0.755c0-0.34,0.066-0.637,0.2-0.891
					c0.133-0.253,0.313-0.465,0.54-0.635s0.483-0.298,0.77-0.385c0.287-0.087,0.587-0.13,0.9-0.13c0.399,0,0.765,0.062,1.095,0.185
					c0.33,0.124,0.625,0.339,0.885,0.646L12.056,34.282z"/>
				<path fill="#939598" d="M15.835,41.183c-0.08,0.199-0.162,0.381-0.245,0.545c-0.083,0.163-0.184,0.303-0.3,0.42
					c-0.117,0.116-0.257,0.206-0.42,0.27s-0.362,0.096-0.595,0.096c-0.114,0-0.232-0.007-0.355-0.021s-0.238-0.047-0.345-0.1
					l0.1-0.681c0.08,0.033,0.163,0.056,0.25,0.065s0.187,0.015,0.3,0.015c0.254,0,0.44-0.069,0.561-0.21
					c0.12-0.14,0.223-0.326,0.31-0.56l0.32-0.88l-1.94-4.71h0.91l1.45,3.67h0.021l1.39-3.67h0.85L15.835,41.183z"/>
				<path fill="#939598" d="M18.936,36.542c0-0.213-0.007-0.413-0.021-0.6c-0.013-0.187-0.02-0.356-0.02-0.51h0.74
					c0,0.126,0.003,0.253,0.01,0.38s0.01,0.257,0.01,0.39h0.021c0.053-0.113,0.128-0.223,0.225-0.33
					c0.097-0.106,0.212-0.201,0.345-0.285c0.134-0.083,0.283-0.149,0.45-0.199c0.167-0.051,0.347-0.075,0.54-0.075
					c0.307,0,0.571,0.047,0.795,0.14c0.224,0.094,0.408,0.224,0.555,0.391c0.146,0.166,0.255,0.368,0.325,0.604
					s0.105,0.495,0.105,0.775v2.89h-0.78v-2.81c0-0.394-0.087-0.704-0.26-0.931c-0.174-0.227-0.443-0.34-0.811-0.34
					c-0.253,0-0.472,0.044-0.654,0.13c-0.184,0.087-0.334,0.21-0.45,0.37c-0.117,0.16-0.204,0.35-0.26,0.57
					c-0.058,0.22-0.086,0.463-0.086,0.729v2.28h-0.779V36.542z"/>
				<path fill="#939598" d="M28.675,39.263c-0.28,0.359-0.587,0.611-0.92,0.755c-0.333,0.143-0.72,0.215-1.16,0.215
					c-0.366,0-0.696-0.065-0.99-0.195c-0.293-0.13-0.541-0.305-0.744-0.524c-0.204-0.221-0.36-0.48-0.471-0.78
					c-0.109-0.3-0.165-0.62-0.165-0.96c0-0.36,0.061-0.691,0.181-0.995c0.119-0.304,0.286-0.563,0.5-0.78
					c0.213-0.217,0.466-0.385,0.76-0.505c0.293-0.12,0.613-0.18,0.96-0.18c0.326,0,0.626,0.055,0.899,0.165
					c0.273,0.109,0.509,0.27,0.705,0.479c0.197,0.21,0.349,0.467,0.455,0.771c0.106,0.303,0.16,0.648,0.16,1.035v0.25h-3.78
					c0.014,0.199,0.062,0.392,0.146,0.574c0.083,0.184,0.191,0.344,0.325,0.48c0.133,0.137,0.29,0.245,0.47,0.325
					s0.377,0.12,0.59,0.12c0.34,0,0.627-0.061,0.86-0.181s0.443-0.296,0.63-0.529L28.675,39.263z M28.005,37.353
					c-0.014-0.4-0.144-0.721-0.39-0.96c-0.247-0.24-0.587-0.36-1.021-0.36s-0.783,0.12-1.05,0.36c-0.267,0.239-0.427,0.56-0.48,0.96
					H28.005z"/>
				<path fill="#939598" d="M33.385,36.603c-0.167-0.2-0.347-0.346-0.54-0.436s-0.407-0.135-0.641-0.135
					c-0.26,0-0.489,0.045-0.689,0.135s-0.365,0.215-0.495,0.375s-0.229,0.346-0.295,0.556s-0.101,0.435-0.101,0.675
					s0.039,0.465,0.115,0.675c0.077,0.21,0.184,0.396,0.32,0.555c0.137,0.16,0.302,0.285,0.495,0.375
					c0.193,0.091,0.41,0.136,0.649,0.136c0.514,0,0.91-0.193,1.19-0.58l0.58,0.55c-0.227,0.26-0.493,0.45-0.8,0.57
					c-0.307,0.119-0.63,0.18-0.971,0.18c-0.359,0-0.689-0.061-0.989-0.18c-0.301-0.12-0.556-0.29-0.766-0.511
					c-0.21-0.22-0.373-0.479-0.49-0.779c-0.116-0.301-0.175-0.631-0.175-0.99c0-0.354,0.059-0.68,0.175-0.98
					c0.117-0.3,0.282-0.56,0.495-0.779c0.214-0.221,0.469-0.392,0.766-0.516c0.296-0.123,0.625-0.185,0.984-0.185
					c0.347,0,0.676,0.06,0.985,0.18s0.582,0.307,0.815,0.561L33.385,36.603z"/>
				<path fill="#939598" d="M37.435,36.093h-1.38v2.34c0,0.153,0.003,0.295,0.01,0.425s0.033,0.243,0.08,0.34s0.117,0.174,0.21,0.23
					c0.094,0.057,0.227,0.085,0.4,0.085c0.113,0,0.229-0.014,0.35-0.04c0.12-0.027,0.233-0.067,0.34-0.12l0.03,0.71
					c-0.133,0.06-0.281,0.104-0.445,0.13c-0.163,0.026-0.318,0.04-0.465,0.04c-0.279,0-0.503-0.037-0.67-0.11
					c-0.166-0.073-0.297-0.177-0.39-0.31c-0.094-0.134-0.155-0.299-0.186-0.495c-0.029-0.196-0.045-0.415-0.045-0.655v-2.569h-1.02
					v-0.66h1.02v-1.33h0.78v1.33h1.38V36.093z"/>
				<path fill="#939598" d="M38.294,33.603c0-0.153,0.055-0.287,0.165-0.4s0.245-0.17,0.405-0.17s0.295,0.057,0.405,0.17
					c0.109,0.113,0.164,0.247,0.164,0.4c0,0.166-0.053,0.303-0.159,0.41c-0.107,0.106-0.244,0.159-0.41,0.159
					c-0.167,0-0.304-0.053-0.41-0.159C38.348,33.905,38.294,33.769,38.294,33.603z M38.474,35.433h0.78v4.68h-0.78V35.433z"/>
				<path fill="#939598" d="M44.134,36.603c-0.167-0.2-0.347-0.346-0.54-0.436s-0.407-0.135-0.641-0.135
					c-0.26,0-0.489,0.045-0.689,0.135s-0.365,0.215-0.495,0.375s-0.229,0.346-0.295,0.556s-0.101,0.435-0.101,0.675
					s0.039,0.465,0.115,0.675c0.077,0.21,0.184,0.396,0.32,0.555c0.137,0.16,0.302,0.285,0.495,0.375
					c0.193,0.091,0.41,0.136,0.649,0.136c0.514,0,0.91-0.193,1.19-0.58l0.58,0.55c-0.227,0.26-0.493,0.45-0.8,0.57
					c-0.307,0.119-0.63,0.18-0.971,0.18c-0.359,0-0.689-0.061-0.989-0.18c-0.301-0.12-0.556-0.29-0.766-0.511
					c-0.21-0.22-0.373-0.479-0.49-0.779c-0.116-0.301-0.175-0.631-0.175-0.99c0-0.354,0.059-0.68,0.175-0.98
					c0.117-0.3,0.282-0.56,0.495-0.779c0.214-0.221,0.469-0.392,0.766-0.516c0.296-0.123,0.625-0.185,0.984-0.185
					c0.347,0,0.676,0.06,0.985,0.18s0.582,0.307,0.815,0.561L44.134,36.603z"/>
				<path fill="#939598" d="M45.724,38.882c0.153,0.194,0.321,0.348,0.505,0.461s0.415,0.17,0.695,0.17
					c0.12,0,0.241-0.014,0.365-0.04c0.123-0.027,0.234-0.07,0.335-0.13c0.1-0.061,0.18-0.136,0.24-0.226
					c0.06-0.09,0.09-0.198,0.09-0.325c0-0.126-0.028-0.229-0.085-0.31s-0.132-0.148-0.226-0.205c-0.093-0.057-0.2-0.102-0.319-0.135
					c-0.12-0.033-0.244-0.063-0.37-0.09c-0.221-0.047-0.431-0.101-0.63-0.16c-0.2-0.061-0.375-0.139-0.525-0.235
					s-0.271-0.222-0.36-0.375s-0.135-0.35-0.135-0.59c0-0.227,0.05-0.427,0.15-0.6c0.1-0.174,0.233-0.317,0.399-0.431
					c0.167-0.113,0.354-0.2,0.561-0.26c0.206-0.06,0.42-0.09,0.64-0.09c0.333,0,0.642,0.066,0.925,0.2
					c0.283,0.133,0.505,0.35,0.665,0.649l-0.649,0.431c-0.101-0.167-0.232-0.302-0.396-0.405s-0.361-0.155-0.595-0.155
					c-0.106,0-0.215,0.014-0.325,0.04s-0.208,0.066-0.295,0.12s-0.158,0.122-0.215,0.205s-0.085,0.179-0.085,0.285
					c0,0.1,0.031,0.185,0.095,0.255c0.063,0.069,0.15,0.132,0.26,0.185c0.11,0.054,0.237,0.101,0.38,0.141
					c0.144,0.04,0.292,0.073,0.445,0.1c0.207,0.04,0.403,0.092,0.59,0.155s0.351,0.148,0.49,0.255s0.25,0.24,0.33,0.399
					c0.08,0.16,0.12,0.357,0.12,0.591c0,0.267-0.054,0.493-0.16,0.68s-0.248,0.338-0.425,0.455
					c-0.177,0.116-0.377,0.201-0.601,0.255c-0.223,0.054-0.451,0.08-0.685,0.08c-0.4,0-0.745-0.062-1.035-0.186
					c-0.29-0.123-0.552-0.352-0.785-0.685L45.724,38.882z"/>
			</g>
		</g>
		<g>
			<circle fill="#A7A9AC" cx="87.57" cy="90.775" r="6.616"/>
			
				<polyline fill="none" stroke="#FFFFFF" stroke-width="1.3526" stroke-linecap="round" stroke-linejoin="round" stroke-miterlimit="10" points="
				84.66,92.646 87.548,88.161 90.481,92.716 			"/>
		</g>
	</g>
</g>
<g id="Layer_4">
</g>
<g id="Layer_3">
</g>
<g id="Layer_5">
</g>
<g id="Annotations">
</g>
</svg>
