<?xml version="1.0" encoding="utf-8"?>
<!-- Generator: Adobe Illustrator 16.0.0, SVG Export Plug-In . SVG Version: 6.00 Build 0)  -->
<!DOCTYPE svg PUBLIC "-//W3C//DTD SVG 1.1//EN" "http://www.w3.org/Graphics/SVG/1.1/DTD/svg11.dtd">
<svg version="1.1" xmlns="http://www.w3.org/2000/svg" xmlns:xlink="http://www.w3.org/1999/xlink" x="0px" y="0px" width="105px"
	 height="110.117px" viewBox="0 0 105 110.117" enable-background="new 0 0 105 110.117" xml:space="preserve">
<g id="Layer_2">
</g>
<g id="Layer_1">
	<g>
		<polyline fill="none" stroke="#A7A9AC" stroke-width="1.4173" stroke-miterlimit="10" points="11.28,29.974 11.28,99.694 
			97.185,99.694 97.185,13.79 76.355,13.79 		"/>
		<g>
			<g>
				<path fill="#939598" d="M8.934,8.66h1.25l2.4,5.55h0.02l2.42-5.55h1.221v7.08h-0.841V9.8h-0.02l-2.54,5.94h-0.51L9.794,9.8
					H9.773v5.94h-0.84V8.66z"/>
				<path fill="#939598" d="M17.594,13.4c0-0.367,0.063-0.7,0.19-1c0.126-0.3,0.3-0.559,0.52-0.775
					c0.221-0.217,0.483-0.385,0.79-0.505s0.641-0.18,1-0.18c0.36,0,0.693,0.06,1,0.18s0.57,0.288,0.79,0.505
					c0.221,0.217,0.394,0.476,0.521,0.775c0.126,0.3,0.189,0.633,0.189,1c0,0.366-0.063,0.7-0.189,1
					c-0.127,0.3-0.3,0.559-0.521,0.774c-0.22,0.217-0.483,0.386-0.79,0.506c-0.307,0.119-0.64,0.18-1,0.18
					c-0.359,0-0.693-0.061-1-0.18c-0.307-0.12-0.569-0.289-0.79-0.506c-0.22-0.216-0.394-0.475-0.52-0.774
					C17.657,14.101,17.594,13.767,17.594,13.4z M18.434,13.4c0,0.246,0.039,0.475,0.115,0.685c0.077,0.21,0.188,0.394,0.335,0.55
					c0.146,0.157,0.322,0.28,0.525,0.37c0.203,0.091,0.432,0.136,0.685,0.136c0.254,0,0.481-0.045,0.686-0.136
					c0.203-0.09,0.378-0.213,0.524-0.37c0.146-0.156,0.259-0.34,0.335-0.55c0.077-0.21,0.115-0.438,0.115-0.685
					c0-0.247-0.038-0.476-0.115-0.686c-0.076-0.21-0.188-0.393-0.335-0.55c-0.146-0.156-0.321-0.28-0.524-0.37
					c-0.204-0.09-0.432-0.135-0.686-0.135c-0.253,0-0.481,0.045-0.685,0.135s-0.379,0.214-0.525,0.37
					c-0.146,0.157-0.258,0.34-0.335,0.55C18.473,12.925,18.434,13.153,18.434,13.4z"/>
				<path fill="#939598" d="M23.804,12.17c0-0.213-0.007-0.413-0.021-0.6c-0.013-0.187-0.02-0.356-0.02-0.51h0.74
					c0,0.126,0.003,0.253,0.01,0.38s0.01,0.257,0.01,0.39h0.021c0.053-0.113,0.128-0.223,0.225-0.33
					c0.097-0.106,0.212-0.201,0.345-0.285c0.134-0.083,0.283-0.149,0.45-0.199c0.167-0.051,0.347-0.075,0.54-0.075
					c0.054,0,0.106,0.003,0.16,0.01c0.053,0.007,0.106,0.021,0.16,0.04l-0.051,0.79c-0.133-0.04-0.273-0.06-0.42-0.06
					c-0.479,0-0.828,0.154-1.045,0.465c-0.217,0.31-0.325,0.734-0.325,1.274v2.28h-0.779V12.17z"/>
				<path fill="#939598" d="M27.283,11.061h0.78v0.68h0.02c0.213-0.253,0.462-0.45,0.745-0.59c0.283-0.141,0.595-0.21,0.935-0.21
					c0.367,0,0.702,0.062,1.005,0.185c0.304,0.124,0.562,0.295,0.775,0.516c0.213,0.22,0.38,0.479,0.5,0.779
					c0.12,0.301,0.18,0.627,0.18,0.98s-0.06,0.68-0.18,0.979c-0.12,0.301-0.285,0.561-0.495,0.78s-0.458,0.392-0.745,0.515
					c-0.286,0.124-0.593,0.186-0.92,0.186c-0.42,0-0.788-0.092-1.104-0.275c-0.317-0.183-0.549-0.408-0.695-0.675h-0.02v3.11h-0.78
					V11.061z M28.063,13.4c0,0.246,0.038,0.475,0.114,0.685c0.077,0.21,0.188,0.394,0.335,0.55c0.146,0.157,0.322,0.28,0.525,0.37
					c0.203,0.091,0.432,0.136,0.685,0.136c0.254,0,0.481-0.045,0.686-0.136c0.203-0.09,0.378-0.213,0.524-0.37
					c0.146-0.156,0.259-0.34,0.335-0.55c0.077-0.21,0.115-0.438,0.115-0.685c0-0.247-0.038-0.476-0.115-0.686
					c-0.076-0.21-0.188-0.393-0.335-0.55c-0.146-0.156-0.321-0.28-0.524-0.37c-0.204-0.09-0.432-0.135-0.686-0.135
					c-0.253,0-0.481,0.045-0.685,0.135s-0.379,0.214-0.525,0.37c-0.146,0.157-0.258,0.34-0.335,0.55
					C28.102,12.925,28.063,13.153,28.063,13.4z"/>
				<path fill="#939598" d="M33.434,8.181h0.779v3.529h0.021c0.054-0.093,0.127-0.185,0.22-0.274
					c0.094-0.09,0.205-0.172,0.335-0.245s0.275-0.134,0.436-0.181c0.16-0.046,0.33-0.069,0.51-0.069c0.307,0,0.571,0.047,0.795,0.14
					c0.224,0.094,0.408,0.224,0.555,0.391c0.146,0.166,0.255,0.368,0.325,0.604s0.105,0.495,0.105,0.775v2.89h-0.78v-2.81
					c0-0.394-0.087-0.704-0.26-0.931c-0.174-0.227-0.443-0.34-0.811-0.34c-0.253,0-0.472,0.044-0.654,0.13
					c-0.184,0.087-0.334,0.21-0.45,0.37c-0.117,0.16-0.204,0.35-0.26,0.57c-0.058,0.22-0.086,0.463-0.086,0.729v2.28h-0.779V8.181z"
					/>
				<path fill="#939598" d="M38.723,13.4c0-0.367,0.063-0.7,0.19-1c0.126-0.3,0.3-0.559,0.52-0.775
					c0.221-0.217,0.483-0.385,0.79-0.505s0.641-0.18,1-0.18c0.36,0,0.693,0.06,1,0.18s0.57,0.288,0.79,0.505
					c0.221,0.217,0.394,0.476,0.521,0.775c0.126,0.3,0.189,0.633,0.189,1c0,0.366-0.063,0.7-0.189,1
					c-0.127,0.3-0.3,0.559-0.521,0.774c-0.22,0.217-0.483,0.386-0.79,0.506c-0.307,0.119-0.64,0.18-1,0.18
					c-0.359,0-0.693-0.061-1-0.18c-0.307-0.12-0.569-0.289-0.79-0.506c-0.22-0.216-0.394-0.475-0.52-0.774
					C38.786,14.101,38.723,13.767,38.723,13.4z M39.562,13.4c0,0.246,0.039,0.475,0.115,0.685c0.077,0.21,0.188,0.394,0.335,0.55
					c0.146,0.157,0.322,0.28,0.525,0.37c0.203,0.091,0.432,0.136,0.685,0.136c0.254,0,0.481-0.045,0.686-0.136
					c0.203-0.09,0.378-0.213,0.524-0.37c0.146-0.156,0.259-0.34,0.335-0.55c0.077-0.21,0.115-0.438,0.115-0.685
					c0-0.247-0.038-0.476-0.115-0.686c-0.076-0.21-0.188-0.393-0.335-0.55c-0.146-0.156-0.321-0.28-0.524-0.37
					c-0.204-0.09-0.432-0.135-0.686-0.135c-0.253,0-0.481,0.045-0.685,0.135s-0.379,0.214-0.525,0.37
					c-0.146,0.157-0.258,0.34-0.335,0.55C39.602,12.925,39.562,13.153,39.562,13.4z"/>
				<path fill="#939598" d="M45.002,8.181h0.78v7.56h-0.78V8.181z"/>
				<path fill="#939598" d="M47.062,13.4c0-0.367,0.063-0.7,0.19-1c0.126-0.3,0.3-0.559,0.52-0.775
					c0.221-0.217,0.483-0.385,0.79-0.505s0.641-0.18,1-0.18c0.36,0,0.693,0.06,1,0.18s0.57,0.288,0.79,0.505
					c0.221,0.217,0.394,0.476,0.521,0.775c0.126,0.3,0.189,0.633,0.189,1c0,0.366-0.063,0.7-0.189,1
					c-0.127,0.3-0.3,0.559-0.521,0.774c-0.22,0.217-0.483,0.386-0.79,0.506c-0.307,0.119-0.64,0.18-1,0.18
					c-0.359,0-0.693-0.061-1-0.18c-0.307-0.12-0.569-0.289-0.79-0.506c-0.22-0.216-0.394-0.475-0.52-0.774
					C47.126,14.101,47.062,13.767,47.062,13.4z M47.902,13.4c0,0.246,0.039,0.475,0.115,0.685c0.077,0.21,0.188,0.394,0.335,0.55
					c0.146,0.157,0.322,0.28,0.525,0.37c0.203,0.091,0.432,0.136,0.685,0.136c0.254,0,0.481-0.045,0.686-0.136
					c0.203-0.09,0.378-0.213,0.524-0.37c0.146-0.156,0.259-0.34,0.335-0.55c0.077-0.21,0.115-0.438,0.115-0.685
					c0-0.247-0.038-0.476-0.115-0.686c-0.076-0.21-0.188-0.393-0.335-0.55c-0.146-0.156-0.321-0.28-0.524-0.37
					c-0.204-0.09-0.432-0.135-0.686-0.135c-0.253,0-0.481,0.045-0.685,0.135s-0.379,0.214-0.525,0.37
					c-0.146,0.157-0.258,0.34-0.335,0.55C47.941,12.925,47.902,13.153,47.902,13.4z"/>
				<path fill="#939598" d="M57.942,15.53c0,0.854-0.219,1.502-0.655,1.945s-1.068,0.665-1.895,0.665c-0.46,0-0.875-0.067-1.245-0.2
					c-0.37-0.134-0.722-0.363-1.056-0.69l0.561-0.64c0.246,0.267,0.508,0.468,0.785,0.604c0.276,0.137,0.595,0.205,0.955,0.205
					c0.347,0,0.635-0.052,0.864-0.154c0.23-0.104,0.412-0.244,0.545-0.42c0.134-0.177,0.227-0.379,0.28-0.605s0.08-0.464,0.08-0.71
					v-0.6h-0.02c-0.188,0.3-0.431,0.52-0.73,0.659c-0.3,0.141-0.606,0.21-0.92,0.21c-0.366,0-0.703-0.06-1.01-0.18
					s-0.57-0.286-0.79-0.5c-0.22-0.213-0.391-0.467-0.51-0.76c-0.12-0.293-0.181-0.613-0.181-0.96c0-0.38,0.061-0.724,0.181-1.03
					c0.119-0.307,0.288-0.564,0.505-0.774c0.216-0.211,0.478-0.372,0.785-0.485c0.306-0.113,0.646-0.17,1.02-0.17
					c0.16,0,0.32,0.019,0.48,0.055c0.159,0.037,0.314,0.094,0.465,0.17c0.149,0.077,0.285,0.174,0.404,0.29
					c0.12,0.117,0.221,0.252,0.301,0.405h0.02v-0.8h0.78V15.53z M53.842,13.4c0,0.24,0.044,0.462,0.131,0.665
					c0.086,0.203,0.204,0.38,0.354,0.53c0.15,0.149,0.325,0.268,0.525,0.354c0.199,0.087,0.413,0.13,0.64,0.13
					c0.267,0,0.503-0.047,0.71-0.14c0.207-0.094,0.382-0.219,0.525-0.375c0.143-0.157,0.251-0.337,0.324-0.54
					c0.074-0.203,0.11-0.418,0.11-0.646c0-0.253-0.04-0.484-0.12-0.694s-0.193-0.392-0.34-0.545s-0.323-0.271-0.53-0.355
					c-0.206-0.083-0.433-0.125-0.68-0.125s-0.472,0.045-0.675,0.135s-0.377,0.214-0.521,0.37c-0.144,0.157-0.255,0.34-0.335,0.55
					S53.842,13.153,53.842,13.4z"/>
				<path fill="#939598" d="M59.272,9.23c0-0.153,0.055-0.287,0.165-0.4s0.245-0.17,0.405-0.17s0.295,0.057,0.405,0.17
					c0.109,0.113,0.164,0.247,0.164,0.4c0,0.166-0.053,0.303-0.159,0.41C60.146,9.747,60.009,9.8,59.843,9.8
					c-0.167,0-0.304-0.053-0.41-0.159C59.326,9.533,59.272,9.396,59.272,9.23z M59.452,11.061h0.78v4.68h-0.78V11.061z"/>
				<path fill="#939598" d="M65.112,12.23c-0.167-0.2-0.347-0.346-0.54-0.436s-0.407-0.135-0.641-0.135
					c-0.26,0-0.489,0.045-0.689,0.135s-0.365,0.215-0.495,0.375s-0.229,0.346-0.295,0.556s-0.101,0.435-0.101,0.675
					s0.039,0.465,0.115,0.675c0.077,0.21,0.184,0.396,0.32,0.555c0.137,0.16,0.302,0.285,0.495,0.375
					c0.193,0.091,0.41,0.136,0.649,0.136c0.514,0,0.91-0.193,1.19-0.58l0.58,0.55c-0.227,0.26-0.493,0.45-0.8,0.57
					c-0.307,0.119-0.63,0.18-0.971,0.18c-0.359,0-0.689-0.061-0.989-0.18c-0.301-0.12-0.556-0.29-0.766-0.511
					c-0.21-0.22-0.373-0.479-0.49-0.779c-0.116-0.301-0.175-0.631-0.175-0.99c0-0.354,0.059-0.68,0.175-0.98
					c0.117-0.3,0.282-0.56,0.495-0.779c0.214-0.221,0.469-0.392,0.766-0.516c0.296-0.123,0.625-0.185,0.984-0.185
					c0.347,0,0.676,0.06,0.985,0.18s0.582,0.307,0.815,0.561L65.112,12.23z"/>
				<path fill="#939598" d="M66.542,11.66c0.24-0.246,0.525-0.428,0.855-0.545c0.33-0.116,0.665-0.175,1.005-0.175
					c0.693,0,1.193,0.163,1.5,0.49c0.307,0.326,0.46,0.823,0.46,1.489v2.011c0,0.133,0.007,0.271,0.02,0.415
					c0.014,0.143,0.03,0.274,0.051,0.395h-0.75c-0.027-0.106-0.042-0.225-0.045-0.355c-0.004-0.13-0.006-0.244-0.006-0.345h-0.02
					c-0.153,0.24-0.358,0.437-0.615,0.59s-0.564,0.23-0.925,0.23c-0.24,0-0.465-0.03-0.675-0.09c-0.21-0.061-0.394-0.148-0.55-0.266
					c-0.157-0.116-0.282-0.261-0.375-0.435c-0.094-0.174-0.141-0.373-0.141-0.6c0-0.387,0.101-0.69,0.3-0.91
					c0.2-0.221,0.449-0.384,0.745-0.49c0.297-0.106,0.617-0.174,0.96-0.2c0.344-0.026,0.658-0.04,0.945-0.04h0.3v-0.14
					c0-0.34-0.102-0.597-0.305-0.771c-0.203-0.173-0.488-0.26-0.855-0.26c-0.253,0-0.501,0.042-0.744,0.125
					c-0.244,0.084-0.459,0.212-0.646,0.385L66.542,11.66z M68.803,13.49c-0.5,0-0.897,0.07-1.19,0.21s-0.44,0.37-0.44,0.69
					c0,0.293,0.099,0.501,0.296,0.625c0.196,0.123,0.441,0.185,0.734,0.185c0.227,0,0.425-0.038,0.595-0.115
					c0.171-0.076,0.312-0.178,0.426-0.305c0.113-0.127,0.199-0.275,0.26-0.445c0.06-0.17,0.093-0.352,0.1-0.545v-0.3H68.803z"/>
				<path fill="#939598" d="M71.862,8.181h0.78v7.56h-0.78V8.181z"/>
				<path fill="#939598" d="M12.124,24.23c-0.167-0.2-0.347-0.346-0.54-0.436s-0.407-0.135-0.641-0.135
					c-0.26,0-0.489,0.045-0.689,0.135S9.889,24.01,9.759,24.17s-0.229,0.346-0.295,0.556S9.363,25.16,9.363,25.4
					s0.039,0.465,0.115,0.675c0.077,0.21,0.184,0.396,0.32,0.555c0.137,0.16,0.302,0.285,0.495,0.375
					c0.193,0.091,0.41,0.136,0.649,0.136c0.514,0,0.91-0.193,1.19-0.58l0.58,0.55c-0.227,0.26-0.493,0.45-0.8,0.57
					c-0.307,0.119-0.63,0.18-0.971,0.18c-0.359,0-0.689-0.061-0.989-0.18c-0.301-0.12-0.556-0.29-0.766-0.511
					c-0.21-0.22-0.373-0.479-0.49-0.779C8.582,26.09,8.523,25.76,8.523,25.4c0-0.354,0.059-0.68,0.175-0.98
					c0.117-0.3,0.282-0.56,0.495-0.779c0.214-0.221,0.469-0.392,0.766-0.516c0.296-0.123,0.625-0.185,0.984-0.185
					c0.347,0,0.676,0.06,0.985,0.18s0.582,0.307,0.815,0.561L12.124,24.23z"/>
				<path fill="#939598" d="M13.614,20.181h0.779v3.529h0.021c0.054-0.093,0.127-0.185,0.22-0.274
					c0.094-0.09,0.205-0.172,0.335-0.245s0.275-0.134,0.436-0.181c0.16-0.046,0.33-0.069,0.51-0.069c0.307,0,0.571,0.047,0.795,0.14
					c0.224,0.094,0.408,0.224,0.555,0.391c0.146,0.166,0.255,0.368,0.325,0.604s0.105,0.495,0.105,0.775v2.89h-0.78v-2.81
					c0-0.394-0.087-0.704-0.26-0.931c-0.174-0.227-0.443-0.34-0.811-0.34c-0.253,0-0.472,0.044-0.654,0.13
					c-0.184,0.087-0.334,0.21-0.45,0.37c-0.117,0.16-0.204,0.35-0.26,0.57c-0.058,0.22-0.086,0.463-0.086,0.729v2.28h-0.779V20.181z
					"/>
				<path fill="#939598" d="M19.113,23.66c0.24-0.246,0.525-0.428,0.855-0.545c0.33-0.116,0.665-0.175,1.005-0.175
					c0.693,0,1.193,0.163,1.5,0.49c0.307,0.326,0.46,0.823,0.46,1.489v2.011c0,0.133,0.007,0.271,0.02,0.415
					c0.014,0.143,0.03,0.274,0.051,0.395h-0.75c-0.027-0.106-0.042-0.225-0.045-0.355c-0.004-0.13-0.006-0.244-0.006-0.345h-0.02
					c-0.153,0.24-0.358,0.437-0.615,0.59s-0.564,0.23-0.925,0.23c-0.24,0-0.465-0.03-0.675-0.09c-0.21-0.061-0.394-0.148-0.55-0.266
					c-0.157-0.116-0.282-0.261-0.375-0.435c-0.094-0.174-0.141-0.373-0.141-0.6c0-0.387,0.101-0.69,0.3-0.91
					c0.2-0.221,0.449-0.384,0.745-0.49c0.297-0.106,0.617-0.174,0.96-0.2c0.344-0.026,0.658-0.04,0.945-0.04h0.3v-0.14
					c0-0.34-0.102-0.597-0.305-0.771c-0.203-0.173-0.488-0.26-0.855-0.26c-0.253,0-0.501,0.042-0.744,0.125
					c-0.244,0.084-0.459,0.212-0.646,0.385L19.113,23.66z M21.374,25.49c-0.5,0-0.897,0.07-1.19,0.21s-0.44,0.37-0.44,0.69
					c0,0.293,0.099,0.501,0.296,0.625c0.196,0.123,0.441,0.185,0.734,0.185c0.227,0,0.425-0.038,0.595-0.115
					c0.171-0.076,0.312-0.178,0.426-0.305c0.113-0.127,0.199-0.275,0.26-0.445c0.06-0.17,0.093-0.352,0.1-0.545v-0.3H21.374z"/>
				<path fill="#939598" d="M24.364,24.17c0-0.213-0.007-0.413-0.021-0.6c-0.013-0.187-0.02-0.356-0.02-0.51h0.74
					c0,0.126,0.003,0.253,0.01,0.38s0.01,0.257,0.01,0.39h0.021c0.053-0.113,0.128-0.223,0.225-0.33
					c0.097-0.106,0.212-0.201,0.345-0.285c0.134-0.083,0.283-0.149,0.45-0.199c0.167-0.051,0.347-0.075,0.54-0.075
					c0.054,0,0.106,0.003,0.16,0.01c0.053,0.007,0.106,0.021,0.16,0.04l-0.051,0.79c-0.133-0.04-0.273-0.06-0.42-0.06
					c-0.479,0-0.828,0.154-1.045,0.465c-0.217,0.31-0.325,0.734-0.325,1.274v2.28h-0.779V24.17z"/>
				<path fill="#939598" d="M30.443,23.721h-1.38v2.34c0,0.153,0.003,0.295,0.01,0.425s0.033,0.243,0.08,0.34s0.117,0.174,0.21,0.23
					c0.094,0.057,0.227,0.085,0.4,0.085c0.113,0,0.229-0.014,0.35-0.04c0.12-0.027,0.233-0.067,0.34-0.12l0.03,0.71
					c-0.133,0.06-0.281,0.104-0.445,0.13c-0.163,0.026-0.318,0.04-0.465,0.04c-0.279,0-0.503-0.037-0.67-0.11
					c-0.166-0.073-0.297-0.177-0.39-0.31c-0.094-0.134-0.155-0.299-0.186-0.495c-0.029-0.196-0.045-0.415-0.045-0.655v-2.569h-1.02
					v-0.66h1.02v-1.33h0.78v1.33h1.38V23.721z"/>
			</g>
		</g>
		<g>
			<circle fill="#A7A9AC" cx="87.809" cy="90.401" r="6.616"/>
			
				<polyline fill="none" stroke="#FFFFFF" stroke-width="1.3526" stroke-linecap="round" stroke-linejoin="round" stroke-miterlimit="10" points="
				84.898,92.271 87.786,87.787 90.72,92.342 			"/>
		</g>
		
			<line fill="none" stroke="#A7A9AC" stroke-width="1.4173" stroke-miterlimit="10" x1="28.715" y1="29.974" x2="28.715" y2="90.064"/>
		
			<line fill="none" stroke="#A7A9AC" stroke-width="0.7087" stroke-miterlimit="10" x1="40.193" y1="29.974" x2="40.193" y2="90.064"/>
		
			<line fill="none" stroke="#A7A9AC" stroke-width="0.7087" stroke-miterlimit="10" x1="51.672" y1="29.974" x2="51.672" y2="90.064"/>
		
			<line fill="none" stroke="#A7A9AC" stroke-width="0.7087" stroke-miterlimit="10" x1="63.15" y1="29.974" x2="63.15" y2="90.064"/>
		
			<line fill="none" stroke="#A7A9AC" stroke-width="0.7087" stroke-miterlimit="10" x1="74.63" y1="29.974" x2="74.63" y2="90.064"/>
		
			<line fill="none" stroke="#A7A9AC" stroke-width="1.4173" stroke-miterlimit="10" x1="17.947" y1="39.974" x2="86.108" y2="39.974"/>
		
			<line fill="none" stroke="#A7A9AC" stroke-width="0.7087" stroke-miterlimit="10" x1="17.947" y1="49.992" x2="86.108" y2="49.992"/>
		
			<line fill="none" stroke="#A7A9AC" stroke-width="0.7087" stroke-miterlimit="10" x1="17.592" y1="60.01" x2="85.753" y2="60.01"/>
		
			<line fill="none" stroke="#A7A9AC" stroke-width="0.7087" stroke-miterlimit="10" x1="17.947" y1="70.028" x2="86.108" y2="70.028"/>
		
			<line fill="none" stroke="#A7A9AC" stroke-width="0.7087" stroke-miterlimit="10" x1="17.947" y1="80.046" x2="86.108" y2="80.046"/>
		<polyline fill="none" stroke="#939598" stroke-width="1.4173" stroke-miterlimit="10" points="34.454,44.983 45.774,55.001 
			45.933,65.019 57.411,75.037 57.411,85.056 		"/>
		<circle fill="#FFFFFF" stroke="#939598" stroke-width="1.4173" stroke-miterlimit="10" cx="34.454" cy="44.983" r="2.75"/>
		<circle fill="#FFFFFF" stroke="#939598" stroke-width="1.4173" stroke-miterlimit="10" cx="45.933" cy="55.001" r="2.75"/>
		<polyline fill="none" stroke="#939598" stroke-width="1.4173" stroke-miterlimit="10" points="68.875,44.983 80.191,55.001 
			68.801,65.286 57.411,75.037 68.891,85.056 		"/>
		<circle fill="#FFFFFF" stroke="#939598" stroke-width="1.4173" stroke-miterlimit="10" cx="45.933" cy="65.019" r="2.75"/>
		<circle fill="#FFFFFF" stroke="#939598" stroke-width="1.4173" stroke-miterlimit="10" cx="57.411" cy="75.037" r="2.75"/>
		<circle fill="#FFFFFF" stroke="#939598" stroke-width="1.4173" stroke-miterlimit="10" cx="57.411" cy="85.056" r="2.75"/>
		<circle fill="#FFFFFF" stroke="#939598" stroke-width="1.4173" stroke-miterlimit="10" cx="68.891" cy="44.983" r="2.75"/>
		<circle fill="#FFFFFF" stroke="#939598" stroke-width="1.4173" stroke-miterlimit="10" cx="80.191" cy="55.001" r="2.75"/>
		<circle fill="#FFFFFF" stroke="#939598" stroke-width="1.4173" stroke-miterlimit="10" cx="68.891" cy="65.019" r="2.75"/>
		<circle fill="#FFFFFF" stroke="#939598" stroke-width="1.4173" stroke-miterlimit="10" cx="68.891" cy="85.056" r="2.75"/>
	</g>
</g>
<g id="Layer_4">
</g>
<g id="Layer_3">
</g>
<g id="Layer_5">
</g>
<g id="Annotations">
</g>
</svg>
