<?xml version="1.0" encoding="utf-8"?>
<!-- Generator: Adobe Illustrator 16.0.0, SVG Export Plug-In . SVG Version: 6.00 Build 0)  -->
<!DOCTYPE svg PUBLIC "-//W3C//DTD SVG 1.1//EN" "http://www.w3.org/Graphics/SVG/1.1/DTD/svg11.dtd">
<svg version="1.1" xmlns="http://www.w3.org/2000/svg" xmlns:xlink="http://www.w3.org/1999/xlink" x="0px" y="0px" width="105px"
	 height="110.117px" viewBox="0 0 105 110.117" enable-background="new 0 0 105 110.117" xml:space="preserve">
<g id="Layer_2">
</g>
<g id="Layer_1">
	<g>
		<polyline fill="none" stroke="#A7A9AC" stroke-width="1.4173" stroke-miterlimit="10" points="11.161,20.713 11.161,100.109 
			97.065,100.109 97.065,14.205 48.77,14.205 		"/>
		<g>
			<g>
				<path fill="#939598" d="M8.814,9.077h0.84v3h3.78v-3h0.84v7.08h-0.84v-3.3h-3.78v3.3h-0.84V9.077z"/>
				<path fill="#939598" d="M15.624,13.817c0-0.367,0.063-0.7,0.19-1c0.126-0.3,0.3-0.559,0.52-0.775
					c0.221-0.217,0.483-0.385,0.79-0.505s0.641-0.18,1-0.18c0.36,0,0.693,0.06,1,0.18s0.57,0.288,0.79,0.505
					c0.221,0.217,0.394,0.476,0.521,0.775c0.126,0.3,0.189,0.633,0.189,1c0,0.366-0.063,0.7-0.189,1
					c-0.127,0.3-0.3,0.559-0.521,0.774c-0.22,0.217-0.483,0.386-0.79,0.506c-0.307,0.119-0.64,0.18-1,0.18
					c-0.359,0-0.693-0.061-1-0.18c-0.307-0.12-0.569-0.289-0.79-0.506c-0.22-0.216-0.394-0.475-0.52-0.774
					C15.688,14.518,15.624,14.184,15.624,13.817z M16.464,13.817c0,0.246,0.039,0.475,0.115,0.685
					c0.077,0.21,0.188,0.394,0.335,0.55c0.146,0.157,0.322,0.28,0.525,0.37c0.203,0.091,0.432,0.136,0.685,0.136
					c0.254,0,0.481-0.045,0.686-0.136c0.203-0.09,0.378-0.213,0.524-0.37c0.146-0.156,0.259-0.34,0.335-0.55
					c0.077-0.21,0.115-0.438,0.115-0.685c0-0.247-0.038-0.476-0.115-0.686c-0.076-0.21-0.188-0.393-0.335-0.55
					c-0.146-0.156-0.321-0.28-0.524-0.37c-0.204-0.09-0.432-0.135-0.686-0.135c-0.253,0-0.481,0.045-0.685,0.135
					s-0.379,0.214-0.525,0.37c-0.146,0.157-0.258,0.34-0.335,0.55C16.503,13.342,16.464,13.57,16.464,13.817z"/>
				<path fill="#939598" d="M26.854,16.157h-0.77l-1.33-3.6h-0.021l-1.18,3.6h-0.8l-1.521-4.68h0.86l1.07,3.6h0.02l1.21-3.6h0.82
					l1.229,3.6h0.021l1.06-3.6h0.84L26.854,16.157z"/>
				<path fill="#939598" d="M34.585,12.138h-1.38v2.34c0,0.153,0.003,0.295,0.01,0.425s0.033,0.243,0.08,0.34s0.117,0.174,0.21,0.23
					c0.094,0.057,0.227,0.085,0.4,0.085c0.113,0,0.229-0.014,0.35-0.04c0.12-0.027,0.233-0.067,0.34-0.12l0.03,0.71
					c-0.133,0.06-0.281,0.104-0.445,0.13c-0.163,0.026-0.318,0.04-0.465,0.04c-0.279,0-0.503-0.037-0.67-0.11
					c-0.166-0.073-0.297-0.177-0.39-0.31c-0.094-0.134-0.155-0.299-0.186-0.495c-0.029-0.196-0.045-0.415-0.045-0.655v-2.569h-1.02
					v-0.66h1.02v-1.33h0.78v1.33h1.38V12.138z"/>
				<path fill="#939598" d="M35.274,13.817c0-0.367,0.063-0.7,0.19-1c0.126-0.3,0.3-0.559,0.52-0.775
					c0.221-0.217,0.483-0.385,0.79-0.505s0.641-0.18,1-0.18c0.36,0,0.693,0.06,1,0.18s0.57,0.288,0.79,0.505
					c0.221,0.217,0.394,0.476,0.521,0.775c0.126,0.3,0.189,0.633,0.189,1c0,0.366-0.063,0.7-0.189,1
					c-0.127,0.3-0.3,0.559-0.521,0.774c-0.22,0.217-0.483,0.386-0.79,0.506c-0.307,0.119-0.64,0.18-1,0.18
					c-0.359,0-0.693-0.061-1-0.18c-0.307-0.12-0.569-0.289-0.79-0.506c-0.22-0.216-0.394-0.475-0.52-0.774
					C35.338,14.518,35.274,14.184,35.274,13.817z M36.114,13.817c0,0.246,0.039,0.475,0.115,0.685
					c0.077,0.21,0.188,0.394,0.335,0.55c0.146,0.157,0.322,0.28,0.525,0.37c0.203,0.091,0.432,0.136,0.685,0.136
					c0.254,0,0.481-0.045,0.686-0.136c0.203-0.09,0.378-0.213,0.524-0.37c0.146-0.156,0.259-0.34,0.335-0.55
					c0.077-0.21,0.115-0.438,0.115-0.685c0-0.247-0.038-0.476-0.115-0.686c-0.076-0.21-0.188-0.393-0.335-0.55
					c-0.146-0.156-0.321-0.28-0.524-0.37c-0.204-0.09-0.432-0.135-0.686-0.135c-0.253,0-0.481,0.045-0.685,0.135
					s-0.379,0.214-0.525,0.37c-0.146,0.157-0.258,0.34-0.335,0.55C36.153,13.342,36.114,13.57,36.114,13.817z"/>
				<path fill="#939598" d="M41.585,14.927c0.153,0.194,0.321,0.348,0.505,0.461s0.415,0.17,0.695,0.17
					c0.12,0,0.241-0.014,0.365-0.04c0.123-0.027,0.234-0.07,0.335-0.13c0.1-0.061,0.18-0.136,0.24-0.226
					c0.06-0.09,0.09-0.198,0.09-0.325c0-0.126-0.028-0.229-0.085-0.31s-0.132-0.148-0.226-0.205c-0.093-0.057-0.2-0.102-0.319-0.135
					c-0.12-0.033-0.244-0.063-0.37-0.09c-0.221-0.047-0.431-0.101-0.63-0.16c-0.2-0.061-0.375-0.139-0.525-0.235
					s-0.271-0.222-0.36-0.375s-0.135-0.35-0.135-0.59c0-0.227,0.05-0.427,0.15-0.6c0.1-0.174,0.233-0.317,0.399-0.431
					c0.167-0.113,0.354-0.2,0.561-0.26c0.206-0.06,0.42-0.09,0.64-0.09c0.333,0,0.642,0.066,0.925,0.2
					c0.283,0.133,0.505,0.35,0.665,0.649l-0.649,0.431c-0.101-0.167-0.232-0.302-0.396-0.405s-0.361-0.155-0.595-0.155
					c-0.106,0-0.215,0.014-0.325,0.04s-0.208,0.066-0.295,0.12s-0.158,0.122-0.215,0.205s-0.085,0.179-0.085,0.285
					c0,0.1,0.031,0.185,0.095,0.255c0.063,0.069,0.15,0.132,0.26,0.185c0.11,0.054,0.237,0.101,0.38,0.141
					c0.144,0.04,0.292,0.073,0.445,0.1c0.207,0.04,0.403,0.092,0.59,0.155s0.351,0.148,0.49,0.255s0.25,0.24,0.33,0.399
					c0.08,0.16,0.12,0.357,0.12,0.591c0,0.267-0.054,0.493-0.16,0.68s-0.248,0.338-0.425,0.455
					c-0.177,0.116-0.377,0.201-0.601,0.255c-0.223,0.054-0.451,0.08-0.685,0.08c-0.4,0-0.745-0.062-1.035-0.186
					c-0.29-0.123-0.552-0.352-0.785-0.685L41.585,14.927z"/>
			</g>
		</g>
		<g>
			<circle fill="#A7A9AC" cx="87.689" cy="90.817" r="6.616"/>
			
				<polyline fill="none" stroke="#FFFFFF" stroke-width="1.3526" stroke-linecap="round" stroke-linejoin="round" stroke-miterlimit="10" points="
				84.778,92.688 87.667,88.203 90.601,92.758 			"/>
		</g>
		<g>
			<rect x="24.214" y="27.213" fill="#D1D3D4" width="14.463" height="14.465"/>
		</g>
		<g>
			<rect x="45.518" y="34.445" fill="#D1D3D4" width="14.463" height="14.465"/>
		</g>
		<g>
			<rect x="36.225" y="51.736" fill="#D1D3D4" width="14.463" height="14.465"/>
		</g>
		<g>
			<rect x="53.791" y="62.135" fill="#D1D3D4" width="14.463" height="14.465"/>
		</g>
		<g>
			<rect x="68.028" y="40.266" fill="#D1D3D4" width="14.463" height="14.465"/>
		</g>
		<g>
			<rect x="71.808" y="20.971" fill="#D1D3D4" width="14.463" height="14.465"/>
		</g>
		<g>
			<rect x="27.993" y="74.488" fill="#D1D3D4" width="14.463" height="14.465"/>
		</g>
		<g>
			<rect x="71.808" y="66.242" fill="#D1D3D4" width="14.463" height="14.465"/>
		</g>
		<g>
			<g>
				<path fill="#939598" d="M30.851,36.135v-0.66c0-0.176,0.011-0.326,0.03-0.45c0.021-0.124,0.056-0.235,0.108-0.336
					c0.052-0.1,0.12-0.196,0.204-0.288s0.186-0.202,0.306-0.33l0.924-0.936c0.2-0.2,0.3-0.46,0.3-0.78
					c0-0.312-0.102-0.565-0.306-0.762s-0.462-0.294-0.774-0.294c-0.336,0-0.611,0.113-0.827,0.342
					c-0.217,0.228-0.341,0.506-0.372,0.834l-1.536-0.12c0.048-0.384,0.147-0.726,0.3-1.026c0.152-0.3,0.35-0.554,0.594-0.762
					s0.526-0.366,0.847-0.474c0.319-0.108,0.672-0.162,1.056-0.162c0.36,0,0.694,0.052,1.002,0.156
					c0.308,0.104,0.576,0.254,0.804,0.449c0.229,0.196,0.406,0.44,0.534,0.732s0.192,0.626,0.192,1.002
					c0,0.264-0.036,0.496-0.108,0.696s-0.168,0.384-0.288,0.552s-0.258,0.328-0.414,0.48c-0.155,0.151-0.322,0.312-0.498,0.479
					c-0.112,0.104-0.208,0.196-0.288,0.276s-0.146,0.162-0.197,0.246c-0.053,0.084-0.091,0.18-0.114,0.288
					c-0.024,0.107-0.036,0.237-0.036,0.39v0.456H30.851z M30.611,37.803c0-0.256,0.094-0.476,0.281-0.66
					c0.188-0.184,0.414-0.276,0.679-0.276c0.256,0,0.479,0.089,0.672,0.265c0.191,0.176,0.288,0.392,0.288,0.647
					c0,0.257-0.095,0.477-0.282,0.66c-0.188,0.185-0.414,0.276-0.678,0.276c-0.128,0-0.25-0.024-0.366-0.072
					s-0.218-0.112-0.306-0.192c-0.089-0.079-0.158-0.176-0.21-0.288C30.637,38.051,30.611,37.931,30.611,37.803z"/>
			</g>
		</g>
		<g>
			<g>
				<path fill="#939598" d="M52.154,43.367v-0.66c0-0.176,0.011-0.326,0.03-0.45c0.021-0.124,0.056-0.235,0.108-0.336
					c0.052-0.1,0.12-0.196,0.204-0.288s0.186-0.202,0.306-0.33l0.924-0.936c0.2-0.2,0.3-0.46,0.3-0.78
					c0-0.312-0.102-0.565-0.306-0.762s-0.462-0.294-0.774-0.294c-0.336,0-0.611,0.113-0.827,0.342
					c-0.217,0.228-0.341,0.506-0.372,0.834l-1.536-0.12c0.048-0.384,0.147-0.726,0.3-1.026c0.152-0.3,0.35-0.554,0.594-0.762
					s0.526-0.366,0.847-0.474c0.319-0.108,0.672-0.162,1.056-0.162c0.36,0,0.694,0.052,1.002,0.156
					c0.308,0.104,0.576,0.254,0.804,0.449c0.229,0.196,0.406,0.44,0.534,0.732s0.192,0.626,0.192,1.002
					c0,0.264-0.036,0.496-0.108,0.696s-0.168,0.384-0.288,0.552s-0.258,0.328-0.414,0.48c-0.155,0.151-0.322,0.312-0.498,0.479
					c-0.112,0.104-0.208,0.196-0.288,0.276s-0.146,0.162-0.197,0.246c-0.053,0.084-0.091,0.18-0.114,0.288
					c-0.024,0.107-0.036,0.237-0.036,0.39v0.456H52.154z M51.915,45.035c0-0.256,0.094-0.476,0.281-0.66
					c0.188-0.184,0.414-0.276,0.679-0.276c0.256,0,0.479,0.089,0.672,0.265c0.191,0.176,0.288,0.392,0.288,0.647
					c0,0.257-0.095,0.477-0.282,0.66c-0.188,0.185-0.414,0.276-0.678,0.276c-0.128,0-0.25-0.024-0.366-0.072
					s-0.218-0.112-0.306-0.192c-0.089-0.079-0.158-0.176-0.21-0.288C51.94,45.283,51.915,45.163,51.915,45.035z"/>
			</g>
		</g>
		<g>
			<g>
				<path fill="#939598" d="M78.444,29.893v-0.66c0-0.176,0.011-0.326,0.03-0.45c0.021-0.124,0.056-0.235,0.108-0.336
					c0.052-0.1,0.12-0.196,0.204-0.288s0.186-0.202,0.306-0.33l0.924-0.936c0.2-0.2,0.3-0.46,0.3-0.78
					c0-0.312-0.102-0.565-0.306-0.762s-0.462-0.294-0.774-0.294c-0.336,0-0.611,0.113-0.827,0.342
					c-0.217,0.228-0.341,0.506-0.372,0.834l-1.536-0.12c0.048-0.384,0.147-0.726,0.3-1.026c0.152-0.3,0.35-0.554,0.594-0.762
					s0.526-0.366,0.847-0.474c0.319-0.108,0.672-0.162,1.056-0.162c0.36,0,0.694,0.052,1.002,0.156
					c0.308,0.104,0.576,0.254,0.804,0.449c0.229,0.196,0.406,0.44,0.534,0.732s0.192,0.626,0.192,1.002
					c0,0.264-0.036,0.496-0.108,0.696s-0.168,0.384-0.288,0.552s-0.258,0.328-0.414,0.48c-0.155,0.151-0.322,0.312-0.498,0.479
					c-0.112,0.104-0.208,0.196-0.288,0.276s-0.146,0.162-0.197,0.246c-0.053,0.084-0.091,0.18-0.114,0.288
					c-0.024,0.107-0.036,0.237-0.036,0.39v0.456H78.444z M78.205,31.561c0-0.256,0.094-0.476,0.281-0.66
					c0.188-0.184,0.414-0.276,0.679-0.276c0.256,0,0.479,0.089,0.672,0.265c0.191,0.176,0.288,0.392,0.288,0.647
					c0,0.257-0.095,0.477-0.282,0.66c-0.188,0.185-0.414,0.276-0.678,0.276c-0.128,0-0.25-0.024-0.366-0.072
					s-0.218-0.112-0.306-0.192c-0.089-0.079-0.158-0.176-0.21-0.288C78.23,31.809,78.205,31.688,78.205,31.561z"/>
			</g>
		</g>
		<g>
			<g>
				<path fill="#939598" d="M74.665,49.188v-0.66c0-0.176,0.011-0.326,0.03-0.451c0.021-0.123,0.056-0.234,0.108-0.336
					c0.052-0.1,0.12-0.195,0.204-0.287s0.186-0.203,0.306-0.33l0.924-0.936c0.2-0.201,0.3-0.461,0.3-0.781
					c0-0.311-0.102-0.564-0.306-0.762c-0.204-0.195-0.462-0.293-0.774-0.293c-0.336,0-0.611,0.113-0.827,0.342
					c-0.217,0.227-0.341,0.506-0.372,0.834l-1.536-0.121c0.048-0.383,0.147-0.725,0.3-1.025s0.35-0.555,0.594-0.762
					c0.244-0.209,0.526-0.367,0.847-0.475c0.319-0.107,0.672-0.162,1.056-0.162c0.36,0,0.694,0.053,1.002,0.156
					s0.576,0.254,0.804,0.449c0.229,0.197,0.406,0.441,0.534,0.732c0.128,0.293,0.192,0.627,0.192,1.002
					c0,0.264-0.036,0.496-0.108,0.697c-0.072,0.199-0.168,0.383-0.288,0.551s-0.258,0.328-0.414,0.48
					c-0.155,0.152-0.322,0.312-0.498,0.48c-0.112,0.104-0.208,0.195-0.288,0.275s-0.146,0.162-0.197,0.246
					c-0.053,0.084-0.091,0.18-0.114,0.289c-0.024,0.107-0.036,0.236-0.036,0.389v0.457H74.665z M74.426,50.855
					c0-0.256,0.094-0.477,0.281-0.66c0.188-0.184,0.414-0.277,0.679-0.277c0.256,0,0.479,0.09,0.672,0.266
					c0.191,0.176,0.288,0.391,0.288,0.646c0,0.258-0.095,0.477-0.282,0.66c-0.188,0.186-0.414,0.277-0.678,0.277
					c-0.128,0-0.25-0.025-0.366-0.072c-0.116-0.049-0.218-0.113-0.306-0.193c-0.089-0.078-0.158-0.176-0.21-0.287
					C74.451,51.104,74.426,50.982,74.426,50.855z"/>
			</g>
		</g>
		<g>
			<g>
				<path fill="#939598" d="M60.427,71.057v-0.66c0-0.176,0.011-0.326,0.03-0.451c0.021-0.123,0.056-0.234,0.108-0.336
					c0.052-0.1,0.12-0.195,0.204-0.287s0.186-0.203,0.306-0.33l0.924-0.936c0.2-0.201,0.3-0.461,0.3-0.781
					c0-0.311-0.102-0.564-0.306-0.762c-0.204-0.195-0.462-0.293-0.774-0.293c-0.336,0-0.611,0.113-0.827,0.342
					c-0.217,0.227-0.341,0.506-0.372,0.834l-1.536-0.121c0.048-0.383,0.147-0.725,0.3-1.025s0.35-0.555,0.594-0.762
					c0.244-0.209,0.526-0.367,0.847-0.475c0.319-0.107,0.672-0.162,1.056-0.162c0.36,0,0.694,0.053,1.002,0.156
					s0.576,0.254,0.804,0.449c0.229,0.197,0.406,0.441,0.534,0.732c0.128,0.293,0.192,0.627,0.192,1.002
					c0,0.264-0.036,0.496-0.108,0.697c-0.072,0.199-0.168,0.383-0.288,0.551s-0.258,0.328-0.414,0.48
					c-0.155,0.152-0.322,0.312-0.498,0.48c-0.112,0.104-0.208,0.195-0.288,0.275s-0.146,0.162-0.197,0.246
					c-0.053,0.084-0.091,0.18-0.114,0.289c-0.024,0.107-0.036,0.236-0.036,0.389v0.457H60.427z M60.188,72.725
					c0-0.256,0.094-0.477,0.281-0.66c0.188-0.184,0.414-0.277,0.679-0.277c0.256,0,0.479,0.09,0.672,0.266
					c0.191,0.176,0.288,0.391,0.288,0.646c0,0.258-0.095,0.477-0.282,0.66c-0.188,0.186-0.414,0.277-0.678,0.277
					c-0.128,0-0.25-0.025-0.366-0.072c-0.116-0.049-0.218-0.113-0.306-0.193c-0.089-0.078-0.158-0.176-0.21-0.287
					C60.213,72.973,60.188,72.852,60.188,72.725z"/>
			</g>
		</g>
		<g>
			<g>
				<path fill="#939598" d="M78.444,75.164v-0.66c0-0.176,0.011-0.326,0.03-0.449c0.021-0.125,0.056-0.236,0.108-0.336
					c0.052-0.1,0.12-0.197,0.204-0.289s0.186-0.201,0.306-0.33l0.924-0.936c0.2-0.199,0.3-0.459,0.3-0.779
					c0-0.312-0.102-0.566-0.306-0.762c-0.204-0.197-0.462-0.295-0.774-0.295c-0.336,0-0.611,0.113-0.827,0.342
					c-0.217,0.229-0.341,0.506-0.372,0.834l-1.536-0.119c0.048-0.385,0.147-0.727,0.3-1.027c0.152-0.299,0.35-0.553,0.594-0.762
					c0.244-0.207,0.526-0.365,0.847-0.473c0.319-0.109,0.672-0.162,1.056-0.162c0.36,0,0.694,0.051,1.002,0.156
					c0.308,0.104,0.576,0.254,0.804,0.449c0.229,0.195,0.406,0.439,0.534,0.732c0.128,0.291,0.192,0.625,0.192,1.002
					c0,0.264-0.036,0.496-0.108,0.695c-0.072,0.201-0.168,0.385-0.288,0.553s-0.258,0.328-0.414,0.48
					c-0.155,0.15-0.322,0.311-0.498,0.479c-0.112,0.105-0.208,0.197-0.288,0.277s-0.146,0.162-0.197,0.246
					c-0.053,0.084-0.091,0.18-0.114,0.287c-0.024,0.107-0.036,0.238-0.036,0.391v0.455H78.444z M78.205,76.832
					c0-0.256,0.094-0.475,0.281-0.66c0.188-0.184,0.414-0.275,0.679-0.275c0.256,0,0.479,0.088,0.672,0.264
					c0.191,0.176,0.288,0.393,0.288,0.648s-0.095,0.477-0.282,0.66c-0.188,0.184-0.414,0.275-0.678,0.275
					c-0.128,0-0.25-0.023-0.366-0.072c-0.116-0.047-0.218-0.111-0.306-0.191c-0.089-0.08-0.158-0.176-0.21-0.289
					C78.23,77.08,78.205,76.961,78.205,76.832z"/>
			</g>
		</g>
		<g>
			<g>
				<path fill="#939598" d="M34.63,83.41v-0.66c0-0.176,0.011-0.326,0.03-0.451c0.021-0.123,0.056-0.234,0.108-0.336
					c0.052-0.1,0.12-0.195,0.204-0.287s0.186-0.203,0.306-0.33l0.924-0.936c0.2-0.201,0.3-0.461,0.3-0.781
					c0-0.311-0.102-0.564-0.306-0.762c-0.204-0.195-0.462-0.293-0.774-0.293c-0.336,0-0.611,0.113-0.827,0.342
					c-0.217,0.227-0.341,0.506-0.372,0.834l-1.536-0.121c0.048-0.383,0.147-0.725,0.3-1.025s0.35-0.555,0.594-0.762
					c0.244-0.209,0.526-0.367,0.847-0.475c0.319-0.107,0.672-0.162,1.056-0.162c0.36,0,0.694,0.053,1.002,0.156
					s0.576,0.254,0.804,0.449c0.229,0.197,0.406,0.441,0.534,0.732c0.128,0.293,0.192,0.627,0.192,1.002
					c0,0.264-0.036,0.496-0.108,0.697c-0.072,0.199-0.168,0.383-0.288,0.551s-0.258,0.328-0.414,0.48
					c-0.155,0.152-0.322,0.312-0.498,0.48c-0.112,0.104-0.208,0.195-0.288,0.275s-0.146,0.162-0.197,0.246
					c-0.053,0.084-0.091,0.18-0.114,0.289c-0.024,0.107-0.036,0.236-0.036,0.389v0.457H34.63z M34.391,85.078
					c0-0.256,0.094-0.477,0.281-0.66c0.188-0.184,0.414-0.277,0.679-0.277c0.256,0,0.479,0.09,0.672,0.266
					c0.191,0.176,0.288,0.391,0.288,0.646c0,0.258-0.095,0.477-0.282,0.66c-0.188,0.186-0.414,0.277-0.678,0.277
					c-0.128,0-0.25-0.025-0.366-0.072c-0.116-0.049-0.218-0.113-0.306-0.193c-0.089-0.078-0.158-0.176-0.21-0.287
					C34.416,85.326,34.391,85.205,34.391,85.078z"/>
			</g>
		</g>
		<g>
			<g>
				<path fill="#939598" d="M42.86,60.658v-0.66c0-0.176,0.011-0.326,0.03-0.451c0.021-0.123,0.056-0.234,0.108-0.336
					c0.052-0.1,0.12-0.195,0.204-0.287s0.186-0.203,0.306-0.33l0.924-0.936c0.2-0.201,0.3-0.461,0.3-0.781
					c0-0.311-0.102-0.564-0.306-0.762c-0.204-0.195-0.462-0.293-0.774-0.293c-0.336,0-0.611,0.113-0.827,0.342
					c-0.217,0.227-0.341,0.506-0.372,0.834l-1.536-0.121c0.048-0.383,0.147-0.725,0.3-1.025s0.35-0.555,0.594-0.762
					c0.244-0.209,0.526-0.367,0.847-0.475c0.319-0.107,0.672-0.162,1.056-0.162c0.36,0,0.694,0.053,1.002,0.156
					s0.576,0.254,0.804,0.449c0.229,0.197,0.406,0.441,0.534,0.732c0.128,0.293,0.192,0.627,0.192,1.002
					c0,0.264-0.036,0.496-0.108,0.697c-0.072,0.199-0.168,0.383-0.288,0.551s-0.258,0.328-0.414,0.48
					c-0.155,0.152-0.322,0.312-0.498,0.48c-0.112,0.104-0.208,0.195-0.288,0.275s-0.146,0.162-0.197,0.246
					c-0.053,0.084-0.091,0.18-0.114,0.289c-0.024,0.107-0.036,0.236-0.036,0.389v0.457H42.86z M42.621,62.326
					c0-0.256,0.094-0.477,0.281-0.66c0.188-0.184,0.414-0.277,0.679-0.277c0.256,0,0.479,0.09,0.672,0.266
					c0.191,0.176,0.288,0.391,0.288,0.646c0,0.258-0.095,0.477-0.282,0.66c-0.188,0.186-0.414,0.277-0.678,0.277
					c-0.128,0-0.25-0.025-0.366-0.072c-0.116-0.049-0.218-0.113-0.306-0.193c-0.089-0.078-0.158-0.176-0.21-0.287
					C42.646,62.574,42.621,62.453,42.621,62.326z"/>
			</g>
		</g>
	</g>
</g>
<g id="Layer_4">
</g>
<g id="Layer_3">
</g>
<g id="Layer_5">
</g>
<g id="Annotations">
</g>
</svg>
