<?xml version="1.0" encoding="utf-8"?>
<!-- Generator: Adobe Illustrator 16.0.0, SVG Export Plug-In . SVG Version: 6.00 Build 0)  -->
<!DOCTYPE svg PUBLIC "-//W3C//DTD SVG 1.1//EN" "http://www.w3.org/Graphics/SVG/1.1/DTD/svg11.dtd">
<svg version="1.1" xmlns="http://www.w3.org/2000/svg" xmlns:xlink="http://www.w3.org/1999/xlink" x="0px" y="0px" width="105px"
	 height="110.117px" viewBox="0 0 105 110.117" enable-background="new 0 0 105 110.117" xml:space="preserve">
<g id="Layer_2">
</g>
<g id="Layer_1">
	<g>
		<g>
			<g>
				<polyline fill="none" stroke="#939598" stroke-width="1.4173" stroke-miterlimit="10" points="23.052,25.376 34.847,25.376 
					34.847,29.419 				"/>
				<g>
					<polygon fill="#939598" points="32.747,27.827 34.847,28.718 36.946,27.827 34.847,32.803 					"/>
				</g>
			</g>
		</g>
		<g>
			<g>
				<polyline fill="none" stroke="#939598" stroke-width="1.4173" stroke-miterlimit="10" points="34.847,35.882 46.642,35.882 
					46.642,39.925 				"/>
				<g>
					<polygon fill="#939598" points="44.542,38.333 46.642,39.224 48.741,38.333 46.642,43.309 					"/>
				</g>
			</g>
		</g>
		<g>
			<g>
				<polyline fill="none" stroke="#939598" stroke-width="1.4173" stroke-miterlimit="10" points="46.642,45.729 58.437,45.729 
					58.437,49.771 				"/>
				<g>
					<polygon fill="#939598" points="56.337,48.179 58.437,49.071 60.536,48.179 58.437,53.156 					"/>
				</g>
			</g>
		</g>
		<g>
			<g>
				<polyline fill="none" stroke="#939598" stroke-width="1.4173" stroke-miterlimit="10" points="58.522,55.906 70.317,55.906 
					70.317,59.948 				"/>
				<g>
					<polygon fill="#939598" points="68.218,58.356 70.317,59.248 72.417,58.356 70.317,63.333 					"/>
				</g>
			</g>
		</g>
		<g>
			<g>
				<polyline fill="none" stroke="#939598" stroke-width="1.4173" stroke-miterlimit="10" points="70.317,66.082 82.112,66.082 
					82.112,70.124 				"/>
				<g>
					<polygon fill="#939598" points="80.013,68.532 82.112,69.423 84.212,68.532 82.112,73.508 					"/>
				</g>
			</g>
		</g>
		<g>
			<circle fill="#A7A9AC" cx="71.595" cy="90.443" r="6.716"/>
			<g>
				<g>
					<path fill="none" stroke="#FFFFFF" stroke-width="0.5315" stroke-linecap="round" stroke-miterlimit="10" d="M75.782,90.443
						c0-2.142-1.608-3.907-3.683-4.156"/>
					<g>
						<polygon fill="#FFFFFF" points="72.473,85.693 70.223,86.487 72.568,86.925 						"/>
					</g>
				</g>
			</g>
			<g>
				<g>
					<path fill="none" stroke="#FFFFFF" stroke-width="0.5315" stroke-linecap="round" stroke-miterlimit="10" d="M69.501,94.07
						c0.616,0.356,1.331,0.56,2.094,0.56c1.349,0,2.548-0.637,3.313-1.627"/>
					<g>
						<polygon fill="#FFFFFF" points="75.237,93.628 75.696,91.287 74.128,93.085 						"/>
					</g>
				</g>
			</g>
			<g>
				<g>
					<path fill="none" stroke="#FFFFFF" stroke-width="0.5315" stroke-linecap="round" stroke-miterlimit="10" d="M69.501,86.816
						c-1.251,0.726-2.093,2.077-2.093,3.627c0,0.583,0.119,1.138,0.334,1.642"/>
					<g>
						<polygon fill="#FFFFFF" points="67.05,92.048 68.854,93.609 68.072,91.355 						"/>
					</g>
				</g>
			</g>
		</g>
		<polyline fill="none" stroke="#A7A9AC" stroke-width="1.4173" stroke-miterlimit="10" points="11.161,21.209 11.161,99.72 
			97.065,99.72 97.065,13.816 64.077,13.816 		"/>
		<g>
			<g>
				<path fill="#939598" d="M9.053,8.804h4.39v0.78h-3.55v2.34h3.3v0.78h-3.3v3.18h-0.84V8.804z"/>
				<path fill="#939598" d="M14.362,9.374c0-0.153,0.055-0.287,0.165-0.4s0.245-0.17,0.405-0.17s0.295,0.057,0.405,0.17
					c0.109,0.113,0.164,0.247,0.164,0.4c0,0.166-0.053,0.303-0.159,0.41c-0.107,0.106-0.244,0.159-0.41,0.159
					c-0.167,0-0.304-0.053-0.41-0.159C14.416,9.677,14.362,9.54,14.362,9.374z M14.542,11.204h0.78v4.68h-0.78V11.204z"/>
				<path fill="#939598" d="M19.002,15.884h-0.86l-1.91-4.68h0.91l1.46,3.67h0.021l1.39-3.67h0.84L19.002,15.884z"/>
				<path fill="#939598" d="M25.872,15.034c-0.28,0.359-0.587,0.611-0.92,0.755c-0.333,0.143-0.72,0.215-1.16,0.215
					c-0.366,0-0.696-0.065-0.99-0.195c-0.293-0.13-0.541-0.305-0.744-0.524c-0.204-0.221-0.36-0.48-0.471-0.78
					c-0.109-0.3-0.165-0.62-0.165-0.96c0-0.36,0.061-0.691,0.181-0.995c0.119-0.304,0.286-0.563,0.5-0.78
					c0.213-0.217,0.466-0.385,0.76-0.505c0.293-0.12,0.613-0.18,0.96-0.18c0.326,0,0.626,0.055,0.899,0.165
					c0.273,0.109,0.509,0.27,0.705,0.479c0.197,0.21,0.349,0.467,0.455,0.771c0.106,0.303,0.16,0.648,0.16,1.035v0.25h-3.78
					c0.014,0.199,0.062,0.392,0.146,0.574c0.083,0.184,0.191,0.344,0.325,0.48c0.133,0.137,0.29,0.245,0.47,0.325
					s0.377,0.12,0.59,0.12c0.34,0,0.627-0.061,0.86-0.181s0.443-0.296,0.63-0.529L25.872,15.034z M25.202,13.124
					c-0.014-0.4-0.144-0.721-0.39-0.96c-0.247-0.24-0.587-0.36-1.021-0.36s-0.783,0.12-1.05,0.36c-0.267,0.239-0.427,0.56-0.48,0.96
					H25.202z"/>
				<path fill="#939598" d="M35.052,15.884h-0.77l-1.33-3.6h-0.021l-1.18,3.6h-0.8l-1.521-4.68h0.86l1.07,3.6h0.02l1.21-3.6h0.82
					l1.229,3.6h0.021l1.06-3.6h0.84L35.052,15.884z"/>
				<path fill="#939598" d="M37.442,8.324h0.779v3.529h0.021c0.054-0.093,0.127-0.185,0.22-0.274
					c0.094-0.09,0.205-0.172,0.335-0.245s0.275-0.134,0.436-0.181c0.16-0.046,0.33-0.069,0.51-0.069c0.307,0,0.571,0.047,0.795,0.14
					c0.224,0.094,0.408,0.224,0.555,0.391c0.146,0.166,0.255,0.368,0.325,0.604s0.105,0.495,0.105,0.775v2.89h-0.78v-2.81
					c0-0.394-0.087-0.704-0.26-0.931c-0.174-0.227-0.443-0.34-0.811-0.34c-0.253,0-0.472,0.044-0.654,0.13
					c-0.184,0.087-0.334,0.21-0.45,0.37c-0.117,0.16-0.204,0.35-0.26,0.57c-0.058,0.22-0.086,0.463-0.086,0.729v2.28h-0.779V8.324z"
					/>
				<path fill="#939598" d="M44.722,16.954c-0.08,0.199-0.162,0.381-0.245,0.545c-0.083,0.163-0.184,0.303-0.3,0.42
					c-0.117,0.116-0.257,0.206-0.42,0.27s-0.362,0.096-0.595,0.096c-0.114,0-0.232-0.007-0.355-0.021s-0.238-0.047-0.345-0.1
					l0.1-0.681c0.08,0.033,0.163,0.056,0.25,0.065s0.187,0.015,0.3,0.015c0.254,0,0.44-0.069,0.561-0.21
					c0.12-0.14,0.223-0.326,0.31-0.56l0.32-0.88l-1.94-4.71h0.91l1.45,3.67h0.021l1.39-3.67h0.85L44.722,16.954z"/>
				<path fill="#939598" d="M48.442,11.204h-0.761l0.67-2.4h0.91L48.442,11.204z"/>
				<path fill="#939598" d="M49.962,14.653c0.153,0.194,0.321,0.348,0.505,0.461s0.415,0.17,0.695,0.17
					c0.12,0,0.241-0.014,0.365-0.04c0.123-0.027,0.234-0.07,0.335-0.13c0.1-0.061,0.18-0.136,0.24-0.226
					c0.06-0.09,0.09-0.198,0.09-0.325c0-0.126-0.028-0.229-0.085-0.31s-0.132-0.148-0.226-0.205c-0.093-0.057-0.2-0.102-0.319-0.135
					c-0.12-0.033-0.244-0.063-0.37-0.09c-0.221-0.047-0.431-0.101-0.63-0.16c-0.2-0.061-0.375-0.139-0.525-0.235
					s-0.271-0.222-0.36-0.375s-0.135-0.35-0.135-0.59c0-0.227,0.05-0.427,0.15-0.6c0.1-0.174,0.233-0.317,0.399-0.431
					c0.167-0.113,0.354-0.2,0.561-0.26c0.206-0.06,0.42-0.09,0.64-0.09c0.333,0,0.642,0.066,0.925,0.2
					c0.283,0.133,0.505,0.35,0.665,0.649l-0.649,0.431c-0.101-0.167-0.232-0.302-0.396-0.405s-0.361-0.155-0.595-0.155
					c-0.106,0-0.215,0.014-0.325,0.04s-0.208,0.066-0.295,0.12s-0.158,0.122-0.215,0.205s-0.085,0.179-0.085,0.285
					c0,0.1,0.031,0.185,0.095,0.255c0.063,0.069,0.15,0.132,0.26,0.185c0.11,0.054,0.237,0.101,0.38,0.141
					c0.144,0.04,0.292,0.073,0.445,0.1c0.207,0.04,0.403,0.092,0.59,0.155s0.351,0.148,0.49,0.255s0.25,0.24,0.33,0.399
					c0.08,0.16,0.12,0.357,0.12,0.591c0,0.267-0.054,0.493-0.16,0.68s-0.248,0.338-0.425,0.455
					c-0.177,0.116-0.377,0.201-0.601,0.255c-0.223,0.054-0.451,0.08-0.685,0.08c-0.4,0-0.745-0.062-1.035-0.186
					c-0.29-0.123-0.552-0.352-0.785-0.685L49.962,14.653z"/>
			</g>
		</g>
		<g>
			<circle fill="#A7A9AC" cx="87.927" cy="90.543" r="6.616"/>
			
				<polyline fill="none" stroke="#FFFFFF" stroke-width="1.3526" stroke-linecap="round" stroke-linejoin="round" stroke-miterlimit="10" points="
				85.017,92.414 87.904,87.929 90.838,92.484 			"/>
		</g>
		<circle fill="#FFFFFF" stroke="#939598" stroke-width="1.4173" stroke-miterlimit="10" cx="23.052" cy="25.376" r="2.75"/>
		<circle fill="#FFFFFF" stroke="#939598" stroke-width="1.4173" stroke-miterlimit="10" cx="34.847" cy="35.553" r="2.75"/>
		<circle fill="#FFFFFF" stroke="#939598" stroke-width="1.4173" stroke-miterlimit="10" cx="46.643" cy="45.729" r="2.75"/>
		<circle fill="#FFFFFF" stroke="#939598" stroke-width="1.4173" stroke-miterlimit="10" cx="58.438" cy="55.906" r="2.75"/>
		<circle fill="#D3D3D3" stroke="#939598" stroke-width="1.4173" stroke-miterlimit="10" cx="82.028" cy="76.258" r="2.75"/>
		<circle fill="#FFFFFF" stroke="#939598" stroke-width="1.4173" stroke-miterlimit="10" cx="70.233" cy="66.082" r="2.75"/>
	</g>
</g>
<g id="Layer_4">
</g>
<g id="Layer_3">
</g>
<g id="Layer_5">
</g>
<g id="Annotations">
</g>
</svg>
