<?xml version="1.0" encoding="utf-8"?>
<!-- Generator: Adobe Illustrator 16.0.0, SVG Export Plug-In . SVG Version: 6.00 Build 0)  -->
<!DOCTYPE svg PUBLIC "-//W3C//DTD SVG 1.1//EN" "http://www.w3.org/Graphics/SVG/1.1/DTD/svg11.dtd">
<svg version="1.1" xmlns="http://www.w3.org/2000/svg" xmlns:xlink="http://www.w3.org/1999/xlink" x="0px" y="0px" width="105px"
	 height="110.117px" viewBox="0 0 105 110.117" enable-background="new 0 0 105 110.117" xml:space="preserve">
<g id="Layer_2">
</g>
<g id="Layer_1">
	<g>
		<g>
			<circle fill="#A7A9AC" cx="71.595" cy="90.775" r="6.716"/>
			<g>
				<g>
					<path fill="none" stroke="#FFFFFF" stroke-width="0.5315" stroke-linecap="round" stroke-miterlimit="10" d="M75.782,90.775
						c0-2.142-1.608-3.907-3.683-4.156"/>
					<g>
						<polygon fill="#FFFFFF" points="72.473,86.025 70.223,86.819 72.568,87.257 						"/>
					</g>
				</g>
			</g>
			<g>
				<g>
					<path fill="none" stroke="#FFFFFF" stroke-width="0.5315" stroke-linecap="round" stroke-miterlimit="10" d="M69.501,94.402
						c0.616,0.356,1.331,0.56,2.094,0.56c1.349,0,2.548-0.637,3.313-1.627"/>
					<g>
						<polygon fill="#FFFFFF" points="75.237,93.961 75.696,91.619 74.128,93.417 						"/>
					</g>
				</g>
			</g>
			<g>
				<g>
					<path fill="none" stroke="#FFFFFF" stroke-width="0.5315" stroke-linecap="round" stroke-miterlimit="10" d="M69.501,87.148
						c-1.251,0.726-2.093,2.077-2.093,3.627c0,0.583,0.119,1.138,0.334,1.642"/>
					<g>
						<polygon fill="#FFFFFF" points="67.05,92.381 68.854,93.941 68.072,91.688 						"/>
					</g>
				</g>
			</g>
		</g>
		<polyline fill="none" stroke="#A7A9AC" stroke-width="1.4173" stroke-miterlimit="10" points="11.161,21.442 11.161,99.953 
			97.065,99.953 97.065,14.049 62.184,14.049 		"/>
		<g>
			<g>
				<path fill="#939598" d="M9.053,9.035h2.16c0.293,0,0.58,0.03,0.86,0.09c0.279,0.061,0.529,0.158,0.75,0.295
					c0.22,0.137,0.397,0.315,0.534,0.535s0.205,0.493,0.205,0.82c0,0.413-0.111,0.755-0.335,1.024
					c-0.223,0.271-0.524,0.462-0.904,0.575v0.021c0.227,0.02,0.438,0.078,0.635,0.175c0.196,0.097,0.366,0.222,0.51,0.375
					s0.255,0.332,0.335,0.535s0.12,0.422,0.12,0.654c0,0.394-0.082,0.717-0.245,0.971c-0.163,0.253-0.377,0.455-0.64,0.604
					c-0.264,0.15-0.561,0.255-0.891,0.315c-0.33,0.06-0.658,0.09-0.984,0.09h-2.11V9.035z M9.893,12.035h1.16
					c0.2,0,0.396-0.014,0.585-0.04c0.19-0.026,0.361-0.081,0.516-0.165c0.152-0.083,0.276-0.2,0.369-0.35
					c0.094-0.15,0.141-0.349,0.141-0.596c0-0.22-0.044-0.397-0.13-0.534c-0.087-0.137-0.202-0.245-0.346-0.325
					s-0.307-0.135-0.489-0.165c-0.184-0.03-0.369-0.045-0.556-0.045h-1.25V12.035z M9.893,15.335h1.42
					c0.207,0,0.412-0.021,0.615-0.064c0.203-0.044,0.387-0.113,0.55-0.21c0.164-0.097,0.295-0.224,0.396-0.38
					c0.1-0.157,0.149-0.349,0.149-0.575c0-0.247-0.048-0.453-0.145-0.62s-0.224-0.3-0.38-0.4c-0.157-0.1-0.337-0.17-0.54-0.21
					s-0.412-0.06-0.625-0.06h-1.44V15.335z"/>
				<path fill="#939598" d="M15.213,12.545c0-0.213-0.007-0.413-0.021-0.6c-0.013-0.187-0.02-0.356-0.02-0.51h0.74
					c0,0.126,0.003,0.253,0.01,0.38s0.01,0.257,0.01,0.39h0.021c0.053-0.113,0.128-0.223,0.225-0.33
					c0.097-0.106,0.212-0.201,0.345-0.285c0.134-0.083,0.283-0.149,0.45-0.199c0.167-0.051,0.347-0.075,0.54-0.075
					c0.054,0,0.106,0.003,0.16,0.01c0.053,0.007,0.106,0.021,0.16,0.04l-0.051,0.79c-0.133-0.04-0.273-0.06-0.42-0.06
					c-0.479,0-0.828,0.154-1.045,0.465c-0.217,0.31-0.325,0.734-0.325,1.274v2.28h-0.779V12.545z"/>
				<path fill="#939598" d="M18.672,12.035c0.24-0.246,0.525-0.428,0.855-0.545c0.33-0.116,0.665-0.175,1.005-0.175
					c0.693,0,1.193,0.163,1.5,0.49c0.307,0.326,0.46,0.823,0.46,1.489v2.011c0,0.133,0.007,0.271,0.02,0.415
					c0.014,0.143,0.03,0.274,0.051,0.395h-0.75c-0.027-0.106-0.042-0.225-0.045-0.355c-0.004-0.13-0.006-0.244-0.006-0.345h-0.02
					c-0.153,0.24-0.358,0.437-0.615,0.59s-0.564,0.23-0.925,0.23c-0.24,0-0.465-0.03-0.675-0.09c-0.21-0.061-0.394-0.148-0.55-0.266
					c-0.157-0.116-0.282-0.261-0.375-0.435c-0.094-0.174-0.141-0.373-0.141-0.6c0-0.387,0.101-0.69,0.3-0.91
					c0.2-0.221,0.449-0.384,0.745-0.49c0.297-0.106,0.617-0.174,0.96-0.2c0.344-0.026,0.658-0.04,0.945-0.04h0.3v-0.14
					c0-0.34-0.102-0.597-0.305-0.771c-0.203-0.173-0.488-0.26-0.855-0.26c-0.253,0-0.501,0.042-0.744,0.125
					c-0.244,0.084-0.459,0.212-0.646,0.385L18.672,12.035z M20.933,13.865c-0.5,0-0.897,0.07-1.19,0.21s-0.44,0.37-0.44,0.69
					c0,0.293,0.099,0.501,0.296,0.625c0.196,0.123,0.441,0.185,0.734,0.185c0.227,0,0.425-0.038,0.595-0.115
					c0.171-0.076,0.312-0.178,0.426-0.305c0.113-0.127,0.199-0.275,0.26-0.445c0.06-0.17,0.093-0.352,0.1-0.545v-0.3H20.933z"/>
				<path fill="#939598" d="M23.812,9.605c0-0.153,0.055-0.287,0.165-0.4s0.245-0.17,0.405-0.17s0.295,0.057,0.405,0.17
					c0.109,0.113,0.164,0.247,0.164,0.4c0,0.166-0.053,0.303-0.159,0.41c-0.107,0.106-0.244,0.159-0.41,0.159
					c-0.167,0-0.304-0.053-0.41-0.159C23.866,9.908,23.812,9.771,23.812,9.605z M23.992,11.436h0.78v4.68h-0.78V11.436z"/>
				<path fill="#939598" d="M26.323,12.545c0-0.213-0.007-0.413-0.021-0.6c-0.013-0.187-0.02-0.356-0.02-0.51h0.74
					c0,0.126,0.003,0.253,0.01,0.38s0.01,0.257,0.01,0.39h0.021c0.053-0.113,0.128-0.223,0.225-0.33
					c0.097-0.106,0.212-0.201,0.345-0.285c0.134-0.083,0.283-0.149,0.45-0.199c0.167-0.051,0.347-0.075,0.54-0.075
					c0.307,0,0.571,0.047,0.795,0.14c0.224,0.094,0.408,0.224,0.555,0.391c0.146,0.166,0.255,0.368,0.325,0.604
					s0.105,0.495,0.105,0.775v2.89h-0.78v-2.81c0-0.394-0.087-0.704-0.26-0.931c-0.174-0.227-0.443-0.34-0.811-0.34
					c-0.253,0-0.472,0.044-0.654,0.13c-0.184,0.087-0.334,0.21-0.45,0.37c-0.117,0.16-0.204,0.35-0.26,0.57
					c-0.058,0.22-0.086,0.463-0.086,0.729v2.28h-0.779V12.545z"/>
				<path fill="#939598" d="M31.982,14.885c0.153,0.194,0.321,0.348,0.505,0.461s0.415,0.17,0.695,0.17
					c0.12,0,0.241-0.014,0.365-0.04c0.123-0.027,0.234-0.07,0.335-0.13c0.1-0.061,0.18-0.136,0.24-0.226
					c0.06-0.09,0.09-0.198,0.09-0.325c0-0.126-0.028-0.229-0.085-0.31s-0.132-0.148-0.226-0.205c-0.093-0.057-0.2-0.102-0.319-0.135
					c-0.12-0.033-0.244-0.063-0.37-0.09c-0.221-0.047-0.431-0.101-0.63-0.16c-0.2-0.061-0.375-0.139-0.525-0.235
					s-0.271-0.222-0.36-0.375s-0.135-0.35-0.135-0.59c0-0.227,0.05-0.427,0.15-0.6c0.1-0.174,0.233-0.317,0.399-0.431
					c0.167-0.113,0.354-0.2,0.561-0.26c0.206-0.06,0.42-0.09,0.64-0.09c0.333,0,0.642,0.066,0.925,0.2
					c0.283,0.133,0.505,0.35,0.665,0.649l-0.649,0.431c-0.101-0.167-0.232-0.302-0.396-0.405s-0.361-0.155-0.595-0.155
					c-0.106,0-0.215,0.014-0.325,0.04s-0.208,0.066-0.295,0.12s-0.158,0.122-0.215,0.205s-0.085,0.179-0.085,0.285
					c0,0.1,0.031,0.185,0.095,0.255c0.063,0.069,0.15,0.132,0.26,0.185c0.11,0.054,0.237,0.101,0.38,0.141
					c0.144,0.04,0.292,0.073,0.445,0.1c0.207,0.04,0.403,0.092,0.59,0.155s0.351,0.148,0.49,0.255s0.25,0.24,0.33,0.399
					c0.08,0.16,0.12,0.357,0.12,0.591c0,0.267-0.054,0.493-0.16,0.68s-0.248,0.338-0.425,0.455
					c-0.177,0.116-0.377,0.201-0.601,0.255c-0.223,0.054-0.451,0.08-0.685,0.08c-0.4,0-0.745-0.062-1.035-0.186
					c-0.29-0.123-0.552-0.352-0.785-0.685L31.982,14.885z"/>
				<path fill="#939598" d="M38.702,12.096h-1.38v2.34c0,0.153,0.003,0.295,0.01,0.425s0.033,0.243,0.08,0.34s0.117,0.174,0.21,0.23
					c0.094,0.057,0.227,0.085,0.4,0.085c0.113,0,0.229-0.014,0.35-0.04c0.12-0.027,0.233-0.067,0.34-0.12l0.03,0.71
					c-0.133,0.06-0.281,0.104-0.445,0.13c-0.163,0.026-0.318,0.04-0.465,0.04c-0.279,0-0.503-0.037-0.67-0.11
					c-0.166-0.073-0.297-0.177-0.39-0.31c-0.094-0.134-0.155-0.299-0.186-0.495c-0.029-0.196-0.045-0.415-0.045-0.655v-2.569h-1.02
					v-0.66h1.02v-1.33h0.78v1.33h1.38V12.096z"/>
				<path fill="#939598" d="M39.392,13.775c0-0.367,0.063-0.7,0.19-1c0.126-0.3,0.3-0.559,0.52-0.775
					c0.221-0.217,0.483-0.385,0.79-0.505s0.641-0.18,1-0.18c0.36,0,0.693,0.06,1,0.18s0.57,0.288,0.79,0.505
					c0.221,0.217,0.394,0.476,0.521,0.775c0.126,0.3,0.189,0.633,0.189,1c0,0.366-0.063,0.7-0.189,1
					c-0.127,0.3-0.3,0.559-0.521,0.774c-0.22,0.217-0.483,0.386-0.79,0.506c-0.307,0.119-0.64,0.18-1,0.18
					c-0.359,0-0.693-0.061-1-0.18c-0.307-0.12-0.569-0.289-0.79-0.506c-0.22-0.216-0.394-0.475-0.52-0.774
					C39.455,14.476,39.392,14.142,39.392,13.775z M40.231,13.775c0,0.246,0.039,0.475,0.115,0.685
					c0.077,0.21,0.188,0.394,0.335,0.55c0.146,0.157,0.322,0.28,0.525,0.37c0.203,0.091,0.432,0.136,0.685,0.136
					c0.254,0,0.481-0.045,0.686-0.136c0.203-0.09,0.378-0.213,0.524-0.37c0.146-0.156,0.259-0.34,0.335-0.55
					c0.077-0.21,0.115-0.438,0.115-0.685c0-0.247-0.038-0.476-0.115-0.686c-0.076-0.21-0.188-0.393-0.335-0.55
					c-0.146-0.156-0.321-0.28-0.524-0.37c-0.204-0.09-0.432-0.135-0.686-0.135c-0.253,0-0.481,0.045-0.685,0.135
					s-0.379,0.214-0.525,0.37c-0.146,0.157-0.258,0.34-0.335,0.55C40.271,13.3,40.231,13.528,40.231,13.775z"/>
				<path fill="#939598" d="M45.603,12.545c0-0.213-0.007-0.413-0.021-0.6c-0.013-0.187-0.02-0.356-0.02-0.51h0.74
					c0,0.126,0.003,0.253,0.01,0.38s0.01,0.257,0.01,0.39h0.021c0.053-0.113,0.128-0.223,0.225-0.33
					c0.097-0.106,0.212-0.201,0.345-0.285c0.134-0.083,0.283-0.149,0.45-0.199c0.167-0.051,0.347-0.075,0.54-0.075
					c0.054,0,0.106,0.003,0.16,0.01c0.053,0.007,0.106,0.021,0.16,0.04l-0.051,0.79c-0.133-0.04-0.273-0.06-0.42-0.06
					c-0.479,0-0.828,0.154-1.045,0.465c-0.217,0.31-0.325,0.734-0.325,1.274v2.28h-0.779V12.545z"/>
				<path fill="#939598" d="M49.122,12.545c0-0.213-0.007-0.413-0.021-0.6c-0.013-0.187-0.02-0.356-0.02-0.51h0.74
					c0,0.126,0.003,0.253,0.01,0.38s0.01,0.257,0.01,0.39h0.021c0.053-0.113,0.128-0.223,0.225-0.33
					c0.097-0.106,0.212-0.201,0.345-0.285c0.134-0.083,0.283-0.149,0.45-0.199c0.167-0.051,0.347-0.075,0.54-0.075
					c0.253,0,0.465,0.031,0.635,0.095s0.312,0.14,0.425,0.23c0.113,0.09,0.202,0.187,0.266,0.29
					c0.063,0.103,0.115,0.194,0.154,0.274c0.174-0.28,0.374-0.498,0.601-0.655c0.227-0.156,0.52-0.234,0.88-0.234
					c0.333,0,0.613,0.045,0.84,0.135s0.41,0.22,0.55,0.39c0.141,0.17,0.24,0.377,0.301,0.62c0.06,0.244,0.09,0.516,0.09,0.815v2.84
					h-0.78v-2.8c0-0.16-0.017-0.316-0.05-0.47s-0.094-0.29-0.181-0.41c-0.086-0.12-0.203-0.217-0.35-0.29s-0.333-0.11-0.56-0.11
					c-0.167,0-0.324,0.033-0.471,0.1c-0.146,0.067-0.274,0.16-0.385,0.28s-0.196,0.266-0.26,0.436s-0.095,0.358-0.095,0.564v2.7
					h-0.78v-2.65c0-0.52-0.07-0.888-0.21-1.104c-0.141-0.217-0.37-0.325-0.69-0.325c-0.253,0-0.472,0.044-0.654,0.13
					c-0.184,0.087-0.334,0.21-0.45,0.37c-0.117,0.16-0.204,0.35-0.26,0.57c-0.058,0.22-0.086,0.463-0.086,0.729v2.28h-0.779V12.545z
					"/>
			</g>
		</g>
		<g>
			<circle fill="#A7A9AC" cx="87.927" cy="90.775" r="6.616"/>
			
				<polyline fill="none" stroke="#FFFFFF" stroke-width="1.3526" stroke-linecap="round" stroke-linejoin="round" stroke-miterlimit="10" points="
				85.017,92.646 87.904,88.161 90.838,92.716 			"/>
		</g>
		<g>
			
				<line fill="none" stroke="#939598" stroke-width="1.4173" stroke-miterlimit="10" x1="60.537" y1="61.574" x2="74.818" y2="48.501"/>
			
				<line fill="none" stroke="#939598" stroke-width="1.4173" stroke-miterlimit="10" x1="54.912" y1="60.626" x2="54.113" y2="43.376"/>
			
				<line fill="none" stroke="#939598" stroke-width="1.4173" stroke-miterlimit="10" x1="49.412" y1="63.876" x2="30.787" y2="52.001"/>
			
				<line fill="none" stroke="#939598" stroke-width="1.4173" stroke-miterlimit="10" x1="45.443" y1="63.876" x2="22.287" y2="72.001"/>
			
				<line fill="none" stroke="#939598" stroke-width="1.4173" stroke-miterlimit="10" x1="74.818" y1="48.501" x2="73.412" y2="35.751"/>
			
				<line fill="none" stroke="#939598" stroke-width="1.4173" stroke-miterlimit="10" x1="74.818" y1="48.501" x2="87.412" y2="48.501"/>
			
				<line fill="none" stroke="#939598" stroke-width="1.4173" stroke-miterlimit="10" x1="54.113" y1="43.376" x2="67.678" y2="34.126"/>
			
				<line fill="none" stroke="#939598" stroke-width="1.4173" stroke-miterlimit="10" x1="54.113" y1="43.376" x2="44.912" y2="38.751"/>
			
				<line fill="none" stroke="#939598" stroke-width="1.4173" stroke-miterlimit="10" x1="30.787" y1="52.001" x2="44.912" y2="38.751"/>
			
				<line fill="none" stroke="#939598" stroke-width="1.4173" stroke-miterlimit="10" x1="22.287" y1="72.001" x2="18.037" y2="61.574"/>
			
				<line fill="none" stroke="#939598" stroke-width="1.4173" stroke-miterlimit="10" x1="22.287" y1="72.001" x2="26.787" y2="59.021"/>
			
				<line fill="none" stroke="#939598" stroke-width="1.4173" stroke-miterlimit="10" x1="22.287" y1="72.001" x2="18.037" y2="79.876"/>
			
				<line fill="none" stroke="#939598" stroke-width="1.4173" stroke-miterlimit="10" x1="74.818" y1="48.501" x2="82.714" y2="58.501"/>
			
				<line fill="none" stroke="#939598" stroke-width="1.4173" stroke-miterlimit="10" x1="63.662" y1="65.511" x2="80.162" y2="71.563"/>
			
				<line fill="none" stroke="#939598" stroke-width="1.4173" stroke-miterlimit="10" x1="80.162" y1="71.563" x2="82.714" y2="58.501"/>
			<circle fill="#FFFFFF" stroke="#939598" stroke-width="1.4173" stroke-miterlimit="10" cx="44.912" cy="38.751" r="2.75"/>
			<circle fill="#FFFFFF" stroke="#939598" stroke-width="1.4173" stroke-miterlimit="10" cx="54.312" cy="43.376" r="2.75"/>
			<circle fill="#FFFFFF" stroke="#939598" stroke-width="1.4173" stroke-miterlimit="10" cx="67.678" cy="34.126" r="2.75"/>
			<circle fill="#FFFFFF" stroke="#939598" stroke-width="1.4173" stroke-miterlimit="10" cx="73.412" cy="35.751" r="2.75"/>
			<circle fill="#FFFFFF" stroke="#939598" stroke-width="1.4173" stroke-miterlimit="10" cx="74.818" cy="48.501" r="2.75"/>
			<circle fill="#FFFFFF" stroke="#939598" stroke-width="1.4173" stroke-miterlimit="10" cx="87.412" cy="48.501" r="2.75"/>
			<circle fill="#FFFFFF" stroke="#939598" stroke-width="1.4173" stroke-miterlimit="10" cx="82.714" cy="57.938" r="2.75"/>
			<circle fill="#FFFFFF" stroke="#939598" stroke-width="1.4173" stroke-miterlimit="10" cx="79.964" cy="71.563" r="2.75"/>
			<circle fill="#FFFFFF" stroke="#939598" stroke-width="1.4173" stroke-miterlimit="10" cx="30.787" cy="52.001" r="2.75"/>
			<circle fill="#FFFFFF" stroke="#939598" stroke-width="1.4173" stroke-miterlimit="10" cx="21.787" cy="71.251" r="2.75"/>
			<circle fill="#FFFFFF" stroke="#939598" stroke-width="1.4173" stroke-miterlimit="10" cx="26.787" cy="59.021" r="2.75"/>
			<circle fill="#FFFFFF" stroke="#939598" stroke-width="1.4173" stroke-miterlimit="10" cx="18.037" cy="61.574" r="2.75"/>
			<circle fill="#FFFFFF" stroke="#939598" stroke-width="1.4173" stroke-miterlimit="10" cx="18.037" cy="79.876" r="2.75"/>
			<path fill="#D3D3D3" stroke="#939598" stroke-width="1.4173" stroke-miterlimit="10" d="M38.594,65.527c0,0,0-2.739,1.541-3.425
				c1.541-0.684,2.226-2.739,3.253-3.766c1.027-1.028,0.856-1.885,2.74-1.542s3.596,2.245,5.138-0.075
				c1.54-2.322,1.748-2.322,2.5-1.637c0.753,0.686,4.862-0.795,5.376-0.397s1.199,0.911,1.712,1.424
				c0.514,0.515,0.171,1.371,2.056,1.885c1.883,0.514,3.425,0.685,3.595,1.198c0.172,0.514-0.686,0.856,0,1.884
				c0.685,1.026,0.685,2.568,1.199,2.911c0.514,0.343,1.712,0.684,2.055,1.54s-0.343,1.884,0,2.568
				c0.343,0.686,1.055,0.856,0.099,1.884c-0.954,1.027,1.724,2.146-1.071,1.929c-2.795-0.216-3.821,0.56-5.705,0
				c-1.884-0.559-4.452-2.956-5.65-1.757c-1.199,1.198-3.217,2.659-3.664,1.757c-0.446-0.901-1.645-0.729-2.5-1.244
				c-0.857-0.513-4.453-0.856-5.138-0.171s-1.713,1.633-2.396,1.415c-0.686-0.216-0.6-0.045-1.842-1.072
				c-1.241-1.028-2.611-2.397-3.296-2.226C37.909,68.781,38.594,65.527,38.594,65.527z"/>
		</g>
	</g>
</g>
<g id="Layer_4">
</g>
<g id="Layer_3">
</g>
<g id="Layer_5">
</g>
<g id="Annotations">
</g>
</svg>
