<?xml version="1.0" encoding="utf-8"?>
<!-- Generator: Adobe Illustrator 16.0.0, SVG Export Plug-In . SVG Version: 6.00 Build 0)  -->
<!DOCTYPE svg PUBLIC "-//W3C//DTD SVG 1.1//EN" "http://www.w3.org/Graphics/SVG/1.1/DTD/svg11.dtd">
<svg version="1.1" xmlns="http://www.w3.org/2000/svg" xmlns:xlink="http://www.w3.org/1999/xlink" x="0px" y="0px" width="105px"
	 height="110.117px" viewBox="0 0 105 110.117" enable-background="new 0 0 105 110.117" xml:space="preserve">
<g id="Layer_2">
</g>
<g id="Layer_1">
	<g>
		<polyline fill="none" stroke="#A7A9AC" stroke-width="1.4173" stroke-miterlimit="10" points="11.161,22.93 11.161,100.814 
			97.065,100.814 97.065,14.91 63.469,14.91 		"/>
		<g>
			<g>
				<path fill="#939598" d="M7.845,9.783h0.95l2.18,5.82h0.02l2.25-5.82h0.891l-2.771,7.08h-0.81L7.845,9.783z"/>
				<path fill="#939598" d="M14.175,12.783c0.24-0.246,0.525-0.428,0.855-0.545s0.665-0.176,1.005-0.176
					c0.693,0,1.193,0.164,1.5,0.49s0.46,0.824,0.46,1.49v2.01c0,0.133,0.007,0.271,0.02,0.416c0.014,0.143,0.03,0.273,0.051,0.395
					h-0.75c-0.027-0.107-0.042-0.225-0.045-0.355c-0.004-0.131-0.006-0.244-0.006-0.346h-0.02c-0.153,0.24-0.358,0.438-0.615,0.59
					c-0.257,0.154-0.564,0.23-0.925,0.23c-0.24,0-0.465-0.029-0.675-0.09s-0.394-0.148-0.55-0.266
					c-0.157-0.115-0.282-0.26-0.375-0.434c-0.094-0.174-0.141-0.373-0.141-0.6c0-0.387,0.101-0.691,0.3-0.91
					c0.2-0.221,0.449-0.385,0.745-0.49c0.297-0.107,0.617-0.174,0.96-0.201c0.344-0.025,0.658-0.039,0.945-0.039h0.3v-0.141
					c0-0.34-0.102-0.596-0.305-0.77s-0.488-0.26-0.855-0.26c-0.253,0-0.501,0.041-0.744,0.125c-0.244,0.084-0.459,0.211-0.646,0.385
					L14.175,12.783z M16.436,14.613c-0.5,0-0.897,0.07-1.19,0.209c-0.293,0.141-0.44,0.371-0.44,0.691
					c0,0.293,0.099,0.5,0.296,0.625c0.196,0.123,0.441,0.184,0.734,0.184c0.227,0,0.425-0.037,0.595-0.115
					c0.171-0.076,0.312-0.178,0.426-0.305c0.113-0.127,0.199-0.275,0.26-0.445c0.06-0.17,0.093-0.352,0.1-0.545v-0.299H16.436z"/>
				<path fill="#939598" d="M19.495,9.303h0.78v7.561h-0.78V9.303z"/>
				<path fill="#939598" d="M25.906,15.752c0,0.215,0.006,0.414,0.02,0.602c0.014,0.186,0.021,0.355,0.021,0.51h-0.74
					c0-0.127-0.004-0.254-0.01-0.381c-0.007-0.127-0.011-0.256-0.011-0.389h-0.02c-0.054,0.113-0.129,0.223-0.225,0.328
					c-0.098,0.107-0.212,0.203-0.346,0.285c-0.133,0.084-0.283,0.15-0.45,0.201c-0.166,0.049-0.347,0.074-0.54,0.074
					c-0.307,0-0.571-0.047-0.795-0.139c-0.223-0.094-0.408-0.225-0.555-0.391s-0.255-0.369-0.325-0.605
					c-0.069-0.236-0.104-0.494-0.104-0.775v-2.889h0.779v2.809c0,0.395,0.087,0.703,0.261,0.93c0.173,0.229,0.443,0.342,0.81,0.342
					c0.254,0,0.472-0.045,0.655-0.131s0.333-0.211,0.45-0.369c0.116-0.16,0.203-0.352,0.26-0.57c0.057-0.221,0.085-0.463,0.085-0.73
					v-2.279h0.78V15.752z"/>
				<path fill="#939598" d="M31.565,16.014c-0.28,0.359-0.587,0.611-0.92,0.754s-0.72,0.215-1.16,0.215
					c-0.366,0-0.696-0.064-0.99-0.195c-0.293-0.129-0.541-0.305-0.744-0.523c-0.204-0.221-0.36-0.48-0.471-0.781
					c-0.109-0.299-0.165-0.619-0.165-0.959c0-0.361,0.061-0.691,0.181-0.996c0.119-0.303,0.286-0.562,0.5-0.779
					c0.213-0.217,0.466-0.385,0.76-0.506c0.293-0.119,0.613-0.18,0.96-0.18c0.326,0,0.626,0.055,0.899,0.166
					c0.273,0.109,0.509,0.27,0.705,0.479c0.197,0.211,0.349,0.467,0.455,0.771c0.106,0.303,0.16,0.648,0.16,1.035v0.25h-3.78
					c0.014,0.199,0.062,0.391,0.146,0.574c0.083,0.184,0.191,0.344,0.325,0.48c0.133,0.137,0.29,0.244,0.47,0.324
					s0.377,0.121,0.59,0.121c0.34,0,0.627-0.061,0.86-0.182c0.233-0.119,0.443-0.295,0.63-0.529L31.565,16.014z M30.896,14.104
					c-0.014-0.4-0.144-0.721-0.39-0.961c-0.247-0.24-0.587-0.359-1.021-0.359s-0.783,0.119-1.05,0.359s-0.427,0.561-0.48,0.961
					H30.896z"/>
				<path fill="#939598" d="M39.056,13.354c-0.167-0.201-0.347-0.346-0.54-0.436s-0.407-0.135-0.641-0.135
					c-0.26,0-0.489,0.045-0.689,0.135s-0.365,0.215-0.495,0.375s-0.229,0.346-0.295,0.555c-0.066,0.211-0.101,0.436-0.101,0.676
					s0.039,0.465,0.115,0.674c0.077,0.211,0.184,0.396,0.32,0.555c0.137,0.16,0.302,0.285,0.495,0.375
					c0.193,0.092,0.41,0.137,0.649,0.137c0.514,0,0.91-0.193,1.19-0.58l0.58,0.549c-0.227,0.26-0.493,0.451-0.8,0.57
					s-0.63,0.18-0.971,0.18c-0.359,0-0.689-0.061-0.989-0.18c-0.301-0.119-0.556-0.289-0.766-0.51s-0.373-0.48-0.49-0.779
					c-0.116-0.301-0.175-0.631-0.175-0.99c0-0.354,0.059-0.68,0.175-0.98c0.117-0.301,0.282-0.561,0.495-0.779
					c0.214-0.221,0.469-0.393,0.766-0.516c0.296-0.123,0.625-0.186,0.984-0.186c0.347,0,0.676,0.061,0.985,0.18
					c0.31,0.121,0.582,0.307,0.815,0.561L39.056,13.354z"/>
				<path fill="#939598" d="M44.626,15.752c0,0.215,0.006,0.414,0.02,0.602c0.014,0.186,0.021,0.355,0.021,0.51h-0.74
					c0-0.127-0.004-0.254-0.01-0.381c-0.007-0.127-0.011-0.256-0.011-0.389h-0.02c-0.054,0.113-0.129,0.223-0.225,0.328
					c-0.098,0.107-0.212,0.203-0.346,0.285c-0.133,0.084-0.283,0.15-0.45,0.201c-0.166,0.049-0.347,0.074-0.54,0.074
					c-0.307,0-0.571-0.047-0.795-0.139c-0.223-0.094-0.408-0.225-0.555-0.391s-0.255-0.369-0.325-0.605
					c-0.069-0.236-0.104-0.494-0.104-0.775v-2.889h0.779v2.809c0,0.395,0.087,0.703,0.261,0.93c0.173,0.229,0.443,0.342,0.81,0.342
					c0.254,0,0.472-0.045,0.655-0.131s0.333-0.211,0.45-0.369c0.116-0.16,0.203-0.352,0.26-0.57c0.057-0.221,0.085-0.463,0.085-0.73
					v-2.279h0.78V15.752z"/>
				<path fill="#939598" d="M46.105,13.293c0-0.213-0.007-0.414-0.021-0.6c-0.013-0.188-0.02-0.357-0.02-0.51h0.74
					c0,0.125,0.003,0.252,0.01,0.379s0.01,0.258,0.01,0.391h0.021c0.053-0.113,0.128-0.223,0.225-0.33s0.212-0.201,0.345-0.285
					c0.134-0.084,0.283-0.15,0.45-0.199c0.167-0.051,0.347-0.076,0.54-0.076c0.054,0,0.106,0.004,0.16,0.01
					c0.053,0.008,0.106,0.021,0.16,0.041l-0.051,0.789c-0.133-0.039-0.273-0.059-0.42-0.059c-0.479,0-0.828,0.154-1.045,0.465
					c-0.217,0.309-0.325,0.734-0.325,1.273v2.281h-0.779V13.293z"/>
				<path fill="#939598" d="M51.755,16.863h-0.86l-1.91-4.68h0.91l1.46,3.67h0.021l1.39-3.67h0.84L51.755,16.863z"/>
				<path fill="#939598" d="M58.625,16.014c-0.28,0.359-0.587,0.611-0.92,0.754s-0.72,0.215-1.16,0.215
					c-0.366,0-0.696-0.064-0.99-0.195c-0.293-0.129-0.541-0.305-0.744-0.523c-0.204-0.221-0.36-0.48-0.471-0.781
					c-0.109-0.299-0.165-0.619-0.165-0.959c0-0.361,0.061-0.691,0.181-0.996c0.119-0.303,0.286-0.562,0.5-0.779
					c0.213-0.217,0.466-0.385,0.76-0.506c0.293-0.119,0.613-0.18,0.96-0.18c0.326,0,0.626,0.055,0.899,0.166
					c0.273,0.109,0.509,0.27,0.705,0.479c0.197,0.211,0.349,0.467,0.455,0.771c0.106,0.303,0.16,0.648,0.16,1.035v0.25h-3.78
					c0.014,0.199,0.062,0.391,0.146,0.574c0.083,0.184,0.191,0.344,0.325,0.48c0.133,0.137,0.29,0.244,0.47,0.324
					s0.377,0.121,0.59,0.121c0.34,0,0.627-0.061,0.86-0.182c0.233-0.119,0.443-0.295,0.63-0.529L58.625,16.014z M57.955,14.104
					c-0.014-0.4-0.144-0.721-0.39-0.961c-0.247-0.24-0.587-0.359-1.021-0.359s-0.783,0.119-1.05,0.359s-0.427,0.561-0.48,0.961
					H57.955z"/>
			</g>
		</g>
		<g>
			<circle fill="#A7A9AC" cx="87.69" cy="91.521" r="6.616"/>
			
				<polyline fill="none" stroke="#FFFFFF" stroke-width="1.3526" stroke-linecap="round" stroke-linejoin="round" stroke-miterlimit="10" points="
				89.561,94.432 85.076,91.545 89.631,88.611 			"/>
		</g>
		<g>
			
				<line fill="none" stroke="#A7A9AC" stroke-width="0.7087" stroke-miterlimit="10" x1="20.21" y1="35.623" x2="88.372" y2="35.623"/>
			
				<line fill="none" stroke="#A7A9AC" stroke-width="0.7087" stroke-miterlimit="10" x1="19.854" y1="50.146" x2="88.017" y2="50.146"/>
			
				<line fill="none" stroke="#A7A9AC" stroke-width="0.7087" stroke-miterlimit="10" x1="20.21" y1="64.67" x2="88.372" y2="64.67"/>
			<polyline fill="none" stroke="#D3D3D3" stroke-width="1.4173" stroke-miterlimit="10" points="25.306,64.67 36.935,50.146 
				48.565,42.404 60.196,60.094 71.825,52.896 83.456,64.67 			"/>
			
				<line fill="none" stroke="#A7A9AC" stroke-width="0.7087" stroke-miterlimit="10" x1="20.21" y1="79.193" x2="88.372" y2="79.193"/>
			<polyline fill="none" stroke="#939598" stroke-width="1.4173" stroke-miterlimit="10" points="25.306,44.131 36.935,72.582 
				48.565,64.166 60.196,50.146 71.825,44.131 83.456,41.094 			"/>
			<circle fill="#FFFFFF" stroke="#939598" stroke-width="1.4173" stroke-miterlimit="10" cx="25.306" cy="44.131" r="2.75"/>
			<circle fill="#FFFFFF" stroke="#939598" stroke-width="1.4173" stroke-miterlimit="10" cx="36.935" cy="72.582" r="2.75"/>
			<circle fill="#FFFFFF" stroke="#939598" stroke-width="1.4173" stroke-miterlimit="10" cx="48.565" cy="64.166" r="2.75"/>
			<circle fill="#FFFFFF" stroke="#939598" stroke-width="1.4173" stroke-miterlimit="10" cx="60.196" cy="50.146" r="2.75"/>
			<circle fill="#FFFFFF" stroke="#939598" stroke-width="1.4173" stroke-miterlimit="10" cx="83.456" cy="41.094" r="2.75"/>
			<circle fill="#FFFFFF" stroke="#939598" stroke-width="1.4173" stroke-miterlimit="10" cx="71.825" cy="44.131" r="2.75"/>
			<circle fill="#FFFFFF" stroke="#D3D3D3" stroke-width="1.4173" stroke-miterlimit="10" cx="60.196" cy="60.094" r="2.75"/>
			<circle fill="#FFFFFF" stroke="#D3D3D3" stroke-width="1.4173" stroke-miterlimit="10" cx="71.825" cy="52.896" r="2.75"/>
			<circle fill="#FFFFFF" stroke="#D3D3D3" stroke-width="1.4173" stroke-miterlimit="10" cx="83.456" cy="64.67" r="2.75"/>
			<circle fill="#FFFFFF" stroke="#D3D3D3" stroke-width="1.4173" stroke-miterlimit="10" cx="36.935" cy="50.146" r="2.75"/>
			<circle fill="#FFFFFF" stroke="#D3D3D3" stroke-width="1.4173" stroke-miterlimit="10" cx="25.306" cy="64.67" r="2.75"/>
			<circle fill="#FFFFFF" stroke="#D3D3D3" stroke-width="1.4173" stroke-miterlimit="10" cx="48.565" cy="42.404" r="2.75"/>
		</g>
	</g>
</g>
<g id="Layer_4">
</g>
<g id="Layer_3">
</g>
<g id="Layer_5">
</g>
<g id="Annotations">
</g>
</svg>
