<?xml version="1.0" encoding="utf-8"?>
<!-- Generator: Adobe Illustrator 16.0.0, SVG Export Plug-In . SVG Version: 6.00 Build 0)  -->
<!DOCTYPE svg PUBLIC "-//W3C//DTD SVG 1.1//EN" "http://www.w3.org/Graphics/SVG/1.1/DTD/svg11.dtd">
<svg version="1.1" xmlns="http://www.w3.org/2000/svg" xmlns:xlink="http://www.w3.org/1999/xlink" x="0px" y="0px" width="105px"
	 height="110.117px" viewBox="0 0 105 110.117" enable-background="new 0 0 105 110.117" xml:space="preserve">
<g id="Layer_2">
</g>
<g id="Layer_1">
	<g>
		<polygon fill="#D3D3D3" points="45.172,56.479 45.172,45.792 54.912,41.292 54.912,52.436 45.172,56.753 		"/>
		<polygon fill="#D3D3D3" points="78.151,39.581 78.151,65.694 56.131,78.229 56.131,63.688 66.412,57.578 66.475,45.217 		"/>
		<g>
			<circle fill="#A7A9AC" cx="71.476" cy="90.428" r="6.716"/>
			<g>
				<g>
					<path fill="none" stroke="#FFFFFF" stroke-width="0.5315" stroke-linecap="round" stroke-miterlimit="10" d="M75.663,90.428
						c0-2.142-1.608-3.907-3.683-4.156"/>
					<g>
						<polygon fill="#FFFFFF" points="72.354,85.678 70.104,86.472 72.449,86.91 						"/>
					</g>
				</g>
			</g>
			<g>
				<g>
					<path fill="none" stroke="#FFFFFF" stroke-width="0.5315" stroke-linecap="round" stroke-miterlimit="10" d="M69.382,94.055
						c0.616,0.356,1.331,0.56,2.094,0.56c1.349,0,2.548-0.637,3.313-1.627"/>
					<g>
						<polygon fill="#FFFFFF" points="75.118,93.614 75.577,91.272 74.009,93.07 						"/>
					</g>
				</g>
			</g>
			<g>
				<g>
					<path fill="none" stroke="#FFFFFF" stroke-width="0.5315" stroke-linecap="round" stroke-miterlimit="10" d="M69.382,86.801
						c-1.251,0.726-2.093,2.077-2.093,3.627c0,0.583,0.119,1.138,0.334,1.642"/>
					<g>
						<polygon fill="#FFFFFF" points="66.931,92.034 68.735,93.594 67.953,91.34 						"/>
					</g>
				</g>
			</g>
		</g>
		<polyline fill="none" stroke="#A7A9AC" stroke-width="1.4173" stroke-miterlimit="10" points="11.042,21.195 11.042,99.706 
			96.946,99.706 96.946,13.801 63.958,13.801 		"/>
		<g>
			<g>
				<path fill="#939598" d="M8.934,8.788h2.101c0.326,0,0.638,0.032,0.935,0.095c0.297,0.063,0.56,0.17,0.79,0.32
					c0.229,0.15,0.413,0.35,0.55,0.6s0.205,0.559,0.205,0.926c0,0.387-0.073,0.706-0.22,0.96c-0.146,0.253-0.335,0.453-0.565,0.6
					c-0.229,0.146-0.481,0.25-0.755,0.311c-0.273,0.06-0.533,0.09-0.78,0.09h-1.42v3.18h-0.84V8.788z M9.773,11.908h1.42
					c0.42,0,0.762-0.095,1.025-0.285c0.264-0.189,0.395-0.485,0.395-0.885c0-0.4-0.131-0.695-0.395-0.885
					c-0.264-0.19-0.605-0.285-1.025-0.285h-1.42V11.908z"/>
				<path fill="#939598" d="M14.724,12.298c0-0.213-0.007-0.413-0.021-0.6c-0.013-0.187-0.02-0.356-0.02-0.51h0.74
					c0,0.126,0.003,0.253,0.01,0.38s0.01,0.257,0.01,0.39h0.021c0.053-0.113,0.128-0.223,0.225-0.33
					c0.097-0.106,0.212-0.201,0.345-0.285c0.134-0.083,0.283-0.149,0.45-0.199c0.167-0.051,0.347-0.075,0.54-0.075
					c0.054,0,0.106,0.003,0.16,0.01c0.053,0.007,0.106,0.021,0.16,0.04l-0.051,0.79c-0.133-0.04-0.273-0.06-0.42-0.06
					c-0.479,0-0.828,0.154-1.045,0.465c-0.217,0.31-0.325,0.734-0.325,1.274v2.28h-0.779V12.298z"/>
				<path fill="#939598" d="M17.793,13.528c0-0.367,0.063-0.7,0.19-1c0.126-0.3,0.3-0.559,0.52-0.775
					c0.221-0.217,0.483-0.385,0.79-0.505s0.641-0.18,1-0.18c0.36,0,0.693,0.06,1,0.18s0.57,0.288,0.79,0.505
					c0.221,0.217,0.394,0.476,0.521,0.775c0.126,0.3,0.189,0.633,0.189,1c0,0.366-0.063,0.7-0.189,1
					c-0.127,0.3-0.3,0.559-0.521,0.774c-0.22,0.217-0.483,0.386-0.79,0.506c-0.307,0.119-0.64,0.18-1,0.18
					c-0.359,0-0.693-0.061-1-0.18c-0.307-0.12-0.569-0.289-0.79-0.506c-0.22-0.216-0.394-0.475-0.52-0.774
					C17.856,14.229,17.793,13.895,17.793,13.528z M18.633,13.528c0,0.246,0.039,0.475,0.115,0.685
					c0.077,0.21,0.188,0.394,0.335,0.55c0.146,0.157,0.322,0.28,0.525,0.37c0.203,0.091,0.432,0.136,0.685,0.136
					c0.254,0,0.481-0.045,0.686-0.136c0.203-0.09,0.378-0.213,0.524-0.37c0.146-0.156,0.259-0.34,0.335-0.55
					c0.077-0.21,0.115-0.438,0.115-0.685c0-0.247-0.038-0.476-0.115-0.686c-0.076-0.21-0.188-0.393-0.335-0.55
					c-0.146-0.156-0.321-0.28-0.524-0.37c-0.204-0.09-0.432-0.135-0.686-0.135c-0.253,0-0.481,0.045-0.685,0.135
					s-0.379,0.214-0.525,0.37c-0.146,0.157-0.258,0.34-0.335,0.55C18.672,13.053,18.633,13.281,18.633,13.528z"/>
				<path fill="#939598" d="M26.562,11.849h-1.38v2.34c0,0.153,0.003,0.295,0.01,0.425s0.033,0.243,0.08,0.34s0.117,0.174,0.21,0.23
					c0.094,0.057,0.227,0.085,0.4,0.085c0.113,0,0.229-0.014,0.35-0.04c0.12-0.027,0.233-0.067,0.34-0.12l0.03,0.71
					c-0.133,0.06-0.281,0.104-0.445,0.13c-0.163,0.026-0.318,0.04-0.465,0.04c-0.279,0-0.503-0.037-0.67-0.11
					c-0.166-0.073-0.297-0.177-0.39-0.31c-0.094-0.134-0.155-0.299-0.186-0.495c-0.029-0.196-0.045-0.415-0.045-0.655v-2.569h-1.02
					v-0.66h1.02v-1.33h0.78v1.33h1.38V11.849z"/>
				<path fill="#939598" d="M27.252,13.528c0-0.367,0.063-0.7,0.19-1c0.126-0.3,0.3-0.559,0.52-0.775
					c0.221-0.217,0.483-0.385,0.79-0.505s0.641-0.18,1-0.18c0.36,0,0.693,0.06,1,0.18s0.57,0.288,0.79,0.505
					c0.221,0.217,0.394,0.476,0.521,0.775c0.126,0.3,0.189,0.633,0.189,1c0,0.366-0.063,0.7-0.189,1
					c-0.127,0.3-0.3,0.559-0.521,0.774c-0.22,0.217-0.483,0.386-0.79,0.506c-0.307,0.119-0.64,0.18-1,0.18
					c-0.359,0-0.693-0.061-1-0.18c-0.307-0.12-0.569-0.289-0.79-0.506c-0.22-0.216-0.394-0.475-0.52-0.774
					C27.315,14.229,27.252,13.895,27.252,13.528z M28.092,13.528c0,0.246,0.039,0.475,0.115,0.685
					c0.077,0.21,0.188,0.394,0.335,0.55c0.146,0.157,0.322,0.28,0.525,0.37c0.203,0.091,0.432,0.136,0.685,0.136
					c0.254,0,0.481-0.045,0.686-0.136c0.203-0.09,0.378-0.213,0.524-0.37c0.146-0.156,0.259-0.34,0.335-0.55
					c0.077-0.21,0.115-0.438,0.115-0.685c0-0.247-0.038-0.476-0.115-0.686c-0.076-0.21-0.188-0.393-0.335-0.55
					c-0.146-0.156-0.321-0.28-0.524-0.37c-0.204-0.09-0.432-0.135-0.686-0.135c-0.253,0-0.481,0.045-0.685,0.135
					s-0.379,0.214-0.525,0.37c-0.146,0.157-0.258,0.34-0.335,0.55C28.131,13.053,28.092,13.281,28.092,13.528z"/>
				<path fill="#939598" d="M36.021,11.849h-1.38v2.34c0,0.153,0.003,0.295,0.01,0.425s0.033,0.243,0.08,0.34s0.117,0.174,0.21,0.23
					c0.094,0.057,0.227,0.085,0.4,0.085c0.113,0,0.229-0.014,0.35-0.04c0.12-0.027,0.233-0.067,0.34-0.12l0.03,0.71
					c-0.133,0.06-0.281,0.104-0.445,0.13c-0.163,0.026-0.318,0.04-0.465,0.04c-0.279,0-0.503-0.037-0.67-0.11
					c-0.166-0.073-0.297-0.177-0.39-0.31c-0.094-0.134-0.155-0.299-0.186-0.495c-0.029-0.196-0.045-0.415-0.045-0.655v-2.569h-1.02
					v-0.66h1.02v-1.33h0.78v1.33h1.38V11.849z"/>
				<path fill="#939598" d="M38.701,16.938c-0.08,0.199-0.162,0.381-0.245,0.545c-0.083,0.163-0.184,0.303-0.3,0.42
					c-0.117,0.116-0.257,0.206-0.42,0.27s-0.362,0.096-0.595,0.096c-0.114,0-0.232-0.007-0.355-0.021s-0.238-0.047-0.345-0.1
					l0.1-0.681c0.08,0.033,0.163,0.056,0.25,0.065s0.187,0.015,0.3,0.015c0.254,0,0.44-0.069,0.561-0.21
					c0.12-0.14,0.223-0.326,0.31-0.56l0.32-0.88l-1.94-4.71h0.91l1.45,3.67h0.021l1.39-3.67h0.85L38.701,16.938z"/>
				<path fill="#939598" d="M41.762,11.188h0.78v0.68h0.02c0.213-0.253,0.462-0.45,0.745-0.59c0.283-0.141,0.595-0.21,0.935-0.21
					c0.367,0,0.702,0.062,1.005,0.185c0.304,0.124,0.562,0.295,0.775,0.516c0.213,0.22,0.38,0.479,0.5,0.779
					c0.12,0.301,0.18,0.627,0.18,0.98s-0.06,0.68-0.18,0.979c-0.12,0.301-0.285,0.561-0.495,0.78s-0.458,0.392-0.745,0.515
					c-0.286,0.124-0.593,0.186-0.92,0.186c-0.42,0-0.788-0.092-1.104-0.275c-0.317-0.183-0.549-0.408-0.695-0.675h-0.02v3.11h-0.78
					V11.188z M42.542,13.528c0,0.246,0.038,0.475,0.114,0.685c0.077,0.21,0.188,0.394,0.335,0.55c0.146,0.157,0.322,0.28,0.525,0.37
					c0.203,0.091,0.432,0.136,0.685,0.136c0.254,0,0.481-0.045,0.686-0.136c0.203-0.09,0.378-0.213,0.524-0.37
					c0.146-0.156,0.259-0.34,0.335-0.55c0.077-0.21,0.115-0.438,0.115-0.685c0-0.247-0.038-0.476-0.115-0.686
					c-0.076-0.21-0.188-0.393-0.335-0.55c-0.146-0.156-0.321-0.28-0.524-0.37c-0.204-0.09-0.432-0.135-0.686-0.135
					c-0.253,0-0.481,0.045-0.685,0.135s-0.379,0.214-0.525,0.37c-0.146,0.157-0.258,0.34-0.335,0.55
					C42.58,13.053,42.542,13.281,42.542,13.528z"/>
				<path fill="#939598" d="M47.802,9.358c0-0.153,0.055-0.287,0.165-0.4s0.245-0.17,0.405-0.17s0.295,0.057,0.405,0.17
					c0.109,0.113,0.164,0.247,0.164,0.4c0,0.166-0.053,0.303-0.159,0.41c-0.107,0.106-0.244,0.159-0.41,0.159
					c-0.167,0-0.304-0.053-0.41-0.159C47.855,9.661,47.802,9.524,47.802,9.358z M47.981,11.188h0.78v4.68h-0.78V11.188z"/>
				<path fill="#939598" d="M50.312,12.298c0-0.213-0.007-0.413-0.021-0.6c-0.013-0.187-0.02-0.356-0.02-0.51h0.74
					c0,0.126,0.003,0.253,0.01,0.38s0.01,0.257,0.01,0.39h0.021c0.053-0.113,0.128-0.223,0.225-0.33
					c0.097-0.106,0.212-0.201,0.345-0.285c0.134-0.083,0.283-0.149,0.45-0.199c0.167-0.051,0.347-0.075,0.54-0.075
					c0.307,0,0.571,0.047,0.795,0.14c0.224,0.094,0.408,0.224,0.555,0.391c0.146,0.166,0.255,0.368,0.325,0.604
					s0.105,0.495,0.105,0.775v2.89h-0.78v-2.81c0-0.394-0.087-0.704-0.26-0.931c-0.174-0.227-0.443-0.34-0.811-0.34
					c-0.253,0-0.472,0.044-0.654,0.13c-0.184,0.087-0.334,0.21-0.45,0.37c-0.117,0.16-0.204,0.35-0.26,0.57
					c-0.058,0.22-0.086,0.463-0.086,0.729v2.28h-0.779V12.298z"/>
				<path fill="#939598" d="M60.541,15.658c0,0.854-0.219,1.502-0.655,1.945s-1.068,0.665-1.895,0.665
					c-0.46,0-0.875-0.067-1.245-0.2c-0.37-0.134-0.722-0.363-1.056-0.69l0.561-0.64c0.246,0.267,0.508,0.468,0.785,0.604
					c0.276,0.137,0.595,0.205,0.955,0.205c0.347,0,0.635-0.052,0.864-0.154c0.23-0.104,0.412-0.244,0.545-0.42
					c0.134-0.177,0.227-0.379,0.28-0.605s0.08-0.464,0.08-0.71v-0.6h-0.02c-0.188,0.3-0.431,0.52-0.73,0.659
					c-0.3,0.141-0.606,0.21-0.92,0.21c-0.366,0-0.703-0.06-1.01-0.18s-0.57-0.286-0.79-0.5c-0.22-0.213-0.391-0.467-0.51-0.76
					c-0.12-0.293-0.181-0.613-0.181-0.96c0-0.38,0.061-0.724,0.181-1.03c0.119-0.307,0.288-0.564,0.505-0.774
					c0.216-0.211,0.478-0.372,0.785-0.485c0.306-0.113,0.646-0.17,1.02-0.17c0.16,0,0.32,0.019,0.48,0.055
					c0.159,0.037,0.314,0.094,0.465,0.17c0.149,0.077,0.285,0.174,0.404,0.29c0.12,0.117,0.221,0.252,0.301,0.405h0.02v-0.8h0.78
					V15.658z M56.44,13.528c0,0.24,0.044,0.462,0.131,0.665c0.086,0.203,0.204,0.38,0.354,0.53c0.15,0.149,0.325,0.268,0.525,0.354
					c0.199,0.087,0.413,0.13,0.64,0.13c0.267,0,0.503-0.047,0.71-0.14c0.207-0.094,0.382-0.219,0.525-0.375
					c0.143-0.157,0.251-0.337,0.324-0.54c0.074-0.203,0.11-0.418,0.11-0.646c0-0.253-0.04-0.484-0.12-0.694s-0.193-0.392-0.34-0.545
					s-0.323-0.271-0.53-0.355c-0.206-0.083-0.433-0.125-0.68-0.125s-0.472,0.045-0.675,0.135s-0.377,0.214-0.521,0.37
					c-0.144,0.157-0.255,0.34-0.335,0.55S56.44,13.281,56.44,13.528z"/>
			</g>
		</g>
		<g>
			<circle fill="#A7A9AC" cx="87.808" cy="90.529" r="6.616"/>
			
				<polyline fill="none" stroke="#FFFFFF" stroke-width="1.3526" stroke-linecap="round" stroke-linejoin="round" stroke-miterlimit="10" points="
				84.897,92.399 87.785,87.915 90.719,92.469 			"/>
		</g>
		<g>
			<polygon fill="none" stroke="#A7A9AC" stroke-width="1.4173" stroke-miterlimit="10" points="78.841,65.694 55.45,79.197 
				32.06,65.694 32.06,38.685 55.45,27.65 78.841,38.685 			"/>
			
				<line fill="none" stroke="#A7A9AC" stroke-width="1.4173" stroke-miterlimit="10" x1="32.06" y1="38.685" x2="45.172" y2="45.217"/>
			
				<line fill="none" stroke="#A7A9AC" stroke-width="1.4173" stroke-miterlimit="10" x1="65.73" y1="45.217" x2="78.841" y2="38.685"/>
			
				<line fill="none" stroke="#A7A9AC" stroke-width="1.4173" stroke-miterlimit="10" x1="55.45" y1="63.688" x2="55.45" y2="79.197"/>
			<polygon fill="none" stroke="#A7A9AC" stroke-width="1.4173" stroke-miterlimit="10" points="66.032,57.578 55.45,63.688 
				44.868,57.578 44.868,45.359 55.45,40.367 66.032,45.359 			"/>
			
				<line fill="none" stroke="#A7A9AC" stroke-width="1.4173" stroke-miterlimit="10" x1="55.45" y1="52.436" x2="55.45" y2="40.367"/>
			
				<line fill="none" stroke="#A7A9AC" stroke-width="1.4173" stroke-miterlimit="10" x1="44.868" y1="57.578" x2="55.45" y2="52.436"/>
			
				<line fill="none" stroke="#A7A9AC" stroke-width="1.4173" stroke-miterlimit="10" x1="66.032" y1="57.578" x2="55.45" y2="52.436"/>
			
				<line fill="none" stroke="#A7A9AC" stroke-width="1.4173" stroke-miterlimit="10" stroke-dasharray="1.7498" x1="45.172" y1="45.217" x2="55.45" y2="50.387"/>
			
				<line fill="none" stroke="#A7A9AC" stroke-width="1.4173" stroke-miterlimit="10" stroke-dasharray="1.7498" x1="65.73" y1="45.217" x2="55.45" y2="50.387"/>
			
				<line fill="none" stroke="#A7A9AC" stroke-width="1.4173" stroke-miterlimit="10" stroke-dasharray="1.7498" x1="55.45" y1="50.387" x2="55.45" y2="63.688"/>
		</g>
	</g>
</g>
<g id="Layer_4">
</g>
<g id="Layer_3">
</g>
<g id="Layer_5">
</g>
<g id="Annotations">
</g>
</svg>
