<?xml version="1.0" encoding="utf-8"?>
<!-- Generator: Adobe Illustrator 16.0.0, SVG Export Plug-In . SVG Version: 6.00 Build 0)  -->
<!DOCTYPE svg PUBLIC "-//W3C//DTD SVG 1.1//EN" "http://www.w3.org/Graphics/SVG/1.1/DTD/svg11.dtd">
<svg version="1.1" xmlns="http://www.w3.org/2000/svg" xmlns:xlink="http://www.w3.org/1999/xlink" x="0px" y="0px" width="105px"
	 height="110.117px" viewBox="0 0 105 110.117" enable-background="new 0 0 105 110.117" xml:space="preserve">
<g id="Layer_2">
</g>
<g id="Layer_1">
	<g>
		<polyline fill="none" stroke="#A7A9AC" stroke-width="1.4173" stroke-miterlimit="10" points="11.042,22.193 11.042,100.16 
			96.946,100.16 96.946,14.256 65.856,14.256 		"/>
		<g>
			<g>
				<path fill="#939598" d="M8.113,9.244h0.931l1.609,5.879h0.021l1.74-5.879h0.939l1.73,5.879h0.02l1.641-5.879h0.88l-2.08,7.08
					h-0.91l-1.75-6h-0.021l-1.76,6h-0.92L8.113,9.244z"/>
				<path fill="#939598" d="M17.743,9.244h0.931l1.609,5.879h0.021l1.74-5.879h0.939l1.73,5.879h0.02l1.641-5.879h0.88l-2.08,7.08
					h-0.91l-1.75-6h-0.021l-1.76,6h-0.92L17.743,9.244z"/>
				<path fill="#939598" d="M27.373,9.244h0.931l1.609,5.879h0.021l1.74-5.879h0.939l1.73,5.879h0.02l1.641-5.879h0.88l-2.08,7.08
					h-0.91l-1.75-6h-0.021l-1.76,6h-0.92L27.373,9.244z"/>
				<path fill="#939598" d="M37.003,9.244h0.931l1.609,5.879h0.021l1.74-5.879h0.939l1.73,5.879h0.02l1.641-5.879h0.88l-2.08,7.08
					h-0.91l-1.75-6h-0.021l-1.76,6h-0.92L37.003,9.244z"/>
				<path fill="#939598" d="M46.633,9.244h0.931l1.609,5.879h0.021l1.74-5.879h0.939l1.73,5.879h0.02l1.641-5.879h0.88l-2.08,7.08
					h-0.91l-1.75-6h-0.021l-1.76,6h-0.92L46.633,9.244z"/>
				<path fill="#939598" d="M57.083,9.244h0.84v3h3.78v-3h0.84v7.08h-0.84v-3.301h-3.78v3.301h-0.84V9.244z"/>
			</g>
		</g>
		<g>
			<circle fill="#A7A9AC" cx="87.809" cy="90.984" r="6.616"/>
			
				<polyline fill="none" stroke="#FFFFFF" stroke-width="1.3526" stroke-linecap="round" stroke-linejoin="round" stroke-miterlimit="10" points="
				89.679,93.895 85.194,91.006 89.749,88.072 			"/>
		</g>
		
			<line fill="none" stroke="#939598" stroke-width="1.4173" stroke-miterlimit="10" x1="53.537" y1="57.463" x2="65.399" y2="37.454"/>
		
			<line fill="none" stroke="#939598" stroke-width="1.4173" stroke-miterlimit="10" x1="53.537" y1="57.463" x2="76.803" y2="57.463"/>
		
			<line fill="none" stroke="#939598" stroke-width="1.4173" stroke-miterlimit="10" x1="53.537" y1="57.463" x2="65.399" y2="76.961"/>
		
			<line fill="none" stroke="#939598" stroke-width="1.4173" stroke-miterlimit="10" x1="53.537" y1="57.463" x2="42.589" y2="76.961"/>
		
			<line fill="none" stroke="#939598" stroke-width="1.4173" stroke-miterlimit="10" x1="53.537" y1="57.463" x2="31.186" y2="57.463"/>
		
			<line fill="none" stroke="#939598" stroke-width="1.4173" stroke-miterlimit="10" x1="53.537" y1="57.463" x2="42.589" y2="37.454"/>
		<g>
			<rect x="62.34" y="24.854" fill="none" width="10.18" height="8.084"/>
			<path fill="#939598" d="M62.674,25.333h0.931l1.609,5.88h0.021l1.74-5.88h0.939l1.73,5.88h0.02l1.641-5.88h0.88l-2.08,7.08h-0.91
				l-1.75-6h-0.021l-1.76,6h-0.92L62.674,25.333z"/>
		</g>
		<g>
			<rect x="32.533" y="82.169" fill="none" width="15.514" height="8.084"/>
			<path fill="#939598" d="M35.534,82.648h0.931l1.609,5.88h0.021l1.74-5.88h0.939l1.73,5.88h0.02l1.641-5.88h0.88l-2.08,7.08h-0.91
				l-1.75-6h-0.021l-1.76,6h-0.92L35.534,82.648z"/>
		</g>
		<g>
			<rect x="79.176" y="53.166" fill="none" width="15.514" height="8.084"/>
			<path fill="#939598" d="M82.177,53.646h0.931l1.609,5.88h0.021l1.74-5.88h0.939l1.73,5.88h0.02l1.641-5.88h0.88l-2.08,7.08h-0.91
				l-1.75-6h-0.021l-1.76,6h-0.92L82.177,53.646z"/>
		</g>
		<g>
			<rect x="59.673" y="82.169" fill="none" width="15.514" height="8.084"/>
			<path fill="#939598" d="M62.674,82.648h0.931l1.609,5.88h0.021l1.74-5.88h0.939l1.73,5.88h0.02l1.641-5.88h0.88l-2.08,7.08h-0.91
				l-1.75-6h-0.021l-1.76,6h-0.92L62.674,82.648z"/>
		</g>
		<g>
			<rect x="13.199" y="53.166" fill="none" width="15.514" height="8.084"/>
			<path fill="#939598" d="M16.2,53.646h0.931l1.609,5.88h0.021l1.74-5.88h0.939l1.73,5.88h0.02l1.641-5.88h0.88l-2.08,7.08h-0.91
				l-1.75-6H20.95l-1.76,6h-0.92L16.2,53.646z"/>
		</g>
		<g>
			<rect x="36.367" y="24.854" fill="none" width="7.846" height="8.084"/>
			<path fill="#939598" d="M37.56,25.333h0.84v3h3.78v-3h0.84v7.08h-0.84v-3.3h-3.78v3.3h-0.84V25.333z"/>
		</g>
		<circle fill="#FFFFFF" stroke="#939598" stroke-width="1.4173" stroke-miterlimit="10" cx="65.399" cy="37.454" r="2.334"/>
		<circle fill="#FFFFFF" stroke="#939598" stroke-width="1.4173" stroke-miterlimit="10" cx="42.589" cy="37.454" r="2.334"/>
		<circle fill="#FFFFFF" stroke="#939598" stroke-width="1.4173" stroke-miterlimit="10" cx="31.185" cy="57.463" r="2.334"/>
		<circle fill="#FFFFFF" stroke="#939598" stroke-width="1.4173" stroke-miterlimit="10" cx="42.589" cy="76.961" r="2.334"/>
		<circle fill="#FFFFFF" stroke="#939598" stroke-width="1.4173" stroke-miterlimit="10" cx="65.399" cy="76.961" r="2.334"/>
		<circle fill="#FFFFFF" stroke="#939598" stroke-width="1.4173" stroke-miterlimit="10" cx="76.803" cy="57.463" r="2.334"/>
	</g>
</g>
<g id="Layer_4">
</g>
<g id="Layer_3">
</g>
<g id="Layer_5">
</g>
<g id="Annotations">
</g>
</svg>
