<?xml version="1.0" encoding="utf-8"?>
<!-- Generator: Adobe Illustrator 16.0.0, SVG Export Plug-In . SVG Version: 6.00 Build 0)  -->
<!DOCTYPE svg PUBLIC "-//W3C//DTD SVG 1.1//EN" "http://www.w3.org/Graphics/SVG/1.1/DTD/svg11.dtd">
<svg version="1.1" xmlns="http://www.w3.org/2000/svg" xmlns:xlink="http://www.w3.org/1999/xlink" x="0px" y="0px" width="105px"
	 height="110.117px" viewBox="0 0 105 110.117" enable-background="new 0 0 105 110.117" xml:space="preserve">
<g id="Layer_2">
</g>
<g id="Layer_1">
	<g>
		<rect x="65.715" y="42.514" fill="#D3D3D3" width="8.128" height="5.837"/>
		<rect x="61.65" y="37.847" fill="#D3D3D3" width="8.128" height="5.837"/>
		<rect x="74.467" y="36.677" fill="#D3D3D3" width="8.128" height="5.837"/>
		<rect x="73.843" y="45.927" fill="#D3D3D3" width="8.128" height="5.837"/>
		<rect x="60.895" y="49.677" fill="#D3D3D3" width="8.128" height="5.837"/>
		<rect x="40.478" y="43.684" fill="#D3D3D3" width="8.128" height="5.837"/>
		<rect x="33.311" y="38.434" fill="#D3D3D3" width="8.128" height="5.837"/>
		<rect x="26.311" y="47.601" fill="#D3D3D3" width="8.128" height="5.837"/>
		<rect x="33.311" y="59.935" fill="#D3D3D3" width="8.128" height="5.837"/>
		<rect x="36.414" y="65.772" fill="#D3D3D3" width="8.128" height="5.837"/>
		<rect x="29.246" y="71.609" fill="#D3D3D3" width="8.128" height="5.837"/>
		<rect x="63.446" y="65.772" fill="#D3D3D3" width="8.128" height="5.837"/>
		<rect x="69.022" y="69.522" fill="#D3D3D3" width="8.128" height="5.837"/>
		<rect x="72.602" y="61.355" fill="#D3D3D3" width="8.128" height="5.837"/>
		<rect x="56.831" y="59.188" fill="#D3D3D3" width="8.128" height="5.837"/>
		<rect x="56.497" y="69.522" fill="#D3D3D3" width="8.128" height="5.837"/>
		<g>
			<circle fill="#A7A9AC" cx="71.575" cy="90.542" r="6.617"/>
			<g>
				
					<line fill="none" stroke="#FFFFFF" stroke-width="0.5315" stroke-linecap="round" stroke-miterlimit="10" x1="72.543" y1="93.136" x2="70.418" y2="93.886"/>
				
					<line fill="none" stroke="#FFFFFF" stroke-width="0.5315" stroke-linecap="round" stroke-miterlimit="10" x1="72.543" y1="93.886" x2="70.418" y2="94.636"/>
				
					<line fill="none" stroke="#FFFFFF" stroke-width="0.5315" stroke-linecap="round" stroke-miterlimit="10" x1="72.543" y1="94.636" x2="70.418" y2="95.386"/>
				<path fill="none" stroke="#FFFFFF" stroke-width="0.5315" stroke-linecap="round" stroke-miterlimit="10" d="M70.387,92.324
					c0-0.625-0.907-1.182-0.907-1.182c-0.632-0.572-1.03-1.398-1.03-2.318c0-1.727,1.399-3.125,3.126-3.125
					c1.726,0,3.124,1.398,3.124,3.125c0,0.92-0.396,1.746-1.029,2.318c0,0-0.908,0.557-0.908,1.182"/>
			</g>
		</g>
		<polyline fill="none" stroke="#A7A9AC" stroke-width="1.4173" stroke-miterlimit="10" points="11.042,21.209 11.042,99.72 
			96.946,99.72 96.946,13.816 41.064,13.816 		"/>
		<g>
			<g>
				<path fill="#939598" d="M13.894,10.264c-0.213-0.286-0.477-0.501-0.79-0.645s-0.64-0.216-0.979-0.216
					c-0.394,0-0.755,0.08-1.085,0.24s-0.615,0.375-0.855,0.646c-0.24,0.27-0.427,0.583-0.56,0.939c-0.134,0.357-0.2,0.729-0.2,1.115
					c0,0.413,0.066,0.799,0.2,1.155c0.133,0.356,0.318,0.666,0.555,0.93s0.52,0.472,0.85,0.625s0.695,0.23,1.096,0.23
					c0.433,0,0.819-0.085,1.16-0.256c0.34-0.17,0.636-0.414,0.89-0.734l0.63,0.53c-0.32,0.427-0.705,0.739-1.155,0.939
					s-0.958,0.3-1.524,0.3c-0.507,0-0.98-0.093-1.42-0.279c-0.44-0.187-0.822-0.445-1.146-0.775s-0.576-0.722-0.76-1.175
					s-0.275-0.95-0.275-1.49c0-0.52,0.089-1.007,0.266-1.46c0.176-0.453,0.425-0.847,0.745-1.18c0.319-0.334,0.699-0.597,1.14-0.79
					c0.439-0.193,0.923-0.29,1.45-0.29c0.479,0,0.941,0.087,1.385,0.26c0.443,0.174,0.814,0.457,1.115,0.85L13.894,10.264z"/>
				<path fill="#939598" d="M15.534,13.124h2.449v0.72h-2.449V13.124z"/>
				<path fill="#939598" d="M19.304,8.804h2.16c0.293,0,0.58,0.03,0.86,0.09c0.279,0.061,0.529,0.158,0.75,0.295
					c0.22,0.137,0.397,0.315,0.534,0.535s0.205,0.493,0.205,0.82c0,0.413-0.111,0.755-0.335,1.024
					c-0.223,0.271-0.524,0.462-0.904,0.575v0.021c0.227,0.02,0.438,0.078,0.635,0.175c0.196,0.097,0.366,0.222,0.51,0.375
					s0.255,0.332,0.335,0.535s0.12,0.422,0.12,0.654c0,0.394-0.082,0.717-0.245,0.971c-0.163,0.253-0.377,0.455-0.64,0.604
					c-0.264,0.15-0.561,0.255-0.891,0.315c-0.33,0.06-0.658,0.09-0.984,0.09h-2.11V8.804z M20.144,11.804h1.16
					c0.2,0,0.396-0.014,0.585-0.04c0.19-0.026,0.361-0.081,0.516-0.165c0.152-0.083,0.276-0.2,0.369-0.35
					c0.094-0.15,0.141-0.349,0.141-0.596c0-0.22-0.044-0.397-0.13-0.534c-0.087-0.137-0.202-0.245-0.346-0.325
					s-0.307-0.135-0.489-0.165c-0.184-0.03-0.369-0.045-0.556-0.045h-1.25V11.804z M20.144,15.104h1.42
					c0.207,0,0.412-0.021,0.615-0.064c0.203-0.044,0.387-0.113,0.55-0.21c0.164-0.097,0.295-0.224,0.396-0.38
					c0.1-0.157,0.149-0.349,0.149-0.575c0-0.247-0.048-0.453-0.145-0.62s-0.224-0.3-0.38-0.4c-0.157-0.1-0.337-0.17-0.54-0.21
					s-0.412-0.06-0.625-0.06h-1.44V15.104z"/>
				<path fill="#939598" d="M25.193,13.544c0-0.367,0.063-0.7,0.19-1c0.126-0.3,0.3-0.559,0.52-0.775
					c0.221-0.217,0.483-0.385,0.79-0.505s0.641-0.18,1-0.18c0.36,0,0.693,0.06,1,0.18s0.57,0.288,0.79,0.505
					c0.221,0.217,0.394,0.476,0.521,0.775c0.126,0.3,0.189,0.633,0.189,1c0,0.366-0.063,0.7-0.189,1
					c-0.127,0.3-0.3,0.559-0.521,0.774c-0.22,0.217-0.483,0.386-0.79,0.506c-0.307,0.119-0.64,0.18-1,0.18
					c-0.359,0-0.693-0.061-1-0.18c-0.307-0.12-0.569-0.289-0.79-0.506c-0.22-0.216-0.394-0.475-0.52-0.774
					C25.257,14.244,25.193,13.91,25.193,13.544z M26.033,13.544c0,0.246,0.039,0.475,0.115,0.685c0.077,0.21,0.188,0.394,0.335,0.55
					c0.146,0.157,0.322,0.28,0.525,0.37c0.203,0.091,0.432,0.136,0.685,0.136c0.254,0,0.481-0.045,0.686-0.136
					c0.203-0.09,0.378-0.213,0.524-0.37c0.146-0.156,0.259-0.34,0.335-0.55c0.077-0.21,0.115-0.438,0.115-0.685
					c0-0.247-0.038-0.476-0.115-0.686c-0.076-0.21-0.188-0.393-0.335-0.55c-0.146-0.156-0.321-0.28-0.524-0.37
					c-0.204-0.09-0.432-0.135-0.686-0.135c-0.253,0-0.481,0.045-0.685,0.135s-0.379,0.214-0.525,0.37
					c-0.146,0.157-0.258,0.34-0.335,0.55C26.072,13.068,26.033,13.297,26.033,13.544z"/>
				<path fill="#939598" d="M32.613,13.364l-1.681-2.16h1.021l1.24,1.68l1.17-1.68h0.95l-1.61,2.16l1.93,2.52h-1.029l-1.48-2.02
					l-1.46,2.02h-0.97L32.613,13.364z"/>
			</g>
		</g>
		<g>
			<circle fill="#A7A9AC" cx="87.809" cy="90.542" r="6.616"/>
			
				<polyline fill="none" stroke="#FFFFFF" stroke-width="1.3526" stroke-linecap="round" stroke-linejoin="round" stroke-miterlimit="10" points="
				90.719,88.672 87.83,93.157 84.896,88.602 			"/>
		</g>
		<g>
			<g>
				
					<line fill="none" stroke="#A7A9AC" stroke-width="1.4173" stroke-miterlimit="10" x1="53.994" y1="79.439" x2="53.994" y2="39.12"/>
				<g>
					<polygon fill="#A7A9AC" points="55.641,40.243 53.994,34.097 52.348,40.243 					"/>
				</g>
			</g>
		</g>
		<g>
			<g>
				
					<line fill="none" stroke="#A7A9AC" stroke-width="1.4173" stroke-miterlimit="10" x1="22.121" y1="56.768" x2="80.845" y2="56.768"/>
				<g>
					<polygon fill="#A7A9AC" points="79.721,58.415 85.867,56.768 79.721,55.121 					"/>
				</g>
			</g>
		</g>
		<path fill="none" stroke="#A7A9AC" stroke-width="1.4173" stroke-miterlimit="10" stroke-dasharray="2.8347" d="M76.665,34.097"/>
		<path fill="none" stroke="#A7A9AC" stroke-width="1.4173" stroke-miterlimit="10" stroke-dasharray="2.8347" d="M31.323,79.439"/>
		
			<rect x="22.121" y="34.097" fill="none" stroke="#A7A9AC" stroke-width="1.4173" stroke-miterlimit="10" width="63.746" height="45.342"/>
	</g>
</g>
<g id="Layer_4">
</g>
<g id="Layer_3">
</g>
<g id="Layer_5">
</g>
<g id="Annotations">
</g>
</svg>
