<?xml version="1.0" encoding="utf-8"?>
<!-- Generator: Adobe Illustrator 16.0.0, SVG Export Plug-In . SVG Version: 6.00 Build 0)  -->
<!DOCTYPE svg PUBLIC "-//W3C//DTD SVG 1.1//EN" "http://www.w3.org/Graphics/SVG/1.1/DTD/svg11.dtd">
<svg version="1.1" xmlns="http://www.w3.org/2000/svg" xmlns:xlink="http://www.w3.org/1999/xlink" x="0px" y="0px" width="105px"
	 height="110.117px" viewBox="0 0 105 110.117" enable-background="new 0 0 105 110.117" xml:space="preserve">
<g id="Layer_2">
</g>
<g id="Layer_1">
	<g>
		<g>
			<circle fill="#A7A9AC" cx="72.518" cy="90.875" r="6.716"/>
			<g>
				<g>
					<path fill="none" stroke="#FFFFFF" stroke-width="0.5315" stroke-linecap="round" stroke-miterlimit="10" d="M76.705,90.875
						c0-2.142-1.607-3.907-3.683-4.156"/>
					<g>
						<polygon fill="#FFFFFF" points="73.396,86.125 71.146,86.919 73.491,87.356 						"/>
					</g>
				</g>
			</g>
			<g>
				<g>
					<path fill="none" stroke="#FFFFFF" stroke-width="0.5315" stroke-linecap="round" stroke-miterlimit="10" d="M70.424,94.502
						c0.616,0.356,1.331,0.56,2.093,0.56c1.349,0,2.549-0.638,3.314-1.627"/>
					<g>
						<polygon fill="#FFFFFF" points="76.16,94.061 76.619,91.719 75.051,93.518 						"/>
					</g>
				</g>
			</g>
			<g>
				<g>
					<path fill="none" stroke="#FFFFFF" stroke-width="0.5315" stroke-linecap="round" stroke-miterlimit="10" d="M70.424,87.248
						c-1.251,0.726-2.093,2.077-2.093,3.627c0,0.583,0.119,1.138,0.334,1.643"/>
					<g>
						<polygon fill="#FFFFFF" points="67.973,92.48 69.777,94.041 68.995,91.787 						"/>
					</g>
				</g>
			</g>
		</g>
		<polyline fill="none" stroke="#A7A9AC" stroke-width="1.4173" stroke-miterlimit="10" points="12.083,31.155 12.083,100.053 
			97.988,100.053 97.988,14.148 75.925,14.148 		"/>
		<g>
			<g>
				<path fill="#939598" d="M9.976,9.135h2.16c0.293,0,0.58,0.03,0.86,0.09c0.279,0.061,0.529,0.158,0.75,0.295
					c0.22,0.137,0.397,0.315,0.534,0.535s0.205,0.493,0.205,0.82c0,0.413-0.111,0.755-0.335,1.024
					c-0.223,0.271-0.524,0.462-0.904,0.575v0.021c0.227,0.02,0.438,0.078,0.635,0.175c0.196,0.097,0.366,0.222,0.51,0.375
					s0.255,0.332,0.335,0.535s0.12,0.422,0.12,0.654c0,0.394-0.082,0.717-0.245,0.971c-0.163,0.253-0.377,0.455-0.64,0.604
					c-0.264,0.15-0.561,0.255-0.891,0.315c-0.33,0.06-0.658,0.09-0.984,0.09h-2.11V9.135z M10.815,12.135h1.16
					c0.2,0,0.396-0.014,0.585-0.04c0.19-0.026,0.361-0.081,0.516-0.165c0.152-0.083,0.276-0.2,0.369-0.35
					c0.094-0.15,0.141-0.349,0.141-0.596c0-0.22-0.044-0.397-0.13-0.534c-0.087-0.137-0.202-0.245-0.346-0.325
					S12.804,9.99,12.621,9.96c-0.184-0.03-0.369-0.045-0.556-0.045h-1.25V12.135z M10.815,15.435h1.42
					c0.207,0,0.412-0.021,0.615-0.064c0.203-0.044,0.387-0.113,0.55-0.21c0.164-0.097,0.295-0.224,0.396-0.38
					c0.1-0.157,0.149-0.349,0.149-0.575c0-0.247-0.048-0.453-0.145-0.62s-0.224-0.3-0.38-0.4c-0.157-0.1-0.337-0.17-0.54-0.21
					s-0.412-0.06-0.625-0.06h-1.44V15.435z"/>
				<path fill="#939598" d="M16.136,12.645c0-0.213-0.007-0.413-0.021-0.6c-0.013-0.187-0.02-0.356-0.02-0.51h0.74
					c0,0.126,0.003,0.253,0.01,0.38s0.01,0.257,0.01,0.39h0.021c0.053-0.113,0.128-0.223,0.225-0.33
					c0.097-0.106,0.212-0.201,0.345-0.285c0.134-0.083,0.283-0.149,0.45-0.199c0.167-0.051,0.347-0.075,0.54-0.075
					c0.054,0,0.106,0.003,0.16,0.01c0.053,0.007,0.106,0.021,0.16,0.04l-0.051,0.79c-0.133-0.04-0.273-0.06-0.42-0.06
					c-0.479,0-0.828,0.154-1.045,0.465c-0.217,0.31-0.325,0.734-0.325,1.274v2.28h-0.779V12.645z"/>
				<path fill="#939598" d="M19.595,12.135c0.24-0.246,0.525-0.428,0.855-0.545c0.33-0.116,0.665-0.175,1.005-0.175
					c0.693,0,1.193,0.163,1.5,0.49c0.307,0.326,0.46,0.823,0.46,1.489v2.011c0,0.133,0.007,0.271,0.02,0.415
					c0.014,0.143,0.03,0.274,0.051,0.395h-0.75c-0.027-0.106-0.042-0.225-0.045-0.355c-0.004-0.13-0.006-0.244-0.006-0.345h-0.02
					c-0.153,0.24-0.358,0.437-0.615,0.59s-0.564,0.23-0.925,0.23c-0.24,0-0.465-0.03-0.675-0.09c-0.21-0.061-0.394-0.148-0.55-0.266
					c-0.157-0.116-0.282-0.261-0.375-0.435c-0.094-0.174-0.141-0.373-0.141-0.6c0-0.387,0.101-0.69,0.3-0.91
					c0.2-0.221,0.449-0.384,0.745-0.49c0.297-0.106,0.617-0.174,0.96-0.2c0.344-0.026,0.658-0.04,0.945-0.04h0.3v-0.14
					c0-0.34-0.102-0.597-0.305-0.771c-0.203-0.173-0.488-0.26-0.855-0.26c-0.253,0-0.501,0.042-0.744,0.125
					c-0.244,0.084-0.459,0.212-0.646,0.385L19.595,12.135z M21.855,13.965c-0.5,0-0.897,0.07-1.19,0.21s-0.44,0.37-0.44,0.69
					c0,0.293,0.099,0.501,0.296,0.625c0.196,0.123,0.441,0.185,0.734,0.185c0.227,0,0.425-0.038,0.595-0.115
					c0.171-0.076,0.312-0.178,0.426-0.305c0.113-0.127,0.199-0.275,0.26-0.445c0.06-0.17,0.093-0.352,0.1-0.545v-0.3H21.855z"/>
				<path fill="#939598" d="M24.735,9.705c0-0.153,0.055-0.287,0.165-0.4s0.245-0.17,0.405-0.17s0.295,0.057,0.405,0.17
					c0.109,0.113,0.164,0.247,0.164,0.4c0,0.166-0.053,0.303-0.159,0.41c-0.107,0.106-0.244,0.159-0.41,0.159
					c-0.167,0-0.304-0.053-0.41-0.159C24.789,10.008,24.735,9.871,24.735,9.705z M24.915,11.535h0.78v4.68h-0.78V11.535z"/>
				<path fill="#939598" d="M27.246,12.645c0-0.213-0.007-0.413-0.021-0.6c-0.013-0.187-0.02-0.356-0.02-0.51h0.74
					c0,0.126,0.003,0.253,0.01,0.38s0.01,0.257,0.01,0.39h0.021c0.053-0.113,0.128-0.223,0.225-0.33
					c0.097-0.106,0.212-0.201,0.345-0.285c0.134-0.083,0.283-0.149,0.45-0.199c0.167-0.051,0.347-0.075,0.54-0.075
					c0.307,0,0.571,0.047,0.795,0.14c0.224,0.094,0.408,0.224,0.555,0.391c0.146,0.166,0.255,0.368,0.325,0.604
					s0.105,0.495,0.105,0.775v2.89h-0.78v-2.81c0-0.394-0.087-0.704-0.26-0.931c-0.174-0.227-0.443-0.34-0.811-0.34
					c-0.253,0-0.472,0.044-0.654,0.13c-0.184,0.087-0.334,0.21-0.45,0.37c-0.117,0.16-0.204,0.35-0.26,0.57
					c-0.058,0.22-0.086,0.463-0.086,0.729v2.28h-0.779V12.645z"/>
				<path fill="#939598" d="M40.605,16.215h-0.77l-1.33-3.6h-0.021l-1.18,3.6h-0.8l-1.521-4.68h0.86l1.07,3.6h0.02l1.21-3.6h0.82
					l1.229,3.6h0.021l1.06-3.6h0.84L40.605,16.215z"/>
				<path fill="#939598" d="M42.996,12.645c0-0.213-0.007-0.413-0.021-0.6c-0.013-0.187-0.02-0.356-0.02-0.51h0.74
					c0,0.126,0.003,0.253,0.01,0.38s0.01,0.257,0.01,0.39h0.021c0.053-0.113,0.128-0.223,0.225-0.33
					c0.097-0.106,0.212-0.201,0.345-0.285c0.134-0.083,0.283-0.149,0.45-0.199c0.167-0.051,0.347-0.075,0.54-0.075
					c0.054,0,0.106,0.003,0.16,0.01c0.053,0.007,0.106,0.021,0.16,0.04l-0.051,0.79c-0.133-0.04-0.273-0.06-0.42-0.06
					c-0.479,0-0.828,0.154-1.045,0.465c-0.217,0.31-0.325,0.734-0.325,1.274v2.28h-0.779V12.645z"/>
				<path fill="#939598" d="M46.405,9.705c0-0.153,0.055-0.287,0.165-0.4s0.245-0.17,0.405-0.17s0.295,0.057,0.405,0.17
					c0.109,0.113,0.164,0.247,0.164,0.4c0,0.166-0.053,0.303-0.159,0.41c-0.107,0.106-0.244,0.159-0.41,0.159
					c-0.167,0-0.304-0.053-0.41-0.159C46.459,10.008,46.405,9.871,46.405,9.705z M46.585,11.535h0.78v4.68h-0.78V11.535z"/>
				<path fill="#939598" d="M51.476,12.195h-1.38v2.34c0,0.153,0.003,0.295,0.01,0.425s0.033,0.243,0.08,0.34s0.117,0.174,0.21,0.23
					c0.094,0.057,0.227,0.085,0.4,0.085c0.113,0,0.229-0.014,0.35-0.04c0.12-0.027,0.233-0.067,0.34-0.12l0.03,0.71
					c-0.133,0.06-0.281,0.104-0.445,0.13c-0.163,0.026-0.318,0.04-0.465,0.04c-0.279,0-0.503-0.037-0.67-0.11
					c-0.166-0.073-0.297-0.177-0.39-0.31c-0.094-0.134-0.155-0.299-0.186-0.495c-0.029-0.196-0.045-0.415-0.045-0.655v-2.569h-1.02
					v-0.66h1.02v-1.33h0.78v1.33h1.38V12.195z"/>
				<path fill="#939598" d="M52.335,9.705c0-0.153,0.055-0.287,0.165-0.4s0.245-0.17,0.405-0.17s0.295,0.057,0.405,0.17
					c0.109,0.113,0.164,0.247,0.164,0.4c0,0.166-0.053,0.303-0.159,0.41c-0.107,0.106-0.244,0.159-0.41,0.159
					c-0.167,0-0.304-0.053-0.41-0.159C52.389,10.008,52.335,9.871,52.335,9.705z M52.515,11.535h0.78v4.68h-0.78V11.535z"/>
				<path fill="#939598" d="M54.846,12.645c0-0.213-0.007-0.413-0.021-0.6c-0.013-0.187-0.02-0.356-0.02-0.51h0.74
					c0,0.126,0.003,0.253,0.01,0.38s0.01,0.257,0.01,0.39h0.021c0.053-0.113,0.128-0.223,0.225-0.33
					c0.097-0.106,0.212-0.201,0.345-0.285c0.134-0.083,0.283-0.149,0.45-0.199c0.167-0.051,0.347-0.075,0.54-0.075
					c0.307,0,0.571,0.047,0.795,0.14c0.224,0.094,0.408,0.224,0.555,0.391c0.146,0.166,0.255,0.368,0.325,0.604
					s0.105,0.495,0.105,0.775v2.89h-0.78v-2.81c0-0.394-0.087-0.704-0.26-0.931c-0.174-0.227-0.443-0.34-0.811-0.34
					c-0.253,0-0.472,0.044-0.654,0.13c-0.184,0.087-0.334,0.21-0.45,0.37c-0.117,0.16-0.204,0.35-0.26,0.57
					c-0.058,0.22-0.086,0.463-0.086,0.729v2.28h-0.779V12.645z"/>
				<path fill="#939598" d="M65.075,16.005c0,0.854-0.219,1.502-0.655,1.945s-1.068,0.665-1.895,0.665
					c-0.46,0-0.875-0.067-1.245-0.2c-0.37-0.134-0.722-0.363-1.056-0.69l0.561-0.64c0.246,0.267,0.508,0.468,0.785,0.604
					c0.276,0.137,0.595,0.205,0.955,0.205c0.347,0,0.635-0.052,0.864-0.154c0.23-0.104,0.412-0.244,0.545-0.42
					c0.134-0.177,0.227-0.379,0.28-0.605s0.08-0.464,0.08-0.71v-0.6h-0.02c-0.188,0.3-0.431,0.52-0.73,0.659
					c-0.3,0.141-0.606,0.21-0.92,0.21c-0.366,0-0.703-0.06-1.01-0.18s-0.57-0.286-0.79-0.5c-0.22-0.213-0.391-0.467-0.51-0.76
					c-0.12-0.293-0.181-0.613-0.181-0.96c0-0.38,0.061-0.724,0.181-1.03c0.119-0.307,0.288-0.564,0.505-0.774
					c0.216-0.211,0.478-0.372,0.785-0.485c0.306-0.113,0.646-0.17,1.02-0.17c0.16,0,0.32,0.019,0.48,0.055
					c0.159,0.037,0.314,0.094,0.465,0.17c0.149,0.077,0.285,0.174,0.404,0.29c0.12,0.117,0.221,0.252,0.301,0.405h0.02v-0.8h0.78
					V16.005z M60.975,13.875c0,0.24,0.044,0.462,0.131,0.665c0.086,0.203,0.204,0.38,0.354,0.53c0.15,0.149,0.325,0.268,0.525,0.354
					c0.199,0.087,0.413,0.13,0.64,0.13c0.267,0,0.503-0.047,0.71-0.14c0.207-0.094,0.382-0.219,0.525-0.375
					c0.143-0.157,0.251-0.337,0.324-0.54c0.074-0.203,0.11-0.418,0.11-0.646c0-0.253-0.04-0.484-0.12-0.694s-0.193-0.392-0.34-0.545
					s-0.323-0.271-0.53-0.355c-0.206-0.083-0.433-0.125-0.68-0.125s-0.472,0.045-0.675,0.135s-0.377,0.214-0.521,0.37
					c-0.144,0.157-0.255,0.34-0.335,0.55S60.975,13.628,60.975,13.875z"/>
				<path fill="#939598" d="M69.216,16.645l-0.63-0.25l3.01-7.68l0.63,0.24L69.216,16.645z"/>
				<path fill="#939598" d="M13.726,27.385h-0.02c-0.147,0.267-0.379,0.492-0.695,0.675c-0.316,0.184-0.685,0.275-1.105,0.275
					c-0.326,0-0.633-0.062-0.92-0.186c-0.286-0.123-0.534-0.295-0.745-0.515c-0.21-0.22-0.375-0.479-0.494-0.78
					c-0.12-0.3-0.181-0.626-0.181-0.979s0.061-0.68,0.181-0.98c0.119-0.3,0.286-0.56,0.5-0.779c0.213-0.221,0.471-0.392,0.774-0.516
					c0.304-0.123,0.639-0.185,1.005-0.185c0.34,0,0.652,0.069,0.936,0.21c0.283,0.14,0.531,0.337,0.745,0.59h0.02v-3.56h0.78v7.56
					h-0.78V27.385z M13.726,25.875c0-0.247-0.038-0.476-0.115-0.686c-0.076-0.21-0.188-0.393-0.335-0.55
					c-0.146-0.156-0.321-0.28-0.524-0.37c-0.204-0.09-0.432-0.135-0.686-0.135c-0.253,0-0.481,0.045-0.685,0.135
					s-0.379,0.214-0.525,0.37c-0.146,0.157-0.258,0.34-0.335,0.55c-0.076,0.21-0.115,0.438-0.115,0.686
					c0,0.246,0.039,0.475,0.115,0.685c0.077,0.21,0.188,0.394,0.335,0.55c0.146,0.157,0.322,0.28,0.525,0.37
					c0.203,0.091,0.432,0.136,0.685,0.136c0.254,0,0.481-0.045,0.686-0.136c0.203-0.09,0.378-0.213,0.524-0.37
					c0.146-0.156,0.259-0.34,0.335-0.55C13.688,26.35,13.726,26.121,13.726,25.875z"/>
				<path fill="#939598" d="M15.946,24.645c0-0.213-0.007-0.413-0.021-0.6c-0.013-0.187-0.02-0.356-0.02-0.51h0.74
					c0,0.126,0.003,0.253,0.01,0.38s0.01,0.257,0.01,0.39h0.021c0.053-0.113,0.128-0.223,0.225-0.33
					c0.097-0.106,0.212-0.201,0.345-0.285c0.134-0.083,0.283-0.149,0.45-0.199c0.167-0.051,0.347-0.075,0.54-0.075
					c0.054,0,0.106,0.003,0.16,0.01c0.053,0.007,0.106,0.021,0.16,0.04l-0.051,0.79c-0.133-0.04-0.273-0.06-0.42-0.06
					c-0.479,0-0.828,0.154-1.045,0.465c-0.217,0.31-0.325,0.734-0.325,1.274v2.28h-0.779V24.645z"/>
				<path fill="#939598" d="M19.405,24.135c0.24-0.246,0.525-0.428,0.855-0.545c0.33-0.116,0.665-0.175,1.005-0.175
					c0.693,0,1.193,0.163,1.5,0.49c0.307,0.326,0.46,0.823,0.46,1.489v2.011c0,0.133,0.007,0.271,0.02,0.415
					c0.014,0.143,0.03,0.274,0.051,0.395h-0.75c-0.027-0.106-0.042-0.225-0.045-0.355c-0.004-0.13-0.006-0.244-0.006-0.345h-0.02
					c-0.153,0.24-0.358,0.437-0.615,0.59s-0.564,0.23-0.925,0.23c-0.24,0-0.465-0.03-0.675-0.09c-0.21-0.061-0.394-0.148-0.55-0.266
					c-0.157-0.116-0.282-0.261-0.375-0.435c-0.094-0.174-0.141-0.373-0.141-0.6c0-0.387,0.101-0.69,0.3-0.91
					c0.2-0.221,0.449-0.384,0.745-0.49c0.297-0.106,0.617-0.174,0.96-0.2c0.344-0.026,0.658-0.04,0.945-0.04h0.3v-0.14
					c0-0.34-0.102-0.597-0.305-0.771c-0.203-0.173-0.488-0.26-0.855-0.26c-0.253,0-0.501,0.042-0.744,0.125
					c-0.244,0.084-0.459,0.212-0.646,0.385L19.405,24.135z M21.666,25.965c-0.5,0-0.897,0.07-1.19,0.21s-0.44,0.37-0.44,0.69
					c0,0.293,0.099,0.501,0.296,0.625c0.196,0.123,0.441,0.185,0.734,0.185c0.227,0,0.425-0.038,0.595-0.115
					c0.171-0.076,0.312-0.178,0.426-0.305c0.113-0.127,0.199-0.275,0.26-0.445c0.06-0.17,0.093-0.352,0.1-0.545v-0.3H21.666z"/>
				<path fill="#939598" d="M29.676,28.215h-0.77l-1.33-3.6h-0.021l-1.18,3.6h-0.8l-1.521-4.68h0.86l1.07,3.6h0.02l1.21-3.6h0.82
					l1.229,3.6h0.021l1.06-3.6h0.84L29.676,28.215z"/>
				<path fill="#939598" d="M31.956,21.705c0-0.153,0.055-0.287,0.165-0.4s0.245-0.17,0.405-0.17s0.295,0.057,0.405,0.17
					c0.109,0.113,0.164,0.247,0.164,0.4c0,0.166-0.053,0.303-0.159,0.41c-0.107,0.106-0.244,0.159-0.41,0.159
					c-0.167,0-0.304-0.053-0.41-0.159C32.01,22.008,31.956,21.871,31.956,21.705z M32.136,23.535h0.78v4.68h-0.78V23.535z"/>
				<path fill="#939598" d="M34.467,24.645c0-0.213-0.007-0.413-0.021-0.6c-0.013-0.187-0.02-0.356-0.02-0.51h0.74
					c0,0.126,0.003,0.253,0.01,0.38s0.01,0.257,0.01,0.39h0.021c0.053-0.113,0.128-0.223,0.225-0.33
					c0.097-0.106,0.212-0.201,0.345-0.285c0.134-0.083,0.283-0.149,0.45-0.199c0.167-0.051,0.347-0.075,0.54-0.075
					c0.307,0,0.571,0.047,0.795,0.14c0.224,0.094,0.408,0.224,0.555,0.391c0.146,0.166,0.255,0.368,0.325,0.604
					s0.105,0.495,0.105,0.775v2.89h-0.78v-2.81c0-0.394-0.087-0.704-0.26-0.931c-0.174-0.227-0.443-0.34-0.811-0.34
					c-0.253,0-0.472,0.044-0.654,0.13c-0.184,0.087-0.334,0.21-0.45,0.37c-0.117,0.16-0.204,0.35-0.26,0.57
					c-0.058,0.22-0.086,0.463-0.086,0.729v2.28h-0.779V24.645z"/>
				<path fill="#939598" d="M44.696,28.005c0,0.854-0.219,1.502-0.655,1.945s-1.068,0.665-1.895,0.665
					c-0.46,0-0.875-0.067-1.245-0.2c-0.37-0.134-0.722-0.363-1.056-0.69l0.561-0.64c0.246,0.267,0.508,0.468,0.785,0.604
					c0.276,0.137,0.595,0.205,0.955,0.205c0.347,0,0.635-0.052,0.864-0.154c0.23-0.104,0.412-0.244,0.545-0.42
					c0.134-0.177,0.227-0.379,0.28-0.605s0.08-0.464,0.08-0.71v-0.6h-0.02c-0.188,0.3-0.431,0.52-0.73,0.659
					c-0.3,0.141-0.606,0.21-0.92,0.21c-0.366,0-0.703-0.06-1.01-0.18s-0.57-0.286-0.79-0.5c-0.22-0.213-0.391-0.467-0.51-0.76
					c-0.12-0.293-0.181-0.613-0.181-0.96c0-0.38,0.061-0.724,0.181-1.03c0.119-0.307,0.288-0.564,0.505-0.774
					c0.216-0.211,0.478-0.372,0.785-0.485c0.306-0.113,0.646-0.17,1.02-0.17c0.16,0,0.32,0.019,0.48,0.055
					c0.159,0.037,0.314,0.094,0.465,0.17c0.149,0.077,0.285,0.174,0.404,0.29c0.12,0.117,0.221,0.252,0.301,0.405h0.02v-0.8h0.78
					V28.005z M40.596,25.875c0,0.24,0.044,0.462,0.131,0.665c0.086,0.203,0.204,0.38,0.354,0.53c0.15,0.149,0.325,0.268,0.525,0.354
					c0.199,0.087,0.413,0.13,0.64,0.13c0.267,0,0.503-0.047,0.71-0.14c0.207-0.094,0.382-0.219,0.525-0.375
					c0.143-0.157,0.251-0.337,0.324-0.54c0.074-0.203,0.11-0.418,0.11-0.646c0-0.253-0.04-0.484-0.12-0.694s-0.193-0.392-0.34-0.545
					s-0.323-0.271-0.53-0.355c-0.206-0.083-0.433-0.125-0.68-0.125s-0.472,0.045-0.675,0.135s-0.377,0.214-0.521,0.37
					c-0.144,0.157-0.255,0.34-0.335,0.55S40.596,25.628,40.596,25.875z"/>
			</g>
		</g>
		<g>
			<circle fill="#A7A9AC" cx="88.85" cy="90.875" r="6.616"/>
			
				<polyline fill="none" stroke="#FFFFFF" stroke-width="1.3526" stroke-linecap="round" stroke-linejoin="round" stroke-miterlimit="10" points="
				85.939,92.745 88.827,88.261 91.761,92.815 			"/>
		</g>
		<g>
			<g>
				<path fill="#D3D3D3" stroke="#939598" stroke-width="1.4173" stroke-miterlimit="10" d="M30.8,56.498c0,0,0-4.259,2.396-5.324
					c2.395-1.062,3.459-4.258,5.057-5.854c1.597-1.599,1.33-2.93,4.26-2.397c2.928,0.533,5.589,3.49,7.986-0.116
					c2.394-3.61,2.717-3.61,3.887-2.545s7.558-1.235,8.355-0.617c0.799,0.617,1.865,1.416,2.662,2.213
					c0.799,0.8,0.266,2.131,3.195,2.93c2.927,0.799,5.324,1.064,5.588,1.863c0.268,0.798-1.065,1.331,0,2.928
					c1.064,1.596,1.064,3.992,1.863,4.525s2.662,1.062,3.195,2.395c0.533,1.331-0.533,2.928,0,3.992
					c0.533,1.065,1.639,1.331,0.152,2.928c-1.482,1.598,2.68,3.337-1.664,2.998c-4.346-0.335-5.941,0.87-8.869,0
					c-2.928-0.868-6.921-4.595-8.783-2.73c-1.865,1.862-5.002,4.134-5.695,2.73c-0.694-1.4-2.557-1.134-3.887-1.934
					c-1.333-0.797-6.922-1.331-7.986-0.266s-2.663,2.538-3.726,2.199c-1.065-0.335-0.933-0.069-2.863-1.666
					c-1.929-1.599-4.06-3.728-5.124-3.46C29.736,61.556,30.8,56.498,30.8,56.498z"/>
			</g>
			<g>
				<g>
					
						<rect x="35.887" y="35.503" transform="matrix(0.9482 -0.3176 0.3176 0.9482 -16.4376 15.2363)" fill="#A7A9AC" width="5.262" height="45.073"/>
				</g>
				<path fill="#6D6E71" d="M28.871,37.533c-0.46-1.381,0.283-2.872,1.659-3.332c1.38-0.463,2.871,0.28,3.331,1.66"/>
				<polygon fill="#6D6E71" points="43.176,80.247 47.338,84.396 48.165,78.576 				"/>
			</g>
		</g>
	</g>
</g>
<g id="Layer_4">
</g>
<g id="Layer_3">
</g>
<g id="Layer_5">
</g>
<g id="Annotations">
</g>
</svg>
