<?xml version="1.0" encoding="utf-8"?>
<!-- Generator: Adobe Illustrator 16.0.0, SVG Export Plug-In . SVG Version: 6.00 Build 0)  -->
<!DOCTYPE svg PUBLIC "-//W3C//DTD SVG 1.1//EN" "http://www.w3.org/Graphics/SVG/1.1/DTD/svg11.dtd">
<svg version="1.1" xmlns="http://www.w3.org/2000/svg" xmlns:xlink="http://www.w3.org/1999/xlink" x="0px" y="0px"
	 width="37.799px" height="35.824px" viewBox="0 0 37.799 35.824" enable-background="new 0 0 37.799 35.824" xml:space="preserve">
<g id="Layer_2">
</g>
<g id="Layer_1">
	<g>
		<g>
			<path opacity="0.3" fill="#E6E7E8" d="M18.891,22.992c-6.048,0-11.068-4.733-11.429-10.775c-0.184-3.055,0.834-5.999,2.864-8.289
				c2.031-2.29,4.832-3.651,7.887-3.834c0.233-0.014,0.465-0.021,0.695-0.021c6.047,0,11.067,4.732,11.429,10.774
				c0.378,6.307-4.446,11.746-10.753,12.124C19.352,22.985,19.12,22.992,18.891,22.992z"/>
			<g>
				<path fill="#E6E7E8" d="M18.908,0v0.146c6.008,0,10.996,4.703,11.355,10.706c0.183,3.036-0.828,5.96-2.848,8.236
					c-2.018,2.275-4.801,3.629-7.837,3.811c-0.23,0.014-0.46,0.021-0.688,0.021c-6.01,0-10.998-4.703-11.355-10.707
					c-0.183-3.036,0.828-5.96,2.846-8.235c2.018-2.275,4.801-3.628,7.837-3.81c0.231-0.014,0.462-0.021,0.69-0.021V0 M18.908,0
					c-0.232,0-0.465,0.007-0.699,0.021c-6.357,0.381-11.201,5.843-10.82,12.2c0.365,6.125,5.447,10.844,11.502,10.844
					c0.23,0,0.464-0.007,0.697-0.021c6.357-0.381,11.203-5.844,10.822-12.201C30.043,4.72,24.963,0,18.908,0L18.908,0z"/>
			</g>
		</g>
		<g>
			<g>
				<g>
					<path opacity="0.3" fill="#E6E7E8" d="M26.256,35.75c-1.786,0-3.508-0.408-5.118-1.214c-2.736-1.369-4.777-3.722-5.744-6.625
						c-0.968-2.904-0.746-6.011,0.623-8.748c1.955-3.908,5.885-6.335,10.257-6.335c1.786,0,3.508,0.408,5.118,1.214
						c2.736,1.369,4.777,3.722,5.744,6.625c0.968,2.904,0.746,6.011-0.623,8.748C34.558,33.323,30.628,35.75,26.256,35.75z"/>
					<path fill="#E6E7E8" d="M26.273,12.754v0.146c1.775,0,3.486,0.406,5.085,1.206c2.72,1.36,4.747,3.698,5.708,6.583
						s0.742,5.972-0.619,8.692c-1.942,3.883-5.848,6.295-10.191,6.295c-1.775,0-3.486-0.406-5.085-1.206
						c-2.72-1.36-4.747-3.698-5.708-6.583s-0.742-5.972,0.619-8.692c1.941-3.883,5.848-6.295,10.191-6.295V12.754 M26.273,12.754
						c-4.229,0-8.301,2.336-10.322,6.376c-2.85,5.696-0.541,12.623,5.154,15.472c1.656,0.829,3.416,1.222,5.15,1.222
						c4.229,0,8.301-2.336,10.322-6.376c2.85-5.696,0.541-12.623-5.154-15.472C29.768,13.147,28.008,12.754,26.273,12.754
						L26.273,12.754z"/>
				</g>
			</g>
		</g>
		<g>
			<g>
				<g>
					<path opacity="0.3" fill="#FFE30C" d="M11.525,35.75c-1.786,0-3.508-0.408-5.118-1.214c-2.736-1.369-4.777-3.722-5.744-6.625
						c-0.968-2.904-0.746-6.011,0.623-8.748c1.955-3.908,5.885-6.335,10.256-6.335c1.787,0,3.509,0.408,5.119,1.214
						c2.737,1.369,4.777,3.722,5.745,6.625c0.967,2.904,0.745,6.011-0.624,8.748C19.827,33.323,15.897,35.75,11.525,35.75z"/>
					<path fill="#FFE30C" d="M11.543,12.754v0.146c1.775,0,3.485,0.406,5.085,1.206c2.72,1.36,4.747,3.698,5.708,6.583
						c0.962,2.885,0.742,5.972-0.619,8.692c-1.942,3.883-5.848,6.295-10.191,6.295c-1.775,0-3.486-0.406-5.085-1.206
						c-2.72-1.36-4.747-3.698-5.708-6.583s-0.742-5.972,0.619-8.692c1.941-3.883,5.848-6.295,10.19-6.295L11.543,12.754
						 M11.542,12.754c-4.229,0-8.3,2.336-10.321,6.376c-2.85,5.696-0.541,12.623,5.154,15.472c1.656,0.829,3.416,1.222,5.15,1.222
						c4.229,0,8.301-2.336,10.322-6.376c2.85-5.696,0.542-12.623-5.154-15.472C15.037,13.147,13.276,12.754,11.542,12.754
						L11.542,12.754z"/>
				</g>
			</g>
		</g>
	</g>
</g>
<g id="Layer_4">
</g>
<g id="Layer_3">
</g>
<g id="Layer_5">
</g>
<g id="Annotations">
</g>
</svg>
